<svg width="72" height="72" viewBox="0 0 72 72" fill="none" xmlns="http://www.w3.org/2000/svg">
<rect x="1" y="1" width="70" height="70" rx="35" fill="#ECEAEC" stroke="#CDB383" stroke-width="2"/>
<rect x="3" y="3" width="66" height="66" rx="33" fill="#ECEAEC" stroke="white" stroke-width="2"/>
<mask id="mask0_877_4885" style="mask-type:alpha" maskUnits="userSpaceOnUse" x="2" y="2" width="68" height="68">
<rect x="3" y="3" width="66" height="66" rx="33" fill="#ECEAEC" stroke="white" stroke-width="2"/>
</mask>
<g mask="url(#mask0_877_4885)">
<path d="M14.2001 48.7275L14.3544 48.4587C16.0663 45.4766 16.9647 42.1214 16.9647 38.71V19.9842C16.9647 13.8489 23.4435 8.74743 31.9824 7.69805C31.9824 7.69805 34.128 7.67285 35.2398 7.67285C45.3328 7.67285 53.5149 14.4724 53.5149 21.3673V38.7101C53.5149 42.1216 54.4132 45.4767 56.1251 48.4588L56.2794 48.7276C57.9913 51.7098 58.8897 56.1052 58.8897 59.5167H11.5898C11.5898 56.1051 12.4882 51.7095 14.2001 48.7275Z" fill="#ECEAEC"/>
<path d="M53.5148 22.0645V19.9839C53.5148 13.0891 45.3327 7.5 35.2398 7.5C34.1375 7.5 33.0311 7.56992 31.9824 7.69766C40.5346 8.73974 47.0647 13.8422 47.0647 19.9838V22.0644L53.5148 22.0645ZM34.1648 22.0645H51.3648V38.7097C51.3648 42.4636 52.3611 46.184 54.2445 49.4685L54.4051 49.7438C55.5221 51.6924 56.3482 54.6021 56.6318 57.4354H34.1648V22.0645Z" fill="#DBD8DB"/>
<path d="M41.2064 48.3447H27.7188V50.6521L28.9341 52.8049H41.2064V48.3447Z" fill="#F4AA73"/>
<path d="M27.7188 43.9111V48.3448C29.9661 49.4952 32.5243 50.153 35.2437 50.153C36.5459 50.153 37.8083 50.0005 39.0187 49.7164C39.8344 49.525 40.6187 50.1261 40.6187 50.9384C40.6187 51.2368 40.6461 51.531 40.6981 51.8187L42.7687 50.6521V43.9111H27.7188Z" fill="#E29A6C"/>
<path d="M55.6873 57.7887L44.532 54.448L40.1627 50.6972C39.4597 50.9209 38.7438 51.1002 38.019 51.2339L37.1303 52.4702L35.9036 51.4922C35.5531 51.5135 35.1996 51.5242 34.8436 51.5242C32.1993 51.5242 29.6962 50.9288 27.4347 49.8857V50.1828C27.4347 50.6973 27.3142 51.2044 27.083 51.6619C26.8519 52.1194 26.5168 52.5142 26.1057 52.8134L26.3155 54.0432L23.3667 53.8201L14.0001 56.625C11.2974 57.4344 9.44141 59.96 9.44141 62.8284V68.767C9.44141 70.5526 10.8631 72.0001 12.6167 72.0001H35.9021L36.9842 71.1346L38.0189 72.0001H57.0706C57.4311 72.0005 57.7891 71.9383 58.129 71.8162L59.1986 68.767V63.9919C59.1986 61.1236 58.39 58.5982 55.6873 57.7887Z" fill="#DBD8DB"/>
<path d="M23.584 54.4503L25.4007 53.9333C25.7465 53.8351 26.0727 53.6814 26.3658 53.4786C29.0757 54.6736 32.0737 55.3551 35.2407 55.3551C35.6039 55.3551 35.9572 55.344 36.3157 55.3262L36.3173 52.2032C37.038 52.1619 37.7555 52.0786 38.466 51.9539L38.4658 55.1109C39.6477 54.9329 40.8028 54.6545 41.9138 54.2976C41.2152 53.494 40.7482 52.5128 40.6432 51.4357C41.3663 51.2161 42.0752 50.9545 42.7658 50.6523V50.9391C42.7658 51.9667 43.2849 52.903 44.1138 53.4772L43.9742 54.6794L46.8975 54.4503L56.4107 57.158C59.1557 57.9393 61.0408 60.3774 61.0408 63.1463V68.8792C61.0408 70.2361 60.1405 71.3926 58.8908 71.8226V63.1462C58.8908 61.3135 57.6216 59.6716 55.8044 59.1546L44.4728 55.93C44.3267 55.8883 44.1912 55.8273 44.0513 55.7744C42.258 56.4753 40.3819 56.9587 38.4658 57.2135V72.0001H36.3158V57.4056C35.959 57.4213 35.6017 57.4356 35.2409 57.4356C31.0039 57.4356 27.0271 56.3464 23.584 54.4503Z" fill="#C9C5C9"/>
<path d="M46.5752 23.105V34.5486C46.5752 42.0177 39.0262 43.9115 27.7156 43.9115L21.2656 34.5486V26.2259L23.9282 23.105H46.5752Z" fill="#FBBD80"/>
<path d="M21.2656 23.1051V26.2261H42.7656C43.9531 26.2261 44.9156 27.1577 44.9156 28.3067V36.6292L49.2156 34.5486V23.105L21.2656 23.1051Z" fill="#F4AA73"/>
<path d="M41.6926 33.5077C41.8338 33.5077 41.9736 33.4809 42.1041 33.4286C42.2345 33.3764 42.3531 33.2998 42.4529 33.2032C42.5527 33.1065 42.6319 32.9918 42.6859 32.8656C42.7399 32.7393 42.7677 32.604 42.7676 32.4674V31.427C42.7677 31.2904 42.7399 31.1551 42.6859 31.0288C42.6319 30.9026 42.5527 30.7879 42.4529 30.6912C42.3531 30.5946 42.2345 30.518 42.1041 30.4657C41.9736 30.4135 41.8338 30.3866 41.6926 30.3867C41.5514 30.3866 41.4116 30.4135 41.2811 30.4657C41.1506 30.518 41.0321 30.5946 40.9323 30.6912C40.8324 30.7879 40.7532 30.9026 40.6992 31.0288C40.6453 31.1551 40.6175 31.2904 40.6176 31.427V32.4674C40.6175 32.604 40.6453 32.7393 40.6993 32.8655C40.7533 32.9918 40.8325 33.1065 40.9323 33.2031C41.0321 33.2997 41.1507 33.3764 41.2811 33.4286C41.4116 33.4809 41.5514 33.5077 41.6926 33.5077ZM28.7927 33.5077C28.9339 33.5077 29.0737 33.4809 29.2041 33.4286C29.3346 33.3764 29.4531 33.2998 29.553 33.2032C29.6528 33.1065 29.732 32.9918 29.786 32.8656C29.84 32.7393 29.8677 32.604 29.8677 32.4674V31.427C29.8677 30.852 29.3868 30.3867 28.7927 30.3867C28.1985 30.3867 27.7177 30.8521 27.7177 31.427V32.4674C27.7176 32.604 27.7453 32.7393 27.7993 32.8656C27.8533 32.9918 27.9325 33.1065 28.0323 33.2032C28.1322 33.2998 28.2507 33.3764 28.3812 33.4286C28.5116 33.4809 28.6515 33.5077 28.7927 33.5077ZM44.9177 36.6286C44.9177 37.7776 43.955 38.7092 42.7677 38.7092C41.0917 38.7092 40.4787 37.3934 39.6867 36.6287C38.9451 35.9129 37.8897 35.5882 36.8422 35.5882H33.643C32.5956 35.5882 31.5402 35.9128 30.7985 36.6287C30.0066 37.3934 29.3936 38.7092 27.7175 38.7092C26.5301 38.7092 25.5676 37.7776 25.5676 36.6286C25.5676 35.4795 24.6049 34.548 23.4176 34.548H21.2676C21.2676 41.664 26.9468 47.4965 34.1581 48.032C34.1581 48.032 34.8776 48.0232 35.2426 48.0232C42.9608 48.0232 47.3831 40.0952 47.3831 35.7037L44.9177 36.6286ZM37.801 40.3287C37.0419 40.6304 36.158 40.7899 35.2426 40.7899C34.3272 40.7899 33.4432 40.6304 32.6843 40.3287C32.1352 40.1102 31.8728 39.5026 32.0985 38.9714C32.3232 38.439 32.9552 38.1881 33.501 38.4045C34.5045 38.8027 35.9806 38.8027 36.9842 38.4045C37.5302 38.1851 38.1622 38.439 38.3868 38.9714C38.6125 39.5026 38.3501 40.1102 37.801 40.3287Z" fill="#615260"/>
<path d="M40.6136 29.3467H42.7636C42.9048 29.3468 43.0446 29.32 43.1751 29.2677C43.3055 29.2155 43.4241 29.1388 43.5239 29.0422C43.6237 28.9456 43.7029 28.8309 43.7569 28.7046C43.8109 28.5784 43.8387 28.4431 43.8386 28.3064C43.8386 28.1698 43.8108 28.0345 43.7568 27.9083C43.7028 27.782 43.6236 27.6673 43.5238 27.5707C43.424 27.4741 43.3054 27.3975 43.175 27.3452C43.0446 27.293 42.9048 27.2661 42.7636 27.2661H40.6136C40.4724 27.2661 40.3326 27.293 40.2022 27.3452C40.0717 27.3975 39.9532 27.4741 39.8534 27.5707C39.7535 27.6673 39.6744 27.782 39.6204 27.9083C39.5663 28.0345 39.5386 28.1698 39.5386 28.3064C39.5385 28.4431 39.5663 28.5784 39.6202 28.7046C39.6742 28.8309 39.7534 28.9456 39.8533 29.0422C39.9531 29.1388 40.0716 29.2155 40.2021 29.2677C40.3326 29.32 40.4724 29.3468 40.6136 29.3467ZM27.7137 29.3467H29.8637C30.0048 29.3468 30.1447 29.32 30.2751 29.2677C30.4056 29.2155 30.5241 29.1388 30.624 29.0422C30.7238 28.9456 30.803 28.8309 30.857 28.7046C30.911 28.5784 30.9387 28.4431 30.9386 28.3064C30.9387 28.1698 30.9109 28.0345 30.8569 27.9083C30.8029 27.782 30.7237 27.6673 30.6239 27.5707C30.524 27.4741 30.4055 27.3975 30.2751 27.3452C30.1446 27.293 30.0048 27.2661 29.8637 27.2661H27.7137C27.5725 27.2661 27.4327 27.293 27.3022 27.3452C27.1718 27.3975 27.0533 27.4741 26.9535 27.5707C26.8536 27.6673 26.7744 27.782 26.7204 27.9083C26.6664 28.0345 26.6386 28.1698 26.6387 28.3064C26.6386 28.4431 26.6663 28.5784 26.7203 28.7046C26.7743 28.8309 26.8535 28.9456 26.9533 29.0422C27.0532 29.1388 27.1717 29.2155 27.3022 29.2677C27.4326 29.32 27.5725 29.3468 27.7137 29.3467Z" fill="#4E3D4D"/>
<path d="M47.0645 19.9834H16.9644C15.7771 19.9834 14.8145 20.9149 14.8145 22.064L16.9644 23.2269H48.3555L47.0645 19.9834Z" fill="#615260"/>
<path d="M47.0645 34.5479H49.2145C49.2145 42.0171 42.9576 48.0722 35.2395 48.0722C34.8767 48.0722 34.5109 48.0583 34.155 48.032C40.1809 47.5054 44.9144 42.5972 44.9144 36.6286C44.9145 35.4794 45.877 34.5479 47.0645 34.5479ZM47.0645 19.9834H53.5145C54.7018 19.9834 55.6645 20.9149 55.6645 22.064C55.6645 23.2131 54.7018 24.1447 53.5145 24.1447H16.9644C15.7771 24.1447 14.8145 23.2131 14.8145 22.064H44.9145C46.1019 22.064 47.0645 21.1324 47.0645 19.9834Z" fill="#4E3D4D"/>
<path d="M44.1145 53.4771C44.4083 53.6803 44.7351 53.8344 45.0815 53.9331L46.8983 54.4501C45.9874 54.9517 45.0372 55.3925 44.0567 55.776C43.2173 55.4589 42.4883 54.9529 41.9236 54.3069C42.6688 54.0685 43.4001 53.7915 44.1145 53.4771ZM38.4664 57.2131C37.7531 57.3089 37.0357 57.373 36.3164 57.4053V55.3258C37.0364 55.2895 37.754 55.2177 38.4664 55.1105V57.2131Z" fill="#B8B2B8"/>
<path d="M33.0926 61.5967C33.6863 61.5967 34.1676 61.131 34.1676 60.5564C34.1676 59.9819 33.6863 59.5161 33.0926 59.5161C32.4989 59.5161 32.0176 59.9819 32.0176 60.5564C32.0176 61.131 32.4989 61.5967 33.0926 61.5967Z" fill="#ECEAEC"/>
<path d="M33.0926 69.9195C33.6863 69.9195 34.1676 69.4537 34.1676 68.8792C34.1676 68.3046 33.6863 67.8389 33.0926 67.8389C32.4989 67.8389 32.0176 68.3046 32.0176 68.8792C32.0176 69.4537 32.4989 69.9195 33.0926 69.9195Z" fill="#ECEAEC"/>
</g>
</svg>
