<svg width="60" height="20" viewBox="0 0 60 20" fill="none" xmlns="http://www.w3.org/2000/svg">
<rect width="60" height="20" rx="10" fill="#9F7834"/>
<path d="M30.4688 13.7344V15H25.9336V13.7344H30.4688ZM26.4258 6.46875V15H24.8145V6.46875H26.4258ZM29.877 9.99023V11.2266H25.9336V9.99023H29.877ZM30.4512 6.46875V7.74023H25.9336V6.46875H30.4512ZM34.1367 15H32.2969L32.3086 13.7344H34.1367C34.6328 13.7344 35.0488 13.625 35.3848 13.4062C35.7207 13.1836 35.9746 12.8652 36.1465 12.4512C36.3184 12.0332 36.4043 11.5332 36.4043 10.9512V10.5117C36.4043 10.0625 36.3555 9.66602 36.2578 9.32227C36.1602 8.97852 36.0156 8.68945 35.8242 8.45508C35.6367 8.2207 35.4043 8.04297 35.127 7.92188C34.8496 7.80078 34.5312 7.74023 34.1719 7.74023H32.2617V6.46875H34.1719C34.7422 6.46875 35.2617 6.56445 35.7305 6.75586C36.2031 6.94727 36.6113 7.22266 36.9551 7.58203C37.3027 7.9375 37.5684 8.36328 37.752 8.85938C37.9395 9.35547 38.0332 9.91016 38.0332 10.5234V10.9512C38.0332 11.5605 37.9395 12.1152 37.752 12.6152C37.5684 13.1113 37.3027 13.5371 36.9551 13.8926C36.6113 14.248 36.2012 14.5215 35.7246 14.7129C35.248 14.9043 34.7188 15 34.1367 15ZM33.1992 6.46875V15H31.5879V6.46875H33.1992ZM41.1211 6.46875V15H39.5098V6.46875H41.1211ZM46.3477 6.46875V15H44.7422V6.46875H46.3477ZM48.9961 6.46875V7.74023H42.123V6.46875H48.9961Z" fill="white"/>
<path d="M19.6075 8.28101C19.8594 8.02908 20 7.69317 20 7.33577C20 6.97837 19.8613 6.64246 19.6075 6.39053L18.6114 5.3945C18.3575 5.13866 18.0216 5 17.6642 5C17.3068 5 16.9709 5.13866 16.719 5.39255L10.5065 11.605C10.1589 11.9526 9.97533 12.4311 10.0027 12.9213L10.0007 14.511C10.0007 14.6399 10.0515 14.7649 10.1433 14.8567C10.2351 14.9485 10.3581 14.9993 10.489 14.9993L12.0787 14.9973C12.5689 15.0247 13.0474 14.8411 13.395 14.4935C13.5864 14.3021 13.5864 13.9935 13.395 13.8021C13.2036 13.6107 12.895 13.6107 12.7036 13.8021C12.5513 13.9544 12.3384 14.0345 12.1236 14.0208C12.1138 14.0208 12.1021 14.0189 12.0924 14.0189L10.9772 14.0228L10.9792 12.9076C10.9792 12.8979 10.9792 12.8862 10.9772 12.8764C10.9635 12.6616 11.0436 12.4487 11.1959 12.2964L16.3733 7.11899L17.881 8.62669L13.9907 12.517C13.7993 12.7084 13.7993 13.017 13.9907 13.2084C14.1821 13.3998 14.4906 13.3998 14.682 13.2084L19.6075 8.28101ZM17.0647 6.42763L17.4103 6.08195C17.4787 6.0136 17.5685 5.97649 17.6662 5.97649C17.7619 5.97649 17.8537 6.0136 17.922 6.08195L18.918 7.07798C19.0587 7.21859 19.0587 7.44904 18.918 7.58966L18.5724 7.93534L17.0647 6.42763ZM19.5118 14.0228H15.1078C14.8383 14.0228 14.6195 14.2415 14.6195 14.511C14.6195 14.7805 14.8383 14.9993 15.1078 14.9993H19.5118C19.7813 14.9993 20 14.7805 20 14.511C20 14.2415 19.7813 14.0228 19.5118 14.0228Z" fill="white"/>
</svg>
