<svg width="10" height="10" viewBox="0 0 10 10" fill="none" xmlns="http://www.w3.org/2000/svg">
<path d="M9.60745 3.28101C9.85939 3.02908 10 2.69317 10 2.33577C10 1.97837 9.86134 1.64246 9.60745 1.39053L8.61143 0.394503C8.35754 0.138662 8.02163 0 7.66423 0C7.30683 0 6.97092 0.138662 6.71899 0.39255L0.506541 6.605C0.15891 6.95263 -0.0246707 7.43111 0.00267113 7.92131L0.000718147 9.51104C0.000718147 9.63993 0.0514958 9.76493 0.143286 9.85672C0.235076 9.94851 0.358114 9.99928 0.488964 9.99928L2.07869 9.99733C2.56889 10.0247 3.04737 9.84109 3.39501 9.49346C3.5864 9.30207 3.5864 8.9935 3.39501 8.8021C3.20361 8.61071 2.89504 8.61071 2.70365 8.8021C2.55132 8.95444 2.33844 9.03451 2.12361 9.02084C2.11385 9.02084 2.10213 9.01888 2.09237 9.01888L0.977211 9.02279L0.979164 7.90764C0.979164 7.89787 0.979164 7.88615 0.977211 7.87639C0.96354 7.66156 1.04361 7.44868 1.19594 7.29635L6.37331 2.11899L7.88101 3.62669L3.99067 7.51704C3.79927 7.70843 3.79927 8.017 3.99067 8.2084C4.18206 8.39979 4.49063 8.39979 4.68202 8.2084L9.60745 3.28101ZM7.06466 1.42763L7.41034 1.08195C7.4787 1.0136 7.56853 0.976492 7.66618 0.976492C7.76188 0.976492 7.85367 1.0136 7.92203 1.08195L8.91805 2.07798C9.05866 2.21859 9.05866 2.44904 8.91805 2.58966L8.57237 2.93534L7.06466 1.42763ZM9.51175 9.02279H5.10777C4.83826 9.02279 4.61953 9.24152 4.61953 9.51104C4.61953 9.78055 4.83826 9.99928 5.10777 9.99928H9.51175C9.78127 9.99928 10 9.78055 10 9.51104C10 9.24152 9.78127 9.02279 9.51175 9.02279Z" fill="white"/>
</svg>
