<svg width="20" height="15" viewBox="0 0 20 15" fill="none" xmlns="http://www.w3.org/2000/svg">
<path d="M19.8238 1.00473L13.7582 7.03125L19.8238 13.0578C19.9335 12.8286 20 12.5752 20 12.3047V1.75781C20 1.48723 19.9335 1.23391 19.8238 1.00473ZM18.2422 0H1.75781C1.48723 0 1.23391 0.0665235 1.00473 0.176172L8.75719 7.88957C9.44266 8.57504 10.5573 8.57504 11.2428 7.88957L18.9953 0.176172C18.7661 0.0665235 18.5128 0 18.2422 0ZM0.176172 1.00473C0.0665234 1.23391 0 1.48723 0 1.75781V12.3047C0 12.5753 0.0665234 12.8286 0.176172 13.0578L6.24176 7.03125L0.176172 1.00473Z" fill="white"/>
<path d="M12.9289 7.85938L12.0705 8.71769C10.9284 9.85984 9.06992 9.85984 7.92777 8.71769L7.06949 7.85938L1.00391 13.8859C1.23309 13.9955 1.48641 14.0621 1.75699 14.0621H18.2414C18.512 14.0621 18.7653 13.9955 18.9945 13.8859L12.9289 7.85938Z" fill="white"/>
</svg>
