<svg width="20" height="20" viewBox="0 0 20 20" fill="none" xmlns="http://www.w3.org/2000/svg">
<path fill-rule="evenodd" clip-rule="evenodd" d="M10 0C15.5228 0 20 4.47715 20 10C20 15.5228 15.5228 20 10 20C4.47715 20 0 15.5228 0 10C0 4.47715 4.47715 0 10 0ZM13.642 11.4057L15.1175 12.6322C16.2691 13.9547 13.1382 18.0785 7.61562 12.5535L7.53181 12.4693L7.44801 12.3859C1.92305 6.85909 6.04782 3.73009 7.36938 4.88169L8.59349 6.35721C9.519 7.28272 7.48418 8.91844 7.40738 8.98018C7.406 8.98129 7.40525 8.98189 7.40516 8.98197C7.27475 9.11286 8.1142 10.1651 8.97437 11.0248C9.83454 11.8845 10.8863 12.7244 11.0172 12.594C11.0173 12.5939 11.0183 12.5927 11.0201 12.5905C11.0971 12.4952 12.7216 10.4853 13.642 11.4057Z" fill="white"/>
</svg>
