<svg width="20" height="16" viewBox="0 0 20 16" fill="none" xmlns="http://www.w3.org/2000/svg">
<path d="M19 10H18V3C18 1.346 16.654 0 15 0H5C3.346 0 2 1.346 2 3V10H1C0.734784 10 0.48043 10.1054 0.292893 10.2929C0.105357 10.4804 0 10.7348 0 11V13C0 14.654 1.346 16 3 16H17C18.654 16 20 14.654 20 13V11C20 10.7348 19.8946 10.4804 19.7071 10.2929C19.5196 10.1054 19.2652 10 19 10ZM4 3C4 2.449 4.449 2 5 2H15C15.551 2 16 2.449 16 3V10H4V3ZM18 13C18 13.551 17.551 14 17 14H3C2.449 14 2 13.551 2 13V12H8V12.5C8 12.6326 8.05268 12.7598 8.14645 12.8536C8.24021 12.9473 8.36739 13 8.5 13H11.5C11.6326 13 11.7598 12.9473 11.8536 12.8536C11.9473 12.7598 12 12.6326 12 12.5V12H18V13Z" fill="#CDB383"/>
</svg>
