<svg width="20" height="20" viewBox="0 0 50 50" fill="none" xmlns="http://www.w3.org/2000/svg">
<path d="M49.9523 49.0077L42.6281 29.7137C42.5672 29.5535 42.4522 29.4197 42.3029 29.3355L34.5015 24.9404L36.7791 21.3291C38.177 19.1109 38.9159 16.5475 38.9159 13.9161C38.9159 6.2427 32.6732 0 24.9999 0C17.3265 0 11.0838 6.2427 11.0838 13.9161C11.0838 16.5482 11.8231 19.1117 13.2217 21.3293L15.4988 24.9406L7.69708 29.3355C7.54773 29.4196 7.43262 29.5534 7.37178 29.7137L0.0475386 49.0077C-0.00578028 49.1484 -0.0144817 49.3021 0.022617 49.4479C0.0597158 49.5937 0.140815 49.7246 0.254893 49.8227C0.36897 49.9208 0.510492 49.9815 0.660224 49.9963C0.809956 50.0112 0.960634 49.9796 1.09178 49.9058L12.866 43.2724L24.6403 49.9058C24.75 49.9676 24.8739 50.0001 24.9998 50.0001C25.1258 50.0001 25.2496 49.9676 25.3593 49.9058L37.1336 43.2724L48.9079 49.9058C49.039 49.9798 49.1897 50.0115 49.3395 49.9967C49.4893 49.9819 49.631 49.9213 49.7451 49.8231C49.8592 49.725 49.9404 49.594 49.9774 49.4481C50.0145 49.3022 50.0057 49.1484 49.9523 49.0077ZM25.7324 37.9602C26.1982 37.7956 26.5947 37.4784 26.8575 37.0601C26.8947 37.0015 33.1299 27.1153 33.1299 27.1153L36.3056 42.0576L25.7324 48.0142V37.9602ZM14.4608 20.5477C13.2099 18.5643 12.5488 16.2711 12.5488 13.916C12.5488 7.05032 18.1343 1.46475 25 1.46475C31.8656 1.46475 37.4512 7.05032 37.4512 13.916C37.4512 16.2707 36.7902 18.564 35.5401 20.5477C35.4424 20.7027 25.7918 36.0067 25.6234 36.271C25.6218 36.2733 25.6205 36.2756 25.619 36.2779C25.4832 36.4927 25.2518 36.6211 25 36.6211C24.7479 36.6211 24.5155 36.4921 24.3795 36.2782C24.2816 36.1231 14.6117 20.7888 14.4641 20.5531L14.4608 20.5477ZM8.64708 30.4815L15.4748 26.6351L14.2854 32.2313C14.2626 32.3381 14.2641 32.4486 14.2896 32.5548C14.315 32.6609 14.3639 32.7601 14.4327 32.8449C14.5014 32.9297 14.5883 32.9981 14.6869 33.0451C14.7854 33.092 14.8933 33.1163 15.0025 33.1162C15.1701 33.116 15.3327 33.0582 15.4629 32.9526C15.5931 32.847 15.6832 32.7 15.7181 32.5359L16.8702 27.1158L23.1418 37.062C23.4056 37.4792 23.802 37.7955 24.2673 37.9601V48.0144L13.6944 42.0577L15.1091 35.4015C15.1291 35.3074 15.1304 35.2103 15.1129 35.1157C15.0954 35.0212 15.0594 34.931 15.007 34.8503C14.9546 34.7696 14.8869 34.7 14.8076 34.6456C14.7283 34.5911 14.6391 34.5527 14.545 34.5327C14.451 34.5127 14.3538 34.5113 14.2592 34.5288C14.1646 34.5463 14.0744 34.5823 13.9937 34.6347C13.9131 34.6871 13.8435 34.7548 13.789 34.8341C13.7345 34.9134 13.6962 35.0027 13.6763 35.0968L12.2184 41.9558L2.13475 47.6369L8.64708 30.4815ZM37.7815 41.9559L34.5253 26.6351L41.3528 30.4815L47.8652 47.6369L37.7815 41.9559Z" fill="#CDB383"/>
<path d="M33.0567 13.9161C33.0567 9.47365 29.4425 5.85938 25 5.85938C20.5576 5.85938 16.9434 9.47365 16.9434 13.9161C16.9434 18.3585 20.5576 21.9727 25 21.9727C29.4425 21.9727 33.0567 18.3585 33.0567 13.9161ZM18.4082 13.9161C18.4082 10.2813 21.3653 7.32423 25 7.32423C28.6348 7.32423 31.5919 10.2813 31.5919 13.9161C31.5919 17.5508 28.6348 20.5079 25 20.5079C21.3653 20.5079 18.4082 17.5508 18.4082 13.9161Z" fill="#CDB383"/>
<path d="M30.127 13.916C30.127 11.0891 27.827 8.78906 25 8.78906C22.1731 8.78906 19.873 11.0891 19.873 13.916C19.873 16.743 22.1731 19.043 25 19.043C27.827 19.043 30.127 16.743 30.127 13.916ZM21.3379 13.916C21.3379 11.8967 22.9807 10.2539 25 10.2539C27.0194 10.2539 28.6622 11.8967 28.6622 13.916C28.6622 15.9354 27.0194 17.5782 25 17.5782C22.9807 17.5782 21.3379 15.9354 21.3379 13.916Z" fill="#CDB383"/>
</svg>
