<svg width="19" height="20" viewBox="0 0 19 20" fill="none" xmlns="http://www.w3.org/2000/svg">
<path d="M0.695519 0.0581143L18.0244 9.58888C18.0979 9.6294 18.1593 9.68892 18.202 9.76123C18.2448 9.83354 18.2673 9.916 18.2673 10C18.2673 10.084 18.2448 10.1665 18.202 10.2388C18.1593 10.3111 18.0979 10.3706 18.0244 10.4111L0.695519 19.9419C0.624065 19.9812 0.543601 20.0012 0.462058 19.9999C0.380516 19.9987 0.300709 19.9762 0.230504 19.9347C0.160299 19.8932 0.102119 19.8341 0.0616989 19.7633C0.0212789 19.6925 1.39625e-05 19.6123 0 19.5308V0.469231C1.39625e-05 0.387678 0.0212789 0.307537 0.0616989 0.236706C0.102119 0.165875 0.160299 0.106799 0.230504 0.0653014C0.300709 0.0238036 0.380516 0.00131634 0.462058 5.6056e-05C0.543601 -0.00120423 0.624065 0.018806 0.695519 0.0581143ZM1.87724 10.9386V17.1495L14.8772 10L1.87724 2.85052V9.06138H6.57036V10.9386H1.87724Z" fill="#CDB383"/>
</svg>
