<svg width="22" height="22" viewBox="0 0 22 22" fill="none" xmlns="http://www.w3.org/2000/svg">
<path d="M18.0576 12.8831L18.1915 12.8322L21.1212 20.5498C21.1535 20.635 21.1588 20.728 21.1364 20.8162C21.1139 20.9044 21.0649 20.9836 20.9959 21.0429C20.9959 21.043 20.9958 21.043 20.9958 21.043L20.898 20.9292C20.8524 20.9685 20.7957 20.9928 20.7358 20.9987C20.6759 21.0046 20.6156 20.9919 20.5631 20.9623L18.0576 12.8831ZM18.0576 12.8831L18.1915 12.8322C18.1547 12.7353 18.0851 12.6544 17.9948 12.6035L17.9232 12.7305L17.9948 12.6035L15.0116 10.9229L15.8385 9.61165L15.8385 9.6116C16.4128 8.7003 16.7164 7.6472 16.7164 6.56643C16.7164 3.41424 14.1521 0.85 10.9999 0.85C7.84776 0.85 5.28352 3.41424 5.28352 6.56643C5.28352 7.64748 5.58718 8.70064 6.16181 9.61173L6.98855 10.9229L4.00524 12.6035C4.00523 12.6035 4.00522 12.6035 4.00521 12.6035C3.91489 12.6544 3.84527 12.7353 3.80848 12.8322L3.80848 12.8322L0.87878 20.5498L0.878749 20.5499C0.846504 20.635 0.841242 20.728 0.863678 20.8162C0.886113 20.9043 0.935157 20.9835 1.00414 21.0428C1.07313 21.1021 1.15872 21.1388 1.24927 21.1478C1.33982 21.1568 1.43094 21.1377 1.51025 21.0931L1.51034 21.093L6.14642 18.4811L10.7825 21.093L10.7825 21.093C10.8489 21.1304 10.9238 21.15 10.9999 21.15C11.0761 21.15 11.151 21.1304 11.2173 21.093L11.2174 21.093L15.8534 18.4811L20.4895 21.093M18.0576 12.8831L20.4895 21.093M20.4895 21.093C20.4895 21.093 20.4895 21.093 20.4895 21.093L20.4895 21.093ZM7.81805 12.2385L7.43396 14.0456L7.43396 14.0456C7.41286 14.1448 7.35839 14.2337 7.27963 14.2976C7.20088 14.3614 7.1026 14.3963 7.00121 14.3965H7.00114C6.9351 14.3966 6.86988 14.3819 6.81026 14.3535C6.75063 14.3251 6.69811 14.2837 6.65653 14.2324C6.61496 14.1811 6.58538 14.1211 6.56996 14.0569C6.55455 13.9927 6.55369 13.9259 6.56744 13.8613M7.81805 12.2385L7.14836 11.8496L6.97415 11.9478M7.81805 12.2385L10.1298 15.9048L10.1299 15.905C10.2341 16.0697 10.3824 16.2008 10.5569 16.2841L7.81805 12.2385ZM6.56744 13.8613L6.71415 13.8925L6.56743 13.8613L6.56744 13.8613ZM6.56744 13.8613L6.97415 11.9478M6.97415 11.9478L4.57979 13.2966M6.97415 11.9478L7.01572 11.7522L4.57979 13.2966M4.57979 13.2966L2.14113 19.7208L5.75471 17.6849L6.32378 15.0076C6.32378 15.0076 6.32379 15.0076 6.3238 15.0075C6.33587 14.9506 6.35903 14.8967 6.39197 14.8487C6.42492 14.8008 6.467 14.7598 6.51581 14.7281C6.56462 14.6964 6.6192 14.6746 6.67643 14.664C6.73365 14.6534 6.7924 14.6543 6.84932 14.6664M4.57979 13.2966L6.81802 14.8131M6.84932 14.6664L6.81802 14.8131M6.84932 14.6664C6.84929 14.6664 6.84925 14.6664 6.84922 14.6664L6.81802 14.8131M6.84932 14.6664C6.90618 14.6785 6.9601 14.7017 7.00802 14.7346C7.05595 14.7676 7.09693 14.8096 7.12861 14.8584C7.16029 14.9072 7.18205 14.9618 7.19264 15.019C7.20324 15.0762 7.20246 15.1349 7.19036 15.1918M6.81802 14.8131C6.85565 14.8211 6.89134 14.8364 6.92304 14.8582C6.95475 14.88 6.98185 14.9078 7.0028 14.9401C7.02375 14.9724 7.03815 15.0085 7.04515 15.0463C7.05216 15.0841 7.05165 15.123 7.04364 15.1606M7.19036 15.1918L7.19037 15.1918L7.04364 15.1606M7.19036 15.1918L6.90742 16.523L6.64738 17.7465M7.19036 15.1918L7.04364 15.1606M7.04364 15.1606L6.64738 17.7465M6.64738 17.7465L6.55137 17.6924L6.47774 17.8231L6.62447 17.8543L6.64738 17.7465ZM14.182 12.2383L15.3526 17.7464L11.443 19.949V16.2841C11.6178 16.2007 11.7662 16.0691 11.87 15.9038L13.1299 13.9063L13.9889 12.5444L14.182 12.2383ZM6.91191 9.14022L6.91118 9.13907C6.42601 8.36978 6.1695 7.48027 6.1695 6.56639C6.1695 3.90297 8.33657 1.7359 11 1.7359C13.6634 1.7359 15.8305 3.90297 15.8305 6.56639C15.8305 7.48006 15.574 8.36965 15.0892 9.13907C15.0892 9.13908 15.0892 9.1391 15.0892 9.13912L14.9638 9.33789C14.2951 10.3983 11.183 15.3333 11.1228 15.4278L11.1214 15.43L11.1208 15.431C11.0936 15.474 11.0486 15.4984 11 15.4984C10.9512 15.4984 10.9056 15.4737 10.8783 15.4308L10.8544 15.3928C10.5237 14.8684 6.96921 9.23174 6.91276 9.14162L6.91191 9.14022ZM10.7069 20.0336V20.2058L10.5569 20.1213V19.9491L10.7069 20.0336ZM2.058 19.9398L1.8539 20.0548L1.93704 19.8357L2.058 19.9398ZM19.8588 19.7208L16.2452 17.6849L15.0259 11.9478L17.4201 13.2966L19.8588 19.7208Z" fill="#CDB383" stroke="#CDB383" stroke-width="0.3"/>
<path d="M14.3727 6.56642C14.3727 4.70662 12.8598 3.19375 11 3.19375C9.14021 3.19375 7.62734 4.70662 7.62734 6.56642C7.62734 8.42623 9.14021 9.9391 11 9.9391C12.8598 9.9391 14.3727 8.42623 14.3727 6.56642ZM8.51328 6.56642C8.51328 5.19535 9.62895 4.07969 11 4.07969C12.3711 4.07969 13.4868 5.19535 13.4868 6.56642C13.4868 7.9375 12.3711 9.05316 11 9.05316C9.62895 9.05316 8.51328 7.9375 8.51328 6.56642Z" fill="#CDB383" stroke="#CDB383" stroke-width="0.3"/>
<path d="M13.2008 6.56642C13.2008 5.35279 12.2136 4.36562 11 4.36562C9.78638 4.36562 8.79922 5.35279 8.79922 6.56642C8.79922 7.78005 9.78638 8.76721 11 8.76721C12.2136 8.76721 13.2008 7.78005 13.2008 6.56642ZM9.68516 6.56642C9.68516 5.84152 10.2751 5.25157 11 5.25157C11.7249 5.25157 12.3149 5.84152 12.3149 6.56642C12.3149 7.29131 11.7249 7.88127 11 7.88127C10.2751 7.88127 9.68516 7.29131 9.68516 6.56642Z" fill="#CDB383" stroke="#CDB383" stroke-width="0.3"/>
</svg>
