<svg width="10" height="10" viewBox="0 0 10 10" fill="none" xmlns="http://www.w3.org/2000/svg">
<path d="M8.46154 0.769231H7.30769V0.384615C7.30769 0.282609 7.26717 0.184781 7.19504 0.112651C7.12291 0.0405218 7.02508 0 6.92308 0C6.82107 0 6.72324 0.0405218 6.65111 0.112651C6.57898 0.184781 6.53846 0.282609 6.53846 0.384615V0.769231H2.69231V0.384615C2.69231 0.282609 2.65179 0.184781 2.57966 0.112651C2.50753 0.0405218 2.4097 0 2.30769 0C2.20569 0 2.10786 0.0405218 2.03573 0.112651C1.9636 0.184781 1.92308 0.282609 1.92308 0.384615V0.769231H0.769231C0.565218 0.769231 0.369561 0.850274 0.225302 0.994533C0.0810437 1.13879 0 1.33445 0 1.53846V9.23077C0 9.43478 0.0810437 9.63044 0.225302 9.7747C0.369561 9.91896 0.565218 10 0.769231 10H8.46154C8.66555 10 8.86121 9.91896 9.00547 9.7747C9.14973 9.63044 9.23077 9.43478 9.23077 9.23077V1.53846C9.23077 1.33445 9.14973 1.13879 9.00547 0.994533C8.86121 0.850274 8.66555 0.769231 8.46154 0.769231ZM6.61038 5.66346L4.36539 7.77885C4.33046 7.81309 4.28909 7.84007 4.24367 7.85823C4.19825 7.87638 4.14968 7.88535 4.10077 7.88462C4.00231 7.88496 3.90757 7.84704 3.83654 7.77885L2.62 6.625C2.58149 6.59074 2.55026 6.54908 2.52816 6.50251C2.50607 6.45593 2.49356 6.4054 2.49138 6.35389C2.48921 6.30239 2.49741 6.25098 2.51549 6.20271C2.53358 6.15443 2.56118 6.11029 2.59667 6.0729C2.63215 6.03551 2.67479 6.00563 2.72205 5.98504C2.7693 5.96446 2.82022 5.95358 2.87176 5.95306C2.92331 5.95254 2.97443 5.96238 3.0221 5.98201C3.06976 6.00163 3.113 6.03064 3.14923 6.06731L4.10077 6.97115L6.08154 5.10577C6.11787 5.07048 6.16089 5.0428 6.20807 5.02438C6.25525 5.00595 6.30563 4.99714 6.35627 4.99846C6.4069 4.99979 6.45675 5.01122 6.5029 5.0321C6.54905 5.05297 6.59057 5.08285 6.625 5.12C6.69508 5.19403 6.73291 5.29285 6.73017 5.39476C6.72743 5.49666 6.68434 5.59331 6.61038 5.66346ZM8.46154 3.07692H0.769231V1.53846H1.92308V1.92308C1.92308 2.02508 1.9636 2.12291 2.03573 2.19504C2.10786 2.26717 2.20569 2.30769 2.30769 2.30769C2.4097 2.30769 2.50753 2.26717 2.57966 2.19504C2.65179 2.12291 2.69231 2.02508 2.69231 1.92308V1.53846H6.53846V1.92308C6.53846 2.02508 6.57898 2.12291 6.65111 2.19504C6.72324 2.26717 6.82107 2.30769 6.92308 2.30769C7.02508 2.30769 7.12291 2.26717 7.19504 2.19504C7.26717 2.12291 7.30769 2.02508 7.30769 1.92308V1.53846H8.46154V3.07692Z" fill="#747D85"/>
</svg>
