<svg width="18" height="20" viewBox="0 0 18 20" fill="none" xmlns="http://www.w3.org/2000/svg">
<path d="M4 4V0.999999C4 0.734783 4.10535 0.480429 4.29289 0.292893C4.48043 0.105357 4.73478 0 5 0H17C17.2652 0 17.5196 0.105357 17.7071 0.292893C17.8946 0.480429 18 0.734783 18 0.999999V15C18 15.2652 17.8946 15.5196 17.7071 15.7071C17.5196 15.8946 17.2652 16 17 16H14V19C14 19.552 13.55 20 12.993 20H1.007C0.875126 20.0008 0.744397 19.9755 0.622322 19.9256C0.500247 19.8757 0.389233 19.8022 0.295658 19.7093C0.202084 19.6164 0.127793 19.5059 0.0770542 19.3841C0.0263156 19.2624 0.000129374 19.1319 0 19L0.00300002 5C0.00300002 4.448 0.453 4 1.01 4H4ZM2.003 6L2 18H12V6H2.003ZM6 4H14V14H16V2H6V4Z" fill="#CDB383"/>
</svg>
