<svg width="17" height="17" viewBox="0 0 17 17" fill="none" xmlns="http://www.w3.org/2000/svg">
<path fill-rule="evenodd" clip-rule="evenodd" d="M8.31111 0C3.72101 0 0 3.72101 0 8.31111C0 12.9012 3.72101 16.6222 8.31111 16.6222C12.9012 16.6222 16.6222 12.9012 16.6222 8.31111C16.6222 3.72101 12.9012 0 8.31111 0ZM8.31111 15.4889C4.34693 15.4889 1.13333 12.2753 1.13333 8.31111C1.13333 4.34693 4.34693 1.13333 8.31111 1.13333C12.2753 1.13333 15.4889 4.34693 15.4889 8.31111C15.4889 10.2148 14.7327 12.0405 13.3866 13.3866C12.0405 14.7327 10.2148 15.4889 8.31111 15.4889Z" fill="#093B59"/>
<path fill-rule="evenodd" clip-rule="evenodd" d="M7.61606 4.86577C7.39279 4.65772 7.04486 4.66386 6.82906 4.87966C6.61326 5.09545 6.60712 5.44339 6.81517 5.66666L9.35384 8.20533L6.81517 10.744C6.60712 10.9673 6.61326 11.3152 6.82906 11.531C7.04486 11.7468 7.39279 11.7529 7.61606 11.5449L10.9556 8.20533L10.1547 7.40444L7.61606 4.86577Z" fill="#093B59"/>
</svg>
