<svg width="22" height="22" viewBox="0 0 22 22" fill="none" xmlns="http://www.w3.org/2000/svg">
<path d="M20.6361 9.52075L20.6362 9.52072L12.4778 1.36273C12.4778 1.36271 12.4778 1.36269 12.4778 1.36267C12.0831 0.967809 11.5572 0.75 10.9991 0.75C10.441 0.75 9.91508 0.967825 9.52031 1.36263C9.5203 1.36264 9.5203 1.36264 9.5203 1.36265L1.36613 9.51658L1.36567 9.51704C1.36374 9.51897 1.35964 9.52306 1.3551 9.52782C0.546177 10.3439 0.548322 11.6653 1.36144 12.4785C1.73158 12.8488 2.22053 13.064 2.74272 13.0881C2.76746 13.0903 2.79212 13.0914 2.81673 13.0914H2.89173V18.8451C2.89173 20.1714 3.97048 21.25 5.29673 21.25H8.48857C8.95031 21.25 9.3245 20.8755 9.3245 20.414V15.707C9.3245 15.303 9.65366 14.9739 10.0578 14.9739H11.9404C12.3445 14.9739 12.6735 15.303 12.6735 15.707V20.4141C12.6735 20.8756 13.0477 21.25 13.5095 21.25H16.7013C18.0277 21.25 19.1063 20.1714 19.1063 18.8452V13.0914H19.1578C19.7158 13.0914 20.2417 12.8735 20.6366 12.4786L20.6367 12.4786C21.4514 11.6635 21.4517 10.3379 20.6379 9.5224L20.6378 9.52242C20.6378 9.52238 20.6377 9.52233 20.6377 9.52228L20.6377 9.52225L20.6377 9.52221L20.6377 9.52223C20.6372 9.52174 20.6367 9.52124 20.6362 9.52072L20.6361 9.52075ZM20.6361 9.52075C20.6294 9.51408 20.6179 9.50355 20.6026 9.49301L20.4677 9.68914L20.4615 9.69817L20.6376 9.52225C20.6372 9.52178 20.6367 9.52128 20.6361 9.52075ZM20.6378 9.52244L20.6363 9.52398L20.6377 9.5223C20.6377 9.52235 20.6378 9.52239 20.6378 9.52244ZM19.4543 11.2966L19.4538 11.2971C19.4151 11.336 19.3691 11.3669 19.3184 11.3879C19.2677 11.4089 19.2133 11.4197 19.1584 11.4196H19.1578H18.2703C17.8086 11.4196 17.4344 11.7938 17.4344 12.2555V18.8452C17.4344 19.2491 17.1054 19.5781 16.7013 19.5781H14.3454V15.707C14.3454 14.3808 13.2668 13.302 11.9404 13.302H10.0578C8.73141 13.302 7.65267 14.3807 7.65267 15.707V19.5781H5.29681C4.8928 19.5781 4.56364 19.249 4.56364 18.8452V12.2555C4.56364 11.7937 4.1894 11.4195 3.72771 11.4195H2.8635C2.85336 11.4189 2.84321 11.4185 2.83307 11.4183L2.83238 11.4183C2.72216 11.4164 2.62047 11.3731 2.544 11.2965L2.54386 11.2963C2.3813 11.1338 2.38051 10.869 2.54178 10.7054C2.54383 10.7034 2.54579 10.7014 2.54766 10.6994L10.7027 2.54475L10.7033 2.54416C10.7419 2.50526 10.7879 2.47442 10.8386 2.45342L10.7439 2.22503L10.8386 2.45342C10.8892 2.43243 10.9435 2.42171 10.9984 2.42188H10.9991C11.1115 2.42188 11.2159 2.46509 11.2955 2.54472L11.2955 2.54475L19.4518 10.7008L19.4517 10.7009L19.4555 10.7045L19.4568 10.7058C19.6176 10.8698 19.6165 11.1343 19.4543 11.2966ZM2.5832 10.6523C2.5867 10.6463 2.5841 10.6517 2.57715 10.6621C2.58027 10.6573 2.58238 10.6537 2.5832 10.6523Z" fill="#CDB383" stroke="#CDB383" stroke-width="0.5"/>
</svg>
