<svg width="20" height="20" viewBox="0 0 20 20" fill="none" xmlns="http://www.w3.org/2000/svg">
<path d="M19.4609 8.69902C19.4603 8.69859 19.4599 8.69797 19.4594 8.6975L11.301 0.539453C10.9532 0.191484 10.4909 0 9.99911 0C9.50732 0 9.04497 0.191484 8.69708 0.539414L0.542902 8.69336C0.540168 8.69609 0.537277 8.69898 0.534699 8.70176C-0.179442 9.41996 -0.178192 10.5853 0.538214 11.3017C0.86548 11.6291 1.29759 11.8187 1.75982 11.8386C1.77872 11.8405 1.79767 11.8414 1.81673 11.8414H2.14173V17.8451C2.14173 19.0333 3.10853 20 4.29673 20H7.48857C7.8122 20 8.0745 19.7375 8.0745 19.414V14.707C8.0745 14.1649 8.51564 13.7239 9.05779 13.7239H10.9404C11.4826 13.7239 11.9235 14.1649 11.9235 14.707V19.4141C11.9235 19.7375 12.1858 20 12.5095 20H15.7013C16.8897 20 17.8563 19.0334 17.8563 17.8452V11.8414H18.1578C18.6495 11.8414 19.1118 11.6499 19.4599 11.3018C20.177 10.5844 20.1773 9.41691 19.4609 8.69898L19.4609 8.69902ZM18.6311 10.4733C18.5691 10.5357 18.4954 10.5852 18.4141 10.6188C18.3329 10.6525 18.2458 10.6698 18.1578 10.6696H17.2703C16.9467 10.6696 16.6844 10.9318 16.6844 11.2555V17.8452C16.6844 18.3871 16.2434 18.8281 15.7013 18.8281H13.0954V14.707C13.0954 13.5188 12.1287 12.552 10.9404 12.552H9.05782C7.86946 12.552 6.90267 13.5188 6.90267 14.707V18.8281H4.29681C3.75478 18.8281 3.31364 18.3871 3.31364 17.8452V11.2555C3.31364 10.9318 3.05134 10.6695 2.72771 10.6695H1.85548C1.84634 10.6689 1.83718 10.6685 1.82802 10.6683C1.65345 10.6652 1.48974 10.596 1.36708 10.4731C1.10614 10.2122 1.10614 9.78758 1.36708 9.52648C1.3672 9.52648 1.3672 9.52633 1.36736 9.52617L1.36782 9.5257L9.52591 1.36797C9.58788 1.30559 9.66162 1.25613 9.74285 1.22247C9.82408 1.18881 9.91118 1.17161 9.99911 1.17188C10.1778 1.17188 10.3458 1.24145 10.4723 1.36797L18.6285 9.52406L18.6324 9.52773C18.8919 9.78914 18.8915 10.2129 18.6311 10.4733Z" fill="#CDB383"/>
</svg>
