<svg width="15" height="20" viewBox="0 0 15 20" fill="none" xmlns="http://www.w3.org/2000/svg">
<path d="M15 19.8035H13.125V17.9175C13.125 17.1671 12.8287 16.4476 12.3012 15.917C11.7738 15.3864 11.0584 15.0884 10.3125 15.0884H4.6875C3.94158 15.0884 3.22621 15.3864 2.69876 15.917C2.17132 16.4476 1.875 17.1671 1.875 17.9175V20H0V17.9175C0 16.6669 0.49386 15.4676 1.37294 14.5834C2.25201 13.6991 3.4443 13.2023 4.6875 13.2023H10.3125C11.5557 13.2023 12.748 13.6991 13.6271 14.5834C14.5061 15.4676 15 16.6669 15 17.9175V19.8035ZM7.5 11.3163C6.76131 11.3163 6.02986 11.1699 5.34741 10.8856C4.66495 10.6012 4.04485 10.1845 3.52252 9.65906C3.00019 9.13365 2.58586 8.5099 2.30318 7.82342C2.02049 7.13694 1.875 6.40118 1.875 5.65814C1.875 4.91511 2.02049 4.17934 2.30318 3.49287C2.58586 2.80639 3.00019 2.18264 3.52252 1.65723C4.04485 1.13182 4.66495 0.715049 5.34741 0.4307C6.02986 0.146352 6.76131 -1.10721e-08 7.5 0C8.99184 2.23612e-08 10.4226 0.596124 11.4775 1.65723C12.5324 2.71834 13.125 4.15751 13.125 5.65814C13.125 7.15878 12.5324 8.59795 11.4775 9.65906C10.4226 10.7202 8.99184 11.3163 7.5 11.3163ZM7.5 9.43024C8.49456 9.43024 9.44839 9.03282 10.1517 8.32542C10.8549 7.61801 11.25 6.65857 11.25 5.65814C11.25 4.65772 10.8549 3.69827 10.1517 2.99087C9.44839 2.28346 8.49456 1.88605 7.5 1.88605C6.50544 1.88605 5.55161 2.28346 4.84835 2.99087C4.14509 3.69827 3.75 4.65772 3.75 5.65814C3.75 6.65857 4.14509 7.61801 4.84835 8.32542C5.55161 9.03282 6.50544 9.43024 7.5 9.43024Z" fill="#CDB383"/>
</svg>
