<svg width="18" height="20" viewBox="0 0 18 20" fill="none" xmlns="http://www.w3.org/2000/svg">
<path fill-rule="evenodd" clip-rule="evenodd" d="M9.00198 0C9.26721 0 9.52158 0.105362 9.70912 0.292909C9.89667 0.480455 10.002 0.734822 10.002 1.00005V11.0006C10.002 11.2658 9.89667 11.5202 9.70912 11.7077C9.52158 11.8953 9.26721 12.0006 9.00198 12.0006C8.73675 12.0006 8.48238 11.8953 8.29484 11.7077C8.10729 11.5202 8.00193 11.2658 8.00193 11.0006V1.00005C8.00193 0.734822 8.10729 0.480455 8.29484 0.292909C8.48238 0.105362 8.73675 0 9.00198 0ZM5.86781 3.57019C6.00042 3.79988 6.03636 4.07284 5.96772 4.32903C5.89908 4.58522 5.73148 4.80364 5.50179 4.93626C4.16712 5.70669 3.12398 6.896 2.53415 8.31972C1.94432 9.74345 1.84077 11.322 2.23957 12.8106C2.63836 14.2992 3.51722 15.6146 4.73981 16.5527C5.9624 17.4909 7.46041 17.9994 9.00148 17.9994C10.5426 17.9994 12.0406 17.4909 13.2631 16.5527C14.4857 15.6146 15.3646 14.2992 15.7634 12.8106C16.1622 11.322 16.0586 9.74345 15.4688 8.31972C14.879 6.896 13.8358 5.70669 12.5012 4.93626C12.2801 4.79947 12.1209 4.58193 12.0575 4.32978C11.994 4.07763 12.0313 3.81069 12.1614 3.58555C12.2914 3.36041 12.5041 3.19478 12.7542 3.12377C13.0043 3.05276 13.2723 3.08196 13.5012 3.20517C15.217 4.19591 16.5579 5.7251 17.316 7.55559C18.0741 9.38608 18.207 11.4156 17.6942 13.3293C17.1813 15.243 16.0514 16.9341 14.4795 18.1402C12.9076 19.3463 10.9817 20 9.00048 20C7.01922 20 5.09331 19.3463 3.52145 18.1402C1.94959 16.9341 0.819612 15.243 0.306762 13.3293C-0.206088 11.4156 -0.0731506 9.38608 0.684958 7.55559C1.44307 5.7251 2.78398 4.19591 4.49974 3.20517C4.61346 3.13931 4.73904 3.09651 4.8693 3.07921C4.99957 3.06191 5.13196 3.07046 5.25893 3.10436C5.38589 3.13826 5.50492 3.19685 5.60923 3.27678C5.71353 3.35671 5.80106 3.45641 5.86681 3.57019H5.86781Z" fill="#CDB383"/>
</svg>
