<svg width="20" height="19" viewBox="0 0 20 19" fill="none" xmlns="http://www.w3.org/2000/svg">
<path d="M4.24286 12.381L1.61778 14.4433C0.961646 14.9588 0 14.4914 0 13.657V0.952381C0 0.699794 0.10034 0.457552 0.278946 0.278946C0.457552 0.10034 0.699794 0 0.952381 0H15.2381C15.4907 0 15.7329 0.10034 15.9115 0.278946C16.0901 0.457552 16.1905 0.699794 16.1905 0.952381V12.381H4.24286ZM3.58381 10.4762H14.2857V1.90476H1.90476V11.7952L3.58381 10.4762ZM6.66667 14.2857H16.4162L18.0952 15.6048V5.71429H19.0476C19.3002 5.71429 19.5424 5.81463 19.7211 5.99323C19.8997 6.17184 20 6.41408 20 6.66667V17.4665C20 18.3009 19.0384 18.7683 18.3822 18.2528L15.7571 16.1905H7.61905C7.36646 16.1905 7.12422 16.0901 6.94561 15.9115C6.76701 15.7329 6.66667 15.4907 6.66667 15.2381V14.2857Z" fill="#CDB383"/>
</svg>
