<svg width="36" height="30" viewBox="0 0 36 30" fill="none" xmlns="http://www.w3.org/2000/svg">
<path d="M32.7656 21.0938H22.2188C20.4954 21.0938 18.9626 21.9249 18 23.2074C17.0374 21.9249 15.5046 21.0938 13.7812 21.0938H3.23438C2.65219 21.0938 2.17969 21.5663 2.17969 22.1485V23.2032H11.0243C13.4917 23.2032 15.9464 23.6919 18 25.0608C20.053 23.6923 22.5073 23.2032 24.9757 23.2032H33.8203V22.1485C33.8203 21.5663 33.3478 21.0938 32.7656 21.0938ZM16.0205 28.8357C14.8516 27.8976 13.1705 27.4219 11.0239 27.4219H1.05469C0.472219 27.4219 0 26.9497 0 26.3672C0 25.7848 0.472219 25.3125 1.05469 25.3125H11.0239C13.6627 25.3125 15.788 25.9444 17.3408 27.1907C17.5278 27.3406 17.7603 27.4224 18 27.4224C18.2397 27.4224 18.4722 27.3406 18.6592 27.1907C20.212 25.9444 22.3373 25.3125 24.9761 25.3125H34.9453C35.5278 25.3125 36 25.7848 36 26.3672C36 26.9497 35.5278 27.4219 34.9453 27.4219H24.9761C22.8295 27.4219 21.1484 27.8976 19.9794 28.8357C18.8309 29.7576 17.1815 29.7675 16.0205 28.8357ZM25.3828 10.6735V13.711C25.3828 14.1103 25.1571 14.476 24.7999 14.6546L20.1354 16.9861C19.6198 17.2441 19.1458 17.5778 18.7291 17.9761C18.3213 18.3657 17.6787 18.3657 17.2709 17.9761C16.8542 17.5778 16.3802 17.2441 15.8646 16.9861L11.2001 14.6546C11.0249 14.5669 10.8776 14.4322 10.7747 14.2655C10.6717 14.0989 10.6172 13.9069 10.6172 13.711V10.6735L17.1309 12.5346C17.699 12.6968 18.301 12.6968 18.8691 12.5346L25.3828 10.6735ZM29.6016 9.46832V15.8203C29.6016 16.4025 29.1291 16.875 28.5469 16.875C27.9647 16.875 27.4922 16.4025 27.4922 15.8203V10.0709L29.6016 9.46832ZM17.7102 10.5063L2.94462 6.28759C1.92888 5.99741 1.92713 4.5501 2.94462 4.25936L17.7102 0.0406055C17.8996 -0.0135352 18.1003 -0.0135352 18.2897 0.0406055L33.0553 4.25936C34.071 4.54954 34.0728 5.99685 33.0553 6.28759L18.2897 10.5063C18.1003 10.5604 17.8996 10.5604 17.7102 10.5063Z" fill="white"/>
</svg>
