<svg width="36" height="30" viewBox="0 0 36 30" fill="none" xmlns="http://www.w3.org/2000/svg">
<path d="M11.3334 15.7367L5.13556 17.6267C4.83856 17.7187 4.59556 17.9347 4.46866 18.2196L0.096818 28.0071C-0.282262 28.8552 0.514238 29.7553 1.40281 29.4829L10.2307 26.7076C10.424 26.6482 10.5969 26.5359 10.7297 26.3834C10.8625 26.2309 10.9501 26.0443 10.9824 25.8447L12.7215 16.9414C12.8497 16.1495 12.0994 15.498 11.3334 15.7367ZM21.7419 21.5236L19.5368 24.4577C19.4629 24.5428 19.3713 24.6107 19.2683 24.6566C19.1654 24.7024 19.0536 24.7252 18.9409 24.7233C18.8282 24.7214 18.7173 24.6948 18.616 24.6454C18.5147 24.596 18.4254 24.525 18.3545 24.4374L14.669 19.44C14.2526 18.9259 13.4259 19.1376 13.3098 19.7888L12.2028 26.0067C12.1673 26.2047 12.2106 26.4087 12.3235 26.5752C12.4364 26.7417 12.61 26.8574 12.8071 26.8977L23.1065 28.9969C23.6305 29.1038 24.102 28.6562 24.022 28.1262L23.0862 21.914C22.9871 21.2638 22.1725 21.0276 21.7419 21.5236ZM35.7265 24.408L30.5506 16.1449C30.3611 15.8425 30.0853 15.6038 29.7588 15.4596C29.4323 15.3154 29.0702 15.2724 28.719 15.336L26.2293 15.8638C25.9949 15.9065 25.7713 15.9955 25.5718 16.1257C25.3722 16.2559 25.2007 16.4246 25.0672 16.622L24.102 18.053C23.8497 18.4276 23.7488 18.8838 23.8195 19.3298L25.0807 27.2848C25.2406 28.296 26.2171 28.9667 27.2183 28.7507L34.5882 27.1012C35.7986 26.8415 36.3837 25.4577 35.7265 24.408ZM11.8958 13.0232L11.9487 13.1031L14.3191 16.6209L17.0617 20.6798L18.945 23.4687L20.8293 20.6788L22.4685 18.2533L23.5968 16.5815C23.5981 16.5804 23.5981 16.5793 23.5992 16.578L25.9966 13.0207H25.9955C26.8997 11.6551 27.3811 10.053 27.3792 8.41509C27.3792 3.76785 23.6035 0 18.945 0C14.2886 0 10.5121 3.76785 10.5121 8.41509C10.5105 10.054 10.9926 11.657 11.898 13.0232H11.8958ZM18.9755 2.94759C21.6325 2.94759 23.795 5.10867 23.795 7.76601C23.795 10.4233 21.6325 12.5855 18.9755 12.5855C16.3181 12.5855 14.156 10.4233 14.156 7.76601C14.156 5.10867 16.3181 2.94759 18.9755 2.94759Z" fill="white"/>
</svg>
