<svg width="36" height="36" viewBox="0 0 36 36" fill="none" xmlns="http://www.w3.org/2000/svg">
<path d="M0.75 36H25.5075C24.574 35.3028 23.8161 34.3974 23.294 33.3558C22.7719 32.3142 22.5 31.1651 22.5 30C22.5 25.8675 25.8675 22.5 30 22.5V8.865C29.9325 8.895 29.865 8.91 29.79 8.9325C29.6175 8.9775 29.4375 9 29.25 9H23.25C22.0125 9 21 7.9875 21 6.75V0.75C21.0011 0.4947 21.0442 0.241318 21.1275 0H0.75C0.3375 0 0 0.3375 0 0.75V35.25C0 35.6625 0.3375 36 0.75 36ZM18.48 33H12.48C12.0675 33 11.73 32.6625 11.73 32.25C11.73 31.8375 12.0675 31.5 12.48 31.5H18.48C18.8925 31.5 19.23 31.8375 19.23 32.25C19.23 32.6625 18.8925 33 18.48 33ZM19.23 29.25H5.25C4.8375 29.25 4.5 28.9125 4.5 28.5C4.5 28.0875 4.8375 27.75 5.25 27.75H19.23C19.6425 27.75 19.98 28.0875 19.98 28.5C19.98 28.9125 19.6425 29.25 19.23 29.25ZM19.23 25.5H5.25C4.8375 25.5 4.5 25.1625 4.5 24.75C4.5 24.3375 4.8375 24 5.25 24H19.23C19.6425 24 19.98 24.3375 19.98 24.75C19.98 25.1625 19.6425 25.5 19.23 25.5ZM20.25 21.75H5.25C4.8375 21.75 4.5 21.4125 4.5 21C4.5 20.5875 4.8375 20.25 5.25 20.25H20.25C20.6625 20.25 21 20.5875 21 21C21 21.4125 20.6625 21.75 20.25 21.75ZM18.75 11.25H24.75C25.1625 11.25 25.5 11.5875 25.5 12C25.5 12.4125 25.1625 12.75 24.75 12.75H18.75C18.3375 12.75 18 12.4125 18 12C18 11.5875 18.3375 11.25 18.75 11.25ZM9.75 3C11.82 3 13.5 4.68 13.5 6.75C13.5 8.82 11.82 10.5 9.75 10.5C7.68 10.5 6 8.82 6 6.75C6 4.68 7.68 3 9.75 3ZM3.75 15C3.75 12.93 5.43 11.25 7.5 11.25H12C14.07 11.25 15.75 12.93 15.75 15V16.5C15.75 16.9125 15.4125 17.25 15 17.25H4.5C4.0875 17.25 3.75 16.9125 3.75 16.5V15Z" fill="white"/>
<path d="M23.25 7.50008H29.25C29.3175 7.50008 29.3775 7.49258 29.4375 7.47008C29.475 7.47008 29.505 7.45508 29.5425 7.44008C29.625 7.40258 29.7075 7.35008 29.7825 7.28258C29.85 7.21508 29.9025 7.13258 29.94 7.04258C29.955 7.00508 29.97 6.97508 29.97 6.93758C30.0075 6.81758 30.0075 6.68258 29.97 6.56258C29.97 6.52508 29.955 6.49508 29.94 6.45758C29.9036 6.36808 29.8501 6.28655 29.7825 6.21758L23.7825 0.217581C23.7135 0.149939 23.632 0.0964348 23.5425 0.060081C23.505 0.045081 23.475 0.030081 23.4375 0.030081C23.3153 -0.00742283 23.1847 -0.00742283 23.0625 0.030081C23.025 0.030081 22.995 0.045081 22.9575 0.060081C22.8675 0.097581 22.785 0.150081 22.7175 0.217581C22.65 0.285081 22.5975 0.367581 22.56 0.457581C22.545 0.495081 22.53 0.525081 22.53 0.562581C22.5075 0.622581 22.5 0.690081 22.5 0.750081V6.75008C22.5 7.16258 22.8375 7.50008 23.25 7.50008ZM24 30.0001C24 33.3076 26.6925 36.0001 30 36.0001C33.3075 36.0001 36 33.3076 36 30.0001C36 26.6926 33.3075 24.0001 30 24.0001C26.6925 24.0001 24 26.6926 24 30.0001ZM32.55 28.0351C32.8425 28.3276 32.8425 28.8001 32.55 29.0926L29.6775 31.9651C29.6093 32.0351 29.5276 32.0904 29.4374 32.1278C29.3471 32.1652 29.2502 32.1838 29.1525 32.1826C28.9575 32.1826 28.7625 32.1151 28.62 31.9651L27.45 30.7951C27.3806 30.7256 27.3255 30.6432 27.2879 30.5525C27.2503 30.4618 27.231 30.3645 27.231 30.2663C27.231 30.1681 27.2503 30.0709 27.2879 29.9802C27.3255 29.8895 27.3806 29.807 27.45 29.7376C27.5194 29.6681 27.6019 29.6131 27.6926 29.5755C27.7833 29.5379 27.8806 29.5186 27.9787 29.5186C28.0769 29.5186 28.1742 29.5379 28.2649 29.5755C28.3556 29.6131 28.4381 29.6681 28.5075 29.7376L29.1525 30.3751L31.4925 28.0351C31.5619 27.9656 31.6443 27.9104 31.735 27.8728C31.8258 27.8351 31.923 27.8157 32.0212 27.8157C32.1195 27.8157 32.2167 27.8351 32.3075 27.8728C32.3982 27.9104 32.4806 27.9656 32.55 28.0351Z" fill="white"/>
</svg>
