<svg width="60" height="60" viewBox="0 0 60 60" fill="none" xmlns="http://www.w3.org/2000/svg">
<rect x="0.5" y="0.5" width="59" height="59" rx="9.5" fill="#FFF6E8" stroke="#F3F3F5"/>
<path d="M41.4286 27.2857C41.4286 26.8311 41.248 26.395 40.9265 26.0735C40.605 25.752 40.1689 25.5714 39.7143 25.5714H20.2857C19.8311 25.5714 19.395 25.752 19.0735 26.0735C18.752 26.395 18.5714 26.8311 18.5714 27.2857V30.7143H41.4286V27.2857ZM22 27.8571H20.8571V29C20.8571 29.1516 20.7969 29.2969 20.6898 29.4041C20.5826 29.5112 20.4373 29.5714 20.2857 29.5714C20.1342 29.5714 19.9888 29.5112 19.8817 29.4041C19.7745 29.2969 19.7143 29.1516 19.7143 29V27.2857C19.7143 27.1342 19.7745 26.9888 19.8817 26.8817C19.9888 26.7745 20.1342 26.7143 20.2857 26.7143H22C22.1516 26.7143 22.2969 26.7745 22.4041 26.8817C22.5112 26.9888 22.5714 27.1342 22.5714 27.2857C22.5714 27.4373 22.5112 27.5826 22.4041 27.6898C22.2969 27.7969 22.1516 27.8571 22 27.8571ZM18.5714 43.2857C18.5714 43.7404 18.752 44.1764 19.0735 44.4979C19.395 44.8194 19.8311 45 20.2857 45H39.7143C40.1689 45 40.605 44.8194 40.9265 44.4979C41.248 44.1764 41.4286 43.7404 41.4286 43.2857V39.8571H18.5714V43.2857ZM45.4286 31.8571H14.5714C14.4199 31.8571 14.2745 31.9173 14.1674 32.0245C14.0602 32.1317 14 32.277 14 32.4286V38.1429C14 38.2944 14.0602 38.4398 14.1674 38.5469C14.2745 38.6541 14.4199 38.7143 14.5714 38.7143H45.4286C45.5801 38.7143 45.7255 38.6541 45.8326 38.5469C45.9398 38.4398 46 38.2944 46 38.1429V32.4286C46 32.277 45.9398 32.1317 45.8326 32.0245C45.7255 31.9173 45.5801 31.8571 45.4286 31.8571ZM19.46 35.9531C19.5224 35.9948 19.5761 36.0483 19.6178 36.1107C19.6595 36.1731 19.6886 36.243 19.7033 36.3166C19.718 36.3902 19.718 36.466 19.7035 36.5396C19.6889 36.6133 19.6599 36.6833 19.6183 36.7457C19.5766 36.8081 19.5231 36.8618 19.4607 36.9035C19.3984 36.9453 19.3284 36.9743 19.2548 36.989C19.1812 37.0037 19.1054 37.0038 19.0318 36.9892C18.9582 36.9746 18.8881 36.9457 18.8257 36.904L18 36.3531V37C18 37.1516 17.9398 37.2969 17.8326 37.4041C17.7255 37.5112 17.5801 37.5714 17.4286 37.5714C17.277 37.5714 17.1317 37.5112 17.0245 37.4041C16.9173 37.2969 16.8571 37.1516 16.8571 37V36.3531L16.0314 36.904C15.9053 36.9881 15.751 37.0187 15.6024 36.989C15.4537 36.9593 15.323 36.8718 15.2389 36.7457C15.1547 36.6196 15.1242 36.4653 15.1539 36.3166C15.1835 36.168 15.2711 36.0373 15.3971 35.9531L16.4 35.2857L15.3971 34.6183C15.2711 34.5342 15.1835 34.4034 15.1539 34.2548C15.1242 34.1061 15.1547 33.9518 15.2389 33.8257C15.323 33.6996 15.4537 33.6121 15.6024 33.5824C15.751 33.5527 15.9053 33.5833 16.0314 33.6674L16.8571 34.2183V33.5714C16.8571 33.4199 16.9173 33.2745 17.0245 33.1674C17.1317 33.0602 17.277 33 17.4286 33C17.5801 33 17.7255 33.0602 17.8326 33.1674C17.9398 33.2745 18 33.4199 18 33.5714V34.2183L18.8257 33.6674C18.8881 33.6258 18.9582 33.5968 19.0318 33.5823C19.1054 33.5677 19.1812 33.5677 19.2548 33.5824C19.3284 33.5971 19.3984 33.6262 19.4607 33.6679C19.5231 33.7097 19.5766 33.7633 19.6183 33.8257C19.6599 33.8881 19.6889 33.9582 19.7035 34.0318C19.718 34.1054 19.718 34.1812 19.7033 34.2548C19.6886 34.3284 19.6595 34.3984 19.6178 34.4607C19.5761 34.5231 19.5224 34.5766 19.46 34.6183L18.4571 35.2857L19.46 35.9531ZM25.7457 35.9531C25.8081 35.9948 25.8618 36.0483 25.9035 36.1107C25.9453 36.1731 25.9743 36.243 25.989 36.3166C26.0037 36.3902 26.0038 36.466 25.9892 36.5396C25.9746 36.6133 25.9456 36.6833 25.904 36.7457C25.8624 36.8081 25.8088 36.8618 25.7464 36.9035C25.6841 36.9453 25.6141 36.9743 25.5405 36.989C25.4669 37.0037 25.3911 37.0038 25.3175 36.9892C25.2439 36.9746 25.1739 36.9457 25.1114 36.904L24.2857 36.3531V37C24.2857 37.1516 24.2255 37.2969 24.1183 37.4041C24.0112 37.5112 23.8658 37.5714 23.7143 37.5714C23.5627 37.5714 23.4174 37.5112 23.3102 37.4041C23.2031 37.2969 23.1429 37.1516 23.1429 37V36.3531L22.3171 36.904C22.2547 36.9457 22.1847 36.9746 22.1111 36.9892C22.0374 37.0038 21.9617 37.0037 21.8881 36.989C21.8145 36.9743 21.7445 36.9453 21.6821 36.9035C21.6198 36.8618 21.5662 36.8081 21.5246 36.7457C21.4829 36.6833 21.454 36.6133 21.4394 36.5396C21.4248 36.466 21.4249 36.3902 21.4396 36.3166C21.4543 36.243 21.4833 36.1731 21.5251 36.1107C21.5668 36.0483 21.6204 35.9948 21.6829 35.9531L22.6857 35.2857L21.6846 34.6183C21.6221 34.5766 21.5685 34.5231 21.5268 34.4607C21.485 34.3984 21.456 34.3284 21.4413 34.2548C21.4266 34.1812 21.4265 34.1054 21.4411 34.0318C21.4557 33.9582 21.4846 33.8881 21.5263 33.8257C21.5679 33.7633 21.6215 33.7097 21.6838 33.6679C21.7462 33.6262 21.8162 33.5971 21.8898 33.5824C21.9634 33.5677 22.0392 33.5677 22.1128 33.5823C22.1864 33.5968 22.2564 33.6258 22.3189 33.6674L23.1429 34.2183V33.5714C23.1429 33.4199 23.2031 33.2745 23.3102 33.1674C23.4174 33.0602 23.5627 33 23.7143 33C23.8658 33 24.0112 33.0602 24.1183 33.1674C24.2255 33.2745 24.2857 33.4199 24.2857 33.5714V34.2183L25.1114 33.6674C25.1739 33.6258 25.2439 33.5968 25.3175 33.5823C25.3911 33.5677 25.4669 33.5677 25.5405 33.5824C25.6141 33.5971 25.6841 33.6262 25.7464 33.6679C25.8088 33.7097 25.8624 33.7633 25.904 33.8257C25.9456 33.8881 25.9746 33.9582 25.9892 34.0318C26.0038 34.1054 26.0037 34.1812 25.989 34.2548C25.9743 34.3284 25.9453 34.3984 25.9035 34.4607C25.8618 34.5231 25.8081 34.5766 25.7457 34.6183L24.7429 35.2857L25.7457 35.9531ZM32.0314 35.9531C32.0939 35.9948 32.1475 36.0483 32.1892 36.1107C32.231 36.1731 32.26 36.243 32.2747 36.3166C32.2894 36.3902 32.2895 36.466 32.2749 36.5396C32.2603 36.6133 32.2314 36.6833 32.1897 36.7457C32.1481 36.8081 32.0945 36.8618 32.0322 36.9035C31.9698 36.9453 31.8998 36.9743 31.8262 36.989C31.7526 37.0037 31.6768 37.0038 31.6032 36.9892C31.5296 36.9746 31.4596 36.9457 31.3971 36.904L30.5714 36.3531V37C30.5714 37.1516 30.5112 37.2969 30.4041 37.4041C30.2969 37.5112 30.1516 37.5714 30 37.5714C29.8484 37.5714 29.7031 37.5112 29.5959 37.4041C29.4888 37.2969 29.4286 37.1516 29.4286 37V36.3531L28.6029 36.904C28.5404 36.9457 28.4704 36.9746 28.3968 36.9892C28.3232 37.0038 28.2474 37.0037 28.1738 36.989C28.1002 36.9743 28.0302 36.9453 27.9678 36.9035C27.9055 36.8618 27.8519 36.8081 27.8103 36.7457C27.7686 36.6833 27.7397 36.6133 27.7251 36.5396C27.7105 36.466 27.7106 36.3902 27.7253 36.3166C27.755 36.168 27.8425 36.0373 27.9686 35.9531L28.9714 35.2857L27.9703 34.6183C27.8442 34.5342 27.7567 34.4034 27.727 34.2548C27.7123 34.1812 27.7122 34.1054 27.7268 34.0318C27.7414 33.9582 27.7704 33.8881 27.812 33.8257C27.8536 33.7633 27.9072 33.7097 27.9696 33.6679C28.0319 33.6262 28.1019 33.5971 28.1755 33.5824C28.3241 33.5527 28.4785 33.5833 28.6046 33.6674L29.4286 34.2183V33.5714C29.4286 33.4199 29.4888 33.2745 29.5959 33.1674C29.7031 33.0602 29.8484 33 30 33C30.1516 33 30.2969 33.0602 30.4041 33.1674C30.5112 33.2745 30.5714 33.4199 30.5714 33.5714V34.2183L31.3971 33.6674C31.4596 33.6258 31.5296 33.5968 31.6032 33.5823C31.6768 33.5677 31.7526 33.5677 31.8262 33.5824C31.8998 33.5971 31.9698 33.6262 32.0322 33.6679C32.0945 33.7097 32.1481 33.7633 32.1897 33.8257C32.2314 33.8881 32.2603 33.9582 32.2749 34.0318C32.2895 34.1054 32.2894 34.1812 32.2747 34.2548C32.26 34.3284 32.231 34.3984 32.1892 34.4607C32.1475 34.5231 32.0939 34.5766 32.0314 34.6183L31.0286 35.2857L32.0314 35.9531ZM38.3171 35.9531C38.3796 35.9948 38.4332 36.0483 38.4749 36.1107C38.5167 36.1731 38.5457 36.243 38.5604 36.3166C38.5751 36.3902 38.5752 36.466 38.5606 36.5396C38.546 36.6133 38.5171 36.6833 38.4754 36.7457C38.4338 36.8081 38.3802 36.8618 38.3179 36.9035C38.2555 36.9453 38.1855 36.9743 38.1119 36.989C38.0383 37.0037 37.9626 37.0038 37.8889 36.9892C37.8153 36.9746 37.7453 36.9457 37.6829 36.904L36.8571 36.3531V37C36.8571 37.1516 36.7969 37.2969 36.6898 37.4041C36.5826 37.5112 36.4373 37.5714 36.2857 37.5714C36.1342 37.5714 35.9888 37.5112 35.8817 37.4041C35.7745 37.2969 35.7143 37.1516 35.7143 37V36.3531L34.8886 36.904C34.8261 36.9457 34.7561 36.9746 34.6825 36.9892C34.6089 37.0038 34.5331 37.0037 34.4595 36.989C34.3859 36.9743 34.3159 36.9453 34.2536 36.9035C34.1912 36.8618 34.1376 36.8081 34.096 36.7457C34.0544 36.6833 34.0254 36.6133 34.0108 36.5396C33.9962 36.466 33.9963 36.3902 34.011 36.3166C34.0257 36.243 34.0547 36.1731 34.0965 36.1107C34.1382 36.0483 34.1919 35.9948 34.2543 35.9531L35.2571 35.2857L34.256 34.6183C34.1936 34.5766 34.1399 34.5231 34.0982 34.4607C34.0565 34.3984 34.0274 34.3284 34.0127 34.2548C33.998 34.1812 33.998 34.1054 34.0125 34.0318C34.0271 33.9582 34.0561 33.8881 34.0977 33.8257C34.1394 33.7633 34.1929 33.7097 34.2553 33.6679C34.3176 33.6262 34.3876 33.5971 34.4612 33.5824C34.5348 33.5677 34.6106 33.5677 34.6842 33.5823C34.7578 33.5968 34.8279 33.6258 34.8903 33.6674L35.7143 34.2183V33.5714C35.7143 33.4199 35.7745 33.2745 35.8817 33.1674C35.9888 33.0602 36.1342 33 36.2857 33C36.4373 33 36.5826 33.0602 36.6898 33.1674C36.7969 33.2745 36.8571 33.4199 36.8571 33.5714V34.2183L37.6829 33.6674C37.7453 33.6258 37.8153 33.5968 37.8889 33.5823C37.9626 33.5677 38.0383 33.5677 38.1119 33.5824C38.1855 33.5971 38.2555 33.6262 38.3179 33.6679C38.3802 33.7097 38.4338 33.7633 38.4754 33.8257C38.5171 33.8881 38.546 33.9582 38.5606 34.0318C38.5752 34.1054 38.5751 34.1812 38.5604 34.2548C38.5457 34.3284 38.5167 34.3984 38.4749 34.4607C38.4332 34.5231 38.3796 34.5766 38.3171 34.6183L37.3143 35.2857L38.3171 35.9531ZM44.2857 37.5714H40.8571C40.7056 37.5714 40.5602 37.5112 40.4531 37.4041C40.3459 37.2969 40.2857 37.1516 40.2857 37C40.2857 36.8484 40.3459 36.7031 40.4531 36.5959C40.5602 36.4888 40.7056 36.4286 40.8571 36.4286H44.2857C44.4373 36.4286 44.5826 36.4888 44.6898 36.5959C44.7969 36.7031 44.8571 36.8484 44.8571 37C44.8571 37.1516 44.7969 37.2969 44.6898 37.4041C44.5826 37.5112 44.4373 37.5714 44.2857 37.5714ZM23.7143 21.5714C23.7143 18.1 26.5286 15.2857 30 15.2857C33.4714 15.2857 36.2857 18.1 36.2857 21.5714V24.4286H38.5714V21.5714C38.5714 16.8377 34.7337 13 30 13C25.2663 13 21.4286 16.8377 21.4286 21.5714V24.4286H23.7143V21.5714Z" fill="#AD8138"/>
</svg>
