<svg width="36" height="36" viewBox="0 0 36 36" fill="none" xmlns="http://www.w3.org/2000/svg">
<path d="M30.8571 16.0714C30.8571 15.5599 30.654 15.0694 30.2923 14.7077C29.9306 14.346 29.4401 14.1429 28.9286 14.1429H7.07143C6.55994 14.1429 6.0694 14.346 5.70772 14.7077C5.34605 15.0694 5.14286 15.5599 5.14286 16.0714V19.9286H30.8571V16.0714ZM9 16.7143H7.71429V18C7.71429 18.1705 7.64656 18.334 7.526 18.4546C7.40544 18.5751 7.24192 18.6429 7.07143 18.6429C6.90093 18.6429 6.73742 18.5751 6.61686 18.4546C6.4963 18.334 6.42857 18.1705 6.42857 18V16.0714C6.42857 15.9009 6.4963 15.7374 6.61686 15.6169C6.73742 15.4963 6.90093 15.4286 7.07143 15.4286H9C9.1705 15.4286 9.33401 15.4963 9.45457 15.6169C9.57513 15.7374 9.64286 15.9009 9.64286 16.0714C9.64286 16.2419 9.57513 16.4054 9.45457 16.526C9.33401 16.6466 9.1705 16.7143 9 16.7143ZM5.14286 34.0714C5.14286 34.5829 5.34605 35.0735 5.70772 35.4351C6.0694 35.7968 6.55994 36 7.07143 36H28.9286C29.4401 36 29.9306 35.7968 30.2923 35.4351C30.654 35.0735 30.8571 34.5829 30.8571 34.0714V30.2143H5.14286V34.0714ZM35.3571 21.2143H0.642857C0.472361 21.2143 0.308848 21.282 0.188289 21.4026C0.0677294 21.5231 0 21.6866 0 21.8571L0 28.2857C0 28.4562 0.0677294 28.6197 0.188289 28.7403C0.308848 28.8608 0.472361 28.9286 0.642857 28.9286H35.3571C35.5276 28.9286 35.6912 28.8608 35.8117 28.7403C35.9323 28.6197 36 28.4562 36 28.2857V21.8571C36 21.6866 35.9323 21.5231 35.8117 21.4026C35.6912 21.282 35.5276 21.2143 35.3571 21.2143ZM6.1425 25.8223C6.21274 25.8691 6.27306 25.9294 6.32002 25.9995C6.36698 26.0697 6.39967 26.1484 6.4162 26.2312C6.43274 26.314 6.4328 26.3993 6.41639 26.4821C6.39999 26.5649 6.36742 26.6437 6.32057 26.7139C6.27372 26.7842 6.21349 26.8445 6.14332 26.8915C6.07316 26.9384 5.99443 26.9711 5.91163 26.9876C5.82883 27.0042 5.74359 27.0042 5.66077 26.9878C5.57795 26.9714 5.49917 26.9389 5.42893 26.892L4.5 26.2723V27C4.5 27.1705 4.43227 27.334 4.31171 27.4546C4.19115 27.5751 4.02764 27.6429 3.85714 27.6429C3.68665 27.6429 3.52313 27.5751 3.40257 27.4546C3.28202 27.334 3.21429 27.1705 3.21429 27V26.2723L2.28536 26.892C2.1435 26.9866 1.96987 27.021 1.80266 26.9876C1.63544 26.9542 1.48834 26.8558 1.39371 26.7139C1.29909 26.5721 1.26469 26.3984 1.29808 26.2312C1.33148 26.064 1.42993 25.9169 1.57179 25.8223L2.7 25.0714L1.57179 24.3206C1.42993 24.2259 1.33148 24.0788 1.29808 23.9116C1.26469 23.7444 1.29909 23.5708 1.39371 23.4289C1.48834 23.2871 1.63544 23.1886 1.80266 23.1552C1.96987 23.1218 2.1435 23.1562 2.28536 23.2509L3.21429 23.8706V23.1429C3.21429 22.9724 3.28202 22.8088 3.40257 22.6883C3.52313 22.5677 3.68665 22.5 3.85714 22.5C4.02764 22.5 4.19115 22.5677 4.31171 22.6883C4.43227 22.8088 4.5 22.9724 4.5 23.1429V23.8706L5.42893 23.2509C5.49917 23.204 5.57795 23.1714 5.66077 23.155C5.74359 23.1386 5.82883 23.1387 5.91163 23.1552C5.99443 23.1718 6.07316 23.2044 6.14332 23.2514C6.21349 23.2984 6.27372 23.3587 6.32057 23.4289C6.36742 23.4992 6.39999 23.5779 6.41639 23.6608C6.4328 23.7436 6.43274 23.8288 6.4162 23.9116C6.39967 23.9944 6.36698 24.0732 6.32002 24.1433C6.27306 24.2135 6.21274 24.2737 6.1425 24.3206L5.01429 25.0714L6.1425 25.8223ZM13.2139 25.8223C13.2842 25.8691 13.3445 25.9294 13.3915 25.9995C13.4384 26.0697 13.4711 26.1484 13.4876 26.2312C13.5042 26.314 13.5042 26.3993 13.4878 26.4821C13.4714 26.5649 13.4389 26.6437 13.392 26.7139C13.3451 26.7842 13.2849 26.8445 13.2148 26.8915C13.1446 26.9384 13.0659 26.9711 12.9831 26.9876C12.9003 27.0042 12.815 27.0042 12.7322 26.9878C12.6494 26.9714 12.5706 26.9389 12.5004 26.892L11.5714 26.2723V27C11.5714 27.1705 11.5037 27.334 11.3831 27.4546C11.2626 27.5751 11.0991 27.6429 10.9286 27.6429C10.7581 27.6429 10.5946 27.5751 10.474 27.4546C10.3534 27.334 10.2857 27.1705 10.2857 27V26.2723L9.35679 26.892C9.28655 26.9389 9.20777 26.9714 9.12495 26.9878C9.04212 27.0042 8.95688 27.0042 8.87408 26.9876C8.79129 26.9711 8.71256 26.9384 8.64239 26.8915C8.57223 26.8445 8.512 26.7842 8.46514 26.7139C8.41829 26.6437 8.38573 26.5649 8.36932 26.4821C8.35291 26.3993 8.35298 26.314 8.36951 26.2312C8.38605 26.1484 8.41873 26.0697 8.46569 25.9995C8.51265 25.9294 8.57298 25.8691 8.64321 25.8223L9.77143 25.0714L8.64514 24.3206C8.5749 24.2737 8.51458 24.2135 8.46762 24.1433C8.42066 24.0732 8.38798 23.9944 8.37144 23.9116C8.35491 23.8288 8.35484 23.7436 8.37125 23.6608C8.38766 23.5779 8.42022 23.4992 8.46707 23.4289C8.51392 23.3587 8.57415 23.2984 8.64432 23.2514C8.71449 23.2044 8.79322 23.1718 8.87601 23.1552C8.95881 23.1387 9.04405 23.1386 9.12687 23.155C9.2097 23.1714 9.28848 23.204 9.35871 23.2509L10.2857 23.8706V23.1429C10.2857 22.9724 10.3534 22.8088 10.474 22.6883C10.5946 22.5677 10.7581 22.5 10.9286 22.5C11.0991 22.5 11.2626 22.5677 11.3831 22.6883C11.5037 22.8088 11.5714 22.9724 11.5714 23.1429V23.8706L12.5004 23.2509C12.5706 23.204 12.6494 23.1714 12.7322 23.155C12.815 23.1386 12.9003 23.1387 12.9831 23.1552C13.0659 23.1718 13.1446 23.2044 13.2148 23.2514C13.2849 23.2984 13.3451 23.3587 13.392 23.4289C13.4389 23.4992 13.4714 23.5779 13.4878 23.6608C13.5042 23.7436 13.5042 23.8288 13.4876 23.9116C13.4711 23.9944 13.4384 24.0732 13.3915 24.1433C13.3445 24.2135 13.2842 24.2737 13.2139 24.3206L12.0857 25.0714L13.2139 25.8223ZM20.2854 25.8223C20.3556 25.8691 20.4159 25.9294 20.4629 25.9995C20.5098 26.0697 20.5425 26.1484 20.5591 26.2312C20.5756 26.314 20.5757 26.3993 20.5592 26.4821C20.5428 26.5649 20.5103 26.6437 20.4634 26.7139C20.4166 26.7842 20.3563 26.8445 20.2862 26.8915C20.216 26.9384 20.1373 26.9711 20.0545 26.9876C19.9717 27.0042 19.8864 27.0042 19.8036 26.9878C19.7208 26.9714 19.642 26.9389 19.5718 26.892L18.6429 26.2723V27C18.6429 27.1705 18.5751 27.334 18.4546 27.4546C18.334 27.5751 18.1705 27.6429 18 27.6429C17.8295 27.6429 17.666 27.5751 17.5454 27.4546C17.4249 27.334 17.3571 27.1705 17.3571 27V26.2723L16.4282 26.892C16.358 26.9389 16.2792 26.9714 16.1964 26.9878C16.1136 27.0042 16.0283 27.0042 15.9455 26.9876C15.8627 26.9711 15.784 26.9384 15.7138 26.8915C15.6437 26.8445 15.5834 26.7842 15.5366 26.7139C15.4897 26.6437 15.4572 26.5649 15.4407 26.4821C15.4243 26.3993 15.4244 26.314 15.4409 26.2312C15.4743 26.064 15.5728 25.9169 15.7146 25.8223L16.8429 25.0714L15.7166 24.3206C15.5747 24.2259 15.4763 24.0788 15.4429 23.9116C15.4263 23.8288 15.4263 23.7436 15.4427 23.6608C15.4591 23.5779 15.4916 23.4992 15.5385 23.4289C15.5854 23.3587 15.6456 23.2984 15.7157 23.2514C15.7859 23.2044 15.8646 23.1718 15.9474 23.1552C16.1147 23.1218 16.2883 23.1562 16.4301 23.2509L17.3571 23.8706V23.1429C17.3571 22.9724 17.4249 22.8088 17.5454 22.6883C17.666 22.5677 17.8295 22.5 18 22.5C18.1705 22.5 18.334 22.5677 18.4546 22.6883C18.5751 22.8088 18.6429 22.9724 18.6429 23.1429V23.8706L19.5718 23.2509C19.642 23.204 19.7208 23.1714 19.8036 23.155C19.8864 23.1386 19.9717 23.1387 20.0545 23.1552C20.1373 23.1718 20.216 23.2044 20.2862 23.2514C20.3563 23.2984 20.4166 23.3587 20.4634 23.4289C20.5103 23.4992 20.5428 23.5779 20.5592 23.6608C20.5757 23.7436 20.5756 23.8288 20.5591 23.9116C20.5425 23.9944 20.5098 24.0732 20.4629 24.1433C20.4159 24.2135 20.3556 24.2737 20.2854 24.3206L19.1571 25.0714L20.2854 25.8223ZM27.3568 25.8223C27.427 25.8691 27.4873 25.9294 27.5343 25.9995C27.5813 26.0697 27.614 26.1484 27.6305 26.2312C27.647 26.314 27.6471 26.3993 27.6307 26.4821C27.6143 26.5649 27.5817 26.6437 27.5349 26.7139C27.488 26.7842 27.4278 26.8445 27.3576 26.8915C27.2874 26.9384 27.2087 26.9711 27.1259 26.9876C27.0431 27.0042 26.9579 27.0042 26.8751 26.9878C26.7922 26.9714 26.7135 26.9389 26.6432 26.892L25.7143 26.2723V27C25.7143 27.1705 25.6466 27.334 25.526 27.4546C25.4054 27.5751 25.2419 27.6429 25.0714 27.6429C24.9009 27.6429 24.7374 27.5751 24.6169 27.4546C24.4963 27.334 24.4286 27.1705 24.4286 27V26.2723L23.4996 26.892C23.4294 26.9389 23.3506 26.9714 23.2678 26.9878C23.185 27.0042 23.0997 27.0042 23.0169 26.9876C22.9341 26.9711 22.8554 26.9384 22.7852 26.8915C22.7151 26.8445 22.6549 26.7842 22.608 26.7139C22.5611 26.6437 22.5286 26.5649 22.5122 26.4821C22.4958 26.3993 22.4958 26.314 22.5124 26.2312C22.5289 26.1484 22.5616 26.0697 22.6085 25.9995C22.6555 25.9294 22.7158 25.8691 22.7861 25.8223L23.9143 25.0714L22.788 24.3206C22.7178 24.2737 22.6574 24.2135 22.6105 24.1433C22.5635 24.0732 22.5308 23.9944 22.5143 23.9116C22.4978 23.8288 22.4977 23.7436 22.5141 23.6608C22.5305 23.5779 22.5631 23.4992 22.6099 23.4289C22.6568 23.3587 22.717 23.2984 22.7872 23.2514C22.8573 23.2044 22.9361 23.1718 23.0189 23.1552C23.1017 23.1387 23.1869 23.1386 23.2697 23.155C23.3526 23.1714 23.4313 23.204 23.5016 23.2509L24.4286 23.8706V23.1429C24.4286 22.9724 24.4963 22.8088 24.6169 22.6883C24.7374 22.5677 24.9009 22.5 25.0714 22.5C25.2419 22.5 25.4054 22.5677 25.526 22.6883C25.6466 22.8088 25.7143 22.9724 25.7143 23.1429V23.8706L26.6432 23.2509C26.7135 23.204 26.7922 23.1714 26.8751 23.155C26.9579 23.1386 27.0431 23.1387 27.1259 23.1552C27.2087 23.1718 27.2874 23.2044 27.3576 23.2514C27.4278 23.2984 27.488 23.3587 27.5349 23.4289C27.5817 23.4992 27.6143 23.5779 27.6307 23.6608C27.6471 23.7436 27.647 23.8288 27.6305 23.9116C27.614 23.9944 27.5813 24.0732 27.5343 24.1433C27.4873 24.2135 27.427 24.2737 27.3568 24.3206L26.2286 25.0714L27.3568 25.8223ZM34.0714 27.6429H30.2143C30.0438 27.6429 29.8803 27.5751 29.7597 27.4546C29.6392 27.334 29.5714 27.1705 29.5714 27C29.5714 26.8295 29.6392 26.666 29.7597 26.5454C29.8803 26.4249 30.0438 26.3571 30.2143 26.3571H34.0714C34.2419 26.3571 34.4054 26.4249 34.526 26.5454C34.6466 26.666 34.7143 26.8295 34.7143 27C34.7143 27.1705 34.6466 27.334 34.526 27.4546C34.4054 27.5751 34.2419 27.6429 34.0714 27.6429ZM10.9286 9.64286C10.9286 5.7375 14.0946 2.57143 18 2.57143C21.9054 2.57143 25.0714 5.7375 25.0714 9.64286V12.8571H27.6429V9.64286C27.6429 4.31743 23.3254 0 18 0C12.6746 0 8.35714 4.31743 8.35714 9.64286V12.8571H10.9286V9.64286Z" fill="white"/>
</svg>
