<svg width="14" height="14" viewBox="0 0 14 14" fill="none" xmlns="http://www.w3.org/2000/svg">
<path d="M8.09375 0H13.3438C13.7062 0 14 0.335781 14 0.75V5.75C14 6.16422 13.7062 6.5 13.3438 6.5H8.09375C7.73131 6.5 7.4375 6.16422 7.4375 5.75V0.75C7.4375 0.335781 7.73131 0 8.09375 0ZM5.90625 0H0.65625C0.293809 0 0 0.335781 0 0.75V5.75C0 6.16422 0.293809 6.5 0.65625 6.5H5.90625C6.26869 6.5 6.5625 6.16422 6.5625 5.75V0.75C6.5625 0.335781 6.26869 0 5.90625 0ZM0 8.25V13.25C0 13.6642 0.293809 14 0.65625 14H5.90625C6.26869 14 6.5625 13.6642 6.5625 13.25V8.25C6.5625 7.83578 6.26869 7.5 5.90625 7.5H0.65625C0.293809 7.5 0 7.83578 0 8.25ZM8.09375 14H13.3438C13.7062 14 14 13.6642 14 13.25V8.25C14 7.83578 13.7062 7.5 13.3438 7.5H8.09375C7.73131 7.5 7.4375 7.83578 7.4375 8.25V13.25C7.4375 13.6642 7.73131 14 8.09375 14Z" fill="#9A6F32"/>
</svg>
