<svg width="18" height="14" viewBox="0 0 18 14" fill="none" xmlns="http://www.w3.org/2000/svg">
<path d="M13.6007 6.125C11.4183 6.125 9.65211 7.88621 9.65211 10.0625C9.65211 12.2388 11.4183 14 13.6007 14C15.7831 14 17.5493 12.2388 17.5493 10.0625C17.5493 7.88621 15.7831 6.125 13.6007 6.125ZM15.3556 10.2345C15.3556 10.3805 15.2358 10.5 15.0894 10.5H13.4285C13.2821 10.5 13.1622 10.3805 13.1622 10.2345V8.14078C13.1622 7.99477 13.2821 7.87527 13.4285 7.87527H13.7732C13.9196 7.87527 14.0394 7.99477 14.0394 8.14078V9.625H15.0894C15.2358 9.625 15.3556 9.74449 15.3556 9.89051V10.2345ZM13.6007 5.25C13.7488 5.25 13.8947 5.25902 14.0394 5.27215V3.9375C14.0394 3.2375 13.4252 2.625 12.7232 2.625H10.5296V1.3125C10.5296 0.6125 9.91535 0 9.21338 0H4.82606C4.12408 0 3.50986 0.6125 3.50986 1.3125V2.625H1.3162C0.614225 2.625 0 3.2375 0 3.9375V6.125H10.8345C11.6187 5.57566 12.5716 5.25 13.6007 5.25ZM8.77465 2.625H5.26479V1.75H8.77465V2.625ZM8.96166 8.75H5.70352C5.46112 8.75 5.26479 8.55422 5.26479 8.3125V7H0V10.9375C0 11.6375 0.614225 12.25 1.3162 12.25H9.30743C8.96933 11.5927 8.77465 10.8505 8.77465 10.0625C8.77465 9.60695 8.84265 9.16781 8.96166 8.75Z" fill="#9A6F32"/>
</svg>
