<svg width="18" height="20" viewBox="0 0 18 20" fill="none" xmlns="http://www.w3.org/2000/svg">
<path d="M8.60874 7.07186C10.5106 7.07186 12.0524 5.48877 12.0524 3.53593C12.0524 1.58309 10.5106 0 8.60874 0C6.70684 0 5.16504 1.58309 5.16504 3.53593C5.16504 5.48877 6.70684 7.07186 8.60874 7.07186Z" fill="white"/>
<path d="M16.281 6.18917C14.6355 6.28506 11.3651 6.63405 9.34607 7.90304C9.20674 7.99061 9.12777 8.14631 9.12777 8.30908V19.5275C9.12777 19.8836 9.507 20.1086 9.82678 19.9433C11.904 18.8698 14.9082 18.5769 16.3936 18.4968C16.9008 18.4693 17.295 18.0519 17.295 17.5515V7.13568C17.2953 6.58965 16.8341 6.15711 16.281 6.18917ZM7.94893 7.90304C5.93026 6.63405 2.65974 6.28535 1.01429 6.18917C0.461198 6.15711 0 6.58965 0 7.13568V17.5518C0 18.0525 0.394247 18.47 0.90139 18.4971C2.38741 18.5772 5.39307 18.8705 7.47031 19.9446C7.7892 20.1095 8.16723 19.8848 8.16723 19.5296V8.30354C8.16723 8.14045 8.08854 7.99091 7.94893 7.90304Z" fill="white"/>
</svg>
