<svg width="30" height="36" viewBox="0 0 30 36" fill="none" xmlns="http://www.w3.org/2000/svg">
<path d="M25.0685 34.7143H4.49712V36H25.0685V34.7143ZM14.7828 0C12.908 0.00221173 11.1107 0.747945 9.78502 2.07362C8.45935 3.39929 7.71361 5.19665 7.7114 7.07143V8.93571C7.81169 8.8892 7.91552 8.85072 8.0219 8.82064C8.13593 8.21396 8.44465 7.661 8.90126 7.24558C9.35786 6.83015 9.93746 6.57492 10.5522 6.51857C11.8276 6.35486 13.04 5.86804 14.0744 5.10429C14.2829 4.9609 14.5301 4.88415 14.7832 4.88415C15.0362 4.88415 15.2834 4.9609 15.4919 5.10429C16.5366 5.86217 17.7534 6.3482 19.0328 6.51857C19.6423 6.58178 20.2153 6.83962 20.6668 7.25389C21.1184 7.66817 21.4245 8.21686 21.5399 8.81871C21.6469 8.84901 21.7514 8.8877 21.8523 8.93443V7.07143C21.8501 5.19698 21.1047 3.39991 19.7794 2.0743C18.4541 0.748681 16.6573 0.00272195 14.7828 0ZM27.1199 26.3604L25.2556 33.4472C25.5601 33.492 25.8384 33.6445 26.04 33.877C26.2416 34.1095 26.3531 34.4066 26.3543 34.7143V36H27.5879C27.9009 35.9998 28.2093 35.9254 28.4879 35.7829C28.7665 35.6403 29.0074 35.4338 29.1906 35.1801C29.3739 34.9264 29.4944 34.6329 29.5422 34.3236C29.59 34.0143 29.5638 33.6981 29.4657 33.4009L27.1199 26.3604ZM17.9328 19.9286C17.8337 20.3963 17.6304 20.8358 17.3382 21.2143H23.0596C21.65 20.3738 20.0395 19.9296 18.3983 19.9286H17.9328ZM25.9518 22.5H3.61383C3.51311 22.4999 3.41372 22.523 3.32331 22.5674C3.2329 22.6118 3.15389 22.6763 3.09235 22.7561C3.03081 22.8358 2.98839 22.9286 2.96835 23.0273C2.94831 23.126 2.95119 23.228 2.97676 23.3254L5.63562 33.4286H23.93L26.5889 23.3254C26.6145 23.228 26.6174 23.126 26.5973 23.0273C26.5773 22.9286 26.5349 22.8358 26.4733 22.7561C26.4118 22.6763 26.3328 22.6118 26.2423 22.5674C26.1519 22.523 26.0526 22.4999 25.9518 22.5ZM14.7828 31.5C13.0105 31.5 11.5685 30.3467 11.5685 28.9286C11.5685 27.5104 13.0105 26.3571 14.7828 26.3571C16.5552 26.3571 17.9971 27.5104 17.9971 28.9286C17.9971 30.3467 16.5552 31.5 14.7828 31.5ZM6.50862 21.2143H12.23C11.9378 20.8358 11.7346 20.3963 11.6354 19.9286H11.17C9.52876 19.9296 7.91828 20.3738 6.50862 21.2143ZM2.44576 26.3604L0.0999732 33.4003C0.0017319 33.6975 -0.0245931 34.0138 0.0231609 34.3231C0.0709148 34.6325 0.191385 34.9261 0.374675 35.1799C0.557965 35.4336 0.798844 35.6403 1.07752 35.7829C1.3562 35.9254 1.66473 35.9998 1.97776 36H3.2114V34.7143C3.21264 34.4064 3.32433 34.1091 3.52619 33.8766C3.72804 33.6441 4.00664 33.4917 4.31133 33.4472L2.44576 26.3604ZM12.8543 18.8177V19.2857C12.8543 19.7972 13.0574 20.2877 13.4191 20.6494C13.7808 21.0111 14.2713 21.2143 14.7828 21.2143C15.2943 21.2143 15.7849 21.0111 16.1465 20.6494C16.5082 20.2877 16.7114 19.7972 16.7114 19.2857V18.8177C16.1033 19.0924 15.4492 19.2511 14.7828 19.2857C14.1165 19.2511 13.4624 19.0924 12.8543 18.8177Z" fill="white"/>
<path d="M14.7831 30.214C15.8482 30.214 16.7116 29.6384 16.7116 28.9283C16.7116 28.2182 15.8482 27.6426 14.7831 27.6426C13.7179 27.6426 12.8545 28.2182 12.8545 28.9283C12.8545 29.6384 13.7179 30.214 14.7831 30.214Z" fill="white"/>
<path d="M19.706 14.9969C20.0534 14.1854 20.2582 13.3201 20.3116 12.439C20.32 12.2743 20.3914 12.1191 20.5111 12.0055C20.6307 11.8919 20.7895 11.8287 20.9544 11.8289C21.1931 11.8289 21.4221 11.7341 21.5908 11.5653C21.7596 11.3966 21.8544 11.1676 21.8544 10.9289C21.8544 10.6902 21.7596 10.4613 21.5908 10.2925C21.4221 10.1238 21.1931 10.0289 20.9544 10.0289C20.7839 10.0289 20.6204 9.96121 20.4999 9.84066C20.3793 9.7201 20.3116 9.55658 20.3116 9.38609C20.3168 8.99698 20.1774 8.61978 19.9204 8.3276C19.6634 8.03542 19.307 7.84907 18.9204 7.80466C17.4178 7.61863 15.9869 7.05487 14.7612 6.16602C13.5604 7.05477 12.1506 7.61853 10.6681 7.80273C10.2784 7.84543 9.91837 8.03081 9.65725 8.32315C9.39613 8.61549 9.25241 8.99411 9.25379 9.38609C9.25379 9.55658 9.18607 9.7201 9.06551 9.84066C8.94495 9.96121 8.78143 10.0289 8.61094 10.0289C8.37224 10.0289 8.14332 10.1238 7.97454 10.2925C7.80576 10.4613 7.71094 10.6902 7.71094 10.9289C7.71094 11.1676 7.80576 11.3966 7.97454 11.5653C8.14332 11.7341 8.37224 11.8289 8.61094 11.8289C8.7759 11.8287 8.93464 11.8919 9.0543 12.0055C9.17396 12.1191 9.24538 12.2743 9.25379 12.439C9.30715 13.3202 9.51224 14.1855 9.86001 14.9969C10.4849 16.2319 13.3842 18.0004 14.7824 18.0004C16.1806 18.0004 19.0799 16.2319 19.706 14.9969Z" fill="white"/>
</svg>
