<svg width="60" height="60" viewBox="0 0 60 60" fill="none" xmlns="http://www.w3.org/2000/svg">
<rect x="0.5" y="0.5" width="59" height="59" rx="9.5" fill="#EBFAFF" stroke="#F3F3F5"/>
<path d="M21.2864 20.8433H30.4291C31.0577 20.8433 31.5719 20.329 31.5719 19.7004V17.4124C31.5719 16.7839 31.0577 16.269 30.4291 16.269H28.6577C28.008 13.2439 23.7075 13.2434 23.0578 16.269H21.2864C20.6578 16.269 20.1436 16.7833 20.1436 17.4119V19.6993C20.1436 20.3278 20.6578 20.8427 21.2864 20.8427V20.8433ZM25.8578 29.6083C28.632 29.5197 28.6257 25.5043 25.8578 25.4175C23.0892 25.5043 23.0841 29.5203 25.8578 29.6083ZM23.0007 36.2801H28.7148C29.0291 36.2801 29.2863 36.023 29.2863 35.7087V34.1819C29.1263 29.642 22.5881 29.6425 22.4292 34.1819V35.7087C22.4292 36.023 22.6864 36.2801 23.0007 36.2801Z" fill="#0996C7"/>
<path d="M33.2854 17.9843H32.714V19.6997C32.7142 19.9999 32.6551 20.2973 32.5403 20.5747C32.4255 20.8522 32.2572 21.1043 32.045 21.3167C31.8327 21.529 31.5807 21.6975 31.3033 21.8124C31.0259 21.9274 30.7286 21.9865 30.4283 21.9865H21.2856C20.9854 21.9865 20.688 21.9274 20.4107 21.8124C20.1333 21.6975 19.8813 21.529 19.669 21.3167C19.4567 21.1043 19.2884 20.8522 19.1736 20.5747C19.0588 20.2973 18.9998 19.9999 18.9999 19.6997V17.9843C16.9028 17.7683 15.0017 19.2471 15 21.4151V42.569C15.0003 43.4785 15.3615 44.3506 16.0044 44.9939C16.6472 45.6371 17.5191 45.9989 18.4285 45.9999H33.2854C35.1768 45.9999 36.7139 44.4622 36.7139 42.5696V21.4151C36.7136 20.5057 36.3524 19.6336 35.7096 18.9903C35.0667 18.347 34.1948 17.9852 33.2854 17.9843ZM21.2856 34.1818C21.2865 33.3224 21.5299 32.4807 21.9878 31.7535C22.4457 31.0263 23.0995 30.4431 23.8741 30.071C23.4843 29.7684 23.1686 29.3811 22.9507 28.9383C22.7329 28.4956 22.6188 28.009 22.617 27.5156C22.769 23.2276 28.9438 23.2242 29.0969 27.5156C29.0969 28.5498 28.5998 29.4767 27.8398 30.071C28.6144 30.4431 29.2683 31.0263 29.7262 31.7535C30.1841 32.4807 30.4275 33.3224 30.4283 34.1818V35.7086C30.4271 36.163 30.2462 36.5984 29.925 36.9198C29.6038 37.2412 29.1685 37.4225 28.7141 37.424H22.9999C22.057 37.424 21.2856 36.652 21.2856 35.7086V34.1818ZM31.5712 42.5696H20.1428C19.8285 42.5696 19.5714 42.3125 19.5714 41.9982C19.5714 41.6839 19.8285 41.4262 20.1428 41.4262H31.5712C32.318 41.4394 32.3249 42.5548 31.5712 42.569V42.5696ZM31.5712 40.2822H20.1428C19.8285 40.2822 19.5714 40.0251 19.5714 39.7108C19.5714 39.3965 19.8285 39.1394 20.1428 39.1394H31.5712C32.318 39.152 32.3249 40.2679 31.5712 40.2822ZM38.9196 43.7473C39.2396 44.5302 39.7082 45.2336 40.3082 45.8341C40.4225 45.9427 40.5653 45.9999 40.7139 45.9999C40.8625 45.9999 41.0053 45.9427 41.1196 45.8341C42.1793 44.7647 42.8338 43.3598 42.971 41.8605H38.4511C38.5139 42.5062 38.6682 43.1353 38.9196 43.7473ZM44.1424 23.7019H42.9996C42.9693 22.6579 43.2236 21.1511 42.331 20.3688C40.9482 18.9346 38.3882 19.9848 38.4282 21.9871V24.8453H44.1424C44.4567 24.8453 44.7138 25.1025 44.7138 25.4167V31.1344C44.7138 31.4487 44.971 31.7064 45.2852 31.7064C45.5995 31.7064 45.8567 31.4492 45.8567 31.1349V25.4173C45.8555 24.9629 45.6745 24.5275 45.3533 24.2061C45.0321 23.8847 44.5968 23.7034 44.1424 23.7019Z" fill="#0996C7"/>
<path d="M38.4287 25.9888H43.0001V40.7165H38.4287V25.9888Z" fill="#0996C7"/>
</svg>
