<svg width="35" height="37" viewBox="0 0 35 37" fill="none" xmlns="http://www.w3.org/2000/svg">
<path d="M7.07183 7.8803H17.3574C18.0645 7.8803 18.6431 7.30173 18.6431 6.5946V4.02064C18.6431 3.31351 18.0645 2.73431 17.3574 2.73431H15.3646C14.6336 -0.668926 9.79557 -0.669569 9.06465 2.73431H7.07183C6.3647 2.73431 5.78613 3.31287 5.78613 4.02V6.59332C5.78613 7.30045 6.3647 7.87965 7.07183 7.87965V7.8803ZM12.2146 17.7409C15.3356 17.6413 15.3286 13.124 12.2146 13.0263C9.10001 13.124 9.09422 17.6419 12.2146 17.7409ZM9.00037 25.2468H15.4288C15.7824 25.2468 16.0717 24.9575 16.0717 24.604V22.8863C15.8917 17.7789 8.53623 17.7795 8.35752 22.8863V24.604C8.35752 24.9575 8.6468 25.2468 9.00037 25.2468Z" fill="white"/>
<path d="M20.5711 4.66415H19.9283V6.59398C19.9284 6.93177 19.862 7.26628 19.7329 7.5784C19.6037 7.89053 19.4144 8.17415 19.1756 8.41306C18.9368 8.65197 18.6533 8.84149 18.3412 8.9708C18.0291 9.1001 17.6947 9.16665 17.3569 9.16665H7.07132C6.73353 9.16665 6.39905 9.1001 6.08699 8.9708C5.77493 8.84149 5.49141 8.65197 5.25262 8.41306C5.01382 8.17415 4.82444 7.89053 4.6953 7.5784C4.56615 7.26628 4.49976 6.93177 4.49993 6.59398V4.66415C2.14068 4.42116 0.00192854 6.08484 0 8.52381V32.322C0.00034018 33.3451 0.406737 34.3262 1.12993 35.0499C1.85313 35.7736 2.83399 36.1806 3.85708 36.1817H20.5711C22.6989 36.1817 24.4282 34.4518 24.4282 32.3226V8.52381C24.4278 7.50071 24.0215 6.51958 23.2983 5.7959C22.5751 5.07223 21.5942 4.66517 20.5711 4.66415ZM7.07132 22.8863C7.07228 21.9195 7.34609 20.9726 7.86124 20.1545C8.37639 19.3364 9.11198 18.6803 9.98342 18.2617C9.54489 17.9213 9.18964 17.4855 8.94459 16.9874C8.69955 16.4893 8.57116 15.942 8.56915 15.3868C8.74015 10.5629 15.6868 10.5591 15.859 15.3868C15.859 16.5504 15.2998 17.5931 14.4448 18.2617C15.3162 18.6803 16.0518 19.3364 16.5669 20.1545C17.0821 20.9726 17.3559 21.9195 17.3569 22.8863V24.604C17.3555 25.1152 17.1519 25.605 16.7906 25.9666C16.4293 26.3282 15.9395 26.5321 15.4283 26.5338H8.99986C7.93916 26.5338 7.07132 25.6653 7.07132 24.604V22.8863ZM18.6426 32.3226H5.78562C5.43206 32.3226 5.14278 32.0334 5.14278 31.6798C5.14278 31.3262 5.43206 31.0363 5.78562 31.0363H18.6426C19.4828 31.0511 19.4905 32.3059 18.6426 32.322V32.3226ZM18.6426 29.7493H5.78562C5.43206 29.7493 5.14278 29.46 5.14278 29.1065C5.14278 28.7529 5.43206 28.4636 5.78562 28.4636H18.6426C19.4828 28.4778 19.4905 29.7333 18.6426 29.7493ZM26.9096 33.6476C27.2696 34.5283 27.7967 35.3196 28.4717 35.9952C28.6003 36.1174 28.761 36.1817 28.9281 36.1817C29.0953 36.1817 29.256 36.1174 29.3845 35.9952C30.5767 34.7921 31.3131 33.2116 31.4674 31.5249H26.3824C26.4532 32.2513 26.6267 32.9591 26.9096 33.6476ZM32.7852 11.0965H31.4995C31.4654 9.922 31.7515 8.22681 30.7474 7.34675C29.1917 5.73321 26.3117 6.91476 26.3567 9.1673V12.3828H32.7852C33.1388 12.3828 33.428 12.6721 33.428 13.0257V19.458C33.428 19.8116 33.7173 20.1015 34.0709 20.1015C34.4245 20.1015 34.7137 19.8122 34.7137 19.4586V13.0263C34.7124 12.5151 34.5088 12.0252 34.1475 11.6637C33.7861 11.3021 33.2964 11.0982 32.7852 11.0965Z" fill="white"/>
<path d="M26.3574 13.6689H31.5002V30.2377H26.3574V13.6689Z" fill="white"/>
</svg>
