<svg width="20" height="20" viewBox="0 0 20 20" fill="none" xmlns="http://www.w3.org/2000/svg">
<path d="M14.298 0H0.585937C0.262343 0 0 0.262343 0 0.585937V19.414C0 19.7376 0.262343 20 0.585937 20H14.298C14.6216 20 14.884 19.7376 14.884 19.414V0.585937C14.884 0.262343 14.6217 0 14.298 0ZM6.15144 11.4705L4.37164 13.2502C4.31723 13.3046 4.25264 13.3478 4.18155 13.3772C4.11046 13.4067 4.03427 13.4218 3.95733 13.4218C3.88039 13.4218 3.8042 13.4066 3.73312 13.3772C3.66203 13.3478 3.59745 13.3046 3.54304 13.2502L2.70425 12.4114C2.47543 12.1826 2.47543 11.8116 2.70425 11.5828C2.93308 11.3539 3.3041 11.3539 3.53289 11.5828L3.95734 12.0072L5.32281 10.6417C5.5516 10.413 5.92261 10.4129 6.15144 10.6417C6.38027 10.8706 6.38027 11.2416 6.15144 11.4705ZM6.15144 7.91558L4.37164 9.69538C4.31723 9.74978 4.25264 9.79294 4.18155 9.82238C4.11046 9.85182 4.03427 9.86697 3.95733 9.86697C3.88039 9.86697 3.8042 9.85181 3.73312 9.82236C3.66203 9.79291 3.59745 9.74975 3.54304 9.69534L2.70425 8.85655C2.47543 8.62772 2.47543 8.25675 2.70425 8.02792C2.93308 7.79909 3.3041 7.79913 3.53289 8.02792L3.95734 8.45237L5.32281 7.08691C5.5516 6.85808 5.92261 6.85808 6.15144 7.08691C6.38027 7.31573 6.38027 7.68675 6.15144 7.91558ZM6.15144 4.3607L4.37164 6.1405C4.31723 6.19491 4.25264 6.23806 4.18155 6.2675C4.11046 6.29694 4.03427 6.31209 3.95733 6.31209C3.88039 6.31209 3.8042 6.29693 3.73312 6.26748C3.66203 6.23803 3.59745 6.19487 3.54304 6.14046L2.70425 5.30167C2.47543 5.07285 2.47543 4.70187 2.70425 4.47304C2.93308 4.24421 3.3041 4.24425 3.53289 4.47304L3.95734 4.89749L5.32281 3.53203C5.5516 3.3032 5.92261 3.3032 6.15144 3.53203C6.38027 3.76089 6.38027 4.13187 6.15144 4.3607ZM11.7359 16.4132H8.01487C7.69128 16.4132 7.42894 16.1508 7.42894 15.8272C7.42894 15.5037 7.69128 15.2413 8.01487 15.2413H11.7359C12.0595 15.2413 12.3219 15.5037 12.3219 15.8272C12.3219 16.1508 12.0596 16.4132 11.7359 16.4132ZM11.7359 12.7222H8.01487C7.69128 12.7222 7.42894 12.4598 7.42894 12.1362C7.42894 11.8126 7.69128 11.5503 8.01487 11.5503H11.7359C12.0595 11.5503 12.3219 11.8126 12.3219 12.1362C12.3219 12.4598 12.0596 12.7222 11.7359 12.7222ZM11.7359 9.16733H8.01487C7.69128 9.16733 7.42894 8.90499 7.42894 8.5814C7.42894 8.2578 7.69128 7.99546 8.01487 7.99546H11.7359C12.0595 7.99546 12.3219 8.2578 12.3219 8.5814C12.3219 8.90499 12.0596 9.16733 11.7359 9.16733ZM11.7359 5.61245H8.01487C7.69128 5.61245 7.42894 5.35011 7.42894 5.02652C7.42894 4.70292 7.69128 4.44058 8.01487 4.44058H11.7359C12.0595 4.44058 12.3219 4.70292 12.3219 5.02652C12.3219 5.35011 12.0596 5.61245 11.7359 5.61245ZM20 1.98871C20 0.892147 19.1078 0 18.0113 0C16.9147 0 16.0225 0.892147 16.0225 1.98871V3.70726H20V1.98871ZM16.0575 16.1583C16.0051 16.3029 16.0118 16.4623 16.0759 16.6021L17.4787 19.6585C17.5255 19.7604 17.6005 19.8467 17.6949 19.9073C17.7893 19.9678 17.8991 20 18.0113 20C18.1234 20 18.2332 19.9678 18.3276 19.9073C18.422 19.8467 18.497 19.7604 18.5438 19.6585L19.9466 16.6021C20.0107 16.4623 20.0174 16.3029 19.965 16.1583L19.605 15.1636H16.4175L16.0575 16.1583ZM20 13.4058V4.87914H16.0225V13.4058C16.0225 13.7294 16.2849 13.9917 16.6085 13.9917H19.414C19.7376 13.9917 20 13.7294 20 13.4058Z" fill="white"/>
</svg>
