<svg width="29" height="36" viewBox="0 0 29 36" fill="none" xmlns="http://www.w3.org/2000/svg">
<path d="M3.87192 6.63914C3.87192 6.23986 4.03053 5.85694 4.31286 5.57461C4.59519 5.29227 4.97812 5.13366 5.37739 5.13366H23.1947C23.5939 5.13366 23.9769 5.29227 24.2592 5.57461C24.5415 5.85694 24.7001 6.23986 24.7001 6.63914V9.56728H26.454V3.97445C26.454 3.52281 26.0852 3.15397 25.6335 3.15397H12.5133C11.6176 3.15397 10.8121 2.65716 10.4057 1.86679L9.69057 0.466697C9.54002 0.180657 9.24646 0 8.92278 0H2.96864C2.50947 0 2.14062 0.368841 2.14062 0.820483V9.56728H3.87192V6.63914Z" fill="white"/>
<path d="M5.377 6.63867H23.1943V9.56682H5.377V6.63867ZM27.7107 11.0723H0.86058C0.355494 11.0723 -0.071308 11.5202 0.00998752 12.0584L1.95957 25.2463C2.01979 25.6754 2.38111 25.9915 2.81017 25.9915H5.33936V20.1729C5.33936 18.961 6.29534 17.9674 7.5223 17.9222C9.84072 17.8093 11.6097 17.2824 12.8968 16.3038C13.3184 15.9952 13.7926 15.8371 14.2894 15.8371C14.7787 15.8371 15.2529 15.9952 15.6594 16.2888C16.9616 17.2824 18.7305 17.8093 21.0716 17.9297C22.2684 17.9674 23.2244 18.961 23.2244 20.1729V25.9915H25.7611C26.1826 25.9915 26.5515 25.6754 26.6117 25.2538L28.5613 12.0584C28.5797 11.9361 28.5715 11.8112 28.5372 11.6924C28.5029 11.5736 28.4433 11.4636 28.3625 11.3699C28.2817 11.2763 28.1817 11.2012 28.0692 11.1498C27.9567 11.0984 27.8344 11.072 27.7107 11.0723Z" fill="white"/>
<path d="M20.9962 19.4308C18.5648 19.3103 16.4271 18.7608 14.7635 17.5038C14.4775 17.293 14.0936 17.293 13.8075 17.5038C12.144 18.7608 10.0062 19.3103 7.57488 19.4308C7.1684 19.4458 6.84473 19.777 6.84473 20.176V26.1678C6.84473 28.8475 7.90609 31.4595 9.88578 33.2736C11.5794 34.8318 13.3258 35.6598 13.9957 35.9383C14.1839 36.0211 14.3871 36.0211 14.5753 35.9383C15.2227 35.6673 16.8561 34.8995 18.4971 33.4467C18.5121 33.4392 18.5197 33.4166 18.5347 33.4091C20.5972 31.595 21.7188 28.9153 21.7188 26.1602V20.176C21.7188 19.777 21.4027 19.4458 20.9962 19.4308ZM15.4688 26.5562C15.3927 26.6185 15.3338 26.6991 15.2976 26.7905C15.2614 26.882 15.2491 26.9811 15.2618 27.0786C15.3461 27.6326 15.5072 28.7286 15.6103 29.4316C15.6222 29.5136 15.6161 29.5972 15.5927 29.6766C15.5692 29.756 15.5289 29.8295 15.4744 29.8919C15.4199 29.9543 15.3526 30.0042 15.2771 30.0382C15.2016 30.0721 15.1196 30.0894 15.0368 30.0888H13.5343C13.4509 30.0892 13.3685 30.0715 13.2926 30.037C13.2167 30.0025 13.1492 29.952 13.0946 29.8889C13.0401 29.8258 12.9999 29.7517 12.9768 29.6715C12.9537 29.5914 12.9482 29.5073 12.9607 29.4249L13.3025 27.0786C13.3191 26.9832 13.3099 26.8851 13.2759 26.7945C13.2419 26.7038 13.1843 26.6239 13.109 26.563C12.8949 26.3881 12.7224 26.1678 12.6041 25.9179C12.4859 25.668 12.4249 25.3949 12.4255 25.1185C12.4255 23.8938 13.6186 22.9333 14.8885 23.3518C15.4365 23.5324 15.8746 23.9773 16.0484 24.5185C16.1695 24.8769 16.1789 25.2636 16.0754 25.6274C15.9719 25.9913 15.7604 26.3151 15.4688 26.5562Z" fill="white"/>
</svg>
