<svg width="60" height="60" viewBox="0 0 60 60" fill="none" xmlns="http://www.w3.org/2000/svg">
<rect x="0.5" y="0.5" width="59" height="59" rx="9.5" fill="#FFF3F3" stroke="#F3F3F5"/>
<path d="M20.4413 19.9015C20.4413 19.5465 20.5823 19.2062 20.8332 18.9552C21.0842 18.7042 21.4246 18.5633 21.7795 18.5633H37.617C37.972 18.5633 38.3123 18.7042 38.5633 18.9552C38.8143 19.2062 38.9552 19.5465 38.9552 19.9015V22.5042H40.5142V17.5328C40.5142 17.1314 40.1864 16.8035 39.7849 16.8035H28.1225C27.3263 16.8035 26.6104 16.3619 26.2491 15.6594L25.6134 14.4148C25.4796 14.1606 25.2186 14 24.9309 14H19.6384C19.2302 14 18.9023 14.3279 18.9023 14.7293V22.5042H20.4413V19.9015Z" fill="#EB4B62"/>
<path d="M21.7796 19.9014H37.6171V22.5042H21.7796V19.9014ZM41.6317 23.8424H17.765C17.316 23.8424 16.9366 24.2405 17.0089 24.7189L18.7418 36.4415C18.7954 36.8229 19.1165 37.1039 19.4979 37.1039H21.7461V31.9318C21.7461 30.8545 22.5959 29.9713 23.6865 29.9312C25.7473 29.8308 27.3197 29.3624 28.4639 28.4926C28.8385 28.2183 29.2601 28.0778 29.7017 28.0778C30.1366 28.0778 30.5581 28.2183 30.9194 28.4792C32.077 29.3624 33.6494 29.8308 35.7303 29.9379C36.7941 29.9713 37.6439 30.8545 37.6439 31.9318V37.1039H39.8988C40.2735 37.1039 40.6013 36.8229 40.6548 36.4482L42.3878 24.7189C42.4042 24.6102 42.3969 24.4992 42.3664 24.3936C42.3359 24.2879 42.283 24.1902 42.2111 24.1069C42.1393 24.0237 42.0504 23.9569 41.9504 23.9113C41.8504 23.8656 41.7417 23.8421 41.6317 23.8424Z" fill="#EB4B62"/>
<path d="M35.5791 30.8534C33.4179 30.7463 31.5176 30.2579 30.0389 29.1405C29.7847 28.9532 29.4434 28.9532 29.1892 29.1405C27.7105 30.2579 25.8102 30.7463 23.649 30.8534C23.2877 30.8668 23 31.1612 23 31.5158V36.8418C23 39.2238 23.9434 41.5456 25.7032 43.1581C27.2086 44.5432 28.7609 45.2792 29.3564 45.5267C29.5237 45.6003 29.7044 45.6003 29.8716 45.5267C30.4471 45.2859 31.899 44.6034 33.3577 43.312C33.371 43.3053 33.3777 43.2853 33.3911 43.2786C35.2244 41.666 36.2214 39.2841 36.2214 36.8351V31.5158C36.2214 31.1612 35.9404 30.8668 35.5791 30.8534ZM30.6659 37.1871C30.5982 37.2425 30.5459 37.3142 30.5137 37.3954C30.4815 37.4767 30.4705 37.5648 30.4819 37.6515C30.5568 38.1439 30.7 39.1181 30.7917 39.7431C30.8022 39.8159 30.7968 39.8902 30.7759 39.9608C30.7551 40.0314 30.7192 40.0967 30.6708 40.1522C30.6224 40.2076 30.5626 40.252 30.4954 40.2822C30.4283 40.3124 30.3554 40.3277 30.2818 40.3272H28.9463C28.8722 40.3275 28.7989 40.3118 28.7314 40.2812C28.664 40.2505 28.6039 40.2056 28.5555 40.1495C28.507 40.0934 28.4713 40.0275 28.4508 39.9563C28.4302 39.8851 28.4253 39.8103 28.4364 39.737L28.7402 37.6515C28.755 37.5667 28.7468 37.4795 28.7166 37.3989C28.6863 37.3183 28.6351 37.2473 28.5682 37.1931C28.3779 37.0377 28.2246 36.8418 28.1195 36.6197C28.0144 36.3976 27.9601 36.1548 27.9607 35.9091C27.9607 34.8205 29.0212 33.9667 30.15 34.3387C30.6371 34.4993 31.0265 34.8948 31.1811 35.3758C31.2887 35.6944 31.297 36.0381 31.205 36.3616C31.113 36.685 30.925 36.9728 30.6659 37.1871Z" fill="#EB4B62"/>
</svg>
