<svg width="20" height="15" viewBox="0 0 20 15" fill="none" xmlns="http://www.w3.org/2000/svg">
<path d="M17.7083 0H2.29167C1.68401 0.000441448 1.10138 0.242026 0.671701 0.671701C0.242026 1.10138 0.000441448 1.68401 0 2.29167L0 12.7083C0.000441448 13.316 0.242026 13.8986 0.671701 14.3283C1.10138 14.758 1.68401 14.9996 2.29167 15H17.7083C18.316 14.9996 18.8986 14.758 19.3283 14.3283C19.758 13.8986 19.9996 13.316 20 12.7083V2.29167C19.9996 1.68401 19.758 1.10138 19.3283 0.671701C18.8986 0.242026 18.316 0.000441448 17.7083 0ZM6.25 3.33333C7.39833 3.33333 8.33333 4.26833 8.33333 5.41667C8.33333 6.565 7.39833 7.5 6.25 7.5C5.10167 7.5 4.16667 6.565 4.16667 5.41667C4.16667 4.26833 5.10167 3.33333 6.25 3.33333ZM10 11.0417C10 11.2074 9.93415 11.3664 9.81694 11.4836C9.69973 11.6008 9.54076 11.6667 9.375 11.6667H3.125C2.95924 11.6667 2.80027 11.6008 2.68306 11.4836C2.56585 11.3664 2.5 11.2074 2.5 11.0417V10.625C2.50044 10.0173 2.74203 9.43471 3.1717 9.00503C3.60138 8.57536 4.18401 8.33377 4.79167 8.33333H7.70833C8.31599 8.33377 8.89862 8.57536 9.3283 9.00503C9.75797 9.43471 9.99956 10.0173 10 10.625V11.0417ZM16.875 11.6667H12.2917C12.1259 11.6667 11.9669 11.6008 11.8497 11.4836C11.7325 11.3664 11.6667 11.2074 11.6667 11.0417C11.6667 10.8759 11.7325 10.7169 11.8497 10.5997C11.9669 10.4825 12.1259 10.4167 12.2917 10.4167H16.875C17.0408 10.4167 17.1997 10.4825 17.3169 10.5997C17.4342 10.7169 17.5 10.8759 17.5 11.0417C17.5 11.2074 17.4342 11.3664 17.3169 11.4836C17.1997 11.6008 17.0408 11.6667 16.875 11.6667ZM16.875 8.33333H12.2917C12.1259 8.33333 11.9669 8.26748 11.8497 8.15027C11.7325 8.03306 11.6667 7.87409 11.6667 7.70833C11.6667 7.54257 11.7325 7.3836 11.8497 7.26639C11.9669 7.14918 12.1259 7.08333 12.2917 7.08333H16.875C17.0408 7.08333 17.1997 7.14918 17.3169 7.26639C17.4342 7.3836 17.5 7.54257 17.5 7.70833C17.5 7.87409 17.4342 8.03306 17.3169 8.15027C17.1997 8.26748 17.0408 8.33333 16.875 8.33333ZM16.875 5H12.2917C12.1259 5 11.9669 4.93415 11.8497 4.81694C11.7325 4.69973 11.6667 4.54076 11.6667 4.375C11.6667 4.20924 11.7325 4.05027 11.8497 3.93306C11.9669 3.81585 12.1259 3.75 12.2917 3.75H16.875C17.0408 3.75 17.1997 3.81585 17.3169 3.93306C17.4342 4.05027 17.5 4.20924 17.5 4.375C17.5 4.54076 17.4342 4.69973 17.3169 4.81694C17.1997 4.93415 17.0408 5 16.875 5Z" fill="white"/>
</svg>
