<svg width="20" height="20" viewBox="0 0 20 20" fill="none" xmlns="http://www.w3.org/2000/svg">
<path d="M7.26481 0H1.5227C0.683033 0 0 0.683033 0 1.5227V7.26481C0 8.10447 0.683033 8.7875 1.5227 8.7875H7.26481C8.10447 8.7875 8.7875 8.10447 8.7875 7.26481V1.5227C8.78737 0.683033 8.10447 0 7.26481 0ZM18.4773 0H12.7352C11.8955 0 11.2125 0.683033 11.2125 1.5227V7.26481C11.2125 8.10447 11.8955 8.7875 12.7352 8.7875H18.4773C19.317 8.7875 20 8.10447 20 7.26481V1.5227C20 0.683033 19.317 0 18.4773 0ZM7.26481 11.2126H1.5227C0.683033 11.2126 0 11.8956 0 12.7353V18.4774C0 19.317 0.683033 20.0001 1.5227 20.0001H7.26481C8.10447 20.0001 8.7875 19.317 8.7875 18.4774V12.7353C8.78737 11.8956 8.10447 11.2126 7.26481 11.2126ZM18.4773 11.2126H12.7352C11.8955 11.2126 11.2125 11.8957 11.2125 12.7353V18.4774C11.2125 19.3171 11.8955 20.0001 12.7352 20.0001H18.4773C19.317 20.0001 20 19.317 20 18.4774V12.7353C20 11.8956 19.317 11.2126 18.4773 11.2126Z" fill="#093B59"/>
</svg>
