<svg width="25" height="25" viewBox="0 0 25 25" fill="none" xmlns="http://www.w3.org/2000/svg">
<path d="M0.732422 16.4746C0.32793 16.4746 0 16.8025 0 17.207V24.2676C0 24.672 0.32793 25 0.732422 25H3.24219V16.4746H0.732422ZM24.2676 16.4746H21.7578V25H24.2676C24.6721 25 25 24.672 25 24.2676V17.207C25 16.8025 24.6721 16.4746 24.2676 16.4746ZM21.4326 8.69522L13.2324 4.96777V2.24932H15.638C16.0425 2.24932 16.3704 1.92139 16.3704 1.51689V0.732422C16.3704 0.32793 16.0425 0 15.638 0H12.5C12.0955 0 11.7676 0.32793 11.7676 0.732422V4.96777L3.56743 8.69522C3.19917 8.8626 3.03633 9.29678 3.20376 9.66504C3.37114 10.0333 3.80542 10.196 4.17358 10.0287L4.70708 9.78618V24.2676C4.70708 24.672 5.03501 25 5.4395 25H9.41411V19.5605C9.41411 19.1561 9.74204 18.8281 10.1465 18.8281H14.8535C15.258 18.8281 15.5859 19.1561 15.5859 19.5605V25H19.5605C19.965 25 20.2929 24.672 20.2929 24.2676V9.78623L20.8264 10.0288C20.9214 10.0721 21.0246 10.0946 21.1291 10.0946C21.4074 10.0946 21.6735 9.93501 21.7962 9.66509C21.9637 9.29678 21.8008 8.8626 21.4326 8.69522ZM12.5 15.6417C10.7984 15.6417 9.41411 14.2573 9.41411 12.5558C9.41411 10.8542 10.7984 9.46992 12.5 9.46992C14.2016 9.46992 15.5859 10.8542 15.5859 12.5558C15.5859 14.2573 14.2016 15.6417 12.5 15.6417Z" fill="white"/>
</svg>
