<svg width="26" height="26" viewBox="0 0 26 26" fill="none" xmlns="http://www.w3.org/2000/svg">
<path d="M22.1924 3.80758C19.737 1.3523 16.4723 0 13 0C9.52761 0 6.26293 1.35225 3.80756 3.80758C1.35228 6.26295 -2.28882e-05 9.52763 -2.28882e-05 13C-2.28882e-05 16.4724 1.35223 19.737 3.80756 22.1924C6.26293 24.6477 9.52761 26 13 26C16.4723 26 19.737 24.6477 22.1924 22.1924C24.6477 19.737 26 16.4724 26 13C26 9.52763 24.6477 6.26295 22.1924 3.80758ZM5.64203 21.8002C6.07133 18.1067 9.24694 15.255 13 15.255C14.9784 15.255 16.8389 16.0259 18.2384 17.4251C19.4206 18.6076 20.1663 20.1514 20.3581 21.8C18.3646 23.4697 15.7977 24.4766 13 24.4766C10.2022 24.4766 7.6356 23.4699 5.64203 21.8002ZM13 13.6859C10.8229 13.6859 9.05153 11.9146 9.05153 9.73751C9.05153 7.56026 10.823 5.78906 13 5.78906C15.177 5.78906 16.9484 7.56026 16.9484 9.73751C16.9484 11.9146 15.177 13.686 13 13.686V13.6859ZM21.6693 20.5123C21.2779 18.936 20.4641 17.4963 19.3155 16.348C18.3792 15.4117 17.2715 14.7093 16.0635 14.2691C17.5158 13.2843 18.4719 11.6204 18.4719 9.73751C18.4719 6.72039 16.0171 4.26562 13 4.26562C9.98286 4.26562 7.52809 6.72039 7.52809 9.73751C7.52809 11.6214 8.48502 13.2858 9.93843 14.2705C8.82698 14.6756 7.7985 15.3018 6.91359 16.1262C5.63213 17.3196 4.74229 18.8412 4.32969 20.5111C2.58231 18.4967 1.52341 15.8698 1.52341 13C1.52341 6.67179 6.67177 1.52344 13 1.52344C19.3282 1.52344 24.4765 6.67179 24.4765 13C24.4765 15.8703 23.4172 18.4979 21.6693 20.5123Z" fill="#9AA6B2"/>
</svg>
