<svg width="20" height="20" viewBox="0 0 20 20" fill="none" xmlns="http://www.w3.org/2000/svg">
<rect width="20" height="20" rx="3" fill="#9F7834"/>
<path d="M14.0074 6.99947C14.0244 6.99948 14.0409 6.99448 14.055 6.98509C14.0691 6.9757 14.0801 6.96234 14.0866 6.9467C14.0931 6.93107 14.0949 6.91385 14.0916 6.89724C14.0883 6.88062 14.0802 6.86534 14.0683 6.85333L11.7887 4.57375C11.7767 4.56181 11.7614 4.5537 11.7448 4.55043C11.7282 4.54717 11.711 4.5489 11.6953 4.55541C11.6797 4.56193 11.6663 4.57292 11.657 4.58702C11.6476 4.60111 11.6426 4.61767 11.6426 4.63461V6.5709C11.6426 6.68456 11.6877 6.79357 11.7681 6.87394C11.8485 6.95431 11.9575 6.99947 12.0711 6.99947H14.0074Z" fill="white"/>
<path d="M14.2141 7.85714H12.0713C11.7303 7.85714 11.4033 7.72168 11.1622 7.48057C10.921 7.23945 10.7856 6.91242 10.7856 6.57143V4.42986C10.7857 4.37367 10.7748 4.31801 10.7535 4.26605C10.7321 4.21408 10.7007 4.16685 10.661 4.12704C10.6214 4.08723 10.5743 4.05564 10.5224 4.03406C10.4705 4.01248 10.4149 4.00134 10.3587 4.00129C9.355 4 6.92843 4 6.92843 4C6.7011 4 6.48309 4.09031 6.32234 4.25105C6.16159 4.4118 6.07129 4.62981 6.07129 4.85714V15.1429C6.07129 15.3702 6.16159 15.5882 6.32234 15.7489C6.48309 15.9097 6.7011 16 6.92843 16H13.7856C14.0129 16 14.2309 15.9097 14.3917 15.7489C14.5524 15.5882 14.6427 15.3702 14.6427 15.1429V8.28571C14.6427 8.17205 14.5976 8.06304 14.5172 7.98267C14.4368 7.9023 14.3278 7.85714 14.2141 7.85714ZM12.913 12.2916C12.5921 12.6524 12.1984 12.9411 11.7578 13.1389C11.3173 13.3366 10.8399 13.4389 10.357 13.4389C9.87412 13.4389 9.3967 13.3366 8.95616 13.1389C8.51562 12.9411 8.12194 12.6524 7.801 12.2916C7.6594 12.1326 7.58116 11.9272 7.58116 11.7143C7.58116 11.5014 7.6594 11.296 7.801 11.137C8.12194 10.7762 8.51562 10.4874 8.95616 10.2897C9.3967 10.0919 9.87412 9.98971 10.357 9.98971C10.8399 9.98971 11.3173 10.0919 11.7578 10.2897C12.1984 10.4874 12.5921 10.7762 12.913 11.137C13.0546 11.296 13.1329 11.5014 13.1329 11.7143C13.1329 11.9272 13.0546 12.1326 12.913 12.2916Z" fill="white"/>
<path d="M11.0916 11.9209C10.9244 11.9215 10.7625 11.8616 10.6359 11.7523C10.5094 11.6429 10.4266 11.4915 10.403 11.3259C10.3793 11.1603 10.4164 10.9918 10.5072 10.8513C10.5981 10.7109 10.7367 10.6081 10.8975 10.5619C10.6454 10.4453 10.3624 10.4137 10.0908 10.4716C9.81924 10.5296 9.5738 10.6741 9.3913 10.8834C9.20881 11.0927 9.09911 11.3555 9.07868 11.6325C9.05824 11.9094 9.12816 12.1855 9.27796 12.4193C9.42775 12.6531 9.64933 12.8321 9.90945 12.9293C10.1696 13.0265 10.4542 13.0367 10.7206 12.9584C10.987 12.8802 11.2209 12.7176 11.3871 12.4951C11.5533 12.2726 11.6428 12.0023 11.6423 11.7246C11.6423 11.7006 11.6363 11.6779 11.6351 11.6539C11.5707 11.7367 11.4883 11.8038 11.3941 11.8501C11.3 11.8963 11.1965 11.9206 11.0916 11.9209Z" fill="white"/>
</svg>
