<svg width="20" height="20" viewBox="0 0 20 20" fill="none" xmlns="http://www.w3.org/2000/svg">
<path fill-rule="evenodd" clip-rule="evenodd" d="M13.5289 5.15906C13.9213 5.26409 14.2483 5.51395 14.4496 5.86263C14.838 6.53546 14.6496 7.38548 14.0396 7.83716L12.5343 5.23035C12.846 5.09515 13.1931 5.06907 13.5289 5.15902V5.15906ZM4.14502 15.0041L6.2457 13.7914L3.4782 9.00453L1.38051 10.2159C0.744228 10.5832 0.288094 11.1797 0.0964828 11.8954C-0.095545 12.6112 0.00107293 13.3559 0.368421 13.992C0.880176 14.8779 1.81132 15.3739 2.76754 15.3739C3.23613 15.3739 3.71076 15.2547 4.14502 15.0041ZM8.52754 17.7501L6.76346 14.695L5.11691 15.6456L6.88057 18.7009C7.1431 19.1548 7.72556 19.3109 8.17969 19.0488C8.39801 18.9227 8.55466 18.7174 8.62095 18.4712C8.68682 18.2247 8.6537 17.9688 8.52754 17.7501V17.7501ZM15.0874 11.7353L9.68246 2.37393C9.56996 2.17869 9.38498 2.07166 9.16124 2.07166C9.15703 2.07166 9.15262 2.07187 9.14841 2.07187C8.91884 2.07607 8.73307 2.19015 8.62541 2.39322C8.43542 2.75173 8.25223 3.13433 8.05841 3.53947C7.24276 5.24305 6.3257 7.15816 4.37163 8.46828L7.15639 13.2861C9.2659 12.2505 11.3825 12.4136 13.2646 12.559C13.7131 12.5937 14.1363 12.6263 14.5422 12.6411C14.7722 12.65 14.9634 12.5459 15.0817 12.3491C15.2004 12.1523 15.2022 11.9342 15.0876 11.7353L15.0874 11.7353ZM13.7287 2.12328C13.5851 2.37234 13.6705 2.69086 13.9195 2.83469C13.9984 2.88052 14.088 2.90464 14.1792 2.9046C14.3592 2.9046 14.5345 2.81119 14.6307 2.64412L15.7067 0.78125C15.8503 0.532185 15.7649 0.213666 15.5159 0.0698433C15.2666 -0.073938 14.9483 0.0113892 14.8047 0.260455L13.7287 2.12328ZM20 7.83541C20 7.54801 19.767 7.31461 19.4778 7.31461L17.3273 7.31482C17.0399 7.31482 16.8065 7.54801 16.8065 7.83562C16.8065 8.12322 17.0399 8.35641 17.3273 8.35641L19.4778 8.3562C19.767 8.3562 20 8.12322 20 7.83541ZM18.7547 3.37698C18.6101 3.12791 18.2927 3.04259 18.0437 3.18637L16.1353 4.28783C15.886 4.43186 15.8007 4.75017 15.9445 4.99944C15.9787 5.0587 16.0242 5.11063 16.0785 5.15228C16.1327 5.19393 16.1947 5.22448 16.2608 5.24218C16.3269 5.25988 16.3958 5.26439 16.4636 5.25545C16.5314 5.2465 16.5968 5.22428 16.6561 5.19006L18.5639 4.08839C18.813 3.94456 18.8993 3.62604 18.7547 3.37698Z" fill="#003454"/>
</svg>
