<svg width="51" height="47" viewBox="0 0 51 47" fill="none" xmlns="http://www.w3.org/2000/svg">
<path d="M50.0826 23.3866L44.517 17.2073L45.3884 8.93465L37.2499 7.21179L33.0985 0L25.5004 3.39582L24.4749 23.3866L25.5004 43.3773L33.0986 46.7731L37.2499 39.5614L45.3884 37.8384L44.517 29.5658L50.0826 23.3866Z" fill="#0ED678"/>
<path d="M17.9017 0L13.7504 7.21179L5.61194 8.93474L6.48337 17.2073L0.917725 23.3866L6.48337 29.5658L5.61194 37.8384L13.7504 39.5614L17.9018 46.7731L25.5 43.3773V3.39582L17.9017 0Z" fill="#04EB84"/>
<path d="M35.8058 18.0036L33.6541 16.083L25.5004 25.218L24.4749 27.4882L25.5004 29.5494L35.8058 18.0036Z" fill="#F7F0EB"/>
<path d="M16.9313 21.2148L14.892 23.2543L23.4664 31.8288L25.5003 29.5501V25.2188L23.3473 27.6308L16.9313 21.2148Z" fill="#FFFBF5"/>
</svg>
