<svg width="28" height="28" viewBox="0 0 28 28" fill="none" xmlns="http://www.w3.org/2000/svg">
<g filter="url(#filter0_d_2467_9790)">
<path d="M18.298 0H4.58594C4.26234 0 4 0.262343 4 0.585937V19.414C4 19.7376 4.26234 20 4.58594 20H18.298C18.6216 20 18.884 19.7376 18.884 19.414V0.585937C18.884 0.262343 18.6217 0 18.298 0ZM10.1514 11.4705L8.37164 13.2502C8.31723 13.3046 8.25264 13.3478 8.18155 13.3772C8.11046 13.4067 8.03427 13.4218 7.95733 13.4218C7.88039 13.4218 7.8042 13.4066 7.73312 13.3772C7.66203 13.3478 7.59745 13.3046 7.54304 13.2502L6.70425 12.4114C6.47543 12.1826 6.47543 11.8116 6.70425 11.5828C6.93308 11.3539 7.3041 11.3539 7.53289 11.5828L7.95734 12.0072L9.32281 10.6417C9.5516 10.413 9.92261 10.4129 10.1514 10.6417C10.3803 10.8706 10.3803 11.2416 10.1514 11.4705ZM10.1514 7.91558L8.37164 9.69538C8.31723 9.74978 8.25264 9.79294 8.18155 9.82238C8.11046 9.85182 8.03427 9.86697 7.95733 9.86697C7.88039 9.86697 7.8042 9.85181 7.73312 9.82236C7.66203 9.79291 7.59745 9.74975 7.54304 9.69534L6.70425 8.85655C6.47543 8.62772 6.47543 8.25675 6.70425 8.02792C6.93308 7.79909 7.3041 7.79913 7.53289 8.02792L7.95734 8.45237L9.32281 7.08691C9.5516 6.85808 9.92261 6.85808 10.1514 7.08691C10.3803 7.31573 10.3803 7.68675 10.1514 7.91558ZM10.1514 4.3607L8.37164 6.1405C8.31723 6.19491 8.25264 6.23806 8.18155 6.2675C8.11046 6.29694 8.03427 6.31209 7.95733 6.31209C7.88039 6.31209 7.8042 6.29693 7.73312 6.26748C7.66203 6.23803 7.59745 6.19487 7.54304 6.14046L6.70425 5.30167C6.47543 5.07285 6.47543 4.70187 6.70425 4.47304C6.93308 4.24421 7.3041 4.24425 7.53289 4.47304L7.95734 4.89749L9.32281 3.53203C9.5516 3.3032 9.92261 3.3032 10.1514 3.53203C10.3803 3.76089 10.3803 4.13187 10.1514 4.3607ZM15.7359 16.4132H12.0149C11.6913 16.4132 11.4289 16.1508 11.4289 15.8272C11.4289 15.5037 11.6913 15.2413 12.0149 15.2413H15.7359C16.0595 15.2413 16.3219 15.5037 16.3219 15.8272C16.3219 16.1508 16.0596 16.4132 15.7359 16.4132ZM15.7359 12.7222H12.0149C11.6913 12.7222 11.4289 12.4598 11.4289 12.1362C11.4289 11.8126 11.6913 11.5503 12.0149 11.5503H15.7359C16.0595 11.5503 16.3219 11.8126 16.3219 12.1362C16.3219 12.4598 16.0596 12.7222 15.7359 12.7222ZM15.7359 9.16733H12.0149C11.6913 9.16733 11.4289 8.90499 11.4289 8.5814C11.4289 8.2578 11.6913 7.99546 12.0149 7.99546H15.7359C16.0595 7.99546 16.3219 8.2578 16.3219 8.5814C16.3219 8.90499 16.0596 9.16733 15.7359 9.16733ZM15.7359 5.61245H12.0149C11.6913 5.61245 11.4289 5.35011 11.4289 5.02652C11.4289 4.70292 11.6913 4.44058 12.0149 4.44058H15.7359C16.0595 4.44058 16.3219 4.70292 16.3219 5.02652C16.3219 5.35011 16.0596 5.61245 15.7359 5.61245ZM24 1.98871C24 0.892147 23.1078 0 22.0113 0C20.9147 0 20.0225 0.892147 20.0225 1.98871V3.70726H24V1.98871ZM20.0575 16.1583C20.0051 16.3029 20.0118 16.4623 20.0759 16.6021L21.4787 19.6585C21.5255 19.7604 21.6005 19.8467 21.6949 19.9073C21.7893 19.9678 21.8991 20 22.0113 20C22.1234 20 22.2332 19.9678 22.3276 19.9073C22.422 19.8467 22.497 19.7604 22.5438 19.6585L23.9466 16.6021C24.0107 16.4623 24.0174 16.3029 23.965 16.1583L23.605 15.1636H20.4175L20.0575 16.1583ZM24 13.4058V4.87914H20.0225V13.4058C20.0225 13.7294 20.2849 13.9917 20.6085 13.9917H23.414C23.7376 13.9917 24 13.7294 24 13.4058Z" fill="white"/>
</g>
<defs>
<filter id="filter0_d_2467_9790" x="0" y="0" width="28" height="28" filterUnits="userSpaceOnUse" color-interpolation-filters="sRGB">
<feFlood flood-opacity="0" result="BackgroundImageFix"/>
<feColorMatrix in="SourceAlpha" type="matrix" values="0 0 0 0 0 0 0 0 0 0 0 0 0 0 0 0 0 0 127 0" result="hardAlpha"/>
<feOffset dy="4"/>
<feGaussianBlur stdDeviation="2"/>
<feComposite in2="hardAlpha" operator="out"/>
<feColorMatrix type="matrix" values="0 0 0 0 0 0 0 0 0 0 0 0 0 0 0 0 0 0 0.25 0"/>
<feBlend mode="normal" in2="BackgroundImageFix" result="effect1_dropShadow_2467_9790"/>
<feBlend mode="normal" in="SourceGraphic" in2="effect1_dropShadow_2467_9790" result="shape"/>
</filter>
</defs>
</svg>
