<svg width="25" height="29" viewBox="0 0 25 29" fill="none" xmlns="http://www.w3.org/2000/svg">
<path d="M22.7695 3.2832H21.9215V24.1156C21.9215 25.4996 20.7949 26.6261 19.411 26.6261H3.9873V27.3984C3.9873 28.2827 4.70504 29.0004 5.58933 29.0004H22.7664C23.6507 29.0004 24.3684 28.2827 24.3684 27.3984V4.88523C24.3685 4.00093 23.6538 3.2832 22.7695 3.2832Z" fill="#185275"/>
<path d="M10.8194 25.7172H19.4079C20.2922 25.7172 21.01 24.9995 21.01 24.1152V1.60203C21.01 0.717732 20.2922 0 19.4079 0H7.9636V0.529971C7.96963 0.584482 7.97269 0.642022 7.97269 0.699561V5.08772C7.97269 6.33239 6.9612 7.34388 5.71653 7.34388H1.32837C1.28294 7.34388 1.23449 7.34085 1.18906 7.33782H0.631836V24.1152C0.631836 24.9995 1.34957 25.7172 2.23386 25.7172H10.8194ZM11.1434 20.2721H5.54391C5.12599 20.2721 4.78681 19.9329 4.78681 19.515C4.78681 19.0971 5.12599 18.7579 5.54391 18.7579H11.1465C11.5644 18.7579 11.9036 19.0971 11.9036 19.515C11.9036 19.9329 11.5613 20.2721 11.1434 20.2721ZM16.746 16.4079H5.54391C5.12599 16.4079 4.78681 16.0687 4.78681 15.6508C4.78681 15.2329 5.12599 14.8937 5.54391 14.8937H16.746C17.1639 14.8937 17.5031 15.2329 17.5031 15.6508C17.5031 16.0687 17.1639 16.4079 16.746 16.4079ZM5.54391 10.7902H16.746C17.1639 10.7902 17.5031 11.1294 17.5031 11.5473C17.5031 11.9652 17.1639 12.3044 16.746 12.3044H5.54391C5.12599 12.3044 4.78681 11.9652 4.78681 11.5473C4.78681 11.1294 5.12599 10.7902 5.54391 10.7902Z" fill="#185275"/>
<path d="M1.32834 6.43555H5.72861C6.46148 6.42949 7.05505 5.83592 7.06111 5.10305V0.699748C7.06111 0.293942 6.72798 0.0244141 6.38277 0.0244141C6.21621 0.0244141 6.04965 0.0849821 5.91034 0.224289L0.849849 5.28475C0.425873 5.70873 0.725685 6.43555 1.32834 6.43555Z" fill="#185275"/>
</svg>
