<svg width="12" height="9" viewBox="0 0 12 9" fill="none" xmlns="http://www.w3.org/2000/svg">
<path fill-rule="evenodd" clip-rule="evenodd" d="M12 3.90698H7.46791C7.35965 4.22813 7.14631 4.50341 6.86233 4.68837C6.5827 4.87591 6.14847 4.97414 5.72093 5.00707L6.55702 5.84372C6.59587 5.88261 6.62668 5.92876 6.64769 5.97955C6.6687 6.03034 6.6795 6.08477 6.67947 6.13973C6.67945 6.1947 6.66859 6.24912 6.64754 6.29989C6.62648 6.35066 6.59563 6.39678 6.55674 6.43563C6.51786 6.47448 6.47171 6.50528 6.42092 6.52629C6.37013 6.5473 6.3157 6.5581 6.26073 6.55808C6.20577 6.55805 6.15135 6.5472 6.10058 6.52614C6.04981 6.50508 6.00368 6.47423 5.96484 6.43535L5.04112 5.51163V8.65116H10.4651C10.872 8.65116 11.2627 8.4893 11.5507 8.20186C11.8383 7.91374 11.9998 7.52335 12 7.11628V3.90698ZM1.7414 3.90698H0V7.11628C0 7.52316 0.161861 7.91386 0.449302 8.20186C0.737426 8.48942 1.12782 8.65099 1.53488 8.65116H4.20391V5.47591L3.24447 6.43535C3.16555 6.51164 3.05983 6.55388 2.95007 6.55298C2.84032 6.55208 2.7353 6.50811 2.65765 6.43053C2.58 6.35295 2.53593 6.24798 2.53492 6.13822C2.53392 6.02847 2.57606 5.92271 2.65228 5.84372L3.48837 5.00707C3.06084 4.97414 2.6266 4.87591 2.34698 4.68837C2.06299 4.50341 1.84965 4.22813 1.7414 3.90698ZM2.51051 3.46158C2.51649 3.38847 2.54278 3.31849 2.58642 3.25954C2.76558 3.01451 3.14902 3.00893 3.43702 3.20205C3.61674 3.32205 3.75237 3.56763 3.86567 3.80707C3.92707 3.93656 3.98009 4.0666 4.02363 4.18549C3.87153 4.18803 3.71939 4.18412 3.56763 4.17377C3.288 4.15312 2.99554 4.11516 2.81191 3.99237C2.63498 3.87405 2.52112 3.69544 2.51051 3.52186L2.51163 3.48837L2.51051 3.46158ZM6.69879 3.52186C6.68819 3.69544 6.57433 3.87405 6.3974 3.99237C6.21377 4.11516 5.9213 4.15312 5.64167 4.17377C5.48205 4.18493 5.32521 4.18772 5.18567 4.18549C5.22921 4.0666 5.28223 3.93656 5.34363 3.80707C5.45693 3.56763 5.59256 3.32205 5.77228 3.20205C6.06028 3.00893 6.44372 3.01451 6.62288 3.25954C6.66652 3.31849 6.69282 3.38847 6.69879 3.46158C6.69738 3.48165 6.69738 3.50179 6.69879 3.52186ZM5.04112 0V2.74102C5.1254 2.64837 5.21414 2.568 5.30679 2.50605C5.98549 2.05228 6.87572 2.18791 7.29823 2.76391C7.368 2.85991 7.42214 2.9626 7.46121 3.06977H12V1.53488C12 1.128 11.8381 0.737302 11.5507 0.449302C11.2626 0.161746 10.8722 0.000170911 10.4651 0H5.04112ZM4.20391 0H1.53488C1.128 0 0.737302 0.16186 0.449302 0.449302C0.161746 0.737426 0.000170911 1.12782 0 1.53488V3.06977H1.74809C1.78716 2.9626 1.8413 2.85991 1.91107 2.76391C2.33358 2.18791 3.22381 2.05228 3.90251 2.50605C4.00856 2.57693 4.10958 2.67181 4.20391 2.78233V0Z" fill="#8591A7"/>
</svg>
