<svg width="16" height="17" viewBox="0 0 16 17" fill="none" xmlns="http://www.w3.org/2000/svg">
<path d="M4.3998 0.8C4.3998 0.358172 4.04163 0 3.5998 0C3.15798 0 2.7998 0.358172 2.7998 0.8V1.6C2.7998 2.04183 3.15798 2.4 3.5998 2.4C4.04163 2.4 4.3998 2.04183 4.3998 1.6V0.8Z" fill="#BEC4D0"/>
<path d="M13.1996 0.8C13.1996 0.358172 12.8414 0 12.3996 0C11.9578 0 11.5996 0.358172 11.5996 0.8V1.6C11.5996 2.04183 11.9578 2.4 12.3996 2.4C12.8414 2.4 13.1996 2.04183 13.1996 1.6V0.8Z" fill="#BEC4D0"/>
<path d="M0 5.99995V15.2C0 15.6243 0.168571 16.0313 0.468629 16.3313C0.768687 16.6314 1.17565 16.8 1.6 16.8H14.4C14.8243 16.8 15.2313 16.6314 15.5314 16.3313C15.8314 16.0313 16 15.6243 16 15.2V5.99995H0ZM4.8 14C4.8 14.2121 4.71571 14.4156 4.56569 14.5656C4.41566 14.7157 4.21217 14.8 4 14.8H3.2C2.98783 14.8 2.78434 14.7157 2.63431 14.5656C2.48429 14.4156 2.4 14.2121 2.4 14V13.2C2.4 12.9878 2.48429 12.7843 2.63431 12.6343C2.78434 12.4842 2.98783 12.4 3.2 12.4H4C4.21217 12.4 4.41566 12.4842 4.56569 12.6343C4.71571 12.7843 4.8 12.9878 4.8 13.2V14ZM4.8 9.59995C4.8 9.81212 4.71571 10.0156 4.56569 10.1656C4.41566 10.3157 4.21217 10.4 4 10.4H3.2C2.98783 10.4 2.78434 10.3157 2.63431 10.1656C2.48429 10.0156 2.4 9.81212 2.4 9.59995V8.79995C2.4 8.58778 2.48429 8.38429 2.63431 8.23427C2.78434 8.08424 2.98783 7.99995 3.2 7.99995H4C4.21217 7.99995 4.41566 8.08424 4.56569 8.23427C4.71571 8.38429 4.8 8.58778 4.8 8.79995V9.59995ZM9.2 14C9.2 14.2121 9.11571 14.4156 8.96569 14.5656C8.81566 14.7157 8.61217 14.8 8.4 14.8H7.6C7.38783 14.8 7.18434 14.7157 7.03431 14.5656C6.88429 14.4156 6.8 14.2121 6.8 14V13.2C6.8 12.9878 6.88429 12.7843 7.03431 12.6343C7.18434 12.4842 7.38783 12.4 7.6 12.4H8.4C8.61217 12.4 8.81566 12.4842 8.96569 12.6343C9.11571 12.7843 9.2 12.9878 9.2 13.2V14ZM9.2 9.59995C9.2 9.81212 9.11571 10.0156 8.96569 10.1656C8.81566 10.3157 8.61217 10.4 8.4 10.4H7.6C7.38783 10.4 7.18434 10.3157 7.03431 10.1656C6.88429 10.0156 6.8 9.81212 6.8 9.59995V8.79995C6.8 8.58778 6.88429 8.38429 7.03431 8.23427C7.18434 8.08424 7.38783 7.99995 7.6 7.99995H8.4C8.61217 7.99995 8.81566 8.08424 8.96569 8.23427C9.11571 8.38429 9.2 8.58778 9.2 8.79995V9.59995ZM13.6 14C13.6 14.2121 13.5157 14.4156 13.3657 14.5656C13.2157 14.7157 13.0122 14.8 12.8 14.8H12C11.7878 14.8 11.5843 14.7157 11.4343 14.5656C11.2843 14.4156 11.2 14.2121 11.2 14V13.2C11.2 12.9878 11.2843 12.7843 11.4343 12.6343C11.5843 12.4842 11.7878 12.4 12 12.4H12.8C13.0122 12.4 13.2157 12.4842 13.3657 12.6343C13.5157 12.7843 13.6 12.9878 13.6 13.2V14ZM13.6 9.59995C13.6 9.81212 13.5157 10.0156 13.3657 10.1656C13.2157 10.3157 13.0122 10.4 12.8 10.4H12C11.7878 10.4 11.5843 10.3157 11.4343 10.1656C11.2843 10.0156 11.2 9.81212 11.2 9.59995V8.79995C11.2 8.58778 11.2843 8.38429 11.4343 8.23427C11.5843 8.08424 11.7878 7.99995 12 7.99995H12.8C13.0122 7.99995 13.2157 8.08424 13.3657 8.23427C13.5157 8.38429 13.6 8.58778 13.6 8.79995V9.59995ZM16 5.19995V2.79995C16 2.3756 15.8314 1.96864 15.5314 1.66858C15.2313 1.36852 14.8243 1.19995 14.4 1.19995H14V1.59995C14 2.48235 13.2824 3.19995 12.4 3.19995C11.5176 3.19995 10.8 2.48235 10.8 1.59995V1.19995H5.2V1.59995C5.2 2.48235 4.4824 3.19995 3.6 3.19995C2.7176 3.19995 2 2.48235 2 1.59995V1.19995H1.6C1.17565 1.19995 0.768687 1.36852 0.468629 1.66858C0.168571 1.96864 0 2.3756 0 2.79995V5.19995H16Z" fill="#BEC4D0"/>
</svg>
