<svg width="17" height="17" viewBox="0 0 17 17" fill="none" xmlns="http://www.w3.org/2000/svg">
<path d="M15.7685 1.71875H15.7373C16.0498 1.78125 16.331 1.96875 16.5498 2.21875C16.7373 2.46875 16.8623 2.78125 16.8623 3.125C16.8623 5.65625 16.206 8 14.956 10.125C13.706 12.25 12.0498 13.9062 9.98728 15.0938C7.79978 16.375 5.45603 17 2.95603 17C2.61228 17 2.29978 16.9062 2.04978 16.6875C1.79978 16.5 1.64353 16.2188 1.58103 15.875L0.893526 12.9375C0.799776 12.625 0.831026 12.2812 0.987276 11.9688C1.14353 11.6562 1.39353 11.4375 1.73728 11.3125L4.89353 9.9375C5.17478 9.8125 5.48728 9.8125 5.79978 9.875C6.11228 9.96875 6.36228 10.125 6.58103 10.3438L7.58103 11.5938C9.26853 10.7188 10.5498 9.40625 11.4873 7.71875L10.2373 6.71875C9.98728 6.53125 9.79978 6.25 9.73728 5.9375C9.67478 5.625 9.70603 5.34375 9.83103 5.03125L11.1748 1.875C11.2998 1.5625 11.5185 1.3125 11.831 1.15625C12.1435 1 12.456 0.96875 12.7998 1.03125L15.7685 1.71875ZM3.01853 15.5C5.23728 15.5 7.29978 14.9375 9.23728 13.8125C11.081 12.7188 12.5498 11.25 13.6748 9.375C14.7998 7.46875 15.3623 5.40625 15.3623 3.15625L12.5185 2.5L11.206 5.59375L13.331 7.3125C12.6123 8.875 11.7998 10.0938 10.8623 11C9.92478 11.9375 8.70603 12.75 7.17478 13.4688L5.45603 11.3438L2.36228 12.6562L3.01853 15.5Z" fill="#093B59"/>
</svg>
