<svg width="16" height="16" viewBox="0 0 16 16" fill="none" xmlns="http://www.w3.org/2000/svg">
<path d="M6.46125 3.86594L7.25719 4.49031C7.56531 4.73219 8.01656 4.5125 8.01656 4.12094V0.46875C8.01656 0.209875 7.80669 0 7.54781 0H3.72281C3.30406 0 3.09469 0.50625 3.39094 0.802188L3.79063 1.20094C1.77531 2.45062 0.356562 4.56781 0.05875 7.02938H3.7C4.02812 5.56969 5.08062 4.38344 6.46125 3.86594ZM15.1987 3.38156L14.8172 3.76219C13.5572 1.7525 11.4275 0.341563 8.95406 0.0540625V3.68438C10.4244 4.00094 11.6228 5.04656 12.1503 6.42344L11.4788 7.22969C11.2238 7.53562 11.4412 8 11.8394 8H15.5312C15.79 8 16 7.79 16 7.53125V3.71406C16 3.29594 15.4947 3.08625 15.1987 3.38156ZM8.01656 12.415C8.01094 12.415 8.00562 12.415 8 12.4147C6.10219 12.4081 4.48625 11.2081 3.86469 9.52844L4.52281 8.73687C4.7775 8.43062 4.55969 7.96688 4.16187 7.96688H0.469031C0.210156 7.96688 0.0003125 8.17672 0.00028125 8.43559L0 12.2528C0 12.6709 0.505312 12.8806 0.80125 12.5853L1.19062 12.1969C2.59969 14.4747 5.12187 15.9941 8 16H8.01656C10.0517 16 11.9096 15.2431 13.3232 13.9963C13.5254 13.818 13.5329 13.5051 13.3422 13.3147L11.4599 11.4362C11.2892 11.2657 11.0171 11.2529 10.8309 11.4063C10.0663 12.0364 9.08556 12.415 8.01656 12.415Z" fill="#BEC4D0"/>
</svg>
