<svg width="15" height="15" viewBox="0 0 15 15" fill="none" xmlns="http://www.w3.org/2000/svg">
<path d="M11.2363 10.0362C11.3546 9.19566 11.4133 8.34777 11.412 7.49891C11.4133 6.65005 11.3546 5.80216 11.2363 4.96158H14.5595C15.1468 6.60216 15.1468 8.39566 14.5595 10.0362H11.2363ZM7.5 14.9978C6.76768 14.9978 6.02014 14.2462 5.44688 12.9359C5.18501 12.3375 4.97176 11.6552 4.81211 10.9147H10.1879C10.0282 11.6549 9.815 12.3372 9.55312 12.9359C8.97986 14.2462 8.23232 14.9978 7.5 14.9978ZM4.65159 10.0362C4.40475 8.35369 4.40475 6.64413 4.65159 4.96158H10.3484C10.4732 5.80157 10.5351 6.6497 10.5335 7.49891C10.5351 8.34812 10.4732 9.19625 10.3484 10.0362H4.65159ZM0.44048 10.0362C-0.146827 8.39566 -0.146827 6.60216 0.44048 4.96158H3.76373C3.529 6.64499 3.529 8.35283 3.76373 10.0362H0.44048ZM7.5 0C8.23232 0 8.97986 0.751356 9.55312 2.06191C9.815 2.66036 10.0282 3.34258 10.1879 4.0831H4.81211C4.97176 3.34287 5.18501 2.66065 5.44688 2.06191C6.02014 0.751356 6.76768 0 7.5 0ZM14.1787 4.0828H11.0848C10.9091 3.21281 10.6648 2.4099 10.3584 1.7101C10.1103 1.14241 9.82906 0.66172 9.52119 0.274472C10.5195 0.550927 11.4492 1.03235 12.2511 1.68804C13.053 2.34374 13.7095 3.15932 14.1787 4.0828ZM5.47881 0.274179C5.17182 0.66172 4.89091 1.14212 4.64251 1.70952C4.3361 2.4099 4.0921 3.21281 3.91605 4.08222H0.821284C1.29061 3.15885 1.94714 2.34336 2.74903 1.68773C3.55092 1.03209 4.4806 0.550684 5.47881 0.274179ZM0.821284 10.915H3.91517C4.09093 11.785 4.33523 12.5879 4.64163 13.2877C4.89003 13.8551 5.17094 14.3355 5.47793 14.7231C4.47984 14.4465 3.5503 13.9651 2.74856 13.3095C1.94681 12.6538 1.29044 11.8383 0.821284 10.915ZM9.52119 14.7231C9.82818 14.3355 10.1094 13.8551 10.3575 13.2877C10.6639 12.5873 10.9079 11.7844 11.084 10.915H14.1787C13.7095 11.8385 13.053 12.6542 12.2511 13.3099C11.4492 13.9656 10.5195 14.4471 9.52119 14.7236V14.7231Z" fill="#BEC4D0"/>
</svg>
