<svg width="12" height="12" viewBox="0 0 12 12" fill="none" xmlns="http://www.w3.org/2000/svg">
<path d="M10.421 8.84211C10.2118 8.84295 10.0088 8.91376 9.84442 9.04326L9.0401 8.52632L9.84442 8.00937C10.0088 8.13888 10.2118 8.20968 10.421 8.21053C10.6084 8.21053 10.7916 8.15497 10.9474 8.05087C11.1032 7.94677 11.2246 7.79881 11.2963 7.6257C11.368 7.45259 11.3868 7.26211 11.3502 7.07834C11.3137 6.89457 11.2234 6.72576 11.0909 6.59327C10.9584 6.46078 10.7896 6.37055 10.6059 6.33399C10.4221 6.29744 10.2316 6.3162 10.0585 6.38791C9.8854 6.45961 9.73744 6.58104 9.63334 6.73683C9.52924 6.89262 9.47368 7.07579 9.47368 7.26316C9.47433 7.33597 9.48344 7.40846 9.50084 7.47916L8.8421 7.90263V3.10263C8.84241 2.97814 8.81804 2.85481 8.77039 2.73979C8.72275 2.62478 8.65278 2.52034 8.56452 2.43253L6.40831 0.277583C6.32059 0.189296 6.21622 0.1193 6.10124 0.0716509C5.98627 0.0240023 5.86298 -0.000350653 5.73852 3.81457e-06H1.26316C0.928147 3.81457e-06 0.606858 0.133086 0.36997 0.369974C0.133082 0.606862 0 0.928151 0 1.26316V10.7368C0 11.0719 0.133082 11.3931 0.36997 11.63C0.606858 11.8669 0.928147 12 1.26316 12H7.57895C7.91396 12 8.23524 11.8669 8.47213 11.63C8.70902 11.3931 8.8421 11.0719 8.8421 10.7368V9.15L9.50084 9.57347C9.48342 9.64417 9.47431 9.71666 9.47368 9.78947C9.47368 9.97685 9.52924 10.16 9.63334 10.3158C9.73744 10.4716 9.8854 10.593 10.0585 10.6647C10.2316 10.7364 10.4221 10.7552 10.6059 10.7186C10.7896 10.6821 10.9584 10.5919 11.0909 10.4594C11.2234 10.3269 11.3137 10.1581 11.3502 9.9743C11.3868 9.79052 11.368 9.60004 11.2963 9.42693C11.2246 9.25382 11.1032 9.10586 10.9474 9.00177C10.7916 8.89767 10.6084 8.84211 10.421 8.84211ZM10.421 6.94737C10.4835 6.94737 10.5446 6.96589 10.5965 7.00059C10.6484 7.03529 10.6889 7.08461 10.7128 7.14231C10.7367 7.20002 10.743 7.26351 10.7308 7.32477C10.7186 7.38602 10.6885 7.44229 10.6443 7.48646C10.6002 7.53062 10.5439 7.5607 10.4827 7.57288C10.4214 7.58507 10.3579 7.57881 10.3002 7.55491C10.2425 7.53101 10.1932 7.49053 10.1585 7.4386C10.1238 7.38667 10.1053 7.32562 10.1053 7.26316C10.1053 7.17941 10.1385 7.09908 10.1978 7.03986C10.257 6.98064 10.3373 6.94737 10.421 6.94737ZM2.21053 6.31579C2.12677 6.31579 2.04645 6.28252 1.98723 6.2233C1.92801 6.16408 1.89474 6.08375 1.89474 6C1.89474 5.91625 1.92801 5.83593 1.98723 5.7767C2.04645 5.71748 2.12677 5.68421 2.21053 5.68421H6.63158C6.71533 5.68421 6.79565 5.71748 6.85487 5.7767C6.9141 5.83593 6.94737 5.91625 6.94737 6C6.94737 6.08375 6.9141 6.16408 6.85487 6.2233C6.79565 6.28252 6.71533 6.31579 6.63158 6.31579H2.21053ZM2.52631 7.89474C2.52631 7.9572 2.50779 8.01825 2.47309 8.07018C2.4384 8.12211 2.38908 8.16259 2.33137 8.18649C2.27367 8.21039 2.21018 8.21664 2.14892 8.20446C2.08766 8.19228 2.03139 8.1622 1.98723 8.11804C1.94306 8.07387 1.91299 8.0176 1.9008 7.95635C1.88862 7.89509 1.89487 7.83159 1.91877 7.77389C1.94268 7.71619 1.98315 7.66687 2.03508 7.63217C2.08701 7.59747 2.14807 7.57895 2.21053 7.57895C2.29428 7.57895 2.3746 7.61222 2.43382 7.67144C2.49304 7.73066 2.52631 7.81099 2.52631 7.89474ZM6.63158 4.73684H2.21053C2.12677 4.73684 2.04645 4.70357 1.98723 4.64435C1.92801 4.58513 1.89474 4.50481 1.89474 4.42106C1.89474 4.3373 1.92801 4.25698 1.98723 4.19776C2.04645 4.13854 2.12677 4.10527 2.21053 4.10527H6.63158C6.71533 4.10527 6.79565 4.13854 6.85487 4.19776C6.9141 4.25698 6.94737 4.3373 6.94737 4.42106C6.94737 4.50481 6.9141 4.58513 6.85487 4.64435C6.79565 4.70357 6.71533 4.73684 6.63158 4.73684ZM1.89474 2.84211C1.89474 2.75836 1.92801 2.67803 1.98723 2.61881C2.04645 2.55959 2.12677 2.52632 2.21053 2.52632H4.73684C4.82059 2.52632 4.90092 2.55959 4.96014 2.61881C5.01936 2.67803 5.05263 2.75836 5.05263 2.84211C5.05263 2.92586 5.01936 3.00618 4.96014 3.0654C4.90092 3.12463 4.82059 3.1579 4.73684 3.1579H2.21053C2.12677 3.1579 2.04645 3.12463 1.98723 3.0654C1.92801 3.00618 1.89474 2.92586 1.89474 2.84211ZM1.98726 9.25042L3.56621 7.67147C3.62577 7.61395 3.70554 7.58212 3.78834 7.58284C3.87113 7.58356 3.95034 7.61677 4.00889 7.67532C4.06744 7.73387 4.10065 7.81308 4.10137 7.89587C4.10209 7.97867 4.07026 8.05844 4.01274 8.118L2.43379 9.69695C2.37423 9.75447 2.29446 9.7863 2.21166 9.78558C2.12886 9.78486 2.04966 9.75165 1.99111 9.6931C1.93256 9.63455 1.89935 9.55535 1.89863 9.47255C1.89791 9.38975 1.92974 9.30998 1.98726 9.25042ZM4.10526 9.47368C4.10526 9.53614 4.08674 9.5972 4.05204 9.64913C4.01734 9.70106 3.96802 9.74153 3.91032 9.76544C3.85262 9.78934 3.78912 9.79559 3.72786 9.78341C3.66661 9.77122 3.61034 9.74115 3.56618 9.69698C3.52201 9.65282 3.49194 9.59655 3.47975 9.53529C3.46757 9.47404 3.47382 9.41054 3.49772 9.35284C3.52162 9.29513 3.5621 9.24581 3.61403 9.21111C3.66596 9.17642 3.72702 9.1579 3.78947 9.1579C3.87322 9.1579 3.95355 9.19117 4.01277 9.25039C4.07199 9.30961 4.10526 9.38993 4.10526 9.47368ZM6 10.4211C5.93175 10.4211 5.86533 10.3991 5.81066 10.3582C5.75599 10.3174 5.71603 10.2599 5.69676 10.1944C5.67749 10.129 5.67994 10.059 5.70375 9.99508C5.72756 9.93113 5.77145 9.87661 5.82884 9.83968L8.21052 8.30874V9.05968L6.17084 10.3708C6.11995 10.4038 6.0606 10.4212 6 10.4211ZM7.76368 2.52632H6.63158C6.54782 2.52632 6.4675 2.49305 6.40828 2.43383C6.34906 2.3746 6.31579 2.29428 6.31579 2.21053V1.07811L7.76368 2.52632ZM10.421 10.1053C10.3586 10.1053 10.2975 10.0867 10.2456 10.052C10.1937 10.0173 10.1532 9.96802 10.1293 9.91032C10.1054 9.85262 10.0991 9.78912 10.1113 9.72787C10.1235 9.66661 10.1536 9.61034 10.1978 9.56618C10.2419 9.52201 10.2982 9.49194 10.3594 9.47975C10.4207 9.46757 10.4842 9.47382 10.5419 9.49772C10.5996 9.52162 10.6489 9.5621 10.6836 9.61403C10.7183 9.66596 10.7368 9.72702 10.7368 9.78947C10.7368 9.87323 10.7036 9.95355 10.6443 10.0128C10.5851 10.072 10.5048 10.1053 10.421 10.1053Z" fill="#8591A7"/>
</svg>
