<svg width="14" height="14" viewBox="0 0 14 14" fill="none" xmlns="http://www.w3.org/2000/svg">
<path d="M13.5642 1.70348L12.2956 0.434735C11.7159 -0.144925 10.7728 -0.144898 10.1932 0.434735L9.6966 0.931325L13.0676 4.30264L13.5642 3.80605C14.1452 3.22503 14.1453 2.28457 13.5642 1.70348ZM0.601878 10.3017L0.00685041 13.5151C-0.00525738 13.5806 -0.00127196 13.6479 0.018463 13.7115C0.038198 13.775 0.0730904 13.8328 0.120131 13.8798C0.167172 13.9269 0.224951 13.9618 0.288484 13.9815C0.352017 14.0013 0.419399 14.0053 0.484819 13.9932L3.69804 13.3981L0.601878 10.3017ZM9.11658 1.51139L1.04446 9.58414L4.41551 12.9554L12.4876 4.88271L9.11658 1.51139Z" fill="#CDB383"/>
</svg>
