<svg width="16" height="14" viewBox="0 0 16 14" fill="none" xmlns="http://www.w3.org/2000/svg">
<path fill-rule="evenodd" clip-rule="evenodd" d="M1.28502 1.45254L6.0936 6.2632C7.14237 7.30995 8.85673 7.31085 9.90636 6.2632L14.7149 1.45254C14.7263 1.44123 14.7351 1.42757 14.7406 1.4125C14.7461 1.39744 14.7482 1.38136 14.7468 1.36539C14.7453 1.34942 14.7404 1.33395 14.7324 1.32009C14.7243 1.30623 14.7133 1.29431 14.7001 1.28518C14.2097 0.943136 13.613 0.740356 12.9702 0.740356H3.02984C2.38701 0.740356 1.79029 0.943171 1.29983 1.28518C1.28665 1.29431 1.27565 1.30623 1.26759 1.32009C1.25953 1.33395 1.25462 1.34942 1.25321 1.36539C1.25179 1.38136 1.25391 1.39744 1.25941 1.4125C1.26491 1.42757 1.27365 1.44123 1.28502 1.45254ZM9.64667e-07 3.77016C-0.000390553 3.28137 0.118399 2.79985 0.346078 2.36732C0.354026 2.35207 0.36546 2.33891 0.379451 2.32892C0.393441 2.31892 0.409593 2.31236 0.426594 2.30978C0.443595 2.3072 0.460965 2.30867 0.477292 2.31406C0.49362 2.31946 0.508444 2.32863 0.52056 2.34083L5.26827 7.08854C6.77171 8.59417 9.22738 8.59504 10.7317 7.08854L15.4794 2.34083C15.4916 2.32863 15.5064 2.31946 15.5227 2.31406C15.539 2.30867 15.5564 2.3072 15.5734 2.30978C15.5904 2.31236 15.6066 2.31892 15.6205 2.32892C15.6345 2.33891 15.646 2.35207 15.6539 2.36732C15.8816 2.79986 16.0004 3.28137 16 3.77016V10.095C16 11.767 14.64 13.1249 12.9702 13.1249H3.02984C1.36004 13.1249 9.64667e-07 11.767 9.64667e-07 10.095V3.77016Z" fill="#BEC4D0"/>
</svg>
