<svg width="15" height="16" viewBox="0 0 15 16" fill="none" xmlns="http://www.w3.org/2000/svg">
<path d="M11.5451 0.0235646H2.68238C2.32122 -0.0279648 1.95302 0.00528424 1.60694 0.12068C1.26085 0.236075 0.946378 0.430449 0.688413 0.688414C0.430449 0.946378 0.236076 1.26085 0.12068 1.60694C0.00528439 1.95302 -0.0279649 2.32122 0.0235645 2.68238V13.3176C-0.0279649 13.6788 0.00528439 14.047 0.12068 14.3931C0.236076 14.7392 0.430449 15.0536 0.688413 15.3116C0.946378 15.5696 1.26085 15.7639 1.60694 15.8793C1.95302 15.9947 2.32122 16.028 2.68238 15.9764H11.5451C11.9062 16.028 12.2744 15.9947 12.6205 15.8793C12.9666 15.7639 13.2811 15.5696 13.539 15.3116C13.797 15.0536 13.9914 14.7392 14.1068 14.3931C14.2222 14.047 14.2554 13.6788 14.2039 13.3176V2.68238C14.2554 2.32122 14.2222 1.95302 14.1068 1.60694C13.9914 1.26085 13.797 0.946378 13.539 0.688414C13.2811 0.430449 12.9666 0.236075 12.6205 0.12068C12.2744 0.00528424 11.9062 -0.0279648 11.5451 0.0235646ZM5.78432 2.01767H8.44314C8.61942 2.01767 8.7885 2.0877 8.91315 2.21236C9.03781 2.33702 9.10784 2.50609 9.10784 2.68238C9.10784 2.85867 9.03781 3.02774 8.91315 3.15239C8.7885 3.27705 8.61942 3.34708 8.44314 3.34708H5.78432C5.60803 3.34708 5.43896 3.27705 5.31431 3.15239C5.18965 3.02774 5.11962 2.85867 5.11962 2.68238C5.11962 2.50609 5.18965 2.33702 5.31431 2.21236C5.43896 2.0877 5.60803 2.01767 5.78432 2.01767ZM9.02364 7.24667C9.02364 7.62354 8.91189 7.99194 8.70251 8.3053C8.49313 8.61865 8.19554 8.86288 7.84736 9.00711C7.49918 9.15133 7.11605 9.18906 6.74642 9.11554C6.37679 9.04201 6.03727 8.86054 5.77078 8.59405C5.50429 8.32756 5.32282 7.98804 5.24929 7.61841C5.17577 7.24878 5.2135 6.86565 5.35772 6.51747C5.50195 6.16929 5.74618 5.8717 6.05953 5.66232C6.37289 5.45294 6.74129 5.34119 7.11816 5.34119C7.62331 5.34189 8.10757 5.54287 8.46476 5.90007C8.82196 6.25726 9.02294 6.74152 9.02364 7.24667ZM10.2157 12.8745C10.2157 12.992 10.169 13.1047 10.0859 13.1878C10.0028 13.2709 9.89007 13.3176 9.77254 13.3176H4.45492C4.33739 13.3176 4.22468 13.2709 4.14157 13.1878C4.05847 13.1047 4.01178 12.992 4.01178 12.8745V12.6086C4.00955 12.2818 4.07459 11.9581 4.20288 11.6575C4.33116 11.3569 4.51994 11.086 4.75745 10.8615C4.99497 10.6371 5.27614 10.4639 5.58347 10.3528C5.8908 10.2417 6.21771 10.195 6.54386 10.2157H7.68271C8.0089 10.195 8.33585 10.2417 8.64323 10.3528C8.95061 10.4639 9.23183 10.637 9.46942 10.8615C9.707 11.0859 9.89586 11.3569 10.0242 11.6574C10.1526 11.958 10.2178 12.2818 10.2157 12.6086V12.8745Z" fill="#BEC4D0"/>
</svg>
