<svg width="16" height="16" viewBox="0 0 16 16" fill="none" xmlns="http://www.w3.org/2000/svg">
<path d="M3.73206 4.98756C5.10719 4.98756 6.22581 3.86878 6.22581 2.49378C6.22581 1.11866 5.10706 0 3.73206 0C2.35706 0 1.23828 1.11866 1.23828 2.49375C1.23828 3.86875 2.35697 4.98756 3.73206 4.98756ZM7.99925 11.6374C6.35681 11.6374 5.02063 12.9737 5.02063 14.6162V15.5312C5.02063 15.7902 5.23047 16 5.48938 16H10.5101C10.769 16 10.9789 15.7902 10.9789 15.5312V14.6167C10.9789 12.974 9.64244 11.6374 7.99925 11.6374Z" fill="#BEC4D0"/>
<path d="M4.08337 14.6162C4.08337 13.0846 4.96728 11.7557 6.25172 11.1124C5.38966 10.5428 4.81984 9.56543 4.81984 8.45727C4.81984 7.67774 5.10194 6.96299 5.56909 6.4093C5.0265 6.10118 4.39966 5.92493 3.73231 5.92493C1.67431 5.92505 0 7.59924 0 9.65718V15.5312C0 15.7901 0.209844 16 0.46875 16H4.16394C4.11055 15.8495 4.08331 15.6909 4.08337 15.5312V14.6162Z" fill="#BEC4D0"/>
<path d="M8.0005 10.6999C9.23719 10.6999 10.2432 9.69384 10.2432 8.45728C10.2432 7.22072 9.23719 6.21459 8.0005 6.21459C6.76381 6.21459 5.75781 7.22072 5.75781 8.45728C5.75781 9.69397 6.76381 10.6999 8.0005 10.6999ZM12.2682 4.98756C13.6432 4.98756 14.762 3.86878 14.762 2.49378C14.762 1.11866 13.6433 0 12.2682 0C10.8931 0 9.77444 1.11866 9.77444 2.49375C9.77444 3.86875 10.8932 4.98756 12.2682 4.98756Z" fill="#BEC4D0"/>
<path d="M12.2674 5.92508C11.6002 5.92508 10.9732 6.10121 10.4306 6.40933C10.8978 6.96302 11.1799 7.67777 11.1799 8.4573C11.1799 9.56558 10.6101 10.543 9.74805 11.1125C11.0324 11.7558 11.9164 13.0846 11.9164 14.6162V15.5313C11.9164 15.6956 11.8878 15.8533 11.8358 16H15.531C15.7899 16 15.9997 15.7902 15.9997 15.5313V9.65724C15.9997 7.59927 14.3254 5.92508 12.2674 5.92508Z" fill="#BEC4D0"/>
</svg>
