<svg width="20" height="20" viewBox="0 0 20 20" fill="none" xmlns="http://www.w3.org/2000/svg">
<path d="M19.9998 13.535C19.9998 11.0531 18.576 8.83816 16.4435 7.76074C16.3774 12.5193 12.5193 16.3774 7.76074 16.4435C8.83816 18.576 11.0531 19.9998 13.535 19.9998C14.6986 19.9998 15.8302 19.6899 16.8244 19.101L19.9715 19.9715L19.101 16.8244C19.6899 15.8302 19.9998 14.6986 19.9998 13.535Z" fill="#093B59"/>
<path d="M15.2734 7.63671C15.2734 3.42578 11.8476 0 7.63671 0C3.42578 0 0 3.42578 0 7.63671C0 9.00909 0.365312 10.3453 1.05898 11.5184L0.0280468 15.2452L3.755 14.2145C4.92812 14.9081 6.26433 15.2734 7.63671 15.2734C11.8476 15.2734 15.2734 11.8476 15.2734 7.63671ZM6.46484 5.85937H5.29296C5.29296 4.56695 6.34429 3.51562 7.63671 3.51562C8.92913 3.51562 9.98046 4.56695 9.98046 5.85937C9.98046 6.51534 9.70272 7.14585 9.21827 7.58894L8.22265 8.50019V9.41405H7.05077V7.98417L8.4271 6.72441C8.67308 6.49933 8.80858 6.19218 8.80858 5.85937C8.80858 5.21316 8.28292 4.68749 7.63671 4.68749C6.9905 4.68749 6.46484 5.21316 6.46484 5.85937ZM7.05077 10.5859H8.22265V11.7578H7.05077V10.5859Z" fill="#093B59"/>
</svg>
