<svg width="25" height="20" viewBox="0 0 25 20" fill="none" xmlns="http://www.w3.org/2000/svg">
<path d="M3.82425 8.57848e-05H3.82215C3.70571 -0.000164838 3.59036 0.0226543 3.48279 0.0672253C3.37521 0.111796 3.27753 0.177236 3.19538 0.259767C3.11163 0.342887 3.04522 0.441819 3.00002 0.550816C2.95482 0.659813 2.93173 0.776704 2.93208 0.894701V14.3093C2.93208 14.8012 3.33385 15.2024 3.82779 15.2037C5.91012 15.2086 9.39885 15.6426 11.8056 18.1613V4.12249C11.8056 3.95574 11.763 3.79909 11.6826 3.66946C9.70727 0.488303 5.9113 0.00496796 3.82425 8.57848e-05ZM22.068 14.3093V0.894617C22.068 0.654549 21.9745 0.429043 21.8047 0.259683C21.7226 0.177173 21.6249 0.111747 21.5173 0.0671768C21.4098 0.0226069 21.2944 -0.000223945 21.178 1.65573e-06H21.1758C19.0889 0.004968 15.2929 0.488303 13.3175 3.66946C13.2371 3.79909 13.1946 3.95574 13.1946 4.12249V18.1612C15.6013 15.6426 19.09 15.2086 21.1724 15.2036C21.6662 15.2023 22.068 14.8011 22.068 14.3093Z" fill="white"/>
<path d="M24.1056 3.0937H23.4569V14.3093C23.4569 15.5653 22.4336 16.5895 21.1757 16.5926C19.4094 16.5968 16.4971 16.9421 14.4346 18.8943C18.0017 18.0209 21.7622 18.5886 23.9053 19.077C24.0366 19.1073 24.173 19.1075 24.3044 19.0775C24.4357 19.0476 24.5586 18.9883 24.6638 18.9041C24.769 18.8206 24.8538 18.7143 24.912 18.5933C24.9703 18.4723 25.0003 18.3397 25 18.2054V3.98815C25.0001 3.49497 24.5987 3.0937 24.1056 3.0937ZM1.5431 14.3093V3.0937H0.894447C0.401348 3.0937 0 3.49497 0 3.98815V18.2051C0 18.4787 0.122559 18.7334 0.336196 18.9039C0.441362 18.9881 0.564241 19.0474 0.695609 19.0773C0.826977 19.1073 0.963422 19.1071 1.0947 19.0768C3.23781 18.5883 6.99834 18.0206 10.5654 18.894C8.50289 16.942 5.59059 16.5967 3.82434 16.5925C2.56651 16.5895 1.5431 15.5653 1.5431 14.3093Z" fill="white"/>
</svg>
