<svg width="16" height="13" viewBox="0 0 16 13" fill="none" xmlns="http://www.w3.org/2000/svg">
<path d="M4.21873 0.0344238C1.89218 0.0344238 0 1.92723 0 4.25315C0.00119181 5.22668 0.338425 6.16995 0.954715 6.92358C1.57101 7.6772 2.42856 8.19497 3.38248 8.38938V9.6975H2.85124C2.63102 9.6975 2.41983 9.78498 2.26412 9.94069C2.10841 10.0964 2.02093 10.3076 2.02093 10.5278C2.02093 10.748 2.10841 10.9592 2.26412 11.1149C2.41983 11.2706 2.63102 11.3581 2.85124 11.3581H3.38248V11.7141C3.38248 11.9343 3.46996 12.1455 3.62568 12.3012C3.78139 12.4569 3.99258 12.5444 4.21279 12.5444C4.433 12.5444 4.6442 12.4569 4.79991 12.3012C4.95562 12.1455 5.0431 11.9343 5.0431 11.7141V11.3581H5.58779C5.808 11.3581 6.01919 11.2706 6.1749 11.1149C6.33062 10.9592 6.41809 10.748 6.41809 10.5278C6.41809 10.3076 6.33062 10.0964 6.1749 9.94069C6.01919 9.78498 5.808 9.6975 5.58779 9.6975H5.0431V8.39188C5.99961 8.19997 6.86024 7.68301 7.47895 6.92874C8.09766 6.17446 8.43632 5.22934 8.43746 4.25378C8.43746 1.92723 6.54591 0.0344238 4.21873 0.0344238ZM6.77747 4.25315C6.77771 4.75928 6.62786 5.25411 6.34685 5.67505C6.06584 6.096 5.66631 6.42415 5.19878 6.61801C4.73126 6.81187 4.21674 6.86272 3.72031 6.76413C3.22388 6.66554 2.76784 6.42194 2.40987 6.06415C2.0519 5.70635 1.80808 5.25043 1.70925 4.75405C1.61042 4.25767 1.66102 3.74313 1.85464 3.27551C2.04827 2.80788 2.37623 2.40819 2.79704 2.12698C3.21785 1.84576 3.71261 1.69567 4.21873 1.69567C4.89704 1.69649 5.54736 1.96623 6.02712 2.44576C6.50688 2.92528 6.77693 3.57546 6.77809 4.25378L6.77747 4.25315Z" fill="#BEC4D0"/>
<path d="M14.7658 5.37781C14.1834 4.79342 13.4413 4.3941 12.6327 4.23V2.77564L12.6911 2.83407C12.8468 2.9898 13.0581 3.07729 13.2783 3.07729C13.4985 3.07729 13.7098 2.9898 13.8655 2.83407C14.0212 2.67834 14.1087 2.46713 14.1087 2.24689C14.1087 2.02665 14.0212 1.81544 13.8655 1.6597L12.4814 0.275336C12.3045 0.0990107 12.0649 0 11.8152 0C11.5654 0 11.3258 0.0990107 11.1489 0.275336L9.64894 1.77533C9.57109 1.85225 9.5092 1.94381 9.46686 2.04474C9.42451 2.14567 9.40254 2.25397 9.4022 2.36342C9.40187 2.47287 9.42317 2.5813 9.46489 2.68249C9.50661 2.78367 9.56793 2.87561 9.64531 2.95302C9.7227 3.03042 9.81462 3.09176 9.91579 3.13351C10.017 3.17526 10.1254 3.19659 10.2348 3.19628C10.3443 3.19597 10.4526 3.17403 10.5535 3.13171C10.6545 3.08939 10.7461 3.02754 10.823 2.9497L10.9727 2.80001V4.22094C10.3257 4.34761 9.71733 4.62416 9.19649 5.02841C8.67566 5.43266 8.25682 5.95336 7.97358 6.54873C7.69035 7.1441 7.55059 7.79757 7.56554 8.45671C7.58048 9.11585 7.74971 9.76231 8.05963 10.3442C8.36956 10.9262 8.81157 11.4273 9.35019 11.8076C9.88881 12.1878 10.5091 12.4365 11.1612 12.5337C11.8133 12.6309 12.4791 12.5739 13.1052 12.3673C13.7313 12.1607 14.3002 11.8103 14.7664 11.344C16.4108 9.69967 16.4108 7.0228 14.7658 5.37781ZM13.5914 10.1706C13.2336 10.5282 12.7779 10.7716 12.2818 10.8702C11.7856 10.9687 11.2714 10.918 10.8042 10.7243C10.3369 10.5307 9.9375 10.2029 9.65651 9.78226C9.37553 9.36167 9.22556 8.86721 9.22556 8.36139C9.22556 7.85557 9.37553 7.36111 9.65651 6.94052C9.9375 6.51993 10.3369 6.19209 10.8042 5.99845C11.2714 5.8048 11.7856 5.75406 12.2818 5.85262C12.7779 5.95118 13.2336 6.19463 13.5914 6.55218C14.0703 7.03252 14.3392 7.68312 14.3392 8.36139C14.3392 9.03966 14.0703 9.69027 13.5914 10.1706Z" fill="#BEC4D0"/>
</svg>
