<svg width="26" height="26" viewBox="0 0 26 26" fill="none" xmlns="http://www.w3.org/2000/svg">
<path d="M25.3018 11.3099C25.301 11.3093 25.3004 11.3085 25.2998 11.3079L14.6928 0.70136C14.2406 0.248955 13.6395 0 13.0002 0C12.3608 0 11.7597 0.248955 11.3073 0.701309L0.705844 11.3025C0.702289 11.3061 0.69853 11.3098 0.695179 11.3134C-0.233298 12.2472 -0.231673 13.7622 0.699749 14.6937C1.12524 15.1194 1.68704 15.3658 2.28799 15.3918C2.31257 15.3942 2.3372 15.3953 2.36199 15.3953H2.78453V23.201C2.78453 24.7458 4.04149 26.0026 5.58631 26.0026H9.73612C10.1569 26.0026 10.4979 25.6613 10.4979 25.2408V19.1211C10.4979 18.4162 11.0714 17.8429 11.7763 17.8429H14.224C14.9289 17.8429 15.5022 18.4163 15.5022 19.1211V25.2408C15.5022 25.6614 15.8432 26.0026 16.2639 26.0026H20.4138C21.9588 26.0026 23.2155 24.7459 23.2155 23.201V15.3954H23.6076C24.2468 15.3954 24.8479 15.1464 25.3004 14.6939C26.2328 13.7611 26.2332 12.2432 25.3017 11.3098L25.3018 11.3099ZM24.2229 13.6167C24.1423 13.6978 24.0464 13.7621 23.9408 13.8059C23.8352 13.8497 23.7219 13.8721 23.6076 13.8718H22.4537C22.0329 13.8718 21.6919 14.2128 21.6919 14.6336V23.201C21.6919 23.9057 21.1186 24.479 20.4137 24.479H17.0257V19.1211C17.0257 17.5763 15.7689 16.3193 14.2239 16.3193H11.7764C10.2313 16.3193 8.97437 17.5763 8.97437 19.1211V24.479H5.58641C4.8817 24.479 4.30817 23.9057 4.30817 23.201V14.6336C4.30817 14.2128 3.96714 13.8718 3.54638 13.8718H2.41237C2.40048 13.8709 2.38858 13.8704 2.37666 13.8702C2.1497 13.8662 1.93685 13.7762 1.77739 13.6164C1.43813 13.2772 1.43813 12.7251 1.77739 12.3857C1.77754 12.3857 1.77754 12.3855 1.77774 12.3853L1.77835 12.3847L12.3849 1.77854C12.4655 1.69743 12.5614 1.63314 12.667 1.58937C12.7726 1.54561 12.8858 1.52325 13.0002 1.52359C13.2325 1.52359 13.4509 1.61404 13.6153 1.77854L24.2195 12.3825L24.2245 12.3873C24.562 12.7272 24.5614 13.2781 24.2229 13.6167Z" fill="#9AA6B2"/>
</svg>
