<svg width="27" height="21" viewBox="0 0 26 26" fill="none" xmlns="http://www.w3.org/2000/svg">
<path d="M25.3018 11.3099C25.301 11.3093 25.3004 11.3085 25.2998 11.3079L14.6928 0.70136C14.2407 0.248955 13.6396 0 13.0002 0C12.3608 0 11.7597 0.248955 11.3074 0.701309L0.705905 11.3025C0.70235 11.3061 0.698592 11.3098 0.69524 11.3134C-0.233237 12.2472 -0.231612 13.7622 0.69981 14.6937C1.1253 15.1194 1.6871 15.3658 2.28805 15.3918C2.31263 15.3942 2.33727 15.3953 2.36205 15.3953H2.78459V23.201C2.78459 24.7458 4.04155 26.0026 5.58637 26.0026H9.73618C10.1569 26.0026 10.498 25.6613 10.498 25.2408V19.1211C10.498 18.4162 11.0715 17.8429 11.7764 17.8429H14.224C14.9289 17.8429 15.5022 18.4163 15.5022 19.1211V25.2408C15.5022 25.6614 15.8432 26.0026 16.264 26.0026H20.4138C21.9588 26.0026 23.2156 24.7459 23.2156 23.201V15.3954H23.6076C24.2468 15.3954 24.8479 15.1464 25.3004 14.6939C26.2329 13.7611 26.2332 12.2432 25.3018 11.3098L25.3018 11.3099ZM24.223 13.6167C24.1424 13.6978 24.0465 13.7621 23.9409 13.8059C23.8352 13.8497 23.722 13.8721 23.6076 13.8718H22.4537C22.033 13.8718 21.692 14.2128 21.692 14.6336V23.201C21.692 23.9057 21.1186 24.479 20.4138 24.479H17.0258V19.1211C17.0258 17.5763 15.769 16.3193 14.224 16.3193H11.7764C10.2314 16.3193 8.97443 17.5763 8.97443 19.1211V24.479H5.58648C4.88176 24.479 4.30823 23.9057 4.30823 23.201V14.6336C4.30823 14.2128 3.9672 13.8718 3.54644 13.8718H2.41243C2.40054 13.8709 2.38864 13.8704 2.37673 13.8702C2.14976 13.8662 1.93692 13.7762 1.77745 13.6164C1.43819 13.2772 1.43819 12.7251 1.77745 12.3857C1.7776 12.3857 1.7776 12.3855 1.7778 12.3853L1.77841 12.3847L12.385 1.77854C12.4656 1.69743 12.5614 1.63314 12.667 1.58937C12.7727 1.54561 12.8859 1.52325 13.0002 1.52359C13.2325 1.52359 13.4509 1.61404 13.6154 1.77854L24.2196 12.3825L24.2246 12.3873C24.562 12.7272 24.5614 13.2781 24.223 13.6167Z" fill="#AD8138"/>
</svg>
