<svg width="83" height="83" viewBox="0 0 83 83" fill="none" xmlns="http://www.w3.org/2000/svg">
<path d="M83.0001 56.171C83.0001 45.8714 77.0912 36.6793 68.2417 32.208C67.9671 51.9562 51.9562 67.9671 32.208 68.2417C36.6793 77.0912 45.8714 83.0001 56.171 83.0001C61.0003 83.0001 65.6962 81.7139 69.8222 79.2703L82.8829 82.8829L79.2703 69.8224C81.7139 65.6962 83.0001 61.0001 83.0001 56.171Z" fill="#1C5272"/>
<path d="M63.3848 31.6924C63.3848 14.217 49.1678 0 31.6924 0C14.217 0 0 14.217 0 31.6924C0 37.3878 1.51605 42.933 4.39479 47.8014L0.116395 63.2676L15.5833 58.9901C20.4517 61.8687 25.997 63.3848 31.6924 63.3848C49.1678 63.3848 63.3848 49.1678 63.3848 31.6924ZM26.8291 24.3164H21.9658C21.9658 18.9529 26.3288 14.5898 31.6924 14.5898C37.0559 14.5898 41.4189 18.9529 41.4189 24.3164C41.4189 27.0387 40.2663 29.6553 38.2559 31.4941L34.124 35.2758V39.0684H29.2607V33.1343L34.9725 27.9063C35.9933 26.9722 36.5557 25.6976 36.5557 24.3164C36.5557 21.6346 34.3742 19.4531 31.6924 19.4531C29.0106 19.4531 26.8291 21.6346 26.8291 24.3164ZM29.2607 43.9316H34.124V48.7949H29.2607V43.9316Z" fill="#093B59"/>
</svg>
