<svg width="28" height="28" viewBox="0 0 28 28" fill="none" xmlns="http://www.w3.org/2000/svg">
<path d="M4.03599 1H19.168C19.9997 1.0051 20.7959 1.33729 21.3846 1.92478C21.9733 2.51227 22.3072 3.30784 22.314 4.1395L22.444 19.7915H23.9585C24.7331 19.7967 25.4741 20.1089 26.0188 20.6597C26.5635 21.2105 26.8675 21.9549 26.864 22.7295C26.8761 23.8138 26.4716 24.8614 25.7337 25.656C24.9959 26.4507 23.9812 26.9318 22.899 27H5.12799C3.99757 26.9949 2.91501 26.5431 2.11628 25.7431C1.31755 24.9432 0.867413 23.8599 0.863993 22.7295V4.172C0.865711 3.33126 1.20045 2.52545 1.79495 1.93095C2.38944 1.33646 3.19526 1.00172 4.03599 1ZM22.6325 26.0315C23.4944 26.0315 24.3211 25.6891 24.9306 25.0796C25.5401 24.4701 25.8825 23.6435 25.8825 22.7815C25.8826 22.2699 25.6816 21.7788 25.3229 21.414C24.9642 21.0492 24.4765 20.84 23.965 20.8315H9.35299V22.7815C9.35043 23.4011 9.21306 24.0128 8.95041 24.574C8.68776 25.1352 8.30612 25.6326 7.83199 26.0315H22.6325ZM1.891 4.2045V22.7945C1.89313 23.2213 1.9793 23.6435 2.1446 24.037C2.3099 24.4305 2.55109 24.7876 2.85439 25.0878C3.15769 25.3881 3.51716 25.6257 3.91228 25.7871C4.30741 25.9484 4.73045 26.0304 5.15724 26.0282C5.58404 26.0261 6.00624 25.9399 6.39973 25.7746C6.79322 25.6093 7.1503 25.3682 7.45058 25.0649C7.75086 24.7616 7.98846 24.4021 8.14982 24.007C8.31118 23.6118 8.39313 23.1888 8.39099 22.762V20.3245C8.39982 20.2027 8.45178 20.088 8.53756 20.001C8.62333 19.914 8.7373 19.8605 8.85899 19.85H21.443L21.313 4.198C21.3113 3.63024 21.0845 3.08632 20.6824 2.68546C20.2804 2.2846 19.7358 2.0595 19.168 2.0595H4.03599C3.75345 2.06035 3.47385 2.11685 3.21314 2.22576C2.95244 2.33467 2.71574 2.49386 2.51655 2.69425C2.31737 2.89464 2.15961 3.1323 2.05228 3.39366C1.94494 3.65502 1.89014 3.93496 1.891 4.2175V4.2045Z" fill="#AD8138" stroke="#AD8138" stroke-width="0.3"/>
<path d="M17.7315 7.24004H11.914C11.7813 7.24004 11.654 7.18731 11.5601 7.09345C11.4662 6.99959 11.4135 6.87228 11.4135 6.73954C11.4135 6.6068 11.4662 6.4795 11.5601 6.38564C11.654 6.29178 11.7813 6.23904 11.914 6.23904H17.712C17.8426 6.24397 17.9663 6.29847 18.0581 6.39146C18.1499 6.48445 18.2028 6.60893 18.206 6.73954C18.2077 6.80357 18.1968 6.86731 18.1739 6.92712C18.151 6.98693 18.1165 7.04164 18.0725 7.08812C18.0284 7.1346 17.9756 7.17194 17.9171 7.19801C17.8586 7.22407 17.7955 7.23836 17.7315 7.24004Z" fill="#AD8138" stroke="#AD8138" stroke-width="0.3"/>
<path d="M5.98602 14.9165H17.686C17.8188 14.9165 17.9461 14.9693 18.0399 15.0631C18.1338 15.157 18.1865 15.2843 18.1865 15.417C18.1865 15.5498 18.1338 15.6771 18.0399 15.7709C17.9461 15.8648 17.8188 15.9175 17.686 15.9175H5.98602C5.85328 15.9175 5.72598 15.8648 5.63212 15.7709C5.53826 15.6771 5.48552 15.5498 5.48552 15.417C5.48552 15.2843 5.53826 15.157 5.63212 15.0631C5.72598 14.9693 5.85328 14.9165 5.98602 14.9165Z" fill="#AD8138" stroke="#AD8138" stroke-width="0.3"/>
<path d="M5.98602 10.581H17.686C17.8188 10.581 17.9461 10.6337 18.0399 10.7276C18.1338 10.8214 18.1865 10.9488 18.1865 11.0815C18.1865 11.2142 18.1338 11.3415 18.0399 11.4354C17.9461 11.5293 17.8188 11.582 17.686 11.582H5.98602C5.85328 11.582 5.72598 11.5293 5.63212 11.4354C5.53826 11.3415 5.48552 11.2142 5.48552 11.0815C5.48552 10.9488 5.53826 10.8214 5.63212 10.7276C5.72598 10.6337 5.85328 10.581 5.98602 10.581Z" fill="#AD8138" stroke="#AD8138" stroke-width="0.3"/>
</svg>
