<svg width="27" height="21" viewBox="0 0 28 28" fill="none" xmlns="http://www.w3.org/2000/svg">
<path d="M4.03596 1H19.168C19.9996 1.0051 20.7959 1.33729 21.3846 1.92478C21.9733 2.51227 22.3071 3.30784 22.314 4.1395L22.444 19.7915H23.9585C24.7331 19.7967 25.474 20.1089 26.0187 20.6597C26.5635 21.2105 26.8674 21.9549 26.864 22.7295C26.8761 23.8138 26.4715 24.8614 25.7337 25.656C24.9959 26.4507 23.9812 26.9318 22.899 27H5.12796C3.99754 26.9949 2.91498 26.5431 2.11625 25.7431C1.31752 24.9432 0.867382 23.8599 0.863962 22.7295V4.172C0.865681 3.33126 1.20042 2.52545 1.79492 1.93095C2.38941 1.33646 3.19522 1.00172 4.03596 1ZM22.6325 26.0315C23.4944 26.0315 24.3211 25.6891 24.9306 25.0796C25.5401 24.4701 25.8825 23.6435 25.8825 22.7815C25.8825 22.2699 25.6816 21.7788 25.3229 21.414C24.9642 21.0492 24.4765 20.84 23.965 20.8315H9.35296V22.7815C9.3504 23.4011 9.21303 24.0128 8.95038 24.574C8.68773 25.1352 8.30609 25.6326 7.83196 26.0315H22.6325ZM1.89096 4.2045V22.7945C1.8931 23.2213 1.97927 23.6435 2.14457 24.037C2.30987 24.4305 2.55106 24.7876 2.85436 25.0878C3.15766 25.3881 3.51713 25.6257 3.91225 25.7871C4.30738 25.9484 4.73042 26.0304 5.15721 26.0282C5.58401 26.0261 6.0062 25.9399 6.3997 25.7746C6.79319 25.6093 7.15027 25.3682 7.45055 25.0649C7.75083 24.7616 7.98843 24.4021 8.14979 24.007C8.31115 23.6118 8.3931 23.1888 8.39096 22.762V20.3245C8.39979 20.2027 8.45175 20.088 8.53753 20.001C8.6233 19.914 8.73727 19.8605 8.85896 19.85H21.443L21.313 4.198C21.3112 3.63024 21.0845 3.08632 20.6824 2.68546C20.2803 2.2846 19.7357 2.0595 19.168 2.0595H4.03596C3.75342 2.06035 3.47382 2.11685 3.21311 2.22576C2.95241 2.33467 2.71571 2.49386 2.51652 2.69425C2.31734 2.89464 2.15958 3.1323 2.05225 3.39366C1.94491 3.65502 1.89011 3.93496 1.89096 4.2175V4.2045Z" fill="#9AA6B2" stroke="#9AA6B2" stroke-width="0.3"/>
<path d="M17.7315 7.24004H11.914C11.7812 7.24004 11.6539 7.18731 11.5601 7.09345C11.4662 6.99959 11.4135 6.87228 11.4135 6.73954C11.4135 6.6068 11.4662 6.4795 11.5601 6.38564C11.6539 6.29178 11.7812 6.23904 11.914 6.23904H17.712C17.8425 6.24397 17.9663 6.29847 18.0581 6.39146C18.1499 6.48445 18.2028 6.60893 18.206 6.73954C18.2077 6.80357 18.1968 6.86731 18.1739 6.92712C18.151 6.98693 18.1165 7.04164 18.0724 7.08812C18.0284 7.1346 17.9756 7.17194 17.9171 7.19801C17.8586 7.22407 17.7955 7.23836 17.7315 7.24004Z" fill="#9AA6B2" stroke="#9AA6B2" stroke-width="0.3"/>
<path d="M5.98596 14.9165H17.686C17.8187 14.9165 17.946 14.9693 18.0399 15.0631C18.1337 15.157 18.1865 15.2843 18.1865 15.417C18.1865 15.5498 18.1337 15.6771 18.0399 15.7709C17.946 15.8648 17.8187 15.9175 17.686 15.9175H5.98596C5.85322 15.9175 5.72592 15.8648 5.63206 15.7709C5.5382 15.6771 5.48546 15.5498 5.48546 15.417C5.48546 15.2843 5.5382 15.157 5.63206 15.0631C5.72592 14.9693 5.85322 14.9165 5.98596 14.9165Z" fill="#9AA6B2" stroke="#9AA6B2" stroke-width="0.3"/>
<path d="M5.98596 10.581H17.686C17.8187 10.581 17.946 10.6337 18.0399 10.7276C18.1337 10.8214 18.1865 10.9488 18.1865 11.0815C18.1865 11.2142 18.1337 11.3415 18.0399 11.4354C17.946 11.5293 17.8187 11.582 17.686 11.582H5.98596C5.85322 11.582 5.72592 11.5293 5.63206 11.4354C5.5382 11.3415 5.48546 11.2142 5.48546 11.0815C5.48546 10.9488 5.5382 10.8214 5.63206 10.7276C5.72592 10.6337 5.85322 10.581 5.98596 10.581Z" fill="#9AA6B2" stroke="#9AA6B2" stroke-width="0.3"/>
</svg>
