<svg width="16" height="16" viewBox="0 0 16 16" fill="none" xmlns="http://www.w3.org/2000/svg">
<path d="M0.615463 13.9922C0.506885 14.3926 0.615463 14.8045 0.912624 15.0962C1.20407 15.3879 1.61552 15.5023 2.01555 15.3937L3.90709 14.8846C5.14002 15.6171 6.54783 16.0025 7.98162 16C10.056 16 12.119 15.2049 13.6562 13.6662C15.2621 12.0588 16.1135 9.8337 15.9878 7.56282C15.8621 5.29193 14.7649 3.16977 12.9762 1.73974C10.0617 -0.599787 5.85006 -0.576906 2.95275 1.79122C-0.133153 4.31951 -0.898913 8.70684 1.12406 12.0989L0.615463 13.9922ZM8.01019 12.5794C7.69589 12.5794 7.43873 12.322 7.43873 12.0073C7.43873 11.6927 7.69017 11.4353 8.00448 11.4353H8.01019C8.32449 11.4353 8.58165 11.6927 8.58165 12.0073C8.58165 12.322 8.32449 12.5794 8.01019 12.5794ZM6.39295 3.98775C7.01013 3.49582 7.81589 3.31277 8.60451 3.49582C9.54742 3.71318 10.296 4.46251 10.5132 5.41205C10.7589 6.48172 10.3303 7.56854 9.4217 8.16915C8.89024 8.5238 8.57022 9.15301 8.57022 9.84514C8.57022 10.1655 8.31307 10.4172 7.99876 10.4172C7.68446 10.4172 7.4273 10.1655 7.4273 9.84514C7.4273 8.76976 7.9359 7.7859 8.79309 7.21389C9.3017 6.88212 9.54171 6.27007 9.39884 5.66374C9.28455 5.15465 8.85595 4.73136 8.34735 4.61124C7.8959 4.50828 7.45587 4.60552 7.10156 4.8858C6.75869 5.16037 6.55867 5.57222 6.55867 6.01267C6.55867 6.32727 6.30152 6.58468 5.98721 6.58468C5.67291 6.58468 5.41575 6.32727 5.41575 6.01267C5.41575 5.22329 5.77006 4.4854 6.39295 3.98775Z" fill="#BEC4D0"/>
</svg>
