<svg width="27" height="21" viewBox="0 0 27 21" fill="none" xmlns="http://www.w3.org/2000/svg">
<path fill-rule="evenodd" clip-rule="evenodd" d="M24.9665 14.9207C24.9665 17.2912 23.0383 19.2164 20.6708 19.2164H6.57729C4.20984 19.2164 2.28154 17.2912 2.28154 14.9207V5.95322C2.28101 5.18923 2.48568 4.43912 2.87415 3.78127L9.75092 10.658C10.7797 11.6899 12.1575 12.2584 13.6255 12.2584C15.0905 12.2584 16.4683 11.6899 17.4971 10.658L24.3738 3.78127C24.7623 4.4391 24.967 5.18922 24.9665 5.95322V14.9207H24.9665ZM20.6708 1.65751H6.57729C5.59963 1.65751 4.69713 1.98839 3.97518 2.5389L10.9211 9.48787C11.6401 10.2038 12.5997 10.6009 13.6255 10.6009C14.6483 10.6009 15.6079 10.2038 16.3269 9.48787L23.2728 2.5389C22.5509 1.98839 21.6485 1.65751 20.6708 1.65751ZM20.6708 0H6.57729C3.29533 0 0.624023 2.67131 0.624023 5.95327V14.9208C0.624023 18.2058 3.29533 20.8741 6.57729 20.8741H20.6708C23.9527 20.8741 26.624 18.2058 26.624 14.9208V5.95322C26.624 2.67125 23.9527 0 20.6708 0Z" fill="#9AA6B2"/>
</svg>
