<svg width="18" height="18" viewBox="0 0 18 18" fill="none" xmlns="http://www.w3.org/2000/svg">
<path d="M16.7499 13.2791L15.5882 11.6979C15.4296 11.483 15.3443 11.2273 15.3436 10.9652V6.42742C15.3436 4.72276 14.6279 3.08792 13.3538 1.88255C12.0798 0.677173 10.3518 0 8.55 0C6.74821 0 5.02022 0.677173 3.74616 1.88255C2.47211 3.08792 1.75635 4.72276 1.75635 6.42742V10.9652C1.7557 11.2273 1.67036 11.483 1.51178 11.6979L0.350066 13.2791C0.174164 13.4634 0.0584942 13.6921 0.017043 13.9374C-0.0244083 14.1826 0.0101347 14.434 0.116495 14.6611C0.222855 14.8882 0.396477 15.0813 0.616365 15.217C0.836252 15.3527 1.09299 15.4252 1.35553 15.4258H5.22111C5.37704 16.1523 5.79363 16.8054 6.40031 17.2746C7.007 17.7437 7.76645 18 8.55 18C9.33355 18 10.093 17.7437 10.6997 17.2746C11.3064 16.8054 11.723 16.1523 11.8789 15.4258H15.7445C16.007 15.4252 16.2637 15.3527 16.4836 15.217C16.7035 15.0813 16.8771 14.8882 16.9835 14.6611C17.0899 14.434 17.1244 14.1826 17.083 13.9374C17.0415 13.6921 16.9258 13.4634 16.7499 13.2791ZM8.55 16.7113C8.12951 16.7102 7.71968 16.586 7.37669 16.3559C7.03371 16.1258 6.77435 15.8009 6.63419 15.4258H10.4658C10.3256 15.8009 10.0663 16.1258 9.72331 16.3559C9.38032 16.586 8.97049 16.7102 8.55 16.7113ZM1.35553 14.1403C1.38623 14.1134 1.41358 14.0832 1.43705 14.0503L2.62594 12.4306C2.94309 12.0008 3.11377 11.4894 3.11508 10.9652V6.42742C3.11508 5.06369 3.68769 3.75582 4.70693 2.79152C5.72618 1.82722 7.10857 1.28548 8.55 1.28548C9.99143 1.28548 11.3738 1.82722 12.3931 2.79152C13.4123 3.75582 13.9849 5.06369 13.9849 6.42742V10.9652C13.9862 11.4894 14.1569 12.0008 14.4741 12.4306L15.6629 14.0503C15.6864 14.0832 15.7138 14.1134 15.7445 14.1403H1.35553Z" fill="#003B5D"/>
</svg>
