<svg width="17" height="16" viewBox="0 0 17 16" fill="none" xmlns="http://www.w3.org/2000/svg">
<path d="M14.8623 0C15.3935 0 15.8623 0.21875 16.2685 0.59375C16.6435 1 16.8623 1.46875 16.8623 2V11C16.8623 11.5625 16.6435 12.0312 16.2685 12.4062C15.8623 12.8125 15.3935 13 14.8623 13H10.3623L6.45603 15.9375C6.39353 16 6.29978 16 6.20603 16C6.11228 16 6.01853 15.9688 5.95603 15.9062C5.89353 15.8438 5.86228 15.75 5.86228 15.625V13H2.86228C2.29978 13 1.83103 12.8125 1.45603 12.4062C1.04978 12.0312 0.862276 11.5625 0.862276 11V2C0.862276 1.46875 1.04978 1 1.45603 0.59375C1.83103 0.21875 2.29978 0 2.86228 0H14.8623ZM15.3623 11V2C15.3623 1.875 15.2998 1.75 15.206 1.65625C15.1123 1.5625 14.9873 1.5 14.8623 1.5H2.86228C2.70603 1.5 2.58103 1.5625 2.48728 1.65625C2.39353 1.75 2.36228 1.875 2.36228 2V11C2.36228 11.1562 2.39353 11.2812 2.48728 11.375C2.58103 11.4688 2.70603 11.5 2.86228 11.5H7.36228V13.375L9.86228 11.5H14.8623C14.9873 11.5 15.1123 11.4688 15.206 11.375C15.2998 11.2812 15.3623 11.1562 15.3623 11ZM12.3623 4.25C12.4873 4.25 12.6123 4.3125 12.706 4.40625C12.7998 4.5 12.8623 4.625 12.8623 4.75V5.25C12.8623 5.40625 12.7998 5.53125 12.706 5.625C12.6123 5.71875 12.4873 5.75 12.3623 5.75H5.36228C5.20603 5.75 5.08103 5.71875 4.98728 5.625C4.89353 5.53125 4.86228 5.40625 4.86228 5.25V4.75C4.86228 4.625 4.89353 4.5 4.98728 4.40625C5.08103 4.3125 5.20603 4.25 5.36228 4.25H12.3623ZM9.36228 7.25C9.48728 7.25 9.61228 7.3125 9.70603 7.40625C9.79978 7.5 9.86228 7.625 9.86228 7.75V8.25C9.86228 8.40625 9.79978 8.53125 9.70603 8.625C9.61228 8.71875 9.48728 8.75 9.36228 8.75H5.36228C5.20603 8.75 5.08103 8.71875 4.98728 8.625C4.89353 8.53125 4.86228 8.40625 4.86228 8.25V7.75C4.86228 7.625 4.89353 7.5 4.98728 7.40625C5.08103 7.3125 5.20603 7.25 5.36228 7.25H9.36228Z" fill="#093B59"/>
</svg>
