<svg width="20" height="20" viewBox="0 0 20 20" fill="none" xmlns="http://www.w3.org/2000/svg">
<path d="M11.7915 9.89144C14.5196 9.89144 16.7388 7.6719 16.7388 4.94377C16.7388 2.21563 14.5196 -0.00390625 11.7915 -0.00390625C9.06334 -0.00390625 6.8438 2.21563 6.8438 4.94377C6.8438 7.6719 9.06334 9.89144 11.7915 9.89144ZM11.2055 2.03555V1.90118C11.2055 1.57735 11.4676 1.31524 11.7915 1.31524C12.1149 1.31524 12.3774 1.57735 12.3774 1.90118V2.03633C13.0747 2.18594 13.5993 2.80704 13.5993 3.54845C13.5993 3.87189 13.3368 4.13439 13.0134 4.13439C12.6895 4.13439 12.4274 3.87189 12.4274 3.54845C12.4274 3.34181 12.2591 3.17345 12.0524 3.17345H11.527C11.3204 3.17345 11.152 3.34181 11.152 3.54845C11.1521 3.60702 11.1659 3.66477 11.1923 3.71706C11.2186 3.76936 11.2569 3.81476 11.304 3.84962L11.7915 4.21056L12.9759 5.08713C13.3649 5.37502 13.5993 5.83557 13.6024 6.31994V6.32541C13.6052 6.73869 13.4469 7.12854 13.1563 7.42268C12.9407 7.64104 12.6712 7.78752 12.3774 7.84924V7.98635C12.3774 8.31018 12.1149 8.57229 11.7915 8.57229C11.4676 8.57229 11.2055 8.31018 11.2055 7.98635V7.8512C10.9196 7.79026 10.6567 7.64963 10.4442 7.43948C10.1501 7.14924 9.98678 6.76174 9.98444 6.34846C9.98248 6.02502 10.243 5.76096 10.5665 5.759H10.5704C10.8923 5.759 11.1544 6.01916 11.1563 6.34143C11.1565 6.39067 11.1664 6.43939 11.1855 6.48479C11.2046 6.53019 11.2324 6.57138 11.2674 6.606C11.3025 6.64062 11.344 6.66799 11.3896 6.68653C11.4352 6.70508 11.484 6.71444 11.5333 6.71408C11.857 6.71213 11.7364 6.71283 12.0579 6.71096C12.2659 6.70932 12.4321 6.54053 12.4305 6.33322V6.32775C12.4298 6.21057 12.3731 6.09885 12.2786 6.02893L11.7915 5.66838L10.6067 4.79181C10.2145 4.50119 9.98014 4.03634 9.98014 3.54845C9.98014 2.80548 10.5063 2.18399 11.2055 2.03555ZM3.775 12.7068C3.62481 12.4464 3.29117 12.3558 3.02918 12.5069L0.273001 14.0979C0.012024 14.249 -0.0775075 14.5828 0.073157 14.8441L2.89012 19.7231C3.0409 19.984 3.3745 20.0736 3.63594 19.923L6.39212 18.3315C6.65349 18.1808 6.74267 17.847 6.59197 17.5857L3.775 12.7068ZM19.5676 11.7328C19.3024 11.3645 18.7891 11.2813 18.4211 11.5465C17.3047 12.3508 15.161 13.8954 14.9907 14.0184C14.9129 14.0847 14.8304 14.1452 14.7438 14.1993C14.4067 14.4114 14.0157 14.5247 13.6075 14.5247H10.8008C10.4774 14.5247 10.2149 14.2625 10.2149 13.9387C10.2149 13.6145 10.4778 13.3528 10.8008 13.3528H13.8024C14.2434 13.3528 14.5965 12.9856 14.5782 12.5438C14.561 12.1246 14.2032 11.7996 13.7836 11.7996H11.4989C11.3442 11.636 11.1746 11.486 10.993 11.352C10.3684 10.8914 9.59651 10.6192 8.76096 10.6192C7.27541 10.6192 5.79728 11.5551 5.18438 12.8043L7.58127 16.9555H12.0774C12.9602 16.9555 13.8297 16.7297 14.595 16.2895C14.8602 16.1372 15.1442 15.954 15.452 15.7329C16.7418 14.8063 19.379 12.8813 19.3809 12.8801C19.7497 12.6153 19.8333 12.1012 19.5676 11.7328Z" fill="#093B59"/>
</svg>
