<svg width="16" height="17" viewBox="0 0 16 17" fill="none" xmlns="http://www.w3.org/2000/svg">
<path d="M8.00122 8.82768C10.5548 8.82768 12.6422 6.84243 12.6422 4.41384C12.6422 1.98525 10.5548 0 8.00122 0C5.44767 0 3.36032 1.98525 3.36032 4.41384C3.36032 6.84243 5.44771 8.82768 8.00122 8.82768ZM15.9658 12.3549C15.8442 12.0658 15.6821 11.7959 15.4997 11.5454C14.5674 10.2347 13.1286 9.36734 11.5073 9.15532C11.3047 9.13606 11.0817 9.17458 10.9196 9.29023C10.0684 9.88774 9.05512 10.1961 8.00126 10.1961C6.94739 10.1961 5.93411 9.88774 5.08293 9.29023C4.92078 9.17458 4.69785 9.11677 4.49521 9.15532C2.87392 9.36734 1.41478 10.2347 0.502813 11.5454C0.32042 11.7959 0.158276 12.0851 0.0367065 12.3549C-0.0240782 12.4705 -0.00382961 12.6055 0.0569551 12.7211C0.2191 12.9909 0.421741 13.2608 0.604134 13.4921C0.887848 13.8583 1.19185 14.186 1.53639 14.4943C1.8201 14.7642 2.14435 15.0147 2.46864 15.2653C4.06964 16.4025 5.99493 17 7.98101 17C9.96708 17 11.8924 16.4025 13.4934 15.2653C13.8176 15.034 14.1419 14.7642 14.4256 14.4943C14.7499 14.186 15.0741 13.8583 15.3579 13.4921C15.5605 13.2415 15.743 12.9909 15.9051 12.7211C16.0063 12.6055 16.0266 12.4705 15.9658 12.3549Z" fill="#BEC4D0"/>
</svg>
