<svg width="22" height="25" viewBox="0 0 22 25" fill="none" xmlns="http://www.w3.org/2000/svg">
<path d="M21.5016 1.21002C21.5016 0.542801 20.9587 0 20.2914 0H1.21007C0.54285 0 0 0.542801 0 1.21002V6.18358L4.89182e-05 6.1919L0 6.19665C0 7.59374 0.465321 8.94511 1.31036 10.0017C2.02579 10.8964 2.93103 11.4671 3.85277 11.6196C5.02182 14.27 7.6742 16.1248 10.752 16.1248C13.83 16.1248 16.4825 14.2698 17.6515 11.6192C18.5723 11.466 19.4765 10.8955 20.1912 10.0017C21.0363 8.94511 21.5016 7.59374 21.5016 6.19665L21.5015 6.19195L21.5016 6.18358V1.21002ZM2.42322 9.11172C1.78934 8.31901 1.42558 7.25734 1.42499 6.1988L1.42514 6.18618L1.42499 6.17242V1.42499H3.21555L3.2155 1.42704V8.56951L3.2156 8.58008L3.2155 8.5883C3.2155 9.04418 3.25622 9.49071 3.33414 9.92451C3.01135 9.73186 2.69854 9.456 2.42322 9.11172ZM14.7156 6.35636L13.2501 7.78492L13.5961 9.80205C13.6186 9.93308 13.604 10.0678 13.5539 10.1909C13.5038 10.3141 13.4202 10.4207 13.3127 10.4989C13.2051 10.577 13.0779 10.6235 12.9453 10.6331C12.8127 10.6427 12.68 10.6151 12.5624 10.5532L10.7508 9.60083L8.93934 10.5532C8.82166 10.6151 8.68903 10.6428 8.55643 10.6332C8.42383 10.6236 8.29656 10.5771 8.18901 10.4989C8.08143 10.4208 7.99787 10.3141 7.94778 10.191C7.89769 10.0678 7.88307 9.93308 7.90557 9.80205L8.25156 7.78492L6.78605 6.35636C6.69086 6.26356 6.62353 6.14598 6.59167 6.01692C6.55982 5.88785 6.5647 5.75245 6.60578 5.62602C6.64686 5.49958 6.72249 5.38717 6.82412 5.30147C6.92575 5.21578 7.04933 5.16023 7.18089 5.1411L9.20624 4.84679L10.112 3.01154C10.1708 2.89232 10.2618 2.79194 10.3747 2.72175C10.4876 2.65155 10.6179 2.61436 10.7509 2.61436C10.8838 2.61436 11.0141 2.65155 11.1271 2.72175C11.24 2.79194 11.331 2.89232 11.3898 3.01154L12.2956 4.84679L14.3209 5.1411C14.4525 5.16021 14.5761 5.21575 14.6777 5.30145C14.7794 5.38714 14.855 5.49957 14.8961 5.62602C14.9371 5.75246 14.942 5.88787 14.9101 6.01694C14.8782 6.14601 14.8109 6.26358 14.7156 6.35636ZM20.0766 6.17247L20.0765 6.18622L20.0766 6.19866C20.0762 7.25734 19.7124 8.31891 19.0784 9.11172C18.8038 9.45502 18.492 9.73019 18.1702 9.92274C18.2491 9.4823 18.2888 9.03571 18.2886 8.58825L18.2885 8.58018L18.2886 8.56946V1.427L18.2885 1.42494H20.0767L20.0766 6.17247Z" fill="white"/>
<path d="M11.1834 5.81331L10.7508 4.93675L10.3183 5.81331C10.2671 5.91689 10.1916 6.00649 10.0981 6.07439C10.0047 6.14229 9.89613 6.18645 9.78182 6.20306L8.81442 6.34368L9.51443 7.02602C9.59715 7.10666 9.65903 7.2062 9.69472 7.31606C9.73041 7.42593 9.73885 7.54283 9.71932 7.65668L9.55403 8.62012L10.4193 8.16522C10.5215 8.11144 10.6353 8.08334 10.7508 8.08334C10.8664 8.08334 10.9801 8.11144 11.0824 8.16522L11.9476 8.62012L11.7824 7.65668C11.7628 7.54283 11.7713 7.42593 11.807 7.31606C11.8426 7.2062 11.9045 7.10666 11.9872 7.02602L12.6873 6.34368L11.7199 6.20306C11.6055 6.18646 11.497 6.1423 11.4035 6.0744C11.3101 6.0065 11.2345 5.9169 11.1834 5.81331ZM10.7507 17.4591C10.0151 17.4596 9.28339 17.352 8.57904 17.1399V20.5946H12.9225V17.1398C12.2181 17.352 11.4863 17.4596 10.7507 17.4591ZM7.05959 25H14.4419C14.4975 25 14.5508 24.9779 14.5901 24.9386C14.6294 24.8993 14.6515 24.846 14.6515 24.7904V22.1014C14.6515 22.0458 14.6294 21.9925 14.5901 21.9532C14.5508 21.9139 14.4975 21.8918 14.4419 21.8918H7.05959C7.004 21.8918 6.9507 21.9139 6.91139 21.9532C6.87209 21.9925 6.85001 22.0458 6.85001 22.1014V24.7904C6.85001 24.846 6.87209 24.8993 6.91139 24.9386C6.9507 24.9779 7.004 25 7.05959 25Z" fill="white"/>
</svg>
