<svg width="30" height="27" viewBox="0 0 30 27" fill="none" xmlns="http://www.w3.org/2000/svg">
<path fill-rule="evenodd" clip-rule="evenodd" d="M5.50795 13.1309V0.538924C5.50795 0.395992 5.56473 0.258915 5.6658 0.157847C5.76687 0.0567794 5.90395 0 6.04688 0H18.2018L24.3703 6.84002V15.4375C24.3703 15.4375 24.3724 16.0923 24.318 17.099L21.2833 15.998C21.105 15.9333 20.9128 15.9169 20.7261 15.9503C20.5394 15.9837 20.3649 16.0657 20.22 16.1882L18.586 17.5695C18.4509 17.6838 18.2897 17.763 18.1166 17.8002C17.9436 17.8375 17.764 17.8315 17.5939 17.7829L14.3743 16.8629L17.4834 19.0838C17.6744 19.2202 17.9047 19.2906 18.1393 19.2841C18.3739 19.2777 18.6 19.1949 18.7833 19.0483L20.3628 17.7845C20.5087 17.668 20.6823 17.5913 20.8667 17.5619C21.0511 17.5325 21.24 17.5515 21.4148 17.6169L24.2043 18.6629C23.9903 20.9878 23.4988 24.0365 22.373 25.9292C22.3245 26.0058 22.2574 26.0689 22.178 26.1126C22.0986 26.1564 22.0094 26.1793 21.9187 26.1793C19.8563 26.1809 7.61137 26.1809 4.18867 26.1809C4.09574 26.1808 4.00442 26.1567 3.92358 26.1108C3.84273 26.065 3.77511 25.9991 3.72727 25.9194C3.67944 25.8397 3.65302 25.749 3.65058 25.6562C3.64813 25.5633 3.66976 25.4713 3.71334 25.3892C5.38562 21.758 5.50795 15.4375 5.50795 15.4375V14.7309L7.87275 13.8444C8.04752 13.7789 8.2363 13.7599 8.42061 13.7893C8.60492 13.8187 8.77844 13.8954 8.92419 14.012L10.5043 15.2758C10.6876 15.4224 10.9137 15.5053 11.1483 15.5117C11.3829 15.5181 11.6132 15.4478 11.8042 15.3114L14.9132 13.0905L11.6937 14.0104C11.5235 14.059 11.344 14.065 11.171 14.0278C10.9979 13.9905 10.8367 13.9113 10.7016 13.797L9.06754 12.4157C8.92272 12.2933 8.74814 12.2112 8.56145 12.1778C8.37475 12.1444 8.18255 12.1608 8.00425 12.2255L5.50795 13.1309Z" fill="url(#paint0_linear_877_6064)"/>
<path fill-rule="evenodd" clip-rule="evenodd" d="M23.9351 18.5625L24.2051 18.6703C23.9912 20.9952 23.4997 24.0466 22.3733 25.9404C22.3248 26.017 22.2577 26.08 22.1783 26.1238C22.0989 26.1675 22.0097 26.1904 21.919 26.1904C19.8565 26.192 7.61166 26.192 4.18896 26.192C4.09595 26.192 4.00455 26.1679 3.92363 26.122C3.84271 26.0762 3.77504 26.0101 3.72719 25.9304C3.67934 25.8506 3.65294 25.7599 3.65057 25.6669C3.64819 25.5739 3.66991 25.4819 3.71362 25.3998L3.73464 25.3535C10.3709 25.6655 20.008 24.5031 21.2771 24.0062C22.2203 23.637 23.3348 21.061 23.9351 18.5625Z" fill="url(#paint1_linear_877_6064)"/>
<path fill-rule="evenodd" clip-rule="evenodd" d="M24.3707 6.84002C22.735 6.19385 21.0024 6.17553 19.2245 6.45038C19.143 6.46317 19.0598 6.45704 18.9811 6.43248C18.9024 6.40792 18.8304 6.36558 18.7707 6.30873C18.7109 6.25189 18.6651 6.18207 18.6367 6.10467C18.6083 6.02728 18.5981 5.94438 18.6069 5.86241C18.802 3.87163 18.6053 1.92396 18.2021 0C20.8095 1.93527 22.8687 4.21384 24.3707 6.84002Z" fill="url(#paint2_linear_877_6064)"/>
<path fill-rule="evenodd" clip-rule="evenodd" d="M1.03034 8.65975L3.72496 11.8232C3.77082 11.8771 3.82684 11.9214 3.88982 11.9536C3.9528 11.9858 4.0215 12.0053 4.09201 12.0109C4.16253 12.0166 4.23346 12.0083 4.30077 11.9866C4.36808 11.9648 4.43044 11.93 4.4843 11.8841C4.53816 11.8383 4.58245 11.7822 4.61466 11.7193C4.64687 11.6563 4.66636 11.5876 4.67201 11.5171C4.67767 11.4466 4.66938 11.3756 4.64762 11.3083C4.62586 11.241 4.59106 11.1786 4.5452 11.1248L1.85058 7.9613C1.80552 7.90491 1.74958 7.85814 1.6861 7.82377C1.62261 7.78941 1.55287 7.76815 1.48101 7.76125C1.40916 7.75436 1.33664 7.76197 1.26778 7.78364C1.19892 7.80531 1.13512 7.84059 1.08016 7.88739C1.02519 7.93419 0.980194 7.99156 0.947828 8.05609C0.915462 8.12061 0.896389 8.19098 0.891743 8.26302C0.887096 8.33506 0.89697 8.4073 0.920778 8.47545C0.944586 8.5436 0.981843 8.60627 1.03034 8.65975Z" fill="#9A6F32"/>
<path fill-rule="evenodd" clip-rule="evenodd" d="M1.05956 13.3623L2.9722 13.8748C3.11028 13.9119 3.2574 13.8925 3.38121 13.8211C3.50501 13.7496 3.59537 13.6319 3.63239 13.4938C3.6694 13.3557 3.65006 13.2086 3.5786 13.0848C3.50715 12.961 3.38944 12.8707 3.25137 12.8336L1.33873 12.3211C1.20065 12.2841 1.05353 12.3034 0.929724 12.3749C0.805916 12.4464 0.715564 12.5641 0.678545 12.7021C0.641526 12.8402 0.660871 12.9873 0.732326 13.1111C0.803781 13.235 0.921492 13.3253 1.05956 13.3623Z" fill="#9A6F32"/>
<path fill-rule="evenodd" clip-rule="evenodd" d="M0.805291 17.7948L4.40422 15.7167C4.52699 15.6448 4.61631 15.5272 4.65269 15.3896C4.68906 15.252 4.66954 15.1056 4.59838 14.9823C4.52723 14.8591 4.41021 14.769 4.27287 14.7317C4.13553 14.6944 3.98901 14.713 3.8653 14.7833L0.266367 16.8614C0.143597 16.9334 0.0542784 17.051 0.0179032 17.1886C-0.018472 17.3262 0.00104931 17.4726 0.072207 17.5958C0.143365 17.719 0.260382 17.8091 0.397722 17.8464C0.535063 17.8837 0.681577 17.8652 0.805291 17.7948Z" fill="#9A6F32"/>
<path fill-rule="evenodd" clip-rule="evenodd" d="M28.9697 23.4454L26.2751 20.2819C26.1815 20.1761 26.0502 20.1112 25.9093 20.1013C25.7684 20.0913 25.6292 20.137 25.5217 20.2287C25.4142 20.3203 25.347 20.4504 25.3344 20.5911C25.3219 20.7318 25.3652 20.8718 25.4548 20.9809L28.1494 24.1444C28.243 24.2502 28.3743 24.3151 28.5152 24.3251C28.6561 24.335 28.7953 24.2893 28.9028 24.1977C29.0103 24.1061 29.0775 23.9759 29.09 23.8352C29.1025 23.6945 29.0593 23.5546 28.9697 23.4454ZM28.9406 18.7433L27.0279 18.2308C26.9596 18.2125 26.8883 18.2078 26.8181 18.217C26.7479 18.2262 26.6802 18.2492 26.6189 18.2846C26.5576 18.32 26.5039 18.3671 26.4608 18.4232C26.4177 18.4794 26.3861 18.5434 26.3677 18.6118C26.3494 18.6802 26.3447 18.7515 26.354 18.8217C26.3632 18.8918 26.3861 18.9595 26.4215 19.0208C26.4569 19.0821 26.504 19.1359 26.5602 19.179C26.6163 19.222 26.6804 19.2537 26.7488 19.272L28.6614 19.7845C28.7995 19.8215 28.9466 19.8022 29.0704 19.7307C29.1942 19.6593 29.2846 19.5416 29.3216 19.4035C29.3586 19.2654 29.3393 19.1183 29.2678 18.9945C29.1963 18.8707 29.0786 18.7803 28.9406 18.7433ZM29.1944 14.3107L25.5955 16.3882C25.4727 16.4602 25.3834 16.5778 25.347 16.7154C25.3106 16.853 25.3302 16.9994 25.4013 17.1226C25.4725 17.2458 25.5895 17.3359 25.7268 17.3732C25.8642 17.4105 26.0107 17.392 26.1344 17.3216L29.7333 15.2441C29.8561 15.1721 29.9454 15.0545 29.9818 14.9169C30.0182 14.7793 29.9986 14.6329 29.9275 14.5097C29.8563 14.3864 29.7393 14.2963 29.602 14.2591C29.4646 14.2218 29.3181 14.2403 29.1944 14.3107Z" fill="#9A6F32"/>
<path fill-rule="evenodd" clip-rule="evenodd" d="M8.45988 4.95238L10.3655 6.85802C10.4666 6.95907 10.6038 7.01581 10.7467 7.01576C10.8897 7.01571 11.0268 6.95887 11.1278 6.85775C11.2289 6.75662 11.2856 6.6195 11.2856 6.47654C11.2855 6.33358 11.2287 6.19649 11.1275 6.09544L9.22191 4.19034C9.12027 4.09218 8.98414 4.03785 8.84283 4.03908C8.70153 4.04031 8.56636 4.09699 8.46644 4.19691C8.36652 4.29683 8.30984 4.432 8.30861 4.5733C8.30739 4.71461 8.36171 4.85074 8.45988 4.95238Z" fill="#0E3F5C"/>
<path fill-rule="evenodd" clip-rule="evenodd" d="M10.3654 4.19034L8.45977 6.09544C8.35865 6.19649 8.30181 6.33358 8.30176 6.47654C8.30171 6.6195 8.35845 6.75662 8.4595 6.85775C8.56056 6.95887 8.69764 7.01571 8.8406 7.01576C8.98356 7.01581 9.12069 6.95907 9.22181 6.85802L11.1274 4.95238C11.2256 4.85074 11.2799 4.71461 11.2787 4.5733C11.2775 4.432 11.2208 4.29683 11.1209 4.19691C11.021 4.09699 10.8858 4.04031 10.7445 4.03908C10.6032 4.03785 10.467 4.09218 10.3654 4.19034ZM14.3879 4.95238L16.2936 6.85802C16.3947 6.95907 16.5318 7.01581 16.6748 7.01576C16.8177 7.01571 16.9548 6.95887 17.0559 6.85775C17.1569 6.75662 17.2137 6.6195 17.2136 6.47654C17.2136 6.33358 17.1567 6.19649 17.0556 6.09544L15.15 4.19034C15.0483 4.09218 14.9122 4.03785 14.7709 4.03908C14.6296 4.04031 14.4944 4.09699 14.3945 4.19691C14.2946 4.29683 14.2379 4.432 14.2367 4.5733C14.2354 4.71461 14.2898 4.85074 14.3879 4.95238Z" fill="#0E3F5C"/>
<path fill-rule="evenodd" clip-rule="evenodd" d="M16.2936 4.19034L14.388 6.09544C14.2869 6.19649 14.23 6.33358 14.23 6.47654C14.2299 6.6195 14.2867 6.75662 14.3877 6.85775C14.4888 6.95887 14.6259 7.01571 14.7688 7.01576C14.9118 7.01581 15.0489 6.95907 15.15 6.85802L17.0557 4.95238C17.1538 4.85074 17.2082 4.71461 17.2069 4.5733C17.2057 4.432 17.149 4.29683 17.0491 4.19691C16.9492 4.09699 16.814 4.04031 16.6727 4.03908C16.5314 4.03785 16.3953 4.09218 16.2936 4.19034ZM9.84703 10.077L10.6031 9.5106L11.356 10.0765C11.4493 10.1466 11.5629 10.1845 11.6796 10.1845C11.7964 10.1845 11.9099 10.1466 12.0033 10.0765L12.7578 9.5106L13.5122 10.0765C13.6055 10.1465 13.719 10.1844 13.8356 10.1844C13.9522 10.1844 14.0657 10.1465 14.159 10.0765L14.9134 9.5106L15.6679 10.0765C15.7246 10.1189 15.789 10.1498 15.8575 10.1674C15.9261 10.185 15.9975 10.1888 16.0675 10.1788C16.1376 10.1688 16.205 10.1451 16.2659 10.1091C16.3268 10.073 16.38 10.0253 16.4224 9.96868C16.4649 9.91207 16.4958 9.84764 16.5134 9.77908C16.5309 9.71052 16.5348 9.63918 16.5248 9.56912C16.5148 9.49905 16.4911 9.43165 16.455 9.37075C16.419 9.30985 16.3713 9.25666 16.3147 9.21419L15.2373 8.40581C15.144 8.33601 15.0306 8.29829 14.914 8.29829C14.7974 8.29829 14.684 8.33601 14.5906 8.40581L13.8356 8.97168L13.0811 8.40581C12.9878 8.33601 12.8743 8.29829 12.7578 8.29829C12.6412 8.29829 12.5278 8.33601 12.4344 8.40581L11.6799 8.97168L10.9276 8.40634C10.8344 8.33622 10.7209 8.29825 10.6043 8.29816C10.4877 8.29806 10.3742 8.33584 10.2809 8.40581L9.2014 9.21419C9.08701 9.29988 9.01129 9.42746 8.99088 9.56892C8.97047 9.71038 9.00703 9.85416 9.09254 9.96868C9.27092 10.2063 9.60882 10.2554 9.84703 10.077Z" fill="#0E3F5C"/>
<defs>
<linearGradient id="paint0_linear_877_6064" x1="3.65028" y1="13.0905" x2="24.3708" y2="13.0905" gradientUnits="userSpaceOnUse">
<stop stop-color="#E9F3FC"/>
<stop offset="1" stop-color="#CADCF0"/>
</linearGradient>
<linearGradient id="paint1_linear_877_6064" x1="3.65057" y1="22.377" x2="24.2051" y2="22.377" gradientUnits="userSpaceOnUse">
<stop stop-color="#CADCF0"/>
<stop offset="1" stop-color="#A4BBDB"/>
</linearGradient>
<linearGradient id="paint2_linear_877_6064" x1="18.2021" y1="3.42001" x2="24.3707" y2="3.42001" gradientUnits="userSpaceOnUse">
<stop stop-color="#5487A5"/>
<stop offset="1" stop-color="#0E3F5C"/>
</linearGradient>
</defs>
</svg>
