<svg width="20" height="20" viewBox="0 0 20 20" fill="none" xmlns="http://www.w3.org/2000/svg">
<path d="M13.6237 16.1723C13.6594 16.1294 13.7165 16.0402 13.6915 15.9152C13.4702 14.7192 12.6633 13.6946 11.5673 13.1769L10.1999 14.7906C10.1696 14.8264 10.1318 14.8551 10.0893 14.8748C10.0468 14.8945 10.0004 14.9047 9.95356 14.9047C9.90669 14.9047 9.86037 14.8945 9.81784 14.8748C9.7753 14.8551 9.73755 14.8264 9.70722 14.7906L8.33985 13.1769C7.24382 13.6946 6.43696 14.7192 6.21561 15.9152C6.19419 16.0366 6.25131 16.1294 6.28702 16.1687C6.35128 16.2437 6.44053 16.2865 6.5405 16.2865H13.3738C13.4702 16.2901 13.563 16.2473 13.6237 16.1723ZM9.95713 9.55322C9.23596 9.55322 8.65046 10.1387 8.65046 10.8599C8.65046 11.5811 9.23596 12.1666 9.95713 12.1666C10.6783 12.1666 11.2638 11.5811 11.2638 10.8599C11.2638 10.1387 10.6783 9.55322 9.95713 9.55322Z" fill="#093B59"/>
<path d="M10.9247 12.9418C10.8997 12.9347 10.8783 12.9311 10.8533 12.924C10.7426 12.8954 10.6283 12.874 10.5141 12.8597C10.4748 12.8526 10.4391 12.849 10.3999 12.8454C10.1035 12.8097 9.80364 12.8097 9.50732 12.8454C9.46805 12.849 9.43235 12.8561 9.39664 12.8597C9.2824 12.8775 9.16815 12.899 9.05748 12.924C9.03249 12.9311 9.01107 12.9347 8.98608 12.9418L9.95359 14.0878L10.9247 12.9418ZM6.54052 16.9368H3.30239V18.065C3.30239 19.1325 4.16994 20 5.23742 20H14.6769C15.7444 20 16.6119 19.1325 16.6119 18.065V16.9368H13.3738H6.54052ZM11.2031 18.7897H8.7076C8.5291 18.7897 8.38629 18.6469 8.38629 18.4684C8.38629 18.2899 8.5291 18.1471 8.7076 18.1471H11.2031C11.3816 18.1471 11.5245 18.2899 11.5245 18.4684C11.528 18.6469 11.3816 18.7897 11.2031 18.7897ZM8.03285 1.13888H11.8815C12.1564 1.13888 12.4027 0.963942 12.492 0.70689L12.7383 0H7.17601L7.41878 0.70332C7.5116 0.963942 7.75794 1.13888 8.03285 1.13888ZM3.96644 12.4598H5.54088C5.71939 12.4598 5.86219 12.3135 5.86219 12.1385V8.4327C5.86219 8.2542 5.71582 8.11139 5.54088 8.11139H0.321314C0.142806 8.11139 0 8.25777 0 8.4327V12.135C0 12.3135 0.146376 12.4563 0.321314 12.4563H0.828276C1.06391 12.4563 1.28526 12.5919 1.38879 12.8061L1.91717 13.8879L3.588 12.5884C3.69154 12.5062 3.8272 12.4598 3.96644 12.4598ZM1.10675 9.14316H4.85184C5.03035 9.14316 5.17315 9.28597 5.17315 9.46448C5.17315 9.64299 5.03035 9.78579 4.85184 9.78579H1.10675C0.92824 9.78579 0.785434 9.64299 0.785434 9.46448C0.785434 9.28597 0.92824 9.14316 1.10675 9.14316ZM1.10675 11.3281C0.92824 11.3281 0.785434 11.1853 0.785434 11.0068C0.785434 10.8283 0.92824 10.6855 1.10675 10.6855H4.85184C5.03035 10.6855 5.17315 10.8283 5.17315 11.0068C5.17315 11.1853 5.03035 11.3281 4.85184 11.3281H1.10675ZM19.543 3.11674H14.3235C14.1449 3.11674 14.0021 3.26312 14.0021 3.43806V7.14031C14.0021 7.31882 14.1485 7.46162 14.3235 7.46162H15.8979C16.0371 7.46162 16.1728 7.50803 16.2799 7.59372L17.9507 8.89325L18.4791 7.8115C18.5826 7.59729 18.804 7.46162 19.0396 7.46162H19.5466C19.7251 7.46162 19.8679 7.31525 19.8679 7.14031V3.43806C19.8679 3.25955 19.7215 3.11674 19.543 3.11674ZM17.226 6.4834H15.1053C14.9268 6.4834 14.784 6.34059 14.784 6.16209C14.784 5.98358 14.9268 5.84077 15.1053 5.84077H17.226C17.4045 5.84077 17.5473 5.98358 17.5473 6.16209C17.5473 6.34059 17.4045 6.4834 17.226 6.4834ZM18.8504 4.94466H15.1053C14.9268 4.94466 14.784 4.80186 14.784 4.62335C14.784 4.44484 14.9268 4.30204 15.1053 4.30204H18.8504C19.0289 4.30204 19.1717 4.44484 19.1717 4.62335C19.1717 4.80186 19.0289 4.94466 18.8504 4.94466Z" fill="#093B59"/>
<path d="M14.3241 8.10782C13.7922 8.10782 13.3566 7.67226 13.3566 7.14031V3.43806C13.3566 2.90611 13.7922 2.47055 14.3241 2.47055H16.6126V1.93502C16.6126 0.867547 15.7451 0 14.6776 0H13.4209L13.1031 0.91753C13.0151 1.17045 12.8507 1.38977 12.6326 1.54518C12.4145 1.7006 12.1535 1.78442 11.8857 1.78508H8.03352C7.7656 1.78495 7.50437 1.70133 7.28618 1.54584C7.06799 1.39036 6.90368 1.17074 6.8161 0.91753L6.49836 0H5.24166C4.17419 0 3.30664 0.867547 3.30664 1.93502V7.46519H5.54513C6.07708 7.46519 6.51264 7.90075 6.51264 8.4327V12.135C6.51264 12.6669 6.07708 13.1025 5.54513 13.1025H3.97069L3.30664 13.6201V16.287H5.63438C5.57726 16.13 5.55941 15.9657 5.58797 15.7979C5.86287 14.3092 6.90893 13.0382 8.31557 12.4777C8.44052 12.4277 8.56905 12.3849 8.70114 12.3456C8.27629 11.9886 8.00853 11.4531 8.00853 10.8568C8.00853 9.77865 8.88322 8.90396 9.96141 8.90396C11.0396 8.90396 11.9143 9.77865 11.9143 10.8568C11.9143 11.4531 11.643 11.9886 11.2217 12.3456C11.3502 12.3849 11.4787 12.4277 11.6072 12.4777C13.0139 13.0382 14.0599 14.3092 14.3348 15.7979C14.3634 15.9657 14.3456 16.1335 14.2884 16.2906H16.6162V8.6719L15.8879 8.10782H14.3241Z" fill="#093B59"/>
</svg>
