<svg width="11" height="12" viewBox="0 0 11 12" fill="none" xmlns="http://www.w3.org/2000/svg">
<path d="M10.8577 4.28535V6.28544H8.85756C8.06981 6.28544 7.42893 6.92633 7.42893 7.71408C7.42893 8.50183 8.06981 9.14272 8.85756 9.14272H10.8577V11.1428C10.8577 11.6156 10.4732 12 10.0005 12H0.857184C0.384447 12 0 11.6156 0 11.1428V4.28535C0 3.81261 0.384447 3.42816 0.857184 3.42816H10.0005C10.4732 3.42816 10.8577 3.81261 10.8577 4.28535ZM8.85756 6.8569H10.8577V8.57127H8.85756C8.38483 8.57127 8.00038 8.18682 8.00038 7.71408C8.00038 7.24134 8.38483 6.8569 8.85756 6.8569ZM9.42902 7.42835H8.85756C8.78179 7.42835 8.70911 7.45846 8.65552 7.51204C8.60194 7.56563 8.57184 7.6383 8.57184 7.71408C8.57184 7.78986 8.60194 7.86254 8.65552 7.91612C8.70911 7.96971 8.78179 7.99981 8.85756 7.99981H9.42902C9.5048 7.99981 9.57748 7.96971 9.63106 7.91612C9.68464 7.86254 9.71475 7.78986 9.71475 7.71408C9.71475 7.6383 9.68464 7.56563 9.63106 7.51204C9.57748 7.45846 9.5048 7.42835 9.42902 7.42835ZM6.02486 2.85671L7.70751 1.17406L7.39721 0.863755L5.40411 2.85671H6.02486ZM6.99319 0.459593L6.90947 0.375875C6.40802 -0.125292 5.59241 -0.125292 5.09096 0.375875L2.61041 2.85671H4.59608L6.99319 0.459593ZM9.39016 2.85671L8.11167 1.57807L6.8329 2.85671H9.39016Z" fill="#8591A7"/>
</svg>
