<svg width="16" height="16" viewBox="0 0 16 16" fill="none" xmlns="http://www.w3.org/2000/svg">
<path fill-rule="evenodd" clip-rule="evenodd" d="M10.4 0H2.4C1.76348 0 1.15303 0.252856 0.702944 0.702944C0.252856 1.15303 0 1.76348 0 2.4V13.6C0 14.2365 0.252856 14.847 0.702944 15.2971C1.15303 15.7471 1.76348 16 2.4 16H14.4C13.9757 16 13.5687 15.8314 13.2686 15.5314C12.9686 15.2313 12.8 14.8243 12.8 14.4V2.4C12.8 1.76348 12.5471 1.15303 12.0971 0.702944C11.647 0.252856 11.0365 0 10.4 0ZM2.6 4C2.6 3.84087 2.66321 3.68826 2.77574 3.57574C2.88826 3.46321 3.04087 3.4 3.2 3.4H9.6C9.75913 3.4 9.91174 3.46321 10.0243 3.57574C10.1368 3.68826 10.2 3.84087 10.2 4C10.2 4.15913 10.1368 4.31174 10.0243 4.42426C9.91174 4.53679 9.75913 4.6 9.6 4.6H3.2C3.04087 4.6 2.88826 4.53679 2.77574 4.42426C2.66321 4.31174 2.6 4.15913 2.6 4ZM3.2 7.4C3.04087 7.4 2.88826 7.46321 2.77574 7.57574C2.66321 7.68826 2.6 7.84087 2.6 8C2.6 8.15913 2.66321 8.31174 2.77574 8.42426C2.88826 8.53679 3.04087 8.6 3.2 8.6H9.6C9.75913 8.6 9.91174 8.53679 10.0243 8.42426C10.1368 8.31174 10.2 8.15913 10.2 8C10.2 7.84087 10.1368 7.68826 10.0243 7.57574C9.91174 7.46321 9.75913 7.4 9.6 7.4H3.2ZM2.6 12C2.6 11.8409 2.66321 11.6883 2.77574 11.5757C2.88826 11.4632 3.04087 11.4 3.2 11.4H6.4C6.55913 11.4 6.71174 11.4632 6.82426 11.5757C6.93679 11.6883 7 11.8409 7 12C7 12.1591 6.93679 12.3117 6.82426 12.4243C6.71174 12.5368 6.55913 12.6 6.4 12.6H3.2C3.04087 12.6 2.88826 12.5368 2.77574 12.4243C2.66321 12.3117 2.6 12.1591 2.6 12ZM16 13.8V6.4C16 5.97565 15.8314 5.56869 15.5314 5.26863C15.2313 4.96857 14.8243 4.8 14.4 4.8H14V13.8C14 14.0652 14.1054 14.3196 14.2929 14.5071C14.4804 14.6946 14.7348 14.8 15 14.8C15.2652 14.8 15.5196 14.6946 15.7071 14.5071C15.8946 14.3196 16 14.0652 16 13.8Z" fill="white"/>
</svg>
