<svg width="25" height="20" viewBox="0 0 25 20" fill="none" xmlns="http://www.w3.org/2000/svg">
<path d="M19.9982 11.5417V16.6665C19.9982 16.8915 19.9065 17.0998 19.7566 17.2581C19.6399 17.3665 16.9567 19.9997 12.4986 19.9997C8.04043 19.9997 5.35722 17.3665 5.24056 17.2581C5.09057 17.0998 4.99891 16.8915 4.99891 16.6665V11.5417L11.3819 14.7332C11.7282 14.9082 12.1106 14.9994 12.4986 14.9994C12.8865 14.9994 13.269 14.9082 13.6152 14.7332L19.9982 11.5417ZM24.1647 13.565V7.59858L24.5372 7.41192C24.6761 7.34317 24.7931 7.23694 24.8749 7.10523C24.9567 6.97352 25 6.82157 25 6.66654C25 6.5115 24.9567 6.35955 24.8749 6.22784C24.7931 6.09613 24.6761 5.98991 24.5372 5.92115L12.871 0.0880926C12.7553 0.0301614 12.6276 0 12.4981 0C12.3687 0 12.241 0.0301614 12.1252 0.0880926L0.459119 5.92115C0.320997 5.99078 0.20493 6.09741 0.123863 6.22914C0.0427953 6.36087 -8.62822e-05 6.51253 1.30342e-07 6.66721C8.65428e-05 6.82189 0.0431376 6.9735 0.124352 7.10514C0.205567 7.23679 0.321753 7.34328 0.459952 7.41275L12.1261 13.2458C12.2418 13.3035 12.3693 13.3336 12.4986 13.3336C12.6278 13.3336 12.7554 13.3035 12.871 13.2458L22.4981 8.43187V13.565C22.0023 13.8541 21.6648 14.3849 21.6648 14.9999C21.6648 15.919 22.4123 16.6665 23.3314 16.6665C24.2505 16.6665 24.998 15.919 24.998 14.9999C24.998 14.3858 24.6605 13.8541 24.1647 13.565Z" fill="white"/>
</svg>
