<svg width="20" height="21" viewBox="0 0 20 21" fill="none" xmlns="http://www.w3.org/2000/svg">
<path d="M13.3942 0.000760038C14.0138 -0.0213678 14.7994 0.443317 15.5849 0.919065C16.6138 1.53865 17.6207 2.18035 18.6496 2.79993C19.4794 3.29781 19.9994 3.96164 19.9994 4.9574C19.9994 5.98634 19.402 6.62805 18.55 7.11486C15.3526 8.89615 12.1551 10.6996 8.95762 12.503C7.58569 13.2775 6.24696 13.2664 4.88609 12.4477C3.61374 11.6843 2.36352 10.9098 1.09117 10.1574C-0.413523 9.27233 -0.358204 6.95997 1.26819 6.08592C4.38822 4.38207 7.46399 2.61185 10.5508 0.841618C11.3364 0.387997 12.133 0.011824 13.3942 0.000760038Z" fill="#003454"/>
<path d="M0.0842944 11.153C1.46728 11.9939 2.81708 12.8016 4.15582 13.6092C5.82647 14.616 7.57457 14.782 9.30054 13.8526C11.9116 12.4475 14.4674 10.965 17.0453 9.52664C17.9857 9.00664 18.9151 8.47557 19.8666 7.95557C20.1874 9.11728 19.8002 10.0798 18.7934 10.6552C15.4963 12.5139 12.2104 14.3726 8.90224 16.2093C7.57457 16.9395 6.23583 16.9727 4.8971 16.1318C3.69113 15.3684 2.46304 14.6714 1.23494 13.9411C0.217061 13.3105 -0.192304 12.4143 0.0842944 11.153Z" fill="#003454"/>
<path d="M7.88398 19.9487C7.25334 20.0594 6.62269 20.0372 5.99205 19.9377C4.80821 19.5504 3.86778 18.7538 2.79458 18.1674C2.19713 17.8466 1.65499 17.4483 1.07967 17.0942C0.227748 16.5964 -0.0931056 15.844 0.0507254 14.8372C0.869456 15.2023 1.56648 15.7334 2.31883 16.1538C3.25926 16.6849 4.11118 17.3708 5.14013 17.7581C6.62269 18.3113 8.061 18.2338 9.43293 17.4704C12.8185 15.5895 16.1819 13.6755 19.5564 11.7725C19.656 11.7172 19.7666 11.5733 19.8994 11.6729C20.01 11.7504 19.999 11.8942 19.999 12.027C19.9658 12.9231 19.5232 13.5538 18.7709 13.9742C15.507 15.8108 12.2432 17.6474 8.97931 19.484C8.63633 19.6721 8.28228 19.8823 7.88398 19.9487Z" fill="#013454"/>
<path fill-rule="evenodd" clip-rule="evenodd" d="M11.4356 8.29884C12.5642 7.96692 13.2833 7.15926 13.3054 6.08606C13.3276 5.56605 13.2833 5.40009 13.0399 4.99073C12.3761 3.86221 10.9156 3.32008 9.58797 3.70731C8.64754 3.97285 7.95051 4.53711 7.77349 5.55499C7.59647 6.52861 8.07221 7.32522 8.76924 7.83416C9.53265 8.38735 10.462 8.5865 11.4356 8.29884ZM10.4108 7.00073C10.4567 7.00535 10.4996 7.00967 10.5378 7.01554C10.6162 7.00771 10.6876 7.00403 10.7546 7.00059C10.8767 6.99431 10.9838 6.9888 11.091 6.96022C11.7438 6.79427 12.1531 6.19681 11.8765 5.77639C11.6553 5.44447 11.3787 5.14574 10.9582 5.02404C10.2391 4.82489 9.35398 5.11255 9.17695 5.62149C8.99993 6.11937 9.32078 6.65044 9.99568 6.91597C10.1338 6.97285 10.2839 6.98795 10.4108 7.00073Z" fill="#FDFDFE"/>
</svg>
