<svg width="28" height="23" viewBox="0 0 28 23" fill="none" xmlns="http://www.w3.org/2000/svg">
<path d="M14 11.4539C13.9226 11.454 13.8459 11.4399 13.7735 11.4126L0.410654 6.32199C0.289923 6.2762 0.18598 6.19476 0.112631 6.08849C0.039283 5.98222 0 5.85615 0 5.72703C0 5.5979 0.039283 5.47183 0.112631 5.36556C0.18598 5.2593 0.289923 5.17786 0.410654 5.13206L13.7735 0.0414664C13.9194 -0.0138221 14.0806 -0.0138221 14.2265 0.0414664L27.5893 5.13206C27.7101 5.17786 27.814 5.2593 27.8874 5.36556C27.9607 5.47183 28 5.5979 28 5.72703C28 5.85615 27.9607 5.98222 27.8874 6.08849C27.814 6.19476 27.7101 6.2762 27.5893 6.32199L14.2265 11.4126C14.1541 11.4399 14.0774 11.454 14 11.4539ZM2.42526 5.72703L14 10.1368L25.5747 5.72703L14 1.3173L2.42526 5.72703Z" fill="#AD8138"/>
<path d="M13.9999 20.3627C13.9225 20.3627 13.8457 20.3487 13.7733 20.3214L5.5011 17.1716C5.38053 17.1256 5.27677 17.0441 5.20359 16.9379C5.1304 16.8316 5.09124 16.7056 5.09131 16.5766V7.66806C5.09131 7.4993 5.15835 7.33745 5.27768 7.21811C5.39702 7.09878 5.55887 7.03174 5.72763 7.03174C5.8964 7.03174 6.05825 7.09878 6.17758 7.21811C6.29692 7.33745 6.36396 7.4993 6.36396 7.66806V16.1375L13.9999 19.0455L21.6357 16.1375V7.66806C21.6357 7.4993 21.7028 7.33745 21.8221 7.21811C21.9415 7.09878 22.1033 7.03174 22.2721 7.03174C22.4408 7.03174 22.6027 7.09878 22.722 7.21811C22.8414 7.33745 22.9084 7.4993 22.9084 7.66806V16.5766C22.9085 16.7056 22.8693 16.8316 22.7961 16.9379C22.7229 17.0441 22.6192 17.1256 22.4986 17.1716L14.2264 20.3214C14.154 20.3487 14.0772 20.3627 13.9999 20.3627Z" fill="#AD8138"/>
<path d="M3.18222 19.09C3.01346 19.09 2.85161 19.023 2.73227 18.9036C2.61294 18.7843 2.5459 18.6224 2.5459 18.4537V6.69694C2.54589 6.53809 2.6053 6.38497 2.71245 6.26769C2.8196 6.15042 2.96674 6.07746 3.12495 6.06316L13.9425 5.0934C14.1106 5.07822 14.2778 5.13042 14.4074 5.23854C14.537 5.34666 14.6183 5.50183 14.6335 5.66991C14.6487 5.838 14.5965 6.00524 14.4884 6.13484C14.3803 6.26443 14.2251 6.34577 14.057 6.36096L3.81855 7.27982V18.4537C3.81855 18.6224 3.75151 18.7843 3.63217 18.9036C3.51284 19.023 3.35099 19.09 3.18222 19.09Z" fill="#AD8138"/>
<path d="M4.45506 22.9075H1.90976C1.741 22.9075 1.57915 22.8405 1.45981 22.7211C1.34048 22.6018 1.27344 22.4399 1.27344 22.2712V19.7259C1.27344 19.2196 1.47456 18.734 1.83256 18.376C2.19057 18.018 2.67612 17.8169 3.18241 17.8169C3.6887 17.8169 4.17426 18.018 4.53226 18.376C4.89026 18.734 5.09138 19.2196 5.09138 19.7259V22.2712C5.09138 22.4399 5.02434 22.6018 4.90501 22.7211C4.78568 22.8405 4.62382 22.9075 4.45506 22.9075ZM2.54609 21.6348H3.81874V19.7259C3.81874 19.5571 3.75169 19.3953 3.63236 19.2759C3.51303 19.1566 3.35118 19.0895 3.18241 19.0895C3.01365 19.0895 2.8518 19.1566 2.73246 19.2759C2.61313 19.3953 2.54609 19.5571 2.54609 19.7259V21.6348Z" fill="#AD8138"/>
</svg>
