<svg width="479" height="249" viewBox="0 0 479 249" fill="none" xmlns="http://www.w3.org/2000/svg">
<path d="M239.968 128.592C180.601 128.592 121.01 128.592 61.6426 128.592C58.9543 128.592 58.2822 127.92 58.2822 125.231C58.2822 84.4583 58.2822 43.9093 58.2822 3.13638C58.2822 0.672081 58.9543 0 61.4186 0C180.377 0 299.336 0 418.294 0C420.758 0 421.43 0.448053 421.43 3.13638C421.43 43.9093 421.43 84.4583 421.43 125.231C421.43 127.92 420.758 128.368 418.294 128.368C358.703 128.592 299.335 128.592 239.968 128.592Z" fill="#996F32"/>
<path d="M389.618 190.423C389.842 191.991 389.618 193.111 389.394 194.456C388.946 196.696 390.066 197.592 392.082 197.816C392.306 197.816 392.53 197.816 392.53 197.816C412.021 197.816 431.287 197.816 450.777 197.816C451.001 197.816 451.225 197.816 451.673 197.592C449.657 195.576 447.641 193.784 445.625 191.767C443.16 189.527 444.056 185.046 446.969 183.702C450.553 182.134 454.362 181.462 458.17 180.566C458.17 184.822 458.17 184.822 454.362 185.943C452.345 186.615 450.105 187.063 447.641 187.735C450.777 191.319 453.914 194.456 457.498 197.144C459.066 198.264 461.082 197.368 462.875 197.592C465.339 198.04 465.787 196.248 466.459 194.68C468.027 191.095 471.164 189.303 474.748 188.183C475.868 187.735 476.54 188.183 476.988 189.527C477.436 191.095 477.885 192.663 478.557 194.008C479.901 197.144 477.885 199.16 476.54 201.176C476.092 202.073 475.42 201.4 474.972 201.4C473.628 200.952 472.284 200.504 470.94 200.056C468.699 199.16 466.683 198.264 465.787 201.624C465.563 202.297 464.891 202.521 463.995 202.521C461.979 202.521 459.962 202.521 457.722 202.521C456.378 202.521 455.706 201.4 455.034 200.728C454.138 199.608 453.242 199.16 452.569 200.728C451.673 202.297 450.553 202.521 448.761 202.521C429.719 202.521 410.452 202.521 391.41 202.521C389.394 202.521 387.602 202.297 386.705 200.28C384.017 203.641 374.384 203.641 371.472 200.28C370.576 202.297 369.007 202.745 366.991 202.745C363.183 202.521 359.374 202.745 355.566 202.745C351.981 202.745 349.965 200.504 350.637 196.92C351.085 194.456 351.309 191.991 353.325 189.975C354.222 191.319 353.101 192.439 353.101 193.335C353.101 196.248 354.222 197.816 357.134 197.816C361.166 197.816 365.199 197.816 369.231 197.816C370.576 197.816 371.248 197.368 371.472 195.8C371.696 192.663 371.92 192.663 374.608 190.199C374.608 191.543 374.608 192.663 374.608 193.784C374.384 196.472 375.056 197.592 377.968 197.816C380.209 197.816 382.449 197.816 384.689 197.816C386.033 197.816 386.705 197.144 386.705 196.024C386.257 193.335 387.378 191.991 389.618 190.423Z" fill="#976F32"/>
<path d="M226.078 178.326C226.75 183.926 227.422 189.527 227.87 195.352C228.094 197.368 228.99 197.816 230.558 198.04C232.126 198.04 233.695 198.04 235.039 198.04C237.279 198.264 239.071 198.264 238.847 195.128C238.847 193.336 240.639 192.215 241.984 190.871C242.432 192.439 242.432 193.784 241.984 195.128C241.311 196.92 242.432 197.592 244 197.816C244.672 198.04 245.344 197.816 245.792 197.816C260.802 197.816 275.812 197.816 290.821 197.816C291.718 197.816 292.614 197.816 293.51 197.816C292.39 195.576 290.597 195.576 288.805 195.576C290.149 190.871 293.51 188.855 297.318 190.199C300.903 191.543 301.799 193.56 299.783 197.816C303.143 197.816 306.279 197.816 309.416 197.816C310.536 197.816 310.536 197.144 310.536 196.472C310.312 193.56 312.104 191.991 314.12 189.975C314.792 191.543 314.344 192.887 314.344 194.232C314.12 196.92 315.016 197.816 317.705 197.816C323.977 198.04 323.977 197.816 322.857 191.767C322.409 189.303 322.633 186.391 320.393 184.374C319.721 183.926 320.393 183.254 320.617 182.582C321.289 181.462 321.961 180.118 323.081 178.55C323.978 181.014 325.994 181.686 327.786 182.806C329.354 183.702 329.578 184.374 328.234 185.495C325.994 187.511 325.77 189.975 326.442 192.663C327.114 195.352 326.666 198.264 325.994 200.952C325.77 202.073 324.874 202.521 323.753 202.521C320.841 202.521 317.929 202.521 314.792 202.521C313.224 202.521 312.104 201.625 311.208 200.504C308.296 203.417 297.99 203.417 295.526 200.504C294.63 202.521 293.062 202.745 291.27 202.745C275.588 202.745 259.682 202.745 244 202.745C241.984 202.745 240.191 202.521 239.071 200.504C238.175 202.745 236.607 202.969 234.815 202.745C231.902 202.521 228.99 202.745 226.302 202.745C224.957 202.745 224.061 202.297 224.061 200.952C223.613 194.904 222.941 189.079 222.493 183.03C222.493 180.566 224.733 179.67 226.078 178.326Z" fill="#986F32"/>
<path d="M11.4596 184.374C12.1317 187.959 12.5797 191.543 13.2518 195.128C13.4758 196.92 14.1479 197.816 16.3882 197.816C28.2616 197.592 40.1351 197.816 52.0085 197.816C54.0248 197.816 54.9209 197.368 54.6968 195.352C54.4728 193.111 56.265 191.767 57.8332 190.199C58.7293 191.543 58.0572 192.663 57.8332 194.008C57.3852 196.472 58.2813 197.592 60.7456 197.592C72.395 197.592 84.0444 197.592 95.6938 197.592C97.262 197.592 98.1581 197.368 98.3821 195.576C98.6062 193.335 100.622 192.215 102.191 190.647C102.639 192.439 101.743 193.559 101.519 194.904C101.294 195.8 100.846 197.368 102.191 197.144C103.535 197.144 105.551 199.16 106.223 196.248C106.671 194.232 108.015 192.887 109.808 191.767C110.256 193.335 109.359 194.68 109.359 196.024C109.359 197.144 109.584 197.592 110.928 197.592C112.048 197.592 112.496 197.368 112.272 196.024C111.824 193.783 113.84 192.663 115.408 190.647C115.632 194.008 115.856 196.696 115.184 199.16C114.288 202.073 113.84 202.521 109.135 202.072C107.567 202.072 106.223 201.848 104.655 202.072C102.639 202.297 100.622 202.745 98.6062 201.4C97.262 200.504 96.5899 202.297 95.2458 202.297C82.9243 202.297 70.8268 202.073 58.5053 202.297C56.7131 202.297 55.817 199.608 54.6968 200.728C53.3527 202.072 52.2325 202.297 50.6643 202.297C41.9273 202.297 33.1902 202.297 24.4532 202.297C21.7648 202.297 19.3005 202.297 16.6122 202.297C11.9076 202.297 11.9076 202.297 10.7875 197.368C8.77127 202.745 5.18683 200.056 2.05045 199.608C1.60239 199.608 0.706286 199.384 1.15434 198.712C2.05045 196.472 2.05045 193.335 4.51475 191.991C7.20307 190.647 9.21932 188.855 10.1154 185.943C10.1154 185.494 10.5635 184.822 11.4596 184.374Z" fill="#986F32"/>
<path d="M110.481 236.125C110.481 243.07 105.777 247.774 99.0559 247.55C92.5591 247.326 87.8545 242.845 87.8545 236.349C87.8545 229.404 92.335 225.147 99.2799 225.147C106.449 225.147 110.481 229.18 110.481 236.125Z" fill="#986F32"/>
<path d="M348.622 225.147C355.567 225.147 359.599 229.404 359.599 236.349C359.599 243.07 354.894 247.774 348.398 247.55C341.901 247.55 337.196 242.846 337.196 236.349C337.196 229.628 341.901 224.923 348.622 225.147Z" fill="#986F32"/>
<path d="M146.772 193.783C145.876 198.04 148.565 197.816 151.253 197.816C157.302 197.816 157.526 197.816 155.734 191.991C155.062 189.527 156.63 187.959 157.75 185.494C158.646 189.079 159.766 192.215 160.214 195.128C160.662 197.144 161.782 197.816 163.575 197.816C172.088 197.816 170.071 198.488 169.175 191.543C168.727 189.079 168.951 186.391 166.711 184.374C166.039 183.926 166.711 183.254 166.935 183.03C167.607 181.686 168.503 180.342 169.399 178.774C170.519 181.238 172.536 182.134 174.328 183.254C175.224 183.926 176.12 184.598 174.776 185.494C171.64 187.959 172.312 191.095 172.984 194.232C173.432 196.696 172.76 198.936 172.312 201.4C172.088 202.521 171.191 202.745 170.295 202.745C166.935 202.745 163.575 202.521 160.438 202.745C158.198 202.969 158.646 200.728 157.302 199.832C156.63 202.745 154.613 202.969 152.149 202.745C150.357 202.521 148.341 202.745 146.548 202.745C145.428 202.745 144.532 202.297 144.532 201.4C144.756 198.712 144.756 196.248 146.772 193.783Z" fill="#986F32"/>
<path d="M225.853 236.349C225.853 233.436 226.077 230.524 225.853 227.612C225.629 225.147 227.421 225.819 228.541 225.595C229.886 225.371 231.006 225.819 230.782 227.612C230.782 229.18 230.782 230.748 230.782 232.54C230.782 233.884 231.23 234.332 232.574 234.332C238.623 234.557 238.623 234.557 238.623 228.732C238.623 226.267 241.087 224.699 243.327 225.819C243.999 226.043 243.999 226.716 243.999 227.164C243.999 233.436 243.999 239.709 243.999 245.982C243.999 248.446 241.983 247.326 240.863 247.55C239.519 247.774 238.623 247.55 238.623 245.758C238.847 243.742 238.623 241.725 238.623 239.709C238.623 238.589 238.399 238.141 237.054 237.917C230.782 237.693 230.782 237.469 230.782 243.742C230.782 245.31 231.454 247.326 228.541 247.55C226.301 247.55 225.405 247.102 225.629 244.638C226.077 241.725 225.853 238.813 225.853 236.349Z" fill="#986F32"/>
<path d="M77.1007 236.349C77.1007 239.261 77.1007 242.173 77.1007 245.086C77.1007 247.55 75.3085 246.878 74.1883 246.878C72.8442 247.102 71.7241 247.102 71.7241 245.086C71.9481 243.742 71.7241 242.621 71.7241 241.277C71.7241 237.245 71.724 237.245 67.6916 237.245C63.8831 237.245 63.8831 237.245 63.8831 241.053C63.8831 242.173 63.8831 243.294 63.8831 244.19C64.1071 246.206 62.987 246.654 61.1948 246.878C59.1785 247.102 58.7305 246.43 58.7305 244.414C58.9545 238.813 58.9545 233.212 58.7305 227.612C58.7305 224.923 60.2987 225.371 61.8669 225.147C63.8831 224.923 64.1071 226.043 63.8831 227.612C63.8831 227.836 63.8831 228.06 63.8831 228.06C63.8831 234.332 63.8831 234.108 70.3799 233.66C71.5 233.66 71.9481 233.212 71.9481 232.092C71.9481 230.972 71.9481 229.852 71.9481 228.508C71.9481 225.371 72.3961 224.923 75.5325 224.923C76.8767 224.923 77.3247 225.371 77.3247 226.715C77.1007 230.076 77.1007 233.212 77.1007 236.349Z" fill="#986F32"/>
<path d="M174.777 236.349C174.777 233.436 174.777 230.524 174.777 227.612C174.777 226.94 174.553 226.043 175.673 225.819C178.809 225.371 181.946 224.923 184.858 225.819C186.874 226.492 188.666 227.388 189.114 229.852C189.562 232.316 189.338 234.556 187.098 236.125C185.53 237.021 185.978 237.917 186.65 239.037C188.218 241.277 189.338 243.518 190.907 245.758C191.355 246.43 191.803 246.878 190.683 247.326C187.994 247.998 185.754 247.326 184.186 244.862C183.29 243.294 182.618 241.725 181.722 240.157C181.273 239.485 180.825 238.589 179.929 239.037C179.033 239.261 179.481 240.381 179.481 240.829C179.481 242.173 179.481 243.294 179.481 244.638C179.481 247.102 177.241 248.446 175.001 247.326C174.105 246.878 174.329 246.206 174.329 245.534C174.777 242.173 174.777 239.261 174.777 236.349Z" fill="#986F32"/>
<path d="M161.782 246.878C159.094 247.55 158.646 245.982 158.198 244.638C157.749 243.518 157.973 241.725 156.405 241.501C154.389 241.277 152.149 241.277 150.357 241.725C149.236 241.949 149.012 243.742 148.788 244.862C148.116 247.55 146.324 247.326 144.532 246.878C143.636 246.654 143.412 246.206 143.86 245.31C146.548 239.037 149.012 232.54 151.701 226.267C152.373 224.923 153.941 225.595 155.061 225.147C155.957 224.923 156.853 225.371 157.077 226.492C159.542 232.764 162.23 239.037 164.47 245.31C164.918 247.774 162.23 246.43 161.782 246.878Z" fill="#986F32"/>
<path d="M279.172 237.469C279.172 239.933 278.948 242.397 279.172 244.862C279.396 246.878 278.5 247.102 276.932 247.102C275.588 247.102 274.244 247.55 274.244 245.086C274.244 239.037 274.692 233.212 274.019 227.164C273.795 226.043 274.468 225.595 275.588 225.595C278.5 225.147 281.412 225.147 284.325 225.819C287.685 226.716 289.701 229.404 289.477 232.988C289.253 236.349 286.341 239.485 283.205 239.485C281.86 239.485 280.292 239.261 279.844 237.469C279.396 235.901 280.964 235.677 281.86 235.005C283.653 233.66 284.101 231.644 282.533 230.3C282.084 229.852 281.636 229.404 280.964 229.628C280.292 229.852 280.292 230.524 280.068 231.196C279.62 233.212 279.844 235.453 279.172 237.469Z" fill="#986F32"/>
<path d="M463.323 236.125C463.323 233.436 463.323 230.748 463.323 228.06C463.323 226.268 463.771 225.595 465.564 225.595C468.476 225.595 471.388 225.595 474.077 225.595C474.749 225.595 476.093 224.923 476.093 226.492C475.869 227.612 475.645 228.956 474.077 228.956C473.18 228.956 472.284 228.956 471.388 228.956C469.372 228.732 468.7 229.404 468.7 231.644C468.7 233.884 469.372 234.781 471.612 234.332C472.284 234.332 472.956 234.332 473.853 234.332C474.525 234.557 475.869 233.66 475.869 235.229C475.869 236.349 475.421 237.469 473.853 237.693C473.18 237.693 472.508 237.917 471.612 237.693C469.148 237.245 468.7 238.365 468.7 240.605C468.7 243.07 469.372 243.966 471.836 243.742C472.732 243.518 473.628 243.742 474.525 243.742C475.421 243.742 476.765 243.07 476.989 244.19C477.213 245.534 476.093 247.102 474.749 247.102C471.612 247.326 468.252 247.102 465.115 247.102C463.771 247.102 463.323 245.982 463.323 244.862C463.323 241.725 463.323 239.037 463.323 236.125Z" fill="#986F32"/>
<path d="M42.6008 225.147C43.9449 225.147 45.7371 225.371 47.3053 226.043C48.2014 226.492 49.0975 226.716 48.6495 228.06C48.2014 229.18 47.5294 229.852 46.1852 229.628C44.393 229.18 42.6008 228.508 40.5845 229.18C37.0001 230.076 34.9838 232.764 35.2079 237.021C35.4319 240.605 37.6722 243.518 41.2566 243.966C43.0488 244.19 44.841 244.19 46.6332 243.966C47.0813 243.966 47.7534 243.294 47.9774 243.966C48.4255 244.414 47.9774 245.086 47.7534 245.758C46.8573 247.774 44.841 247.998 43.0488 247.998C35.6559 248.67 29.3832 244.862 29.8312 236.573C30.0552 229.18 34.7598 225.147 42.6008 225.147Z" fill="#986F32"/>
<path d="M452.794 242.845C452.794 246.654 450.33 247.102 447.641 247.326C437.112 247.998 432.408 240.605 434.872 232.54C436.888 226.267 446.073 222.907 451.898 226.043C452.794 226.492 453.242 227.164 452.794 228.284C452.346 229.18 451.674 229.852 450.33 229.404C448.537 228.956 446.745 228.284 444.729 228.956C441.369 229.852 439.128 232.764 439.352 236.573C439.576 240.381 442.041 243.07 445.401 243.518C448.089 243.742 450.33 243.518 452.794 242.845Z" fill="#986F32"/>
<path d="M208.604 225.147C209.724 225.147 210.844 225.147 211.964 225.819C212.861 226.267 214.205 226.491 213.757 227.836C213.309 229.18 212.413 229.852 210.844 229.18C209.948 228.732 208.828 228.956 207.932 228.732C207.036 228.732 206.364 228.956 205.916 229.852C205.468 230.748 205.916 231.644 206.812 232.092C208.156 232.988 209.276 233.66 210.62 234.556C214.653 237.021 215.549 239.261 214.429 242.621C213.309 245.758 209.724 247.774 205.916 247.326C204.348 247.102 203.003 246.878 201.659 246.206C200.315 245.31 200.315 244.414 200.763 243.294C201.435 241.725 202.107 242.397 203.003 242.845C204.348 243.518 205.468 243.742 206.812 243.518C207.932 243.518 208.828 243.07 209.276 242.173C209.724 241.053 209.052 240.157 208.156 239.709C207.036 239.037 205.916 238.365 204.796 237.469C201.211 235.229 200.091 232.764 200.763 229.628C201.883 226.716 204.796 225.147 208.604 225.147Z" fill="#986F32"/>
<path d="M13.7 225.147C14.8201 225.147 16.1643 225.371 17.2844 225.819C18.4045 226.267 18.8526 226.94 18.4045 228.06C17.9565 228.956 17.2844 229.628 16.1643 229.18C15.0441 228.732 13.924 228.732 12.8039 228.732C11.9077 228.732 11.2357 229.18 10.7876 229.852C10.3396 230.748 11.0116 231.42 11.4597 231.868C12.5798 232.764 13.924 233.66 15.2682 234.332C19.0766 236.573 20.4208 239.037 19.3006 242.397C18.4045 245.31 14.8201 247.55 11.2357 247.326C9.66747 247.102 7.87526 246.878 6.30706 245.982C4.9629 245.086 5.18693 244.19 5.63498 243.07C6.30706 241.725 7.20317 242.397 8.09928 242.845C9.21942 243.294 10.5636 243.518 11.6837 243.518C12.8039 243.518 13.924 243.294 14.148 241.949C14.372 240.829 13.7 239.933 12.8039 239.261C11.6837 238.589 10.5636 237.917 9.66747 237.469C6.30706 235.453 4.9629 232.764 5.85901 229.852C6.97914 226.492 9.44344 224.923 13.7 225.147Z" fill="#986F32"/>
<path d="M304.711 247.55C303.143 247.102 301.351 247.102 299.783 246.206C298.438 245.31 298.663 244.414 299.111 243.294C299.783 241.725 300.679 242.621 301.575 242.845C302.919 243.518 304.263 243.742 305.831 243.518C306.727 243.518 307.624 243.069 307.848 242.173C308.072 241.277 307.848 240.381 306.952 239.709C305.383 238.813 303.815 237.917 302.471 236.797C299.783 235.004 298.663 232.316 299.559 229.628C300.455 226.94 302.695 225.147 305.831 224.923C307.624 224.699 309.416 224.923 310.984 225.595C312.104 226.043 312.552 226.715 312.104 227.836C311.656 228.732 310.984 229.404 309.864 228.956C308.968 228.508 308.072 228.508 307.176 228.508C306.055 228.508 304.935 228.508 304.487 229.628C304.039 230.972 304.935 231.644 305.831 232.316C306.727 232.988 307.848 233.436 308.744 234.108C312.776 236.349 314.12 238.813 313.224 241.949C312.104 245.086 308.744 247.55 304.711 247.55Z" fill="#986F32"/>
<path d="M197.852 189.303C197.852 190.871 197.852 191.991 197.852 193.111C197.852 196.024 198.748 197.368 201.885 197.368C206.141 197.368 210.174 197.368 214.43 197.368C216.446 197.368 216.446 196.472 215.55 195.128C214.654 193.784 214.206 192.439 215.55 191.095C215.998 190.423 216.222 189.303 216.894 189.303C217.79 189.303 218.239 190.423 218.463 191.095C219.807 193.784 219.135 199.608 217.118 201.848C216.446 202.521 215.774 202.521 214.878 202.521C210.398 202.521 205.693 202.521 201.212 202.521C196.508 202.521 194.268 200.056 195.164 195.352C195.612 193.335 196.06 191.319 197.852 189.303Z" fill="#987033"/>
<path d="M384.241 225.819C384.017 228.284 382.897 229.404 380.657 228.956C380.209 228.956 379.76 228.956 379.312 228.956C378.192 229.18 376.624 228.284 376.4 229.404C375.952 230.972 376.176 232.54 376.176 234.108C376.176 234.78 376.848 234.78 377.52 234.78C378.864 234.78 380.209 234.78 381.553 234.78C382.225 234.78 383.345 234.332 383.569 235.453C383.793 236.573 383.345 237.469 382.225 238.141C381.105 238.589 379.761 238.589 378.416 238.365C376.848 238.365 375.952 238.589 376.176 240.381C376.4 241.501 376.176 242.621 376.4 243.518C376.624 246.654 375.28 247.774 372.144 247.102C371.023 246.878 371.247 246.206 371.247 245.534C371.247 239.485 371.247 233.436 371.023 227.388C371.023 226.491 371.247 225.819 372.368 225.819C376.176 225.819 380.209 225.819 384.241 225.819Z" fill="#986F32"/>
<path d="M407.763 225.595C407.539 228.06 406.419 229.18 403.955 228.732C403.507 228.732 403.059 228.732 402.611 228.732C401.491 228.956 399.922 228.06 399.698 229.18C399.25 230.748 399.474 232.316 399.474 233.884C399.474 234.556 400.146 234.556 400.818 234.556C402.163 234.556 403.283 234.556 404.627 234.556C405.299 234.556 406.643 233.884 406.867 235.229C407.091 236.573 406.419 237.693 405.075 237.917C403.955 238.141 402.611 238.141 401.267 238.141C399.922 238.141 399.25 238.589 399.474 239.933C399.474 241.277 399.25 242.621 399.474 243.966C399.922 245.982 399.474 246.878 397.01 246.878C394.77 246.878 394.098 246.206 394.098 243.966C394.322 238.365 394.098 232.988 394.098 227.388C394.098 225.819 394.546 225.147 396.114 225.371C400.146 225.819 403.731 225.595 407.763 225.595Z" fill="#986F32"/>
<path d="M126.835 234.556C126.835 236.797 126.835 239.037 126.835 241.277C126.835 242.845 127.283 243.518 128.851 243.518C130.195 243.518 131.763 243.518 133.107 243.518C134.9 243.294 134.9 244.19 134.228 245.534C133.78 246.43 133.107 247.326 131.763 247.326C129.075 247.326 126.387 247.326 123.698 247.326C122.13 247.326 121.458 246.654 121.458 244.862C121.458 239.037 121.458 233.212 121.458 227.388C121.458 224.923 123.25 225.819 124.37 225.371C125.715 225.147 126.611 225.595 126.611 227.164C126.611 229.628 126.835 232.092 126.835 234.556Z" fill="#986F32"/>
<path d="M137.14 189.751C140.276 191.543 142.068 194.232 142.068 197.816C142.292 202.073 140.5 205.881 137.588 209.017C136.244 210.586 134.452 211.034 132.211 210.362C129.971 209.689 127.731 208.793 125.49 207.673C125.042 207.449 124.37 207.225 124.594 206.553C124.818 205.657 125.714 206.105 126.162 206.329C131.987 209.017 135.124 204.985 138.484 201.625C140.052 200.056 139.604 198.488 138.26 196.92C135.124 194.008 135.124 194.008 137.14 189.751Z" fill="#986F33"/>
<path d="M261.697 236.573C261.697 239.485 261.473 242.397 261.697 245.31C261.697 247.102 260.577 247.102 259.681 246.878C258.561 246.654 256.768 247.998 256.544 245.534C256.32 239.261 256.32 232.988 256.32 226.491C256.32 224.475 258.337 225.371 259.457 224.923C260.577 224.475 261.473 225.147 261.473 226.716C261.473 230.3 261.473 233.436 261.697 236.573Z" fill="#986F32"/>
<path d="M423.222 236.349C423.222 239.037 423.222 241.949 423.222 244.638C423.222 246.43 422.774 247.102 420.758 247.102C419.19 247.102 417.846 247.326 417.846 244.862C418.07 239.037 418.07 233.212 417.846 227.164C417.846 224.475 419.862 225.595 420.982 225.147C422.55 224.699 422.998 225.595 422.998 227.164C422.998 230.3 422.998 233.436 423.222 236.349Z" fill="#986F32"/>
<path d="M125.042 179.446C124.594 187.287 127.954 194.68 123.698 202.297C122.802 200.952 122.802 199.832 122.802 198.712C122.802 197.368 122.354 196.248 122.354 195.128C122.13 193.111 121.906 190.871 121.682 188.855C121.009 184.374 121.458 183.254 125.042 179.446Z" fill="#987034"/>
<path d="M336.971 201.848C336.523 197.368 336.299 192.887 335.403 188.631C334.507 184.822 336.075 182.358 338.54 179.894C338.091 187.287 341.676 194.68 336.971 201.848Z" fill="#987033"/>
<path d="M184.857 179.446C184.633 187.287 187.546 194.68 183.289 201.849C182.841 198.712 182.393 195.576 181.945 192.663C181.721 191.543 181.721 190.423 181.497 189.303C180.825 185.719 181.497 182.582 184.857 179.446Z" fill="#987033"/>
<path d="M390.066 183.926C389.842 185.271 387.378 186.615 386.258 185.943C384.914 185.271 384.018 184.822 382.449 185.943C381.105 187.063 379.985 185.495 378.865 184.822C377.969 184.374 378.865 183.702 379.313 183.254C380.209 182.358 380.881 180.79 382.449 182.134C383.569 183.03 384.466 183.03 385.81 182.134C387.602 180.79 388.722 182.806 390.066 183.478C390.066 183.478 390.066 183.702 390.066 183.926Z" fill="#997034"/>
<path d="M58.9542 208.121C58.7302 209.913 56.4899 211.258 54.9217 210.362C54.0256 209.913 53.1295 209.241 52.2334 210.362C50.6652 211.93 49.5451 210.138 48.649 209.465C47.5288 208.569 48.873 207.897 49.321 207.225C49.9931 205.881 50.8892 205.657 52.0094 206.777C52.9055 207.673 53.8016 207.673 54.6977 206.553C55.5938 205.433 56.7139 206.329 57.61 206.777C58.0581 207.449 58.9542 207.449 58.9542 208.121Z" fill="#997034"/>
<path d="M10.3399 181.91C10.1159 183.254 7.65155 184.374 6.53142 183.702C5.41128 183.03 4.7392 182.582 3.61907 183.702C2.49893 184.822 1.3788 183.478 0.482687 182.806C-0.637449 182.134 0.482685 181.462 0.930739 181.014C1.60282 180.118 2.2749 179.222 3.61907 180.342C4.51518 181.014 5.18726 181.238 6.08337 180.342C6.97948 179.67 9.89183 180.342 10.3399 181.238C10.3399 181.462 10.3399 181.686 10.3399 181.91Z" fill="#997135"/>
<path d="M279.173 237.469C279.173 235.004 279.173 232.54 278.949 230.3C278.949 228.732 279.621 228.508 280.965 228.732C282.982 229.18 283.654 230.524 283.654 232.316C283.654 234.108 283.206 235.677 281.189 236.349C280.517 236.573 279.173 236.125 279.397 237.693C279.397 237.469 279.173 237.469 279.173 237.469Z" fill="#FDFDFC"/>
<path d="M213.085 183.926C211.965 185.943 210.845 187.735 208.38 185.719C207.708 185.27 207.26 185.27 206.812 185.719C205.244 187.511 204.124 185.719 202.78 185.046C202.108 184.822 202.556 184.15 202.78 183.702C203.676 183.03 203.9 181.238 205.468 182.358C206.812 183.254 207.708 183.254 209.277 182.358C210.621 181.91 211.741 183.478 213.085 183.926Z" fill="#997135"/>
<path d="M234.815 188.631C233.919 187.959 233.023 187.735 232.351 186.839C231.679 185.943 232.799 185.495 233.247 184.822C233.919 183.702 234.815 184.15 235.488 184.822C236.608 185.719 237.504 185.719 238.4 184.598C239.744 183.03 240.864 184.822 241.76 185.27C242.88 185.943 241.76 186.615 241.536 187.287C240.864 188.407 240.192 188.855 239.072 187.959C237.728 186.839 236.608 186.615 235.488 188.183C235.488 188.407 235.264 188.407 234.815 188.631Z" fill="#997135"/>
<path d="M310.761 212.154C309.417 211.482 308.073 210.81 307.401 209.465C307.177 208.793 309.865 206.105 310.761 206.329C312.554 206.553 313.45 207.897 314.346 209.241C314.57 209.689 311.881 212.154 310.761 212.154Z" fill="#987034"/>
<path d="M366.768 209.241C366.096 210.586 364.975 211.482 363.855 211.482C362.511 211.482 361.167 210.362 361.167 209.465C361.167 208.345 362.511 207.001 363.855 207.001C364.975 207.001 365.872 208.569 366.768 209.241Z" fill="#997135"/>
<path d="M239.52 181.91C239.072 183.03 238.4 184.15 237.28 184.15C236.384 184.15 235.039 183.254 234.815 182.358C234.815 181.238 235.936 180.118 237.056 180.118C237.952 180.118 238.624 181.238 239.52 181.91Z" fill="#997136"/>
<path d="M239.519 125.231C181.496 125.231 123.249 125.231 65.2256 125.231C62.5373 125.231 61.8652 124.783 61.8652 121.871C61.8652 83.5622 61.8652 45.0295 61.8652 6.72082C61.8652 4.25652 62.5373 3.36041 65.0016 3.36041C181.496 3.36041 297.99 3.36041 414.708 3.36041C416.948 3.36041 417.62 3.80847 417.62 6.27276C417.62 44.8054 417.62 83.1141 417.62 121.647C417.62 124.335 417.172 125.007 414.26 125.007C356.237 125.231 297.766 125.231 239.519 125.231Z" fill="#FDFDFD"/>
<path d="M474.749 195.576C473.181 195.128 472.061 194.904 470.94 194.008C473.181 192.439 473.629 192.439 474.749 195.576Z" fill="#FAF9F7"/>
<path d="M6.08398 195.352C7.65217 194.456 8.77231 193.335 9.66842 191.767C10.3405 193.111 11.2366 194.68 10.3405 195.576C9.22036 196.92 7.65217 195.576 6.08398 195.352Z" fill="#F8F6F2"/>
<path d="M93.6777 235.901C93.6777 234.556 93.6777 233.212 94.1258 231.868C94.7979 229.852 96.142 228.508 98.3823 228.284C100.623 228.06 102.415 228.956 103.535 230.748C105.551 234.332 105.551 237.917 103.759 241.501C101.967 244.862 97.0382 244.862 95.0219 241.501C94.1258 240.157 93.6777 238.141 93.6777 235.901Z" fill="#FEFEFE"/>
<path d="M354.221 236.349C354.221 241.501 351.98 244.19 348.172 243.966C345.26 243.742 343.243 241.277 342.795 237.693C342.347 232.764 343.915 229.18 346.828 228.508C349.292 227.836 351.98 229.18 353.101 231.868C353.997 233.212 354.445 234.781 354.221 236.349Z" fill="#FEFEFE"/>
<path d="M184.409 232.092C184.185 233.212 183.961 234.556 182.617 235.229C180.825 236.125 179.704 235.453 179.704 233.436C179.704 232.764 179.48 232.092 179.704 231.644C180.152 230.524 178.584 228.732 180.825 228.508C182.841 228.284 184.409 230.076 184.409 232.092Z" fill="#FDFDFD"/>
<path d="M156.181 237.917C154.389 237.917 153.045 237.917 151.477 237.917C152.149 235.677 152.821 233.66 153.717 231.196C154.613 233.66 155.285 235.677 156.181 237.917Z" fill="#FCFBFA"/>
<path d="M239.968 8.28906C296.423 8.28906 353.102 8.28906 409.557 8.28906C412.469 8.28906 412.917 9.18517 412.917 11.8735C412.917 47.2698 412.917 82.4421 412.917 117.838C412.917 120.079 412.693 120.975 410.005 120.975C296.647 120.975 183.289 120.975 69.7077 120.975C67.0193 120.975 66.5713 120.079 66.5713 117.614C66.5713 82.218 66.5713 46.8217 66.5713 11.4254C66.5713 9.18517 67.0194 8.28906 69.4836 8.28906C126.387 8.28906 183.065 8.28906 239.968 8.28906Z" fill="#093B59"/>
<path d="M204.795 116.27C161.11 116.27 117.649 116.27 73.9635 116.27C71.2752 116.27 70.8271 115.598 70.8271 113.134C70.8271 80.6498 70.8271 47.9418 70.8271 15.4579C70.8271 13.2176 71.2752 12.5455 73.7395 12.5455C161.11 12.5455 248.705 12.5455 336.075 12.5455C338.316 12.5455 338.764 13.2176 338.764 15.4579C338.764 48.1659 338.764 80.8738 338.764 113.582C338.764 116.046 337.868 116.494 335.851 116.494C292.166 116.27 248.481 116.27 204.795 116.27Z" fill="#FEFEFE"/>
<path d="M410.677 67.4322C401.268 71.9128 397.684 79.9777 395.219 88.9388C393.203 96.1077 392.755 103.501 392.979 110.893C392.979 112.91 392.531 113.358 390.515 113.358C381.33 113.358 372.144 113.358 362.959 113.358C360.943 113.358 360.271 112.91 360.271 110.669C360.495 101.708 359.599 92.7473 356.687 84.2343C354.222 77.0654 350.19 70.7926 342.797 67.4322C342.797 66.5361 343.693 66.5361 344.365 66.0881C352.43 61.1595 358.031 53.9906 363.407 46.3737C367.216 40.997 370.352 35.1723 373.265 29.3476C373.713 28.4515 374.161 27.7794 372.817 26.8833C369.456 24.419 369.008 20.8346 371.472 17.9222C374.161 14.7858 379.089 14.7858 382.002 17.6982C384.69 20.3865 384.466 24.195 381.106 26.6593C379.985 27.5554 379.761 28.2275 380.433 29.3476C386.258 40.5489 392.531 51.3023 401.492 60.0393C403.956 62.9517 407.093 65.1919 410.677 67.4322Z" fill="#FEFEFE"/>
<path d="M239.072 45.0294C248.482 21.9546 269.988 15.2338 290.599 18.8182C311.881 22.4027 324.875 38.0846 326.219 60.2633C327.563 82.218 316.138 100.364 297.095 106.413C285.446 109.997 273.797 109.773 262.371 105.517C250.722 101.036 243.105 92.5232 238.624 80.4257C235.936 90.2829 230.783 97.6758 222.494 102.604C213.757 107.757 204.124 109.549 194.267 108.877C178.361 107.757 165.816 100.588 157.751 86.4745C157.527 86.0264 157.078 85.3543 156.854 84.9063C156.854 84.9063 156.63 84.9063 156.406 84.9063C155.958 86.2504 155.734 87.8186 155.286 89.1628C152.822 96.3317 148.117 101.484 141.397 104.173C125.715 110.669 109.809 111.117 94.3508 104.621C83.5975 100.14 77.9969 91.6271 77.3248 80.2017C77.1008 78.1855 77.7728 77.7374 79.5651 77.9614C86.0618 78.1855 92.5586 77.9614 99.0554 77.9614C100.4 77.9614 101.072 77.9614 101.296 79.7536C101.968 85.8024 105.104 89.1628 110.929 90.731C116.978 92.0751 122.802 92.2992 128.403 89.1628C133.78 86.2504 133.78 80.2017 128.627 77.0653C127.059 76.1692 125.491 75.4971 123.698 74.8251C116.081 72.1367 108.017 71.0166 100.176 68.3283C96.8151 67.2081 93.2307 65.6399 90.0943 63.8477C76.4287 55.3347 75.3085 36.5164 88.3021 26.6592C95.0229 21.5066 102.864 19.4903 110.929 18.5942C120.562 17.6981 129.971 18.8182 138.932 23.2988C147.669 27.7793 152.598 34.7242 153.494 44.5814C153.718 46.1496 153.27 46.5976 151.702 46.5976C144.981 46.5976 138.036 46.5976 131.315 46.5976C130.195 46.5976 129.747 46.3736 129.523 45.0294C129.075 41.221 127.059 38.7567 123.474 37.6365C118.994 35.8443 114.289 35.6203 109.585 36.7404C105.776 37.8606 103.76 39.8768 103.76 42.7892C103.536 46.3736 106.224 47.7178 108.913 48.8379C114.513 51.3022 120.562 52.1983 126.387 53.5425C130.643 54.6626 134.9 55.7827 138.932 57.3509C143.861 59.3672 148.341 61.8315 152.15 66.312C151.702 53.5425 154.838 42.5651 162.903 33.156C170.968 23.7468 181.721 19.2663 194.043 18.3702C213.085 16.802 233.92 25.9871 239.072 45.0294Z" fill="#093B59"/>
<path d="M350.86 67.6562C361.838 59.3672 361.838 59.3672 376.623 33.6041C382.896 46.5976 389.393 59.3672 402.163 67.4322C392.753 72.3608 390.737 81.3219 389.393 90.507C388.497 96.5557 388.945 102.828 389.393 108.877C389.617 110.669 388.945 111.117 387.153 111.117C384.464 110.893 381.776 111.117 379.088 111.117C377.744 111.117 377.072 110.893 377.072 109.325C377.072 94.0914 377.072 78.8576 377.072 63.8477C377.072 62.7276 377.296 62.2795 378.416 61.8315C380.208 60.9354 381.104 59.1432 380.88 57.1269C380.432 55.3347 379.536 53.7665 377.52 53.5425C375.503 53.3185 374.159 53.9905 373.263 55.7828C372.367 57.575 372.367 59.8152 373.935 60.9354C375.727 62.2795 375.503 63.6237 375.503 65.4159C375.503 79.9777 375.503 94.3154 375.503 108.877C375.503 110.893 375.055 111.79 372.815 111.566C370.575 111.342 368.558 111.342 366.318 111.566C364.078 111.79 363.63 111.341 363.854 108.877C364.526 99.6921 364.974 90.2829 362.062 81.3219C359.821 75.2731 356.909 70.1205 350.86 67.6562Z" fill="#996F32"/>
<path d="M226.078 72.8088C223.166 72.8088 220.253 72.8088 217.565 72.8088C216.445 72.8088 215.773 73.0329 215.549 74.377C213.084 83.7862 208.828 88.0427 200.763 88.9388C190.906 90.0589 183.289 86.4745 179.48 78.1855C174.776 68.1043 174.776 57.799 179.928 47.9418C185.529 36.9645 201.435 34.0521 210.844 41.8931C213.084 43.6853 214.652 46.1496 215.101 48.8379C215.549 50.8542 216.445 51.0782 218.237 51.0782C224.062 51.0782 229.662 51.0782 235.487 51.0782C237.055 51.0782 237.503 51.3022 237.279 53.0944C235.935 58.9191 235.935 64.9679 236.831 71.0166C237.055 72.5848 236.607 73.0329 235.039 73.0329C231.903 72.8088 228.99 72.8088 226.078 72.8088Z" fill="#FEFEFE"/>
<path d="M260.131 63.3997C259.907 58.023 261.027 53.0944 263.267 48.3898C267.076 40.9969 273.124 37.6365 281.189 37.6365C289.254 37.6365 295.527 40.9969 298.888 48.3898C303.368 58.023 303.368 67.8802 299.112 77.7374C295.527 85.8024 288.582 89.3868 278.725 88.9388C270.884 88.4907 264.611 83.3381 261.699 75.0491C260.579 71.2406 259.907 67.2081 260.131 63.3997Z" fill="#FEFEFE"/>
</svg>
