<svg width="19" height="19" viewBox="0 0 19 19" fill="none" xmlns="http://www.w3.org/2000/svg">
<path d="M8.18231 0.8245C6.03985 0.828089 3.98616 1.68021 2.4712 3.19417C0.95625 4.70813 0.103567 6.76047 0.0999756 8.90153C0.101766 11.0444 0.953439 13.0992 2.46839 14.6157C3.98335 16.1322 6.03805 16.9868 8.18231 16.9921C10.084 16.9921 11.8363 16.3236 13.2219 15.2172L16.5873 18.5804C16.7578 18.7388 16.983 18.825 17.2158 18.821C17.4486 18.8169 17.6707 18.7228 17.8355 18.5585C18.0004 18.3943 18.0951 18.1725 18.0998 17.9399C18.1045 17.7073 18.0188 17.482 17.8607 17.3111L14.4954 13.9446C15.6448 12.516 16.2714 10.738 16.2714 8.90493C16.2714 4.45238 12.6378 0.8245 8.18231 0.8245ZM8.18231 2.62317C11.6665 2.62317 14.4716 5.42298 14.4716 8.90153C14.4716 12.3801 11.6665 15.1969 8.18231 15.1969C4.69808 15.1969 1.89643 12.3903 1.89643 8.90832C1.89643 5.42637 4.69808 2.62317 8.18231 2.62317Z" fill="#093B59"/>
</svg>
