<svg width="140" height="137" viewBox="0 0 140 137" fill="none" xmlns="http://www.w3.org/2000/svg">
<path d="M131.817 16.1706C136.228 16.1706 139.804 12.5947 139.804 8.18369C139.804 3.77264 136.228 0.196777 131.817 0.196777C127.406 0.196777 123.83 3.77264 123.83 8.18369C123.83 12.5947 127.406 16.1706 131.817 16.1706Z" fill="white"/>
<path d="M131.817 121.186C136.228 121.186 139.804 117.61 139.804 113.199C139.804 108.788 136.228 105.212 131.817 105.212C127.406 105.212 123.83 108.788 123.83 113.199C123.83 117.61 127.406 121.186 131.817 121.186Z" fill="white"/>
<path d="M8.18418 16.1706C12.5952 16.1706 16.1711 12.5947 16.1711 8.18369C16.1711 3.77264 12.5952 0.196777 8.18418 0.196777C3.77313 0.196777 0.197266 3.77264 0.197266 8.18369C0.197266 12.5947 3.77313 16.1706 8.18418 16.1706Z" fill="white"/>
<path d="M8.18418 121.186C12.5952 121.186 16.1711 117.61 16.1711 113.199C16.1711 108.788 12.5952 105.212 8.18418 105.212C3.77313 105.212 0.197266 108.788 0.197266 113.199C0.197266 117.61 3.77313 121.186 8.18418 121.186Z" fill="white"/>
<path d="M116.992 66.4067C111.836 84.8139 99.496 110.997 70 132.612C46.3808 115.335 30.622 93.2192 23.125 66.8169C18.8125 51.6265 18.581 39.1372 18.7627 33.5942C49.0205 23.9526 63.7627 13.6548 70 8.18506C76.2373 13.6548 90.9794 23.9556 121.243 33.5942C121.431 39.0669 121.217 51.3188 116.992 66.4067Z" fill="white"/>
<path d="M116.992 66.4067C111.836 84.8139 99.4961 110.997 70 132.612V8.18506C76.2373 13.6548 90.9795 23.9556 121.243 33.5942C121.431 39.0669 121.217 51.3188 116.992 66.4067Z" fill="white"/>
<path d="M72.7187 129.985L70.0011 126.706C48.6261 111.07 34.3615 91.0512 27.5763 67.1567C23.674 53.4077 23.4659 42.105 23.63 37.0893C51.0138 28.3618 64.3556 19.0425 70.0011 14.0913L72.7187 11.3898V7.51855L70.0011 3.41846C68.5948 3.41846 67.3322 4.09229 66.506 5.229C66.046 5.78564 55.4259 18.1899 18.1456 29.5952C16.4757 30.105 15.2658 31.5581 15.0665 33.2954C14.9933 33.9253 13.3556 48.9722 19.007 69.1548C22.3093 80.9546 27.4675 92.1541 34.2882 102.333C42.8048 115.054 53.9728 126.284 67.4874 135.708C68.2433 136.236 69.1222 136.499 70.0011 136.499L72.7187 132.964V129.985Z" fill="#3A627A"/>
<path d="M72.5366 36.5412L70.001 32.9351C59.627 32.9351 51.1865 41.3755 51.1865 51.7495V58.5552C51.1865 60.9809 53.1553 62.9497 55.5811 62.9497C58.0098 62.9497 59.9756 60.9809 59.9756 58.5552V51.7495C59.9756 46.2212 64.4727 41.7241 70.001 41.7241L72.5366 38.916V36.5412Z" fill="#3A627A"/>
<path d="M120.994 69.1548C117.692 80.9546 112.534 92.1541 105.713 102.333C97.1963 115.054 86.0283 126.284 72.5137 135.708C71.7578 136.236 70.8789 136.499 70 136.499V126.706C96.6953 107.141 107.863 83.4458 112.53 66.7847C116.354 53.1294 116.547 42.0405 116.377 37.0893C88.9873 28.3647 75.6455 19.0425 70 14.0913V3.41846C71.4062 3.41846 72.6689 4.09229 73.4951 5.229C73.9551 5.78564 84.5752 18.1899 121.855 29.5952C123.525 30.105 124.735 31.5581 124.935 33.2954C125.008 33.9253 126.645 48.9722 120.994 69.1548Z" fill="#093B59"/>
<path d="M88.8144 51.7495V58.5552C88.8144 60.9809 86.8457 62.9497 84.4199 62.9497C81.9912 62.9497 80.0254 60.9809 80.0254 58.5552V51.7495C80.0254 46.2212 75.5283 41.7241 70 41.7241V32.9351C80.374 32.9351 88.8144 41.3755 88.8144 51.7495Z" fill="#093B59"/>
<path d="M73.9322 62.9485L70 54.1606H53.8281C49.4102 54.1606 45.8184 57.7524 45.8184 62.1704V87.3364C45.8184 91.7544 49.4102 95.3462 53.8281 95.3462H70L73.9322 84.8579V62.9485Z" fill="#C79F67"/>
<path d="M94.1816 62.1704V87.3364C94.1816 91.7544 90.5898 95.3462 86.1719 95.3462H70V54.1606H86.1719C90.5898 54.1606 94.1816 57.7524 94.1816 62.1704Z" fill="#9A6F32"/>
<path d="M74.3945 72.6177V76.8892C74.3945 79.3179 72.4258 81.2837 70 81.2837C67.5742 81.2837 65.6055 79.3179 65.6055 76.8892V72.6177C65.6055 70.189 67.5742 68.2231 70 68.2231C72.4258 68.2231 74.3945 70.1887 74.3945 72.6177Z" fill="#404A80"/>
<path d="M74.3945 72.6177V76.8892C74.3945 79.3179 72.4258 81.2837 70 81.2837V68.2231C72.4258 68.2231 74.3945 70.1887 74.3945 72.6177Z" fill="#283366"/>
</svg>
