<svg width="150" height="142" viewBox="0 0 150 142" fill="none" xmlns="http://www.w3.org/2000/svg">
<path d="M96.6396 122.594H128.027C130.454 122.594 132.421 120.626 132.421 118.199C132.421 115.772 130.454 113.805 128.027 113.805H96.6396C94.2127 113.805 92.2451 115.772 92.2451 118.199C92.2451 120.626 94.2127 122.594 96.6396 122.594ZM104.902 35.7932C107.329 35.7932 109.296 33.8256 109.296 31.3986V17.5781H128.027C130.454 17.5781 132.421 15.6105 132.421 13.1836C132.421 10.7566 130.454 8.78906 128.027 8.78906H104.902C102.475 8.78906 100.507 10.7566 100.507 13.1836V31.3986C100.507 33.8256 102.475 35.7932 104.902 35.7932ZM123.591 69.825H145.605C148.032 69.825 149.999 67.8574 149.999 65.4305C149.999 63.0035 148.032 61.0359 145.605 61.0359H123.591C121.164 61.0359 119.196 63.0035 119.196 65.4305C119.196 67.8574 121.164 69.825 123.591 69.825ZM117.122 90.6393H135.612C138.038 90.6393 140.006 88.6717 140.006 86.2447C140.006 83.8178 138.038 81.8502 135.612 81.8502H117.122C114.695 81.8502 112.727 83.8178 112.727 86.2447C112.727 88.6717 114.695 90.6393 117.122 90.6393Z" fill="#CFDBFD"/>
<path d="M136.817 21.1705C141.228 21.1705 144.804 17.5947 144.804 13.1836C144.804 8.77258 141.228 5.19672 136.817 5.19672C132.406 5.19672 128.83 8.77258 128.83 13.1836C128.83 17.5947 132.406 21.1705 136.817 21.1705Z" fill="white"/>
<path d="M136.817 126.186C141.228 126.186 144.804 122.61 144.804 118.199C144.804 113.788 141.228 110.213 136.817 110.213C132.406 110.213 128.83 113.788 128.83 118.199C128.83 122.61 132.406 126.186 136.817 126.186Z" fill="white"/>
<path d="M123.633 13.1836C123.633 5.91416 129.547 0 136.816 0C144.086 0 150 5.91416 150 13.1836C150 20.453 144.086 26.3672 136.816 26.3672C129.547 26.3672 123.633 20.4533 123.633 13.1836ZM132.422 13.1836C132.422 15.6067 134.393 17.5781 136.816 17.5781C139.24 17.5781 141.211 15.6067 141.211 13.1836C141.211 10.7604 139.24 8.78906 136.816 8.78906C134.393 8.78906 132.422 10.7604 132.422 13.1836ZM123.633 118.199C123.633 110.93 129.547 105.016 136.816 105.016C144.086 105.016 150 110.93 150 118.199C150 125.469 144.086 131.383 136.816 131.383C129.547 131.383 123.633 125.469 123.633 118.199ZM132.422 118.199C132.422 120.623 134.393 122.594 136.816 122.594C139.24 122.594 141.211 120.623 141.211 118.199C141.211 115.776 139.24 113.805 136.816 113.805C134.393 113.805 132.422 115.776 132.422 118.199Z" fill="#9A6F32"/>
<path d="M53.3596 122.594H21.9727C19.5457 122.594 17.5781 120.626 17.5781 118.199C17.5781 115.772 19.5457 113.805 21.9727 113.805H53.3596C55.7865 113.805 57.7541 115.772 57.7541 118.199C57.7541 120.626 55.7865 122.594 53.3596 122.594ZM45.0975 35.7932C42.6706 35.7932 40.703 33.8256 40.703 31.3986V17.5781H21.9727C19.5457 17.5781 17.5781 15.6105 17.5781 13.1836C17.5781 10.7566 19.5457 8.78906 21.9727 8.78906H45.0975C47.5245 8.78906 49.4921 10.7566 49.4921 13.1836V31.3986C49.4921 33.8256 47.5245 35.7932 45.0975 35.7932ZM26.4082 69.825H4.39453C1.96758 69.825 0 67.8574 0 65.4305C0 63.0035 1.96758 61.0359 4.39453 61.0359H26.4082C28.8351 61.0359 30.8027 63.0035 30.8027 65.4305C30.8027 67.8574 28.8351 69.825 26.4082 69.825ZM32.8772 90.6393H14.3877C11.9607 90.6393 9.99316 88.6717 9.99316 86.2447C9.99316 83.8178 11.9607 81.8502 14.3877 81.8502H32.8772C35.3042 81.8502 37.2718 83.8178 37.2718 86.2447C37.2718 88.6717 35.3042 90.6393 32.8772 90.6393Z" fill="#E8F1FD"/>
<path d="M13.1842 21.1705C17.5952 21.1705 21.1711 17.5947 21.1711 13.1836C21.1711 8.77258 17.5952 5.19672 13.1842 5.19672C8.77313 5.19672 5.19727 8.77258 5.19727 13.1836C5.19727 17.5947 8.77313 21.1705 13.1842 21.1705Z" fill="white"/>
<path d="M13.1842 126.186C17.5952 126.186 21.1711 122.61 21.1711 118.199C21.1711 113.788 17.5952 110.213 13.1842 110.213C8.77313 110.213 5.19727 113.788 5.19727 118.199C5.19727 122.61 8.77313 126.186 13.1842 126.186Z" fill="white"/>
<path d="M13.1836 26.3672C5.91416 26.3672 0 20.453 0 13.1836C0 5.91416 5.91416 0 13.1836 0C20.453 0 26.3672 5.91416 26.3672 13.1836C26.3672 20.453 20.453 26.3672 13.1836 26.3672ZM13.1836 8.78906C10.7604 8.78906 8.78906 10.7604 8.78906 13.1836C8.78906 15.6067 10.7604 17.5781 13.1836 17.5781C15.6067 17.5781 17.5781 15.6067 17.5781 13.1836C17.5781 10.7604 15.6067 8.78906 13.1836 8.78906ZM13.1836 131.383C5.91416 131.383 0 125.469 0 118.199C0 110.93 5.91416 105.016 13.1836 105.016C20.453 105.016 26.3672 110.93 26.3672 118.199C26.3672 125.469 20.453 131.383 13.1836 131.383ZM13.1836 113.805C10.7604 113.805 8.78906 115.776 8.78906 118.199C8.78906 120.623 10.7604 122.594 13.1836 122.594C15.6067 122.594 17.5781 120.623 17.5781 118.199C17.5781 115.776 15.6067 113.805 13.1836 113.805Z" fill="#9A6F32"/>
<path d="M121.992 71.4065C116.836 89.8137 104.496 115.996 75 137.612C51.3808 120.335 35.622 98.219 28.125 71.8166C23.8125 56.6262 23.581 44.137 23.7627 38.594C54.0205 28.9524 68.7627 18.6545 75 13.1848C81.2373 18.6545 95.9794 28.9553 126.243 38.594C126.431 44.0666 126.217 56.3186 121.992 71.4065Z" fill="white"/>
<path d="M121.992 71.4064C116.836 89.8136 104.496 115.996 75 137.611V13.1848C81.2373 18.6545 95.9795 28.9553 126.243 38.5939C126.431 44.0666 126.217 56.3185 121.992 71.4064Z" fill="white"/>
<path d="M77.7187 134.985L75.0011 131.705C53.6261 116.07 39.3615 96.051 32.5763 72.1565C28.674 58.4075 28.4659 47.1047 28.63 42.0891C56.0138 33.3616 69.3556 24.0422 75.0011 19.0911L77.7187 16.3896V12.5183L75.0011 8.41821C73.5948 8.41821 72.3322 9.09204 71.506 10.2288C71.046 10.7854 60.4259 23.1897 23.1456 34.595C21.4757 35.1047 20.2658 36.5579 20.0665 38.2952C19.9933 38.925 18.3556 53.9719 24.007 74.1545C27.3093 85.9544 32.4675 97.1539 39.2882 107.333C47.8048 120.054 58.9728 131.283 72.4874 140.708C73.2433 141.236 74.1222 141.499 75.0011 141.499L77.7187 137.964V134.985Z" fill="#52CC7B"/>
<path d="M77.5366 41.541L75.001 37.9348C64.627 37.9348 56.1865 46.3752 56.1865 56.7493V63.5549C56.1865 65.9807 58.1553 67.9495 60.5811 67.9495C63.0098 67.9495 64.9756 65.9807 64.9756 63.5549V56.7493C64.9756 51.2209 69.4727 46.7239 75.001 46.7239L77.5366 43.9158V41.541Z" fill="#404A80"/>
<path d="M125.994 74.1545C122.692 85.9544 117.534 97.1539 110.713 107.333C102.196 120.054 91.0283 131.283 77.5137 140.708C76.7578 141.236 75.8789 141.499 75 141.499V131.705C101.695 112.141 112.863 88.4455 117.53 71.7844C121.354 58.1291 121.547 47.0403 121.377 42.0891C93.9873 33.3645 80.6455 24.0422 75 19.0911V8.41821C76.4062 8.41821 77.6689 9.09204 78.4951 10.2288C78.9551 10.7854 89.5752 23.1897 126.855 34.595C128.525 35.1047 129.735 36.5579 129.935 38.2952C130.008 38.925 131.645 53.9719 125.994 74.1545Z" fill="#3D997A"/>
<path d="M93.8144 56.7493V63.5549C93.8144 65.9807 91.8457 67.9495 89.4199 67.9495C86.9912 67.9495 85.0254 65.9807 85.0254 63.5549V56.7493C85.0254 51.2209 80.5283 46.7239 75 46.7239V37.9348C85.374 37.9348 93.8144 46.3752 93.8144 56.7493Z" fill="#283366"/>
<path d="M78.9322 67.9483L75 59.1604H58.8281C54.4102 59.1604 50.8184 62.7522 50.8184 67.1702V92.3362C50.8184 96.7541 54.4102 100.346 58.8281 100.346H75L78.9322 89.8577V67.9483Z" fill="#FFE370"/>
<path d="M99.1816 67.1702V92.3362C99.1816 96.7541 95.5898 100.346 91.1719 100.346H75V59.1604H91.1719C95.5898 59.1604 99.1816 62.7522 99.1816 67.1702Z" fill="#FFB54C"/>
<path d="M79.3945 77.6174V81.8889C79.3945 84.3176 77.4258 86.2834 75 86.2834C72.5742 86.2834 70.6055 84.3176 70.6055 81.8889V77.6174C70.6055 75.1887 72.5742 73.2229 75 73.2229C77.4258 73.2229 79.3945 75.1884 79.3945 77.6174Z" fill="#404A80"/>
<path d="M79.3945 77.6174V81.8889C79.3945 84.3176 77.4258 86.2834 75 86.2834V73.2229C77.4258 73.2229 79.3945 75.1884 79.3945 77.6174Z" fill="#283366"/>
</svg>
