<svg width="28" height="28" viewBox="0 0 28 28" fill="none" xmlns="http://www.w3.org/2000/svg">
<path d="M4.17174 1H19.3037C20.1354 1.0051 20.9317 1.33729 21.5204 1.92478C22.1091 2.51227 22.4429 3.30784 22.4497 4.1395L22.5797 19.7915H24.0942C24.8689 19.7967 25.6098 20.1089 26.1545 20.6597C26.6992 21.2105 27.0032 21.9549 26.9997 22.7295C27.0119 23.8138 26.6073 24.8614 25.8695 25.656C25.1317 26.4507 24.1169 26.9318 23.0347 27H5.26374C4.13331 26.9949 3.05075 26.5431 2.25202 25.7431C1.45329 24.9432 1.00315 23.8599 0.999735 22.7295V4.172C1.00145 3.33126 1.3362 2.52545 1.93069 1.93095C2.52518 1.33646 3.331 1.00172 4.17174 1ZM22.7682 26.0315C23.6302 26.0315 24.4568 25.6891 25.0663 25.0796C25.6758 24.4701 26.0182 23.6435 26.0182 22.7815C26.0183 22.2699 25.8173 21.7788 25.4586 21.414C25.0999 21.0492 24.6123 20.84 24.1007 20.8315H9.48874V22.7815C9.48617 23.4011 9.3488 24.0128 9.08615 24.574C8.8235 25.1352 8.44186 25.6326 7.96774 26.0315H22.7682ZM2.02674 4.2045V22.7945C2.02887 23.2213 2.11505 23.6435 2.28035 24.037C2.44565 24.4305 2.68683 24.7876 2.99013 25.0878C3.29343 25.3881 3.6529 25.6257 4.04803 25.7871C4.44315 25.9484 4.86619 26.0304 5.29299 26.0282C5.71978 26.0261 6.14198 25.9399 6.53547 25.7746C6.92896 25.6093 7.28604 25.3682 7.58632 25.0649C7.8866 24.7616 8.12421 24.4021 8.28556 24.007C8.44692 23.6118 8.52887 23.1888 8.52674 22.762V20.3245C8.53556 20.2027 8.58753 20.088 8.6733 20.001C8.75907 19.914 8.87304 19.8605 8.99474 19.85H21.5787L21.4487 4.198C21.447 3.63024 21.2203 3.08632 20.8182 2.68546C20.4161 2.2846 19.8715 2.0595 19.3037 2.0595H4.17174C3.8892 2.06035 3.60959 2.11685 3.34889 2.22576C3.08818 2.33467 2.85148 2.49386 2.6523 2.69425C2.45311 2.89464 2.29535 3.1323 2.18802 3.39366C2.08068 3.65502 2.02588 3.93496 2.02674 4.2175C2.02674 4.2175 2.02674 4.2045 2.02674 4.2045Z" fill="#9AA6B2" stroke="#9AA6B2" stroke-width="0.3"/>
<path d="M17.8671 7.24001H12.0496C11.9169 7.24001 11.7896 7.18728 11.6957 7.09342C11.6019 6.99956 11.5491 6.87225 11.5491 6.73951C11.5491 6.60677 11.6019 6.47947 11.6957 6.38561C11.7896 6.29174 11.9169 6.23901 12.0496 6.23901H17.8476C17.9782 6.24394 18.102 6.29844 18.1937 6.39143C18.2855 6.48442 18.3384 6.6089 18.3416 6.73951C18.3433 6.80354 18.3324 6.86728 18.3095 6.92709C18.2866 6.9869 18.2521 7.0416 18.2081 7.08809C18.164 7.13457 18.1112 7.17191 18.0527 7.19798C17.9942 7.22404 17.9311 7.23833 17.8671 7.24001Z" fill="#9AA6B2" stroke="#9AA6B2" stroke-width="0.3"/>
<path d="M6.12177 14.9165H17.8218C17.9545 14.9165 18.0818 14.9692 18.1757 15.0631C18.2695 15.157 18.3223 15.2843 18.3223 15.417C18.3223 15.5497 18.2695 15.677 18.1757 15.7709C18.0818 15.8648 17.9545 15.9175 17.8218 15.9175H6.12177C5.98903 15.9175 5.86172 15.8648 5.76786 15.7709C5.674 15.677 5.62127 15.5497 5.62127 15.417C5.62127 15.2843 5.674 15.157 5.76786 15.0631C5.86172 14.9692 5.98903 14.9165 6.12177 14.9165Z" fill="#9AA6B2" stroke="#9AA6B2" stroke-width="0.3"/>
<path d="M6.12177 10.5811H17.8218C17.9545 10.5811 18.0818 10.6338 18.1757 10.7276C18.2695 10.8215 18.3223 10.9488 18.3223 11.0816C18.3223 11.2143 18.2695 11.3416 18.1757 11.4355C18.0818 11.5293 17.9545 11.5821 17.8218 11.5821H6.12177C5.98903 11.5821 5.86172 11.5293 5.76786 11.4355C5.674 11.3416 5.62127 11.2143 5.62127 11.0816C5.62127 10.9488 5.674 10.8215 5.76786 10.7276C5.86172 10.6338 5.98903 10.5811 6.12177 10.5811Z" fill="#9AA6B2" stroke="#9AA6B2" stroke-width="0.3"/>
</svg>
