<svg width="15" height="16" viewBox="0 0 15 16" fill="none" xmlns="http://www.w3.org/2000/svg">
<path d="M13.4068 7.10551L14.3218 7.65439C14.3783 7.68818 14.425 7.73603 14.4575 7.79327C14.4899 7.85051 14.507 7.91518 14.507 7.98097C14.507 8.04676 14.4899 8.11143 14.4575 8.16867C14.425 8.22591 14.3783 8.27376 14.3218 8.30755L7.25348 12.5486L0.185121 8.30755C0.12867 8.27376 0.0819432 8.22591 0.0494987 8.16867C0.0170541 8.11143 0 8.04676 0 7.98097C0 7.91518 0.0170541 7.85051 0.0494987 7.79327C0.0819432 7.73603 0.12867 7.68818 0.185121 7.65439L1.10016 7.10551L7.25348 10.7977L13.4068 7.10551ZM13.4068 10.6835L14.3218 11.2323C14.3783 11.2661 14.425 11.314 14.4575 11.3712C14.4899 11.4285 14.507 11.4931 14.507 11.5589C14.507 11.6247 14.4899 11.6894 14.4575 11.7466C14.425 11.8039 14.3783 11.8517 14.3218 11.8855L7.64553 15.8913C7.52713 15.9624 7.3916 16 7.25348 16C7.11535 16 6.97983 15.9624 6.86142 15.8913L0.185121 11.8855C0.12867 11.8517 0.0819432 11.8039 0.0494987 11.7466C0.0170541 11.6894 0 11.6247 0 11.5589C0 11.4931 0.0170541 11.4285 0.0494987 11.3712C0.0819432 11.314 0.12867 11.2661 0.185121 11.2323L1.10016 10.6835L7.25348 14.3756L13.4068 10.6835ZM7.64477 0.108716L14.3218 4.1145C14.3783 4.14829 14.425 4.19614 14.4575 4.25338C14.4899 4.31062 14.507 4.37529 14.507 4.44108C14.507 4.50687 14.4899 4.57154 14.4575 4.62878C14.425 4.68602 14.3783 4.73387 14.3218 4.76766L7.25348 9.00868L0.185121 4.76766C0.12867 4.73387 0.0819432 4.68602 0.0494987 4.62878C0.0170541 4.57154 0 4.50687 0 4.44108C0 4.37529 0.0170541 4.31062 0.0494987 4.25338C0.0819432 4.19614 0.12867 4.14829 0.185121 4.1145L6.86142 0.108716C6.97983 0.037581 7.11535 0 7.25348 0C7.3916 0 7.52637 0.037581 7.64477 0.108716Z" fill="#BEC4D0"/>
</svg>
