<svg width="26" height="26" viewBox="0 0 26 26" fill="none" xmlns="http://www.w3.org/2000/svg">
<path d="M24.4035 11.0038C24.309 8.11978 23.1174 5.38056 21.0719 3.34525C18.9148 1.18777 16.048 0 13 0C6.84389 0 1.81379 4.89993 1.59696 11.0038C1.12229 11.2141 0.718775 11.5575 0.435328 11.9924C0.151881 12.4274 0.000663611 12.9352 0 13.4544V16.4651C0.000768174 17.176 0.28353 17.8576 0.786243 18.3603C1.28896 18.863 1.97056 19.1458 2.68151 19.1466C3.14149 19.146 3.58248 18.9631 3.90774 18.6378C4.23301 18.3125 4.41598 17.8715 4.41653 17.4116V12.5075C4.41653 11.6091 3.72749 10.8765 2.85148 10.7895C3.17486 5.47163 7.60175 1.24374 13 1.24374C15.7163 1.24374 18.2706 2.30258 20.193 4.22499C21.9583 5.99027 22.9914 8.29119 23.1469 10.7899C22.2717 10.8778 21.5839 11.6099 21.5839 12.5075V17.4111C21.5839 18.317 22.2837 19.0541 23.1701 19.1308V20.37C23.1693 21.041 22.9024 21.6843 22.4279 22.1587C21.9534 22.6331 21.3101 22.8999 20.6391 22.9006H18.7647C18.6384 22.5322 18.3998 22.2126 18.0825 21.9867C17.7653 21.7608 17.3852 21.64 16.9957 21.6411H15.0638C14.7864 21.6411 14.5203 21.7 14.2765 21.8136C13.9501 21.9644 13.6736 22.2054 13.4797 22.5082C13.2857 22.811 13.1825 23.1629 13.182 23.5225C13.182 24.0258 13.3781 24.4984 13.7334 24.852C13.9075 25.0276 14.1148 25.1668 14.3432 25.2616C14.5716 25.3564 14.8165 25.4049 15.0638 25.4042H16.9957C17.7967 25.4042 18.5027 24.8864 18.766 24.1443H20.6391C22.7207 24.1443 24.4138 22.4512 24.4138 20.37V18.9094C24.8857 18.698 25.2864 18.3547 25.5678 17.9209C25.8492 17.4871 25.9993 16.9813 26 16.4642V13.4536C26 12.3615 25.3425 11.4213 24.4035 11.0038ZM3.17237 12.5075V17.4111C3.17237 17.6819 2.95223 17.9024 2.68109 17.9024C2.29991 17.902 1.93446 17.7504 1.66492 17.4808C1.39539 17.2113 1.24377 16.8458 1.24333 16.4646V13.454C1.24377 13.0728 1.39539 12.7073 1.66492 12.4378C1.93446 12.1683 2.29991 12.0166 2.68109 12.0162C2.95223 12.0162 3.17237 12.2368 3.17237 12.5075ZM17.6197 23.656C17.5888 23.7987 17.51 23.9267 17.3965 24.0186C17.2829 24.1105 17.1414 24.1609 16.9953 24.1613H15.0634C14.8934 24.1613 14.7338 24.095 14.6119 23.9731C14.5526 23.9142 14.5055 23.8441 14.4735 23.7669C14.4415 23.6897 14.4251 23.6069 14.4253 23.5233C14.4258 23.3543 14.4931 23.1923 14.6127 23.0728C14.7323 22.9533 14.8943 22.886 15.0634 22.8857H16.9953C17.1653 22.8857 17.3249 22.9516 17.4464 23.0735C17.5666 23.1933 17.6329 23.3533 17.6329 23.5233C17.6334 23.5689 17.6284 23.6145 17.6197 23.656ZM24.7563 16.4646C24.7558 16.8458 24.6042 17.2113 24.3347 17.4808C24.0651 17.7504 23.6997 17.902 23.3185 17.9024C23.1882 17.9023 23.0633 17.8505 22.9712 17.7584C22.8791 17.6663 22.8273 17.5414 22.8272 17.4111V12.5075C22.8272 12.2368 23.0474 12.0162 23.3185 12.0162C23.6997 12.0166 24.0651 12.1683 24.3347 12.4378C24.6042 12.7073 24.7558 13.0728 24.7563 13.454V16.4646Z" fill="#AD8138"/>
<path d="M17.0266 16.6789C17.7252 16.6782 18.395 16.4003 18.889 15.9063C19.383 15.4123 19.6609 14.7425 19.6617 14.0439V8.67462C19.6617 7.97232 19.3872 7.31065 18.8889 6.81233C18.3906 6.314 17.7293 6.03955 17.0266 6.03955H8.97296C8.27434 6.04032 7.60454 6.31819 7.11053 6.81219C6.61653 7.3062 6.33866 7.976 6.33789 8.67462V14.0439C6.33866 14.7425 6.61653 15.4123 7.11053 15.9063C7.60454 16.4003 8.27434 16.6782 8.97296 16.6789H9.0223V18.0703C9.02148 18.2402 9.05426 18.4085 9.11874 18.5657C9.18323 18.7229 9.27815 18.8658 9.39805 18.9861C9.51795 19.1065 9.66047 19.202 9.8174 19.2671C9.97433 19.3322 10.1426 19.3656 10.3125 19.3654C10.4823 19.3658 10.6504 19.3319 10.8068 19.2659C10.9632 19.1998 11.1047 19.103 11.2229 18.9811L13.5375 16.6789H17.0266ZM12.8431 15.6159L10.3382 18.1072C10.327 18.1188 10.3187 18.1275 10.2951 18.1171C10.2665 18.1055 10.2665 18.0868 10.2665 18.0703V16.0571C10.2665 15.8921 10.2009 15.734 10.0843 15.6173C9.96769 15.5007 9.80952 15.4352 9.64458 15.4352H8.97338C8.60451 15.4347 8.25087 15.288 7.99004 15.0272C7.72921 14.7664 7.58249 14.4127 7.58205 14.0439V8.67462C7.58249 8.30575 7.72921 7.95212 7.99004 7.69129C8.25087 7.43046 8.60451 7.28373 8.97338 7.28329H17.027C17.3977 7.28329 17.7463 7.4284 18.01 7.69165C18.2737 7.95533 18.4184 8.3044 18.4184 8.67462V14.0439C18.4179 14.4127 18.2712 14.7664 18.0104 15.0272C17.7495 15.288 17.3959 15.4347 17.027 15.4352H13.2817C13.1171 15.4352 12.9596 15.5003 12.8431 15.6159Z" fill="#AD8138"/>
<path d="M9.97899 10.541C9.4732 10.541 9.06152 10.9531 9.06152 11.4585C9.06152 11.9639 9.47362 12.3759 9.97899 12.3759C10.4852 12.3759 10.8973 11.9639 10.8973 11.4585C10.8973 10.9531 10.4856 10.541 9.97899 10.541ZM12.9996 10.541C12.4938 10.541 12.0822 10.9531 12.0822 11.4585C12.0822 11.9639 12.4943 12.3759 12.9996 12.3759C13.5062 12.3759 13.9179 11.9639 13.9179 11.4585C13.9179 10.9531 13.5062 10.541 12.9996 10.541ZM16.0203 10.541C15.5145 10.541 15.1028 10.9531 15.1028 11.4585C15.1028 11.9639 15.5149 12.3759 16.0203 12.3759C16.5265 12.3759 16.9386 11.9639 16.9386 11.4585C16.9386 10.9531 16.5265 10.541 16.0203 10.541Z" fill="#AD8138"/>
</svg>
