<svg width="20" height="20" viewBox="0 0 20 20" fill="none" xmlns="http://www.w3.org/2000/svg">
<path d="M2.50622 10.3234C2.85412 10.3241 3.19819 10.2508 3.51564 10.1085C3.5364 10.0987 3.55901 10.0936 3.58194 10.0933C3.60488 10.093 3.6276 10.0976 3.6486 10.1069C3.99935 10.2582 4.39006 10.3369 4.77874 10.3328C4.83747 10.332 4.87173 10.2671 4.84359 10.2158C4.68547 9.92653 4.57098 9.61551 4.50385 9.29279C4.49591 9.25284 4.50196 9.21136 4.52098 9.17533C4.64742 8.92899 4.7192 8.65492 4.7192 8.36494C4.7192 7.28496 3.72813 6.40768 2.50622 6.40768C1.28431 6.40768 0.294873 7.28455 0.294873 8.36494C0.294873 8.48199 0.305885 8.59741 0.329132 8.70794C0.511848 9.6256 1.41686 10.3234 2.50622 10.3234ZM19.1688 19.1843H18.6957L19.0628 13.0307C19.0713 12.8878 19.0506 12.7446 19.0018 12.6099C18.953 12.4753 18.8772 12.352 18.779 12.2478C18.6808 12.1435 18.5624 12.0604 18.4309 12.0036C18.2995 11.9467 18.1578 11.9174 18.0146 11.9173H4.17227C3.56866 11.9173 3.0874 12.4271 3.12411 13.0307L3.49117 19.1843H0.407847C0.299679 19.1843 0.195942 19.2273 0.119456 19.3038C0.0429694 19.3802 0 19.484 0 19.5922C0 19.7003 0.0429694 19.8041 0.119456 19.8805C0.195942 19.957 0.299679 20 0.407847 20H19.1688C19.277 20 19.3807 19.957 19.4572 19.8805C19.5337 19.8041 19.5767 19.7003 19.5767 19.5922C19.5767 19.484 19.5337 19.3802 19.4572 19.3038C19.3807 19.2273 19.277 19.1843 19.1688 19.1843ZM11.0934 14.4337C11.4509 14.4337 11.7938 14.5757 12.0466 14.8285C12.2994 15.0813 12.4414 15.4241 12.4414 15.7816C12.4414 16.1391 12.2994 16.482 12.0466 16.7348C11.7938 16.9876 11.4509 17.1296 11.0934 17.1296C10.7359 17.1296 10.3931 16.9876 10.1403 16.7348C9.88752 16.482 9.7455 16.1391 9.7455 15.7816C9.7455 15.4241 9.88752 15.0813 10.1403 14.8285C10.3931 14.5757 10.7359 14.4337 11.0934 14.4337ZM5.2286 11.1016H16.9583C16.7138 10.6796 16.3629 10.3291 15.9407 10.0851C15.5185 9.84108 15.0397 9.71203 14.552 9.71084H13.1408C13.8505 9.11538 14.4011 8.27114 14.7274 7.42689H15.8816C16.4077 7.42689 16.8359 6.99865 16.8359 6.47253V5.59974C16.8359 5.27754 16.6728 4.99205 16.4281 4.82075C16.1711 2.10041 13.8709 0 11.0934 0C8.316 0 6.01982 2.10041 5.7588 4.82075C5.51409 4.99205 5.35095 5.27754 5.35095 5.59974V6.47253C5.35095 6.99865 5.77919 7.42689 6.30531 7.42689H7.45952C7.7858 8.27114 8.33639 9.11538 9.04604 9.71084H7.63489C6.63975 9.71084 5.72209 10.2492 5.2286 11.1016ZM7.3127 3.98467V3.98874C7.23928 4.19675 7.18626 4.42106 7.14548 4.64538H6.59488C6.92932 2.46747 8.82581 0.815694 11.0934 0.815694C13.3611 0.815694 15.2576 2.46747 15.592 4.64538H15.0496C14.6906 2.67955 13.0511 1.23985 11.0934 1.23985C9.36417 1.23985 7.88368 2.36959 7.3127 3.98467ZM8.92777 8.41388C9.2051 8.47914 9.53546 8.53216 9.91884 8.56479C10.0861 8.9971 10.5143 9.30299 11.02 9.30299C11.6726 9.30299 12.1987 8.79726 12.1987 8.17325C12.1987 7.55333 11.6726 7.0476 11.02 7.0476C10.5306 7.0476 10.1146 7.33309 9.93515 7.74094C9.04197 7.66344 8.51584 7.45544 8.31192 7.35756C8.24666 7.20258 8.18549 7.0476 8.13247 6.89261C7.96525 6.39096 7.8796 5.90562 7.8796 5.44476C7.87808 5.10516 7.92617 4.76715 8.02235 4.44145C8.34455 4.34357 9.14801 4.18043 10.1676 4.62091C10.4409 4.73918 10.7223 4.78812 11.0078 4.78812C12.1171 4.78812 13.2387 4.03769 13.7934 3.60129C14.0715 4.05561 14.2417 4.56767 14.291 5.09809C14.3032 5.21228 14.3073 5.32648 14.3073 5.44476C14.3073 5.90562 14.2216 6.39096 14.0544 6.89261C13.6017 8.25074 12.4842 9.71084 11.0934 9.71084C10.237 9.71084 9.48244 9.15617 8.92777 8.41388Z" fill="#093B59"/>
</svg>
