<svg width="25" height="25" viewBox="0 0 25 25" fill="none" xmlns="http://www.w3.org/2000/svg">
<path d="M2.19727 8.83645H0.732422C0.327588 8.83645 0 9.16404 0 9.56888C0 9.97371 0.327588 10.3013 0.732422 10.3013H2.19727C2.6021 10.3013 2.92969 9.97371 2.92969 9.56888C2.92969 9.16404 2.6021 8.83645 2.19727 8.83645ZM2.54937 5.17434L1.51367 4.1387C1.22759 3.85262 0.764062 3.85262 0.477978 4.1387C0.191895 4.42478 0.191895 4.88831 0.477978 5.17439L1.51367 6.21004C1.7998 6.49617 2.26323 6.49617 2.54937 6.21004C2.83545 5.92395 2.83545 5.46043 2.54937 5.17434ZM2.54937 12.9278C2.26328 12.6417 1.79976 12.6416 1.51367 12.9278L0.477978 13.9635C0.191895 14.2495 0.191895 14.7131 0.477978 14.9991C0.764111 15.2853 1.22754 15.2853 1.51367 14.9991L2.54937 13.9635C2.83545 13.6774 2.83545 13.2138 2.54937 12.9278ZM24.2676 8.83645H22.8027C22.3979 8.83645 22.0703 9.16404 22.0703 9.56888C22.0703 9.97371 22.3979 10.3013 22.8027 10.3013H24.2676C24.6724 10.3013 25 9.97371 25 9.56888C25 9.16404 24.6724 8.83645 24.2676 8.83645ZM24.522 4.13865C24.2359 3.85257 23.7724 3.85257 23.4863 4.13865L22.4506 5.17434C22.1646 5.46043 22.1646 5.92395 22.4506 6.21004C22.7368 6.49617 23.2002 6.49617 23.4863 6.21004L24.522 5.17434C24.8081 4.88826 24.8081 4.42473 24.522 4.13865ZM24.522 13.9634L23.4863 12.9278C23.2002 12.6417 22.7367 12.6417 22.4506 12.9278C22.1646 13.2138 22.1646 13.6774 22.4506 13.9635L23.4863 14.9991C23.7725 15.2852 24.2359 15.2852 24.522 14.9991C24.8081 14.713 24.8081 14.2495 24.522 13.9634ZM18.0396 1.96409C15.974 0.284695 13.2639 -0.361887 10.6125 0.195975C7.30654 0.886209 4.61431 3.61868 3.91338 6.92317C3.31758 9.73484 4.05283 12.5573 5.92969 14.6673C6.68848 15.5211 7.15137 16.5517 7.30317 17.6256H9.57031V11.0338C9.57031 10.7501 11.718 6.56531 11.8448 6.31165C12.0938 5.81526 12.9062 5.81526 13.1552 6.31165C13.288 6.57737 15.4297 10.7643 15.4297 11.0338V17.6256H17.6994C17.8563 16.5568 18.3328 15.5098 19.1132 14.6194C20.5163 13.0196 21.2896 10.9643 21.2891 8.83645C21.2891 6.17786 20.1046 3.64207 18.0396 1.96409Z" fill="white"/>
<path d="M12.5 12.4342C12.0048 12.4342 11.5115 12.3479 11.0352 12.1904V17.6256H13.9648V12.1904C13.4885 12.3479 12.9952 12.4342 12.5 12.4342ZM7.37305 19.0904V19.8228C7.37305 21.0345 8.35869 22.0201 9.57031 22.0201H15.4297C16.6413 22.0201 17.627 21.0345 17.627 19.8228V19.0904H7.37305ZM12.5 8.27713L11.2896 10.6979C12.0718 11.0184 12.9282 11.0184 13.7104 10.6979L12.5 8.27713ZM8.9728 23.4849C9.27617 24.3356 10.0815 24.9986 11.0352 24.9986H13.9648C14.9185 24.9986 15.7238 24.3356 16.0272 23.4849H8.9728Z" fill="white"/>
</svg>
