<svg width="60" height="60" viewBox="0 0 60 60" fill="none" xmlns="http://www.w3.org/2000/svg">
<rect x="0.5" y="0.5" width="59" height="59" rx="9.5" fill="#EDFFF9" stroke="#F3F3F5"/>
<path d="M18.01 30.5175C18.5666 30.5186 19.1171 30.4013 19.625 30.1736C19.6582 30.158 19.6944 30.1497 19.7311 30.1492C19.7678 30.1488 19.8042 30.1562 19.8378 30.171C20.399 30.4131 21.0241 30.539 21.646 30.5325C21.74 30.5312 21.7948 30.4274 21.7497 30.3452C21.4967 29.8824 21.3136 29.3848 21.2062 28.8685C21.1935 28.8045 21.2031 28.7382 21.2336 28.6805C21.4359 28.2864 21.5507 27.8479 21.5507 27.3839C21.5507 25.6559 19.965 24.2523 18.01 24.2523C16.0549 24.2523 14.4718 25.6553 14.4718 27.3839C14.4718 27.5712 14.4894 27.7559 14.5266 27.9327C14.819 29.401 16.267 30.5175 18.01 30.5175ZM44.6701 44.6949H43.9131L44.5004 34.8491C44.5141 34.6204 44.4809 34.3913 44.4028 34.1759C44.3248 33.9604 44.2035 33.7633 44.0464 33.5964C43.8893 33.4296 43.6998 33.2966 43.4895 33.2057C43.2792 33.1148 43.0525 33.0678 42.8234 33.0677H20.6756C19.7099 33.0677 18.9398 33.8834 18.9986 34.8491L19.5859 44.6949H14.6526C14.4795 44.6949 14.3135 44.7636 14.1911 44.886C14.0688 45.0084 14 45.1744 14 45.3474C14 45.5205 14.0688 45.6865 14.1911 45.8089C14.3135 45.9312 14.4795 46 14.6526 46H44.6701C44.8432 46 45.0091 45.9312 45.1315 45.8089C45.2539 45.6865 45.3226 45.5205 45.3226 45.3474C45.3226 45.1744 45.2539 45.0084 45.1315 44.886C45.0091 44.7636 44.8432 44.6949 44.6701 44.6949ZM31.7495 37.0939C32.3215 37.0939 32.8701 37.3211 33.2745 37.7256C33.679 38.1301 33.9062 38.6786 33.9062 39.2506C33.9062 39.8226 33.679 40.3712 33.2745 40.7756C32.8701 41.1801 32.3215 41.4073 31.7495 41.4073C31.1775 41.4073 30.6289 41.1801 30.2245 40.7756C29.82 40.3712 29.5928 39.8226 29.5928 39.2506C29.5928 38.6786 29.82 38.1301 30.2245 37.7256C30.6289 37.3211 31.1775 37.0939 31.7495 37.0939ZM22.3658 31.7626H41.1332C40.7421 31.0874 40.1807 30.5266 39.5051 30.1362C38.8296 29.7457 38.0634 29.5392 37.2832 29.5373H35.0253C36.1608 28.5846 37.0417 27.2338 37.5638 25.883H39.4105C40.2523 25.883 40.9375 25.1978 40.9375 24.3561V22.9596C40.9375 22.4441 40.6765 21.9873 40.2849 21.7132C39.8738 17.3607 36.1934 14 31.7495 14C27.3056 14 23.6317 17.3607 23.2141 21.7132C22.8225 21.9873 22.5615 22.4441 22.5615 22.9596V24.3561C22.5615 25.1978 23.2467 25.883 24.0885 25.883H25.9352C26.4573 27.2338 27.3382 28.5846 28.4737 29.5373H26.2158C24.6236 29.5373 23.1553 30.3987 22.3658 31.7626ZM25.7003 20.3755V20.382C25.5829 20.7148 25.498 21.0737 25.4328 21.4326H24.5518C25.0869 17.948 28.1213 15.3051 31.7495 15.3051C35.3777 15.3051 38.4121 17.948 38.9472 21.4326H38.0793C37.505 18.2873 34.8818 15.9838 31.7495 15.9838C28.9827 15.9838 26.6139 17.7913 25.7003 20.3755ZM28.2844 27.4622C28.7282 27.5666 29.2567 27.6515 29.8701 27.7037C30.1377 28.3954 30.8229 28.8848 31.632 28.8848C32.6761 28.8848 33.5179 28.0756 33.5179 27.0772C33.5179 26.0853 32.6761 25.2762 31.632 25.2762C30.849 25.2762 30.1834 25.7329 29.8962 26.3855C28.4671 26.2615 27.6253 25.9287 27.2991 25.7721C27.1947 25.5241 27.0968 25.2762 27.0119 25.0282C26.7444 24.2255 26.6074 23.449 26.6074 22.7116C26.6049 22.1682 26.6819 21.6274 26.8358 21.1063C27.3513 20.9497 28.6368 20.6887 30.2682 21.3934C30.7054 21.5827 31.1557 21.661 31.6125 21.661C33.3874 21.661 35.1819 20.4603 36.0694 19.7621C36.5144 20.489 36.7868 21.3083 36.8655 22.1569C36.8851 22.3397 36.8916 22.5224 36.8916 22.7116C36.8916 23.449 36.7546 24.2255 36.487 25.0282C35.7627 27.2012 33.9747 29.5373 31.7495 29.5373C30.3791 29.5373 29.1719 28.6499 28.2844 27.4622Z" fill="#0B9967"/>
</svg>
