<svg width="100" height="100" viewBox="0 0 100 100" fill="none" xmlns="http://www.w3.org/2000/svg">
<mask id="path-1-outside-1_2702_9039" maskUnits="userSpaceOnUse" x="0.771484" y="0.5" width="99" height="99" fill="black">
<rect fill="white" x="0.771484" y="0.5" width="99" height="99"/>
<path d="M99.1111 96.2546L92.5109 78.1455C92.4095 77.8654 92.2478 77.6111 92.0373 77.4006C91.8267 77.19 91.5724 77.0283 91.2924 76.927L64.7105 67.4104C64.3347 67.286 63.9306 67.2754 63.5488 67.3799C65.3279 65.7552 67.2098 63.8557 69.1946 61.6813C71.7378 58.8851 73.6739 55.5922 74.881 52.0104H78.7965C80.084 52.0093 81.3185 51.4974 82.2289 50.587C83.1393 49.6766 83.6512 48.4421 83.6523 47.1546V41.0153C83.6524 40.0639 83.3732 39.1334 82.8494 38.3392C82.3255 37.545 81.5801 36.922 80.7055 36.5475L81.0609 35.532C81.9328 32.6337 82.435 29.6368 82.5556 26.6125C82.9394 19.9371 80.1348 11.8279 72.9964 8.75521C70.0624 7.50707 66.7965 7.27058 63.7133 8.083C61.8043 5.33525 56.5363 0.497757 43.7541 1.68378C34.2091 2.56517 27.4484 6.53346 23.0922 13.8141C19.4062 20.0975 18.0293 27.4705 19.199 34.6608L19.6539 36.8033C18.9029 37.2214 18.2767 37.832 17.8398 38.5722C17.403 39.3125 17.1711 40.1558 17.1682 41.0153V47.1546C17.1693 48.4418 17.6809 49.6759 18.5909 50.5863C19.5008 51.4966 20.7348 52.0088 22.0219 52.0104H26.0004C27.2075 55.5922 29.1436 58.8851 31.6868 61.6813C33.658 63.8381 35.5305 65.7288 37.3041 67.3535C36.9593 67.2802 36.6011 67.2998 36.2663 67.4104L9.70073 76.931C9.42071 77.0324 9.1664 77.194 8.95582 77.4046C8.74525 77.6152 8.58356 77.8695 8.48222 78.1495L1.87788 96.2546C1.70865 96.7566 1.7423 97.3049 1.97166 97.7825C2.20101 98.2601 2.60791 98.6291 3.10554 98.8109C3.60317 98.9926 4.15213 98.9728 4.6353 98.7555C5.11848 98.5382 5.49762 98.1407 5.69182 97.6478L11.9672 80.4322L27.9561 74.7052L28.413 84.4736C28.4345 84.9393 28.6156 85.3835 28.9259 85.7315C29.2361 86.0794 29.6567 86.3101 30.1169 86.3846L35.0945 87.197L34.6132 87.9017C34.352 88.2847 34.2297 88.7456 34.2666 89.2078C34.3036 89.67 34.4975 90.1056 34.8163 90.4423L42.2716 98.3626C42.4557 98.5558 42.6761 98.7109 42.9202 98.8189C43.1643 98.927 43.4273 98.9859 43.6941 98.9923C43.961 98.9987 44.2264 98.9525 44.4754 98.8563C44.7244 98.7601 44.952 98.6158 45.1452 98.4317C45.3385 98.2475 45.4935 98.0271 45.6016 97.783C45.7096 97.539 45.7685 97.276 45.7749 97.0091C45.7813 96.7423 45.7351 96.4768 45.6389 96.2278C45.5427 95.9788 45.3984 95.7512 45.2143 95.558L38.8821 88.8399L40.2509 86.8456C40.4441 86.5634 40.5629 86.237 40.5963 85.8966C40.6296 85.5562 40.5765 85.2129 40.4418 84.8986C40.3071 84.5842 40.0952 84.3089 39.8257 84.0983C39.5563 83.8877 39.238 83.7485 38.9004 83.6938L32.3874 82.6377L31.9487 73.2714L35.9252 71.8498L48.6667 97.8448C48.8527 98.1647 49.1194 98.4302 49.4401 98.6148C49.7609 98.7993 50.1245 98.8964 50.4945 98.8964C50.8646 98.8964 51.2281 98.7993 51.5489 98.6148C51.8696 98.4302 52.1363 98.1647 52.3223 97.8448L65.0618 71.8498L69.0382 73.2714L68.5976 82.6377L62.0866 83.6938C61.749 83.7485 61.4307 83.8877 61.1613 84.0983C60.8918 84.3089 60.6799 84.5842 60.5452 84.8986C60.4105 85.2129 60.3573 85.5562 60.3907 85.8966C60.4241 86.237 60.5429 86.5634 60.7361 86.8456L62.1029 88.8399L55.7747 95.558C55.588 95.7513 55.4414 95.9797 55.3436 96.2301C55.2458 96.4804 55.1987 96.7477 55.2049 97.0164C55.2112 97.2851 55.2707 97.5499 55.3801 97.7954C55.4894 98.0409 55.6464 98.2623 55.842 98.4467C56.0375 98.6311 56.2677 98.7748 56.5192 98.8696C56.7708 98.9643 57.0386 99.0082 57.3072 98.9987C57.5758 98.9892 57.8398 98.9265 58.084 98.8141C58.3282 98.7018 58.5476 98.5421 58.7296 98.3443L66.1849 90.424C66.5037 90.0873 66.6976 89.6517 66.7346 89.1895C66.7715 88.7274 66.6492 88.2665 66.388 87.8834L65.9067 87.1787L70.8823 86.3664C71.3425 86.2918 71.763 86.0612 72.0733 85.7132C72.3836 85.3652 72.5646 84.9211 72.5861 84.4553L73.0451 74.6869L89.034 80.4139L95.3094 97.6295C95.5036 98.1224 95.8827 98.5199 96.3659 98.7372C96.8491 98.9545 97.398 98.9744 97.8957 98.7926C98.3933 98.6108 98.8002 98.2418 99.0295 97.7642C99.2589 97.2866 99.2926 96.7384 99.1233 96.2363L99.1111 96.2546ZM79.6028 47.1546C79.6028 47.2589 79.5822 47.3622 79.5423 47.4585C79.5024 47.5548 79.4439 47.6424 79.3702 47.7161C79.2964 47.7898 79.2089 47.8483 79.1126 47.8882C79.0162 47.9281 78.913 47.9487 78.8087 47.9487H76.3859V40.2314H78.8087C79.0193 40.2314 79.2213 40.3151 79.3702 40.464C79.5191 40.6129 79.6028 40.8149 79.6028 41.0255V47.1546ZM26.5792 15.8998C30.2225 9.8072 35.9617 6.48269 44.1257 5.72924C58.0594 4.44371 60.7788 10.9648 60.8681 11.2125C60.9627 11.4795 61.1121 11.7238 61.3067 11.9296C61.5012 12.1354 61.7367 12.2982 61.998 12.4076C62.2592 12.517 62.5405 12.5706 62.8237 12.5648C63.1068 12.559 63.3857 12.4941 63.6423 12.3742C66.1505 11.4116 68.9333 11.4523 71.4123 12.4879C76.7169 14.7706 78.8168 21.2897 78.5203 26.381C78.4231 29.0432 77.9905 31.6824 77.2327 34.2363L76.5605 36.1596H76.394V29.3379C76.3942 28.8843 76.2426 28.4437 75.9633 28.0863C75.6839 27.7289 75.293 27.4753 74.8527 27.3659C74.4125 27.2566 73.9483 27.2977 73.5342 27.4829C73.1201 27.668 72.7799 27.9865 72.5679 28.3875C71.3311 30.727 67.3181 32.5264 62.6634 33.093C64.4588 30.3834 65.4153 27.2046 65.4132 23.9541C65.3946 23.5606 65.262 23.1809 65.0314 22.8614C64.8008 22.5419 64.4823 22.2963 64.1146 22.1547C63.747 22.013 63.346 21.9814 62.9607 22.0636C62.5754 22.1459 62.2223 22.3384 61.9445 22.6178C59.2879 24.873 56.332 26.7497 53.161 28.1946C44.7979 32.2638 35.6978 34.5988 26.4086 35.0588C26.0536 35.0762 25.7096 35.1874 25.4117 35.3812C25.1138 35.5749 24.8726 35.8442 24.7128 36.1616H23.6669L23.1937 33.9277C22.1952 27.7076 23.3921 21.3339 26.5792 15.8998ZM24.4468 47.9487H22.0219C21.8117 47.9481 21.6102 47.8642 21.4617 47.7154C21.3133 47.5665 21.2299 47.3649 21.2299 47.1546V41.0153C21.2299 40.8051 21.3133 40.6034 21.4617 40.4546C21.6102 40.3057 21.8117 40.2218 22.0219 40.2213H24.4468V47.9487ZM34.6904 58.9397C30.7397 54.6246 28.5525 48.9839 28.5613 43.1335V39.0109C37.6791 38.2856 46.5834 35.8755 54.8223 31.9029C56.7262 31.0187 58.5683 30.0071 60.336 28.8749C59.5908 30.7659 58.2892 32.3861 56.6033 33.5215C56.2374 33.7467 55.9524 34.0821 55.7892 34.4795C55.626 34.877 55.5931 35.3159 55.6951 35.7332C55.7971 36.1506 56.0288 36.5248 56.357 36.8021C56.6851 37.0794 57.0928 37.2455 57.5213 37.2765C62.6508 37.7251 67.7984 36.6461 72.316 34.1754V43.1335C72.3098 45.1212 72.0518 47.1001 71.5484 49.023L59.1602 54.7094C58.4109 54.1262 57.5126 53.7656 56.5681 53.6689C55.6236 53.5722 54.6709 53.7433 53.819 54.1626C52.9671 54.5819 52.2504 55.2324 51.7508 56.0398C51.2513 56.8473 50.989 57.779 50.9941 58.7285C50.9941 60.0772 51.5299 61.3706 52.4835 62.3243C53.4372 63.278 54.7307 63.8137 56.0794 63.8137C57.4281 63.8137 58.7215 63.278 59.6752 62.3243C60.6289 61.3706 61.1646 60.0772 61.1646 58.7285C61.1646 58.5741 61.1321 58.4299 61.1199 58.2817L69.3652 54.4962C68.4881 56.0925 67.4268 57.5804 66.2032 58.9295C59.4059 66.3665 53.6626 70.6333 50.4478 70.6333C47.233 70.6333 41.4877 66.3767 34.6904 58.9397ZM57.1029 58.7366C57.1029 58.9374 57.0434 59.1337 56.9318 59.3007C56.8202 59.4677 56.6616 59.5979 56.4761 59.6747C56.2905 59.7516 56.0864 59.7717 55.8894 59.7325C55.6924 59.6933 55.5115 59.5966 55.3695 59.4546C55.2275 59.3126 55.1307 59.1317 55.0916 58.9347C55.0524 58.7377 55.0725 58.5335 55.1494 58.348C55.2262 58.1625 55.3564 58.0039 55.5233 57.8923C55.6903 57.7807 55.8866 57.7212 56.0875 57.7212C56.221 57.7212 56.3532 57.7475 56.4765 57.7986C56.5999 57.8498 56.7119 57.9248 56.8062 58.0193C56.9005 58.1138 56.9753 58.226 57.0262 58.3494C57.0771 58.4728 57.1032 58.6031 57.1029 58.7366ZM50.4945 92.3371L38.9511 68.7792C43.5368 72.6865 47.3975 74.7052 50.4478 74.7052C53.5327 74.7052 57.4502 72.6378 62.1069 68.637L50.4945 92.3371Z"/>
</mask>
<path d="M99.1111 96.2546L92.5109 78.1455C92.4095 77.8654 92.2478 77.6111 92.0373 77.4006C91.8267 77.19 91.5724 77.0283 91.2924 76.927L64.7105 67.4104C64.3347 67.286 63.9306 67.2754 63.5488 67.3799C65.3279 65.7552 67.2098 63.8557 69.1946 61.6813C71.7378 58.8851 73.6739 55.5922 74.881 52.0104H78.7965C80.084 52.0093 81.3185 51.4974 82.2289 50.587C83.1393 49.6766 83.6512 48.4421 83.6523 47.1546V41.0153C83.6524 40.0639 83.3732 39.1334 82.8494 38.3392C82.3255 37.545 81.5801 36.922 80.7055 36.5475L81.0609 35.532C81.9328 32.6337 82.435 29.6368 82.5556 26.6125C82.9394 19.9371 80.1348 11.8279 72.9964 8.75521C70.0624 7.50707 66.7965 7.27058 63.7133 8.083C61.8043 5.33525 56.5363 0.497757 43.7541 1.68378C34.2091 2.56517 27.4484 6.53346 23.0922 13.8141C19.4062 20.0975 18.0293 27.4705 19.199 34.6608L19.6539 36.8033C18.9029 37.2214 18.2767 37.832 17.8398 38.5722C17.403 39.3125 17.1711 40.1558 17.1682 41.0153V47.1546C17.1693 48.4418 17.6809 49.6759 18.5909 50.5863C19.5008 51.4966 20.7348 52.0088 22.0219 52.0104H26.0004C27.2075 55.5922 29.1436 58.8851 31.6868 61.6813C33.658 63.8381 35.5305 65.7288 37.3041 67.3535C36.9593 67.2802 36.6011 67.2998 36.2663 67.4104L9.70073 76.931C9.42071 77.0324 9.1664 77.194 8.95582 77.4046C8.74525 77.6152 8.58356 77.8695 8.48222 78.1495L1.87788 96.2546C1.70865 96.7566 1.7423 97.3049 1.97166 97.7825C2.20101 98.2601 2.60791 98.6291 3.10554 98.8109C3.60317 98.9926 4.15213 98.9728 4.6353 98.7555C5.11848 98.5382 5.49762 98.1407 5.69182 97.6478L11.9672 80.4322L27.9561 74.7052L28.413 84.4736C28.4345 84.9393 28.6156 85.3835 28.9259 85.7315C29.2361 86.0794 29.6567 86.3101 30.1169 86.3846L35.0945 87.197L34.6132 87.9017C34.352 88.2847 34.2297 88.7456 34.2666 89.2078C34.3036 89.67 34.4975 90.1056 34.8163 90.4423L42.2716 98.3626C42.4557 98.5558 42.6761 98.7109 42.9202 98.8189C43.1643 98.927 43.4273 98.9859 43.6941 98.9923C43.961 98.9987 44.2264 98.9525 44.4754 98.8563C44.7244 98.7601 44.952 98.6158 45.1452 98.4317C45.3385 98.2475 45.4935 98.0271 45.6016 97.783C45.7096 97.539 45.7685 97.276 45.7749 97.0091C45.7813 96.7423 45.7351 96.4768 45.6389 96.2278C45.5427 95.9788 45.3984 95.7512 45.2143 95.558L38.8821 88.8399L40.2509 86.8456C40.4441 86.5634 40.5629 86.237 40.5963 85.8966C40.6296 85.5562 40.5765 85.2129 40.4418 84.8986C40.3071 84.5842 40.0952 84.3089 39.8257 84.0983C39.5563 83.8877 39.238 83.7485 38.9004 83.6938L32.3874 82.6377L31.9487 73.2714L35.9252 71.8498L48.6667 97.8448C48.8527 98.1647 49.1194 98.4302 49.4401 98.6148C49.7609 98.7993 50.1245 98.8964 50.4945 98.8964C50.8646 98.8964 51.2281 98.7993 51.5489 98.6148C51.8696 98.4302 52.1363 98.1647 52.3223 97.8448L65.0618 71.8498L69.0382 73.2714L68.5976 82.6377L62.0866 83.6938C61.749 83.7485 61.4307 83.8877 61.1613 84.0983C60.8918 84.3089 60.6799 84.5842 60.5452 84.8986C60.4105 85.2129 60.3573 85.5562 60.3907 85.8966C60.4241 86.237 60.5429 86.5634 60.7361 86.8456L62.1029 88.8399L55.7747 95.558C55.588 95.7513 55.4414 95.9797 55.3436 96.2301C55.2458 96.4804 55.1987 96.7477 55.2049 97.0164C55.2112 97.2851 55.2707 97.5499 55.3801 97.7954C55.4894 98.0409 55.6464 98.2623 55.842 98.4467C56.0375 98.6311 56.2677 98.7748 56.5192 98.8696C56.7708 98.9643 57.0386 99.0082 57.3072 98.9987C57.5758 98.9892 57.8398 98.9265 58.084 98.8141C58.3282 98.7018 58.5476 98.5421 58.7296 98.3443L66.1849 90.424C66.5037 90.0873 66.6976 89.6517 66.7346 89.1895C66.7715 88.7274 66.6492 88.2665 66.388 87.8834L65.9067 87.1787L70.8823 86.3664C71.3425 86.2918 71.763 86.0612 72.0733 85.7132C72.3836 85.3652 72.5646 84.9211 72.5861 84.4553L73.0451 74.6869L89.034 80.4139L95.3094 97.6295C95.5036 98.1224 95.8827 98.5199 96.3659 98.7372C96.8491 98.9545 97.398 98.9744 97.8957 98.7926C98.3933 98.6108 98.8002 98.2418 99.0295 97.7642C99.2589 97.2866 99.2926 96.7384 99.1233 96.2363L99.1111 96.2546ZM79.6028 47.1546C79.6028 47.2589 79.5822 47.3622 79.5423 47.4585C79.5024 47.5548 79.4439 47.6424 79.3702 47.7161C79.2964 47.7898 79.2089 47.8483 79.1126 47.8882C79.0162 47.9281 78.913 47.9487 78.8087 47.9487H76.3859V40.2314H78.8087C79.0193 40.2314 79.2213 40.3151 79.3702 40.464C79.5191 40.6129 79.6028 40.8149 79.6028 41.0255V47.1546ZM26.5792 15.8998C30.2225 9.8072 35.9617 6.48269 44.1257 5.72924C58.0594 4.44371 60.7788 10.9648 60.8681 11.2125C60.9627 11.4795 61.1121 11.7238 61.3067 11.9296C61.5012 12.1354 61.7367 12.2982 61.998 12.4076C62.2592 12.517 62.5405 12.5706 62.8237 12.5648C63.1068 12.559 63.3857 12.4941 63.6423 12.3742C66.1505 11.4116 68.9333 11.4523 71.4123 12.4879C76.7169 14.7706 78.8168 21.2897 78.5203 26.381C78.4231 29.0432 77.9905 31.6824 77.2327 34.2363L76.5605 36.1596H76.394V29.3379C76.3942 28.8843 76.2426 28.4437 75.9633 28.0863C75.6839 27.7289 75.293 27.4753 74.8527 27.3659C74.4125 27.2566 73.9483 27.2977 73.5342 27.4829C73.1201 27.668 72.7799 27.9865 72.5679 28.3875C71.3311 30.727 67.3181 32.5264 62.6634 33.093C64.4588 30.3834 65.4153 27.2046 65.4132 23.9541C65.3946 23.5606 65.262 23.1809 65.0314 22.8614C64.8008 22.5419 64.4823 22.2963 64.1146 22.1547C63.747 22.013 63.346 21.9814 62.9607 22.0636C62.5754 22.1459 62.2223 22.3384 61.9445 22.6178C59.2879 24.873 56.332 26.7497 53.161 28.1946C44.7979 32.2638 35.6978 34.5988 26.4086 35.0588C26.0536 35.0762 25.7096 35.1874 25.4117 35.3812C25.1138 35.5749 24.8726 35.8442 24.7128 36.1616H23.6669L23.1937 33.9277C22.1952 27.7076 23.3921 21.3339 26.5792 15.8998ZM24.4468 47.9487H22.0219C21.8117 47.9481 21.6102 47.8642 21.4617 47.7154C21.3133 47.5665 21.2299 47.3649 21.2299 47.1546V41.0153C21.2299 40.8051 21.3133 40.6034 21.4617 40.4546C21.6102 40.3057 21.8117 40.2218 22.0219 40.2213H24.4468V47.9487ZM34.6904 58.9397C30.7397 54.6246 28.5525 48.9839 28.5613 43.1335V39.0109C37.6791 38.2856 46.5834 35.8755 54.8223 31.9029C56.7262 31.0187 58.5683 30.0071 60.336 28.8749C59.5908 30.7659 58.2892 32.3861 56.6033 33.5215C56.2374 33.7467 55.9524 34.0821 55.7892 34.4795C55.626 34.877 55.5931 35.3159 55.6951 35.7332C55.7971 36.1506 56.0288 36.5248 56.357 36.8021C56.6851 37.0794 57.0928 37.2455 57.5213 37.2765C62.6508 37.7251 67.7984 36.6461 72.316 34.1754V43.1335C72.3098 45.1212 72.0518 47.1001 71.5484 49.023L59.1602 54.7094C58.4109 54.1262 57.5126 53.7656 56.5681 53.6689C55.6236 53.5722 54.6709 53.7433 53.819 54.1626C52.9671 54.5819 52.2504 55.2324 51.7508 56.0398C51.2513 56.8473 50.989 57.779 50.9941 58.7285C50.9941 60.0772 51.5299 61.3706 52.4835 62.3243C53.4372 63.278 54.7307 63.8137 56.0794 63.8137C57.4281 63.8137 58.7215 63.278 59.6752 62.3243C60.6289 61.3706 61.1646 60.0772 61.1646 58.7285C61.1646 58.5741 61.1321 58.4299 61.1199 58.2817L69.3652 54.4962C68.4881 56.0925 67.4268 57.5804 66.2032 58.9295C59.4059 66.3665 53.6626 70.6333 50.4478 70.6333C47.233 70.6333 41.4877 66.3767 34.6904 58.9397ZM57.1029 58.7366C57.1029 58.9374 57.0434 59.1337 56.9318 59.3007C56.8202 59.4677 56.6616 59.5979 56.4761 59.6747C56.2905 59.7516 56.0864 59.7717 55.8894 59.7325C55.6924 59.6933 55.5115 59.5966 55.3695 59.4546C55.2275 59.3126 55.1307 59.1317 55.0916 58.9347C55.0524 58.7377 55.0725 58.5335 55.1494 58.348C55.2262 58.1625 55.3564 58.0039 55.5233 57.8923C55.6903 57.7807 55.8866 57.7212 56.0875 57.7212C56.221 57.7212 56.3532 57.7475 56.4765 57.7986C56.5999 57.8498 56.7119 57.9248 56.8062 58.0193C56.9005 58.1138 56.9753 58.226 57.0262 58.3494C57.0771 58.4728 57.1032 58.6031 57.1029 58.7366ZM50.4945 92.3371L38.9511 68.7792C43.5368 72.6865 47.3975 74.7052 50.4478 74.7052C53.5327 74.7052 57.4502 72.6378 62.1069 68.637L50.4945 92.3371Z" fill="#9F7834"/>
<path d="M99.1111 96.2546L92.5109 78.1455C92.4095 77.8654 92.2478 77.6111 92.0373 77.4006C91.8267 77.19 91.5724 77.0283 91.2924 76.927L64.7105 67.4104C64.3347 67.286 63.9306 67.2754 63.5488 67.3799C65.3279 65.7552 67.2098 63.8557 69.1946 61.6813C71.7378 58.8851 73.6739 55.5922 74.881 52.0104H78.7965C80.084 52.0093 81.3185 51.4974 82.2289 50.587C83.1393 49.6766 83.6512 48.4421 83.6523 47.1546V41.0153C83.6524 40.0639 83.3732 39.1334 82.8494 38.3392C82.3255 37.545 81.5801 36.922 80.7055 36.5475L81.0609 35.532C81.9328 32.6337 82.435 29.6368 82.5556 26.6125C82.9394 19.9371 80.1348 11.8279 72.9964 8.75521C70.0624 7.50707 66.7965 7.27058 63.7133 8.083C61.8043 5.33525 56.5363 0.497757 43.7541 1.68378C34.2091 2.56517 27.4484 6.53346 23.0922 13.8141C19.4062 20.0975 18.0293 27.4705 19.199 34.6608L19.6539 36.8033C18.9029 37.2214 18.2767 37.832 17.8398 38.5722C17.403 39.3125 17.1711 40.1558 17.1682 41.0153V47.1546C17.1693 48.4418 17.6809 49.6759 18.5909 50.5863C19.5008 51.4966 20.7348 52.0088 22.0219 52.0104H26.0004C27.2075 55.5922 29.1436 58.8851 31.6868 61.6813C33.658 63.8381 35.5305 65.7288 37.3041 67.3535C36.9593 67.2802 36.6011 67.2998 36.2663 67.4104L9.70073 76.931C9.42071 77.0324 9.1664 77.194 8.95582 77.4046C8.74525 77.6152 8.58356 77.8695 8.48222 78.1495L1.87788 96.2546C1.70865 96.7566 1.7423 97.3049 1.97166 97.7825C2.20101 98.2601 2.60791 98.6291 3.10554 98.8109C3.60317 98.9926 4.15213 98.9728 4.6353 98.7555C5.11848 98.5382 5.49762 98.1407 5.69182 97.6478L11.9672 80.4322L27.9561 74.7052L28.413 84.4736C28.4345 84.9393 28.6156 85.3835 28.9259 85.7315C29.2361 86.0794 29.6567 86.3101 30.1169 86.3846L35.0945 87.197L34.6132 87.9017C34.352 88.2847 34.2297 88.7456 34.2666 89.2078C34.3036 89.67 34.4975 90.1056 34.8163 90.4423L42.2716 98.3626C42.4557 98.5558 42.6761 98.7109 42.9202 98.8189C43.1643 98.927 43.4273 98.9859 43.6941 98.9923C43.961 98.9987 44.2264 98.9525 44.4754 98.8563C44.7244 98.7601 44.952 98.6158 45.1452 98.4317C45.3385 98.2475 45.4935 98.0271 45.6016 97.783C45.7096 97.539 45.7685 97.276 45.7749 97.0091C45.7813 96.7423 45.7351 96.4768 45.6389 96.2278C45.5427 95.9788 45.3984 95.7512 45.2143 95.558L38.8821 88.8399L40.2509 86.8456C40.4441 86.5634 40.5629 86.237 40.5963 85.8966C40.6296 85.5562 40.5765 85.2129 40.4418 84.8986C40.3071 84.5842 40.0952 84.3089 39.8257 84.0983C39.5563 83.8877 39.238 83.7485 38.9004 83.6938L32.3874 82.6377L31.9487 73.2714L35.9252 71.8498L48.6667 97.8448C48.8527 98.1647 49.1194 98.4302 49.4401 98.6148C49.7609 98.7993 50.1245 98.8964 50.4945 98.8964C50.8646 98.8964 51.2281 98.7993 51.5489 98.6148C51.8696 98.4302 52.1363 98.1647 52.3223 97.8448L65.0618 71.8498L69.0382 73.2714L68.5976 82.6377L62.0866 83.6938C61.749 83.7485 61.4307 83.8877 61.1613 84.0983C60.8918 84.3089 60.6799 84.5842 60.5452 84.8986C60.4105 85.2129 60.3573 85.5562 60.3907 85.8966C60.4241 86.237 60.5429 86.5634 60.7361 86.8456L62.1029 88.8399L55.7747 95.558C55.588 95.7513 55.4414 95.9797 55.3436 96.2301C55.2458 96.4804 55.1987 96.7477 55.2049 97.0164C55.2112 97.2851 55.2707 97.5499 55.3801 97.7954C55.4894 98.0409 55.6464 98.2623 55.842 98.4467C56.0375 98.6311 56.2677 98.7748 56.5192 98.8696C56.7708 98.9643 57.0386 99.0082 57.3072 98.9987C57.5758 98.9892 57.8398 98.9265 58.084 98.8141C58.3282 98.7018 58.5476 98.5421 58.7296 98.3443L66.1849 90.424C66.5037 90.0873 66.6976 89.6517 66.7346 89.1895C66.7715 88.7274 66.6492 88.2665 66.388 87.8834L65.9067 87.1787L70.8823 86.3664C71.3425 86.2918 71.763 86.0612 72.0733 85.7132C72.3836 85.3652 72.5646 84.9211 72.5861 84.4553L73.0451 74.6869L89.034 80.4139L95.3094 97.6295C95.5036 98.1224 95.8827 98.5199 96.3659 98.7372C96.8491 98.9545 97.398 98.9744 97.8957 98.7926C98.3933 98.6108 98.8002 98.2418 99.0295 97.7642C99.2589 97.2866 99.2926 96.7384 99.1233 96.2363L99.1111 96.2546ZM79.6028 47.1546C79.6028 47.2589 79.5822 47.3622 79.5423 47.4585C79.5024 47.5548 79.4439 47.6424 79.3702 47.7161C79.2964 47.7898 79.2089 47.8483 79.1126 47.8882C79.0162 47.9281 78.913 47.9487 78.8087 47.9487H76.3859V40.2314H78.8087C79.0193 40.2314 79.2213 40.3151 79.3702 40.464C79.5191 40.6129 79.6028 40.8149 79.6028 41.0255V47.1546ZM26.5792 15.8998C30.2225 9.8072 35.9617 6.48269 44.1257 5.72924C58.0594 4.44371 60.7788 10.9648 60.8681 11.2125C60.9627 11.4795 61.1121 11.7238 61.3067 11.9296C61.5012 12.1354 61.7367 12.2982 61.998 12.4076C62.2592 12.517 62.5405 12.5706 62.8237 12.5648C63.1068 12.559 63.3857 12.4941 63.6423 12.3742C66.1505 11.4116 68.9333 11.4523 71.4123 12.4879C76.7169 14.7706 78.8168 21.2897 78.5203 26.381C78.4231 29.0432 77.9905 31.6824 77.2327 34.2363L76.5605 36.1596H76.394V29.3379C76.3942 28.8843 76.2426 28.4437 75.9633 28.0863C75.6839 27.7289 75.293 27.4753 74.8527 27.3659C74.4125 27.2566 73.9483 27.2977 73.5342 27.4829C73.1201 27.668 72.7799 27.9865 72.5679 28.3875C71.3311 30.727 67.3181 32.5264 62.6634 33.093C64.4588 30.3834 65.4153 27.2046 65.4132 23.9541C65.3946 23.5606 65.262 23.1809 65.0314 22.8614C64.8008 22.5419 64.4823 22.2963 64.1146 22.1547C63.747 22.013 63.346 21.9814 62.9607 22.0636C62.5754 22.1459 62.2223 22.3384 61.9445 22.6178C59.2879 24.873 56.332 26.7497 53.161 28.1946C44.7979 32.2638 35.6978 34.5988 26.4086 35.0588C26.0536 35.0762 25.7096 35.1874 25.4117 35.3812C25.1138 35.5749 24.8726 35.8442 24.7128 36.1616H23.6669L23.1937 33.9277C22.1952 27.7076 23.3921 21.3339 26.5792 15.8998ZM24.4468 47.9487H22.0219C21.8117 47.9481 21.6102 47.8642 21.4617 47.7154C21.3133 47.5665 21.2299 47.3649 21.2299 47.1546V41.0153C21.2299 40.8051 21.3133 40.6034 21.4617 40.4546C21.6102 40.3057 21.8117 40.2218 22.0219 40.2213H24.4468V47.9487ZM34.6904 58.9397C30.7397 54.6246 28.5525 48.9839 28.5613 43.1335V39.0109C37.6791 38.2856 46.5834 35.8755 54.8223 31.9029C56.7262 31.0187 58.5683 30.0071 60.336 28.8749C59.5908 30.7659 58.2892 32.3861 56.6033 33.5215C56.2374 33.7467 55.9524 34.0821 55.7892 34.4795C55.626 34.877 55.5931 35.3159 55.6951 35.7332C55.7971 36.1506 56.0288 36.5248 56.357 36.8021C56.6851 37.0794 57.0928 37.2455 57.5213 37.2765C62.6508 37.7251 67.7984 36.6461 72.316 34.1754V43.1335C72.3098 45.1212 72.0518 47.1001 71.5484 49.023L59.1602 54.7094C58.4109 54.1262 57.5126 53.7656 56.5681 53.6689C55.6236 53.5722 54.6709 53.7433 53.819 54.1626C52.9671 54.5819 52.2504 55.2324 51.7508 56.0398C51.2513 56.8473 50.989 57.779 50.9941 58.7285C50.9941 60.0772 51.5299 61.3706 52.4835 62.3243C53.4372 63.278 54.7307 63.8137 56.0794 63.8137C57.4281 63.8137 58.7215 63.278 59.6752 62.3243C60.6289 61.3706 61.1646 60.0772 61.1646 58.7285C61.1646 58.5741 61.1321 58.4299 61.1199 58.2817L69.3652 54.4962C68.4881 56.0925 67.4268 57.5804 66.2032 58.9295C59.4059 66.3665 53.6626 70.6333 50.4478 70.6333C47.233 70.6333 41.4877 66.3767 34.6904 58.9397ZM57.1029 58.7366C57.1029 58.9374 57.0434 59.1337 56.9318 59.3007C56.8202 59.4677 56.6616 59.5979 56.4761 59.6747C56.2905 59.7516 56.0864 59.7717 55.8894 59.7325C55.6924 59.6933 55.5115 59.5966 55.3695 59.4546C55.2275 59.3126 55.1307 59.1317 55.0916 58.9347C55.0524 58.7377 55.0725 58.5335 55.1494 58.348C55.2262 58.1625 55.3564 58.0039 55.5233 57.8923C55.6903 57.7807 55.8866 57.7212 56.0875 57.7212C56.221 57.7212 56.3532 57.7475 56.4765 57.7986C56.5999 57.8498 56.7119 57.9248 56.8062 58.0193C56.9005 58.1138 56.9753 58.226 57.0262 58.3494C57.0771 58.4728 57.1032 58.6031 57.1029 58.7366ZM50.4945 92.3371L38.9511 68.7792C43.5368 72.6865 47.3975 74.7052 50.4478 74.7052C53.5327 74.7052 57.4502 72.6378 62.1069 68.637L50.4945 92.3371Z" stroke="#9F7834" stroke-width="0.6" mask="url(#path-1-outside-1_2702_9039)"/>
</svg>
