<svg width="80" height="80" viewBox="0 0 80 80" fill="none" xmlns="http://www.w3.org/2000/svg">
<path d="M58.7978 70.5246C55.4745 70.5246 52.7676 67.7856 52.7676 64.4229C52.7676 61.0602 55.4745 58.3212 58.7978 58.3212C62.1212 58.3212 64.8281 61.0602 64.8281 64.4229C64.8281 67.7856 62.1212 70.5246 58.7978 70.5246ZM58.7978 62.389C57.691 62.389 56.7878 63.3029 56.7878 64.4229C56.7878 65.5429 57.691 66.4568 58.7978 66.4568C59.9047 66.4568 60.8079 65.5429 60.8079 64.4229C60.8079 63.3029 59.9047 62.389 58.7978 62.389ZM79.2391 23.8401L75.0367 27.3872C74.7604 27.6209 74.4118 27.7489 74.0517 27.7489C73.6917 27.7489 73.3431 27.6209 73.0668 27.3872L68.8644 23.8401C68.6536 23.6717 68.4783 23.4622 68.3488 23.2241C68.2194 22.986 68.1384 22.724 68.1107 22.4537C68.083 22.1834 68.1091 21.9102 68.1875 21.6503C68.2658 21.3903 68.3949 21.1489 68.5671 20.9403C68.7392 20.7317 68.9509 20.5601 69.1897 20.4357C69.4285 20.3112 69.6895 20.2365 69.9573 20.2158C70.2251 20.1952 70.4943 20.2291 70.7489 20.3154C71.0036 20.4018 71.2386 20.539 71.44 20.7188L74.0504 22.9235L76.6608 20.7188C76.8622 20.539 77.0972 20.4018 77.3519 20.3154C77.6065 20.2291 77.8757 20.1952 78.1435 20.2158C78.4113 20.2365 78.6723 20.3112 78.9111 20.4357C79.1499 20.5601 79.3616 20.7317 79.5338 20.9403C79.7059 21.1489 79.835 21.3903 79.9134 21.6503C79.9917 21.9102 80.0179 22.1834 79.9901 22.4537C79.9624 22.724 79.8814 22.986 79.752 23.2241C79.6225 23.4622 79.4499 23.6717 79.2391 23.8401Z" fill="#9F7834"/>
<path d="M61.3187 33.8441C62.4288 33.8441 63.3288 32.9335 63.3288 31.8103C63.3288 30.687 62.4288 29.7764 61.3187 29.7764C60.2085 29.7764 59.3086 30.687 59.3086 31.8103C59.3086 32.9335 60.2085 33.8441 61.3187 33.8441Z" fill="#9F7834"/>
<path d="M61.3187 41.6244C62.4288 41.6244 63.3288 40.7138 63.3288 39.5905C63.3288 38.4672 62.4288 37.5566 61.3187 37.5566C60.2085 37.5566 59.3086 38.4672 59.3086 39.5905C59.3086 40.7138 60.2085 41.6244 61.3187 41.6244Z" fill="#9F7834"/>
<path d="M76.0614 24.4553H72.0412C72.0362 19.9617 70.2698 15.6535 67.1295 12.4761C63.9892 9.29858 59.7315 7.51127 55.2904 7.50625H51.9403C51.4072 7.50625 50.8959 7.29196 50.5189 6.91054C50.142 6.52911 49.9302 6.01178 49.9302 5.47236C49.9302 4.93294 50.142 4.41562 50.5189 4.03419C50.8959 3.65276 51.4072 3.43848 51.9403 3.43848H55.2904C66.7426 3.43848 76.0614 12.8676 76.0614 24.4553ZM27.7388 39.3216C19.2402 39.3216 12.3281 32.3278 12.3281 23.7285C12.3281 15.1292 19.2402 8.1354 27.7388 8.1354C36.2375 8.1354 43.1495 15.1292 43.1495 23.7285C43.1495 32.3278 36.2375 39.3216 27.7388 39.3216ZM27.7388 12.2032C21.4566 12.2032 16.3483 17.3719 16.3483 23.7285C16.3483 30.0851 21.4566 35.2539 27.7388 35.2539C34.021 35.2539 39.1293 30.0851 39.1293 23.7285C39.1293 17.3719 34.021 12.2032 27.7388 12.2032Z" fill="#9F7834"/>
<path d="M45.8705 16.6427C44.4409 12.9496 41.9479 9.77626 38.7145 7.53408C35.4811 5.29189 31.6566 4.08429 27.7368 4.06783C23.8798 4.05884 20.1079 5.21525 16.9044 7.38889C13.701 9.56254 11.2118 12.6544 9.75589 16.2684L6.0332 14.7227C7.79217 10.3613 10.7975 6.63042 14.6645 4.00758C18.5315 1.38475 23.0841 -0.0106427 27.7395 6.11214e-05C37.3584 6.11214e-05 46.1519 6.09901 49.62 15.1756L45.8705 16.6427Z" fill="#9F7834"/>
<path d="M46.4994 34.6221C44.5451 34.6206 42.6713 33.8344 41.2894 32.4362C39.9075 31.0379 39.1305 29.1419 39.1291 27.1645V21.7408C39.1291 17.6269 42.4337 14.2832 46.4994 14.2832C50.5652 14.2832 53.8698 17.6269 53.8698 21.7408V27.1645C53.8683 29.1419 53.0914 31.0379 51.7095 32.4362C50.3276 33.8344 48.4537 34.6206 46.4994 34.6221ZM46.4994 18.351C44.6528 18.351 43.1493 19.8723 43.1493 21.7408V27.1645C43.1493 29.0329 44.6528 30.5543 46.4994 30.5543C48.346 30.5543 49.8496 29.0329 49.8496 27.1645V21.7408C49.8496 19.8723 48.346 18.351 46.4994 18.351ZM8.97775 34.6221C7.02345 34.6206 5.14961 33.8344 3.76771 32.4362C2.38581 31.0379 1.60884 29.1419 1.60742 27.1645V21.7408C1.60742 17.6269 4.91201 14.2832 8.97775 14.2832C13.0435 14.2832 16.3481 17.6269 16.3481 21.7408V27.1645C16.3467 29.1419 15.5697 31.0379 14.1878 32.4362C12.8059 33.8344 10.932 34.6206 8.97775 34.6221ZM8.97775 18.351C7.13115 18.351 5.6276 19.8723 5.6276 21.7408V27.1645C5.6276 29.0329 7.13115 30.5543 8.97775 30.5543C10.8244 30.5543 12.3279 29.0329 12.3279 27.1645V21.7408C12.3279 19.8723 10.8244 18.351 8.97775 18.351ZM68.8061 79.9994H42.2246C40.0028 79.9994 37.923 79.0014 36.516 77.2604C35.1089 75.5194 34.5595 73.2577 35.0017 71.0557L38.1857 55.2294C38.5296 53.5467 39.4352 52.0351 40.7505 50.9482C42.0657 49.8614 43.7105 49.2655 45.4086 49.2606H71.99C74.2119 49.2606 76.2916 50.2586 77.6987 51.9996C79.1058 53.7406 79.6552 56.0023 79.213 58.2043L76.029 74.0279C75.6856 75.711 74.7802 77.2233 73.4649 78.3107C72.1496 79.3981 70.5046 79.9944 68.8061 79.9994ZM45.4086 53.3284C43.822 53.3284 42.4417 54.4701 42.1255 56.0402L38.9415 71.8666C38.841 72.3591 38.8504 72.8681 38.969 73.3565C39.0875 73.8449 39.3122 74.3004 39.6268 74.6898C39.9413 75.0793 40.3377 75.3928 40.7871 75.6076C41.2365 75.8224 41.7276 75.9331 42.2246 75.9316H68.8061C70.3927 75.9316 71.7729 74.7899 72.0892 73.2171L75.2732 57.3934C75.3736 56.9009 75.3642 56.3919 75.2457 55.9035C75.1272 55.4151 74.9024 54.9596 74.5879 54.5701C74.2734 54.1807 73.877 53.8672 73.4276 53.6524C72.9782 53.4376 72.4871 53.3269 71.99 53.3284H45.4086Z" fill="#9F7834"/>
<path d="M42.2224 80.0003H25.855C25.3218 80.0003 24.8106 79.7861 24.4336 79.4046C24.0566 79.0232 23.8449 78.5059 23.8449 77.9664C23.8449 77.427 24.0566 76.9097 24.4336 76.5283C24.8106 76.1468 25.3218 75.9326 25.855 75.9326H42.2224V80.0003ZM15.5499 80.0003H10.0503C8.62525 80.0003 7.2165 79.6937 5.91752 79.1007C4.61853 78.5078 3.45902 77.6421 2.51591 76.5611C1.5728 75.4802 0.86766 74.2086 0.447272 72.8309C0.0268844 71.4531 -0.0991377 70.0007 0.077568 68.5699L1.3265 58.4737C1.45757 57.4113 1.81341 56.39 2.3698 55.4793C2.92619 54.5686 3.67004 53.79 4.55069 53.1964L17.166 44.6867C20.2963 42.5751 23.9742 41.4482 27.7364 41.4482C31.4985 41.4482 35.1765 42.5751 38.3068 44.6867L39.3199 45.3701C39.5427 45.5168 39.7345 45.7068 39.8842 45.929C40.0339 46.1513 40.1386 46.4014 40.1922 46.6648C40.2458 46.9283 40.2471 47.1999 40.1963 47.4639C40.1454 47.7279 40.0433 47.979 39.8958 48.2028C39.7484 48.4266 39.5585 48.6186 39.3372 48.7677C39.116 48.9167 38.8677 49.0199 38.6067 49.0712C38.3458 49.1225 38.0773 49.1209 37.817 49.0665C37.5567 49.0122 37.3096 48.9061 37.09 48.7544L36.0769 48.0711C33.6066 46.4046 30.7041 45.5154 27.7351 45.5154C24.7661 45.5154 21.8635 46.4046 19.3932 48.0711L6.77519 56.5808C6.37535 56.8499 6.03762 57.2031 5.78507 57.6164C5.53252 58.0297 5.3711 58.4932 5.31184 58.9754L4.06291 69.0716C3.8485 70.8072 4.38184 72.5536 5.52625 73.8689C6.09273 74.5169 6.78866 75.0359 7.56806 75.3917C8.34745 75.7474 9.19258 75.9318 10.0476 75.9326H15.5472C15.839 75.9356 16.1269 75.8645 16.3845 75.7257C16.6421 75.5868 16.861 75.3848 17.0213 75.138C17.1854 74.8941 17.2871 74.6128 17.317 74.3193C17.3469 74.0257 17.3043 73.7293 17.1928 73.4566L12.9904 63.0052C12.8773 62.7557 12.8153 62.4855 12.8081 62.2111C12.801 61.9367 12.8488 61.6636 12.9487 61.4084C13.0486 61.1532 13.1985 60.9211 13.3895 60.726C13.5804 60.531 13.8084 60.3771 14.0597 60.2736C14.311 60.1701 14.5804 60.1192 14.8516 60.1238C15.1229 60.1285 15.3904 60.1886 15.6381 60.3007C15.8858 60.4128 16.1084 60.5744 16.2927 60.7759C16.477 60.9774 16.6191 61.2145 16.7104 61.473L20.9128 71.9272C21.272 72.8173 21.4088 73.7834 21.3111 74.7398C21.2134 75.6962 20.8842 76.6135 20.3527 77.4105C19.8231 78.2086 19.1074 78.8623 18.2688 79.314C17.4302 79.7657 16.4945 80.0014 15.5445 80.0003H15.5499Z" fill="#9F7834"/>
<path d="M27.7424 57.2366C26.2348 57.2455 24.7518 56.8496 23.4447 56.0892C22.1377 55.3289 21.0534 54.2313 20.3024 52.9085L16.5234 46.3377L19.9996 44.293L23.7785 50.8638C24.6094 52.3065 26.0888 53.1688 27.7424 53.1688C29.3961 53.1688 30.8755 52.3092 31.7063 50.8638L35.4826 44.293L38.9587 46.3377L35.1824 52.9085C34.4319 54.2311 33.3481 55.3286 32.0415 56.0889C30.7349 56.8493 29.2497 57.2453 27.7424 57.2366Z" fill="#9F7834"/>
</svg>
