<svg width="100" height="100" viewBox="0 0 100 100" fill="none" xmlns="http://www.w3.org/2000/svg">
<path d="M49.6973 0.682617C66.7338 0.682617 80.5889 14.6585 80.5889 31.9014C80.5888 37.3655 78.3299 44.0848 74.9463 50.8896L74.2549 52.251C70.1143 60.2448 64.5932 68.2719 60.1045 74.3027C57.8606 77.3175 55.8749 79.8329 54.4512 81.5938C53.7394 82.474 53.1678 83.1661 52.7744 83.6377C52.5778 83.8734 52.4252 84.0541 52.3223 84.1758C52.2828 84.2224 52.2503 84.26 52.2256 84.2891L52.166 84.3594C51.8605 84.7152 51.4818 85.0015 51.0557 85.1973C50.6296 85.3929 50.1661 85.4941 49.6973 85.4941C49.2284 85.4941 48.7649 85.3929 48.3389 85.1973C47.966 85.026 47.6287 84.7859 47.3457 84.4902L47.2285 84.3594H47.2275C47.2272 84.3589 47.2264 84.3583 47.2256 84.3574C47.224 84.3556 47.2219 84.3523 47.2188 84.3486C47.2121 84.3409 47.2016 84.3289 47.1885 84.3135C47.1622 84.2827 47.1235 84.2364 47.0723 84.1758C46.9693 84.0541 46.8167 83.8734 46.6201 83.6377C46.2267 83.1661 45.6551 82.474 44.9434 81.5938C43.5196 79.8329 41.534 77.3175 39.29 74.3027C35.0818 68.6488 29.9664 61.2406 25.9316 53.75L25.1396 52.251C21.3761 44.986 18.8057 37.7297 18.8057 31.9014C18.8057 14.6585 32.6607 0.682617 49.6973 0.682617ZM49.6973 7.19141C36.2262 7.19141 25.3145 18.279 25.3145 31.9014C25.3145 35.3157 26.3964 39.2315 28.0898 43.3105C29.5726 46.8821 31.5296 50.59 33.6543 54.2119L34.5742 55.7588C39.8872 64.5676 46.1023 72.655 49.541 76.9326L49.6973 77.126L49.8535 76.9326C53.0773 72.9224 58.7413 65.5637 63.8145 57.4014L64.8203 55.7588C67.2964 51.6527 69.61 47.3924 71.3047 43.3105C72.9981 39.2315 74.08 35.3157 74.0801 31.9014C74.0801 18.279 63.1683 7.19141 49.6973 7.19141Z" fill="#9F7834" stroke="white" stroke-width="0.4"/>
<path d="M72.4004 68.2188C72.7727 68.1811 73.1483 68.208 73.5107 68.2979L73.665 68.3398C79.1736 69.9995 83.4722 72.249 86.127 74.7256L86.3789 74.9658C88.6878 77.2156 89.8008 79.7182 89.8008 82.2432C89.8008 85.2957 88.1296 88.3661 84.6777 90.9775L84.3379 91.2295C77.8649 95.9104 64.814 99.3164 49.6963 99.3164C35.0511 99.3163 22.3462 96.1195 15.6816 91.6641L15.0557 91.2295C11.3736 88.5649 9.59277 85.3943 9.59277 82.2432C9.59279 79.8759 10.5709 77.5286 12.5957 75.3906L13.0146 74.9658C15.4807 72.5553 19.4996 70.3463 24.6777 68.668L25.7285 68.3398C26.5554 68.0913 27.4475 68.1809 28.208 68.5898C28.9685 68.9988 29.5356 69.6936 29.7842 70.5205C30.0327 71.3474 29.9421 72.2395 29.5332 73C29.1498 73.7128 28.5158 74.2555 27.7568 74.5254L27.6035 74.5762C24.0822 75.633 21.1265 76.9287 18.9912 78.4473L18.5752 78.7539C17.8807 79.2817 17.2663 79.8139 16.8242 80.3789C16.3803 80.9464 16.1016 81.5586 16.1016 82.2432C16.1016 82.9557 16.4564 83.5928 16.9443 84.1934L17.1611 84.4482C18.0362 85.4348 19.2752 86.3272 20.7812 87.1553L21.4434 87.5068C27.8294 90.774 38.1272 92.8066 49.6963 92.8066C60.9039 92.8066 70.9189 90.8991 77.3398 87.8096L77.9502 87.5068C79.6436 86.6384 81.0462 85.701 82.0391 84.6582L82.2324 84.4482C82.8284 83.7731 83.292 83.0574 83.292 82.2432C83.292 81.5586 83.0133 80.9464 82.5693 80.3789C82.1272 79.8137 81.5121 79.2819 80.8174 78.7539H80.8184C78.7936 77.2058 75.9318 75.8787 72.4873 74.79L71.79 74.5762C71.3807 74.4531 71 74.2498 70.6689 73.9795C70.3378 73.7091 70.0628 73.3765 69.8604 73C69.6579 72.6235 69.5313 72.2105 69.4883 71.7852C69.4453 71.3598 69.4863 70.9299 69.6094 70.5205C69.7325 70.111 69.9356 69.7296 70.2061 69.3984C70.4764 69.0674 70.8091 68.7923 71.1855 68.5898C71.5621 68.3874 71.975 68.2617 72.4004 68.2188ZM49.6963 19.1084C52.9427 19.1972 56.0266 20.5487 58.292 22.876C60.5585 25.2045 61.8271 28.3257 61.8271 31.5752C61.8271 34.8246 60.5585 37.9459 58.292 40.2744C56.0266 42.6017 52.9427 43.9522 49.6963 44.041C46.4502 43.9519 43.3667 42.6014 41.1016 40.2744C38.835 37.9459 37.5664 34.8246 37.5664 31.5752C37.5664 28.3257 38.835 25.2045 41.1016 22.876C43.3667 20.549 46.4502 19.1975 49.6963 19.1084ZM49.6963 25.6172C48.1165 25.6173 46.6015 26.2453 45.4844 27.3623C44.3671 28.4796 43.7393 29.9951 43.7393 31.5752C43.7393 33.1553 44.3671 34.6708 45.4844 35.7881C46.6015 36.9051 48.1165 37.5331 49.6963 37.5332C51.2763 37.5332 52.7919 36.9052 53.9092 35.7881C55.0265 34.6708 55.6543 33.1553 55.6543 31.5752C55.6543 29.9951 55.0265 28.4796 53.9092 27.3623C52.7919 26.2452 51.2763 25.6172 49.6963 25.6172Z" fill="#9F7834" stroke="white" stroke-width="0.4"/>
</svg>
