<svg width="80" height="80" viewBox="0 0 80 80" fill="none" xmlns="http://www.w3.org/2000/svg">
<path fill-rule="evenodd" clip-rule="evenodd" d="M39.9997 0C22.9803 0 9.14258 11.3637 9.14258 25.3805C9.14258 30.1284 11.7117 36.0186 15.4511 41.894C23.6843 54.8317 37.3986 67.8624 37.3986 67.8624C37.7204 68.1675 38.1195 68.4123 38.5685 68.5802C39.0174 68.7481 39.5057 68.835 39.9997 68.835C40.4938 68.835 40.982 68.7481 41.431 68.5802C41.8799 68.4123 42.279 68.1675 42.6009 67.8624C42.6009 67.8624 56.3152 54.8317 64.5483 41.894C68.2877 36.0186 70.8569 30.1284 70.8569 25.3805C70.8569 11.3637 57.0191 0 39.9997 0ZM39.9997 5.5814C53.2569 5.5814 63.9997 14.4633 63.9997 25.3805C63.9997 30.8354 59.7483 37.9424 54.8386 44.5693C49.5723 51.6763 43.41 58.2028 39.9997 61.6559C36.5894 58.2028 30.4271 51.6763 25.1609 44.5693C20.2511 37.9424 15.9997 30.8354 15.9997 25.3805C15.9997 14.4633 26.7426 5.5814 39.9997 5.5814Z" fill="#9F7834"/>
<path fill-rule="evenodd" clip-rule="evenodd" d="M40 14.8838C36.7245 14.9557 33.6129 16.0653 31.3274 17.9764C29.0419 19.8876 27.7631 22.4493 27.7631 25.1164C27.7631 27.7834 29.0419 30.3451 31.3274 32.2563C33.6129 34.1674 36.7245 35.277 40 35.3489C43.2755 35.277 46.3871 34.1674 48.6726 32.2563C50.9581 30.3451 52.2369 27.7834 52.2369 25.1164C52.2369 22.4493 50.9581 19.8876 48.6726 17.9764C46.3871 16.0653 43.2755 14.9557 40 14.8838ZM40 20.4652C41.5155 20.4652 42.969 20.9552 44.0406 21.8275C45.1122 22.6997 45.7143 23.8828 45.7143 25.1164C45.7143 26.3499 45.1122 27.533 44.0406 28.4052C42.969 29.2775 41.5155 29.7675 40 29.7675C38.4845 29.7675 37.031 29.2775 35.9594 28.4052C34.8878 27.533 34.2857 26.3499 34.2857 25.1164C34.2857 23.8828 34.8878 22.6997 35.9594 21.8275C37.031 20.9552 38.4845 20.4652 40 20.4652ZM61.8697 60.0076C65.5863 60.9155 68.6491 62.0392 70.7657 63.3564C72.1371 64.2048 73.1429 65.0345 73.1429 66.0466C73.1429 66.642 72.7269 67.1815 72.1417 67.7211C71.1726 68.6104 69.7326 69.4104 67.9497 70.1545C61.6503 72.7778 51.4651 74.4187 40 74.4187C28.5349 74.4187 18.3497 72.7778 12.0503 70.1545C10.2674 69.4104 8.82743 68.6104 7.85829 67.7211C7.27314 67.1815 6.85714 66.642 6.85714 66.0466C6.85714 65.0345 7.86286 64.2048 9.23429 63.3564C11.3509 62.0392 14.4137 60.9155 18.1303 60.0076C19.0014 59.7944 19.7328 59.3083 20.1636 58.6562C20.5944 58.0041 20.6893 57.2394 20.4274 56.5303C20.1655 55.8213 19.5683 55.2259 18.7672 54.8753C17.966 54.5246 17.0266 54.4474 16.1554 54.6606C10.496 56.0485 6.09829 57.9499 3.456 60.0522C1.13371 61.8941 0 63.9555 0 66.0466C0 68.6587 1.81486 71.2634 5.504 73.4364C11.9771 77.2466 24.9783 80.0001 40 80.0001C55.0217 80.0001 68.0229 77.2466 74.496 73.4364C78.1851 71.2634 80 68.6587 80 66.0466C80 63.9555 78.8663 61.8941 76.544 60.0522C73.9017 57.9499 69.504 56.0485 63.8446 54.6606C63.4132 54.555 62.9606 54.5197 62.5125 54.5565C62.0643 54.5934 61.6295 54.7017 61.2328 54.8753C60.8361 55.0489 60.4853 55.2844 60.2005 55.5684C59.9156 55.8524 59.7022 56.1792 59.5726 56.5303C59.4429 56.8814 59.3995 57.2499 59.4447 57.6146C59.49 57.9794 59.6231 58.3333 59.8364 58.6562C60.0497 58.9791 60.3391 59.2646 60.6879 59.4965C61.0368 59.7283 61.4384 59.902 61.8697 60.0076Z" fill="#9F7834"/>
</svg>
