<svg width="100" height="100" viewBox="0 0 100 100" fill="none" xmlns="http://www.w3.org/2000/svg">
<g clip-path="url(#clip0_2702_9028)">
<path d="M50 0.349609C77.4221 0.34961 99.6504 22.5775 99.6504 49.999L99.6455 50.7168C99.5512 57.8887 97.8981 64.9545 94.8008 71.4238L94.4863 72.0684L94.4854 72.0703C94.283 72.4849 94.0004 72.8552 93.6543 73.1602C93.3082 73.4651 92.9055 73.6992 92.4688 73.8477C92.032 73.9961 91.5697 74.0563 91.1094 74.0254C90.6491 73.9945 90.1992 73.8734 89.7861 73.668C89.3731 73.4625 89.0054 73.1765 88.7031 72.8281C88.4009 72.4798 88.1706 72.0754 88.0254 71.6377C87.8803 71.1999 87.8231 70.7373 87.8574 70.2773C87.8875 69.875 87.9864 69.481 88.1504 69.1133L88.2246 68.957L88.2266 68.9541C91.0601 63.2479 92.5722 56.9795 92.6543 50.6143L92.6572 49.998C92.657 38.6851 88.1627 27.8354 80.1631 19.8359C72.4133 12.0865 61.989 7.62673 51.0596 7.35547L50 7.3418C42.3639 7.34042 34.8673 9.38912 28.293 13.2734C21.7186 17.1578 16.3071 22.7357 12.624 29.4248C8.94106 36.1139 7.12128 43.6694 7.35449 51.3018C7.5805 58.6959 9.7257 65.9002 13.5732 72.209L13.9502 72.8164L13.9512 72.8174C14.5147 73.7023 14.6503 74.7977 14.3193 75.8008L9.59668 89.959L9.375 90.623L10.0391 90.4023L24.2031 85.6846C24.6955 85.5203 25.2182 85.4674 25.7334 85.5303C26.1842 85.5853 26.6193 85.7274 27.0146 85.9482L27.1816 86.0479C34.0032 90.3778 41.9193 92.6696 49.999 92.6553V92.6562C56.5757 92.667 63.0657 91.1497 68.9561 88.2246L68.9551 88.2236C69.7838 87.8198 70.7394 87.761 71.6123 88.0576C72.4857 88.3546 73.2064 88.9846 73.6172 89.8105C74.0281 90.6367 74.096 91.592 73.8057 92.4678C73.5335 93.2887 72.9674 93.9777 72.2197 94.4043L72.0703 94.4844C65.4269 97.7841 58.1288 99.5461 50.7178 99.6436L50 99.6484H49.999C41.2179 99.6623 32.5913 97.3365 25.0068 92.9111L24.8701 92.8311L24.7197 92.8818L4.95117 99.4707C4.33476 99.6759 3.6732 99.7054 3.04102 99.5557C2.40885 99.4059 1.83096 99.0829 1.37207 98.623C0.913236 98.1632 0.591731 97.5846 0.443359 96.9521C0.313546 96.3987 0.320634 95.8233 0.462891 95.2754L0.532227 95.043V95.042L7.12207 75.2783L7.17188 75.1279L7.0918 74.9912C2.66456 67.4074 0.337198 58.7805 0.349609 49.999L0.354492 49.3574C0.69797 22.2316 22.7921 0.349609 50 0.349609Z" fill="#9F7834" stroke="white" stroke-width="0.7"/>
<path d="M73.0146 53.6104C73.8175 53.1459 74.7718 53.0188 75.668 53.2578C76.5643 53.497 77.3293 54.0828 77.7939 54.8857C78.2296 55.6385 78.368 56.5247 78.1865 57.3711L78.1465 57.54C76.8668 62.3294 74.3819 66.7085 70.9326 70.2617L70.5957 70.6025V70.6035C67.0973 74.1137 62.7597 76.6674 57.999 78.0254L57.5371 78.1533C57.0935 78.2715 56.6309 78.3008 56.1758 78.2402C55.7205 78.1796 55.2812 78.0301 54.8838 77.7998C54.4865 77.5695 54.1383 77.2632 53.8594 76.8984C53.6152 76.5791 53.4286 76.2201 53.3066 75.8379L53.2588 75.6729H53.2578C53.0186 74.7778 53.1452 73.8238 53.6084 73.0215C54.0427 72.2695 54.7399 71.7077 55.5625 71.4424L55.7285 71.3936C59.3656 70.4243 62.7994 68.5168 65.6543 65.6621C68.509 62.8075 70.4225 59.3686 71.3867 55.7363C71.626 54.84 72.2116 54.075 73.0146 53.6104ZM24.3232 53.2607C25.2183 53.0215 26.1722 53.1471 26.9746 53.6104C27.7268 54.0447 28.2885 54.7426 28.5537 55.5654L28.6025 55.7314C29.5719 59.3684 31.4792 62.8025 34.334 65.6572C37.0104 68.3336 40.2006 70.1822 43.582 71.1973L44.2607 71.3887C45.1571 71.6279 45.9221 72.2137 46.3867 73.0166C46.8511 73.8194 46.9774 74.7738 46.7383 75.6699C46.499 76.5663 45.9134 77.3312 45.1104 77.7959C44.3074 78.2605 43.3524 78.3877 42.4561 78.1484H42.457C37.6677 76.8689 33.2886 74.3836 29.7354 70.9346L29.3936 70.5986L29.3926 70.5977L29.0557 70.2559C25.7187 66.8187 23.2847 62.6087 21.9707 58.002L21.8428 57.54C21.7245 57.0962 21.6952 56.633 21.7559 56.1777C21.8165 55.7226 21.9661 55.284 22.1963 54.8867C22.3978 54.5389 22.6576 54.2287 22.9639 53.9697L23.0977 53.8623C23.417 53.6182 23.7761 53.4315 24.1582 53.3096L24.3232 53.2607ZM42.4561 21.8506C42.8998 21.7321 43.363 21.7033 43.8184 21.7637C44.2737 21.8241 44.7128 21.9731 45.1104 22.2031C45.508 22.4332 45.8565 22.7398 46.1357 23.1045C46.415 23.4692 46.6198 23.8853 46.7383 24.3291C46.8567 24.7727 46.8865 25.2353 46.8262 25.6904C46.7658 26.1456 46.6166 26.5849 46.3867 26.9824C46.1567 27.38 45.85 27.7285 45.4854 28.0078C45.1662 28.2522 44.8078 28.4401 44.4258 28.5625L44.2607 28.6104C40.5061 29.6122 37.0834 31.5897 34.3398 34.3418C31.7593 36.914 29.8596 40.0833 28.8066 43.5635L28.6074 44.2637C28.3681 45.1598 27.7824 45.9241 26.9795 46.3887C26.1767 46.8532 25.2224 46.9803 24.3262 46.7412C23.4298 46.502 22.6649 45.9162 22.2002 45.1133C21.7646 44.3605 21.6261 43.4743 21.8076 42.6279L21.8477 42.459C23.1259 37.6703 25.6093 33.292 29.0566 29.7383L29.3926 29.3965L29.3936 29.3955C33.0066 25.7731 37.5138 23.1709 42.457 21.8516L42.4561 21.8506ZM54.8857 22.2031C55.6381 21.768 56.5233 21.6291 57.3691 21.8105L57.5371 21.8516H57.5381C62.1764 23.0885 66.5676 25.495 70.2471 29.0537L70.6006 29.4014H70.6016C74.1103 32.8999 76.6623 37.237 78.0186 41.9971L78.1465 42.459C78.2649 42.9028 78.2948 43.3659 78.2344 43.8213C78.174 44.2767 78.024 44.7157 77.7939 45.1133C77.5639 45.5109 77.2573 45.8594 76.8926 46.1387C76.5279 46.4178 76.1117 46.6228 75.668 46.7412C75.2244 46.8595 74.7618 46.8894 74.3066 46.8291C73.8513 46.7687 73.4122 46.6187 73.0146 46.3887C72.6172 46.1587 72.2685 45.8528 71.9893 45.4883C71.7449 45.1692 71.5569 44.8106 71.4346 44.4287L71.3867 44.2637C70.4474 40.7434 68.6501 37.5147 66.1611 34.8643L65.6543 34.3418C63.0823 31.7618 59.9134 29.8624 56.4336 28.8096L55.7334 28.6104C55.2896 28.4919 54.8735 28.2872 54.5088 28.0078C54.144 27.7283 53.8373 27.3793 53.6074 26.9814C53.3777 26.5838 53.2289 26.1447 53.1689 25.6895C53.1165 25.2909 53.133 24.8862 53.2178 24.4941L53.2578 24.3271V24.3262C53.4972 23.4306 54.0833 22.6673 54.8857 22.2031Z" fill="#9F7834" stroke="white" stroke-width="0.7"/>
</g>
<defs>
<clipPath id="clip0_2702_9028">
<rect width="100" height="100" rx="10" fill="white"/>
</clipPath>
</defs>
</svg>
