<svg width="60" height="60" viewBox="0 0 60 60" fill="none" xmlns="http://www.w3.org/2000/svg">
<rect x="0.5" y="0.5" width="59" height="59" rx="9.5" fill="#EBFAFF" stroke="#F3F3F5"/>
<path d="M30.7762 31.4024C30.2774 31.5919 29.7265 31.5924 29.2272 31.4038L19.8184 27.8193V35.9447C19.8183 36.0921 19.863 36.2361 19.9467 36.3575C20.0303 36.479 20.1489 36.5721 20.2867 36.6246L29.7407 40.2244C29.9074 40.288 30.0917 40.288 30.2584 40.2244L39.7124 36.6246C39.8502 36.5721 39.9688 36.479 40.0524 36.3575C40.1361 36.2361 40.1808 36.0921 40.1807 35.9447V27.8193L30.7762 31.4024Z" fill="#0996C7"/>
<path d="M45.5307 22.8651L30.2589 17.0473C30.0921 16.9842 29.9079 16.9842 29.7411 17.0473L14.4693 22.8651C14.3313 22.9174 14.2125 23.0105 14.1287 23.132C14.0449 23.2534 14 23.3975 14 23.5451C14 23.6926 14.0449 23.8367 14.1287 23.9582C14.2125 24.0796 14.3313 24.1727 14.4693 24.225L29.7411 30.0429C29.9079 30.1061 30.0921 30.1061 30.2589 30.0429L45.5307 24.225C45.6687 24.1727 45.7875 24.0796 45.8713 23.9582C45.9551 23.8367 46 23.6926 46 23.5451C46 23.3975 45.9551 23.2534 45.8713 23.132C45.7875 23.0105 45.6687 22.9174 45.5307 22.8651Z" fill="#0996C7"/>
<path d="M17.6374 38.8165C17.4445 38.8165 17.2595 38.7399 17.1232 38.6035C16.9868 38.4671 16.9102 38.2821 16.9102 38.0893V24.653C16.9102 24.4601 16.9868 24.2752 17.1232 24.1388C17.2595 24.0024 17.4445 23.9258 17.6374 23.9258C17.8303 23.9258 18.0152 24.0024 18.1516 24.1388C18.288 24.2752 18.3646 24.4601 18.3646 24.653V38.0893C18.3646 38.2821 18.288 38.4671 18.1516 38.6035C18.0152 38.7399 17.8303 38.8165 17.6374 38.8165Z" fill="#0996C7"/>
<path d="M17.6368 37.3623C17.0583 37.3629 16.5037 37.5929 16.0947 38.0019C15.6857 38.411 15.4557 38.9655 15.4551 39.544V42.4529C15.4551 42.6458 15.5317 42.8307 15.6681 42.9671C15.8045 43.1035 15.9894 43.1801 16.1823 43.1801H19.0912C19.2841 43.1801 19.4691 43.1035 19.6054 42.9671C19.7418 42.8307 19.8184 42.6458 19.8184 42.4529V39.544C19.8179 38.9655 19.5878 38.411 19.1788 38.0019C18.7698 37.5929 18.2152 37.3629 17.6368 37.3623Z" fill="#0996C7"/>
</svg>
