<svg width="80" height="80" viewBox="0 0 80 80" fill="none" xmlns="http://www.w3.org/2000/svg">
<path d="M40 40C39.7789 40.0001 39.5596 39.9511 39.3528 39.8556L1.1733 22.078C0.82835 21.918 0.531371 21.6336 0.321804 21.2625C0.112237 20.8914 0 20.4511 0 20.0002C0 19.5493 0.112237 19.109 0.321804 18.7379C0.531371 18.3668 0.82835 18.0824 1.1733 17.9224L39.3528 0.144811C39.7698 -0.0482703 40.2302 -0.0482703 40.6472 0.144811L78.8267 17.9224C79.1717 18.0824 79.4686 18.3668 79.6782 18.7379C79.8878 19.109 80 19.5493 80 20.0002C80 20.4511 79.8878 20.8914 79.6782 21.2625C79.4686 21.6336 79.1717 21.918 78.8267 22.078L40.6472 39.8556C40.4404 39.9511 40.2211 40.0001 40 40ZM6.92931 20.0002L40 35.4001L73.0707 20.0002L40 4.60033L6.92931 20.0002Z" fill="#9F7834"/>
<path d="M39.9999 71.1108C39.7787 71.1109 39.5595 71.0619 39.3526 70.9664L15.7177 59.9665C15.3732 59.8061 15.0768 59.5215 14.8677 59.1504C14.6586 58.7793 14.5467 58.3393 14.5469 57.8887V26.7779C14.5469 26.1885 14.7384 25.6233 15.0794 25.2065C15.4203 24.7898 15.8828 24.5557 16.3649 24.5557C16.8471 24.5557 17.3096 24.7898 17.6505 25.2065C17.9915 25.6233 18.183 26.1885 18.183 26.7779V56.3554L39.9999 66.5109L61.8167 56.3554V26.7779C61.8167 26.1885 62.0083 25.6233 62.3492 25.2065C62.6902 24.7898 63.1526 24.5557 63.6348 24.5557C64.117 24.5557 64.5794 24.7898 64.9203 25.2065C65.2613 25.6233 65.4528 26.1885 65.4528 26.7779V57.8887C65.453 58.3393 65.3412 58.7793 65.1321 59.1504C64.923 59.5215 64.6265 59.8061 64.282 59.9665L40.6471 70.9664C40.4403 71.0619 40.221 71.1109 39.9999 71.1108Z" fill="#9F7834"/>
<path d="M9.09346 66.666C8.61128 66.666 8.14885 66.4319 7.80789 66.0151C7.46694 65.5984 7.27539 65.0331 7.27539 64.4438V23.3863C7.27536 22.8316 7.44511 22.2968 7.75125 21.8873C8.0574 21.4777 8.4778 21.2229 8.92983 21.173L39.837 17.7864C40.3173 17.7333 40.7951 17.9156 41.1654 18.2932C41.5357 18.6708 41.7681 19.2127 41.8115 19.7997C41.8549 20.3867 41.7057 20.9707 41.3968 21.4233C41.0879 21.8759 40.6445 22.16 40.1643 22.213L10.9115 25.4219V64.4438C10.9115 65.0331 10.72 65.5984 10.379 66.0151C10.0381 66.4319 9.57564 66.666 9.09346 66.666Z" fill="#9F7834"/>
<path d="M12.731 80.0003H5.4587C4.97651 80.0003 4.51408 79.7662 4.17313 79.3494C3.83217 78.9327 3.64062 78.3674 3.64062 77.7781V68.8893C3.64063 67.1212 4.21526 65.4255 5.23813 64.1753C6.26099 62.925 7.64829 62.2227 9.09484 62.2227C10.5414 62.2227 11.9287 62.925 12.9515 64.1753C13.9744 65.4255 14.549 67.1212 14.549 68.8893V77.7781C14.549 78.3674 14.3575 78.9327 14.0165 79.3494C13.6756 79.7662 13.2132 80.0003 12.731 80.0003ZM7.27677 75.5559H10.9129V68.8893C10.9129 68.2999 10.7214 67.7347 10.3804 67.3179C10.0395 66.9012 9.57702 66.6671 9.09484 66.6671C8.61265 66.6671 8.15022 66.9012 7.80927 67.3179C7.46831 67.7347 7.27677 68.2999 7.27677 68.8893V75.5559Z" fill="#9F7834"/>
</svg>
