<svg width="80" height="80" viewBox="0 0 80 80" fill="none" xmlns="http://www.w3.org/2000/svg">
<path fill-rule="evenodd" clip-rule="evenodd" d="M40 6.15372C33.9411 6.15262 27.993 7.77792 22.7767 10.86C17.5603 13.942 13.2669 18.3677 10.3446 23.6752C7.42238 28.9827 5.97844 34.9773 6.16354 41.0332C6.34865 47.0891 8.15601 52.9843 11.397 58.1034C11.8934 58.8829 12.0123 59.847 11.7211 60.729L7.9426 72.056L19.2739 68.2817C19.7072 68.1371 20.1673 68.0908 20.6207 68.1461C21.0742 68.2015 21.5096 68.3571 21.8954 68.6017C27.308 72.0373 33.589 73.8562 40 73.8447C45.218 73.8532 50.3666 72.6496 55.04 70.3288C55.7698 69.9727 56.6107 69.9194 57.3796 70.1807C58.1484 70.442 58.7828 70.9966 59.1445 71.7237C59.5061 72.4507 59.5657 73.2913 59.3102 74.062C59.0547 74.8328 58.5048 75.4714 57.7805 75.8385C52.2556 78.5827 46.1689 80.0067 40 79.9984C32.9253 80.0096 25.9752 78.1362 19.8646 74.5708L4.04927 79.8425C3.50677 80.0231 2.92468 80.0489 2.3683 79.9172C1.81192 79.7854 1.30326 79.5012 0.899379 79.0965C0.495503 78.6918 0.212387 78.1825 0.0817936 77.6259C-0.0487997 77.0692 -0.0217043 76.4872 0.16004 75.9451L5.43183 60.1342C1.86492 54.0241 -0.0099597 47.0742 3.979e-05 39.9992C3.979e-05 17.9073 17.9077 0 40 0C62.0923 0 80 17.9073 80 39.9992C80.0083 46.168 78.5842 52.2545 75.84 57.7793C75.6619 58.1442 75.4134 58.4702 75.1087 58.7386C74.804 59.007 74.4493 59.2124 74.0648 59.343C73.6804 59.4737 73.274 59.5269 72.8689 59.4998C72.4638 59.4726 72.068 59.3655 71.7045 59.1847C71.341 59.0039 71.0168 58.7529 70.7507 58.4463C70.4847 58.1396 70.2819 57.7833 70.1542 57.3979C70.0264 57.0125 69.9762 56.6057 70.0064 56.2008C70.0366 55.7959 70.1467 55.401 70.3302 55.0389C72.6509 50.3655 73.8545 45.217 73.8461 39.9992C73.8461 31.0228 70.2802 22.4141 63.9328 16.0668C57.5854 9.71957 48.9765 6.15372 40 6.15372Z" fill="#9F7834"/>
<path fill-rule="evenodd" clip-rule="evenodd" d="M17.2095 33.8944C18.2778 29.8921 20.3852 26.2434 23.3182 23.3182C26.2435 20.3852 29.8923 18.2778 33.8946 17.2096C34.2852 17.1053 34.6925 17.079 35.0933 17.1322C35.494 17.1854 35.8804 17.3169 36.2303 17.5194C36.5802 17.7219 36.8868 17.9913 37.1326 18.3123C37.3784 18.6332 37.5585 18.9995 37.6628 19.3901C37.767 19.7806 37.7933 20.1879 37.7402 20.5887C37.687 20.9894 37.5554 21.3758 37.353 21.7257C37.1505 22.0756 36.8811 22.3822 36.5601 22.628C36.2391 22.8738 35.8729 23.0539 35.4823 23.1582C32.526 23.947 29.8311 25.5039 27.671 27.6709C25.504 29.8309 23.947 32.5258 23.1582 35.482C22.9477 36.2709 22.4324 36.9438 21.7257 37.3527C21.019 37.7616 20.1788 37.873 19.39 37.6625C18.6011 37.452 17.9282 36.9367 17.5193 36.23C17.1104 35.5234 16.9989 34.6832 17.2095 33.8944ZM42.3377 19.388C42.5483 18.5998 43.0634 17.9275 43.7697 17.519C44.4759 17.1104 45.3155 16.9992 46.1038 17.2096C49.9807 18.2434 53.6443 20.2864 56.6802 23.3223C59.6127 26.2463 61.7202 29.8935 62.7889 33.8944C62.8932 34.285 62.9195 34.6923 62.8663 35.093C62.8131 35.4938 62.6816 35.8801 62.4791 36.23C62.2766 36.5799 62.0072 36.8865 61.6862 37.1323C61.3653 37.3781 60.999 37.5583 60.6084 37.6625C60.2178 37.7667 59.8105 37.793 59.4097 37.7399C59.009 37.6867 58.6226 37.5551 58.2727 37.3527C57.9228 37.1502 57.6162 36.8808 57.3704 36.5598C57.1246 36.2389 56.9445 35.8726 56.8402 35.482C56.0514 32.5258 54.4944 29.8309 52.3274 27.6709C50.1674 25.5039 47.4724 23.947 44.5161 23.1582C44.1254 23.0539 43.759 22.8736 43.438 22.6277C43.117 22.3817 42.8476 22.0748 42.6453 21.7247C42.443 21.3745 42.3117 20.9879 42.2589 20.587C42.2061 20.186 42.2329 19.7786 42.3377 19.388ZM19.3879 42.3373C20.1757 42.1267 21.0148 42.2374 21.721 42.6451C22.4271 43.0528 22.9426 43.7241 23.1541 44.5116C23.9172 47.3751 25.4187 50.0787 27.6669 52.3268C29.9151 54.575 32.6228 56.0806 35.4823 56.8395C36.2711 57.0501 36.944 57.5654 37.353 58.272C37.7619 58.9787 37.8733 59.8188 37.6628 60.6077C37.4523 61.3965 36.937 62.0694 36.2303 62.4783C35.5236 62.8872 34.6834 62.9987 33.8946 62.7881C29.8918 61.7187 26.243 59.6099 23.3182 56.6754C20.3843 53.7518 18.2755 50.1046 17.2054 46.1034C17.1013 45.7128 17.0751 45.3055 17.1285 44.9048C17.1818 44.5041 17.3136 44.1178 17.5163 43.7681C17.719 43.4183 17.9886 43.112 18.3098 42.8665C18.6309 42.621 18.9973 42.4411 19.3879 42.3373ZM42.3377 60.6097C42.1271 59.822 42.2378 58.9829 42.6455 58.2768C43.0532 57.5706 43.7245 57.0552 44.512 56.8437C47.3756 56.0806 50.0792 54.5791 52.3274 52.3309C54.5756 50.0828 56.0812 47.3751 56.8402 44.5157C57.0508 43.7269 57.566 43.054 58.2727 42.6451C58.9794 42.2361 59.8196 42.1247 60.6084 42.3352C61.3973 42.5458 62.0702 43.061 62.4791 43.7677C62.888 44.4744 62.9995 45.3145 62.7889 46.1034C61.7195 50.106 59.6106 53.7548 56.6761 56.6795C53.7523 59.6132 50.105 61.722 46.1038 62.7922C45.7132 62.8964 45.3059 62.9225 44.9052 62.8691C44.5045 62.8158 44.1183 62.684 43.7685 62.4813C43.4187 62.2786 43.1124 62.009 42.8669 61.6879C42.6213 61.3667 42.4415 61.0004 42.3377 60.6097Z" fill="#9F7834"/>
</svg>
