<svg width="100" height="100" viewBox="0 0 100 100" fill="none" xmlns="http://www.w3.org/2000/svg">
<path d="M50 49.8162C49.7236 49.8162 49.4495 49.7662 49.191 49.6685L1.46662 31.4877C1.03544 31.3242 0.664214 31.0333 0.402255 30.6538C0.140297 30.2743 0 29.824 0 29.3629C0 28.9017 0.140297 28.4515 0.402255 28.0719C0.664214 27.6924 1.03544 27.4015 1.46662 27.238L49.191 9.05727C49.7123 8.85981 50.2878 8.85981 50.8091 9.05727L98.5334 27.238C98.9646 27.4015 99.3358 27.6924 99.5978 28.0719C99.8597 28.4515 100 28.9017 100 29.3629C100 29.824 99.8597 30.2743 99.5978 30.6538C99.3358 31.0333 98.9646 31.3242 98.5334 31.4877L50.8091 49.6685C50.5505 49.7662 50.2764 49.8162 50 49.8162ZM8.66163 29.3629L50 45.1119L91.3384 29.3629L50 13.6138L8.66163 29.3629Z" fill="#9F7834"/>
<path d="M49.9998 81.6322C49.7234 81.6323 49.4493 81.5822 49.1908 81.4845L19.6471 70.2352C19.2165 70.0712 18.846 69.7801 18.5846 69.4006C18.3232 69.0211 18.1834 68.5711 18.1836 68.1103V36.2941C18.1836 35.6913 18.423 35.1133 18.8492 34.6871C19.2754 34.2609 19.8535 34.0215 20.4562 34.0215C21.0589 34.0215 21.637 34.2609 22.0631 34.6871C22.4893 35.1133 22.7288 35.6913 22.7288 36.2941V66.5423L49.9998 76.928L77.2709 66.5423V36.2941C77.2709 35.6913 77.5103 35.1133 77.9365 34.6871C78.3627 34.2609 78.9407 34.0215 79.5435 34.0215C80.1462 34.0215 80.7242 34.2609 81.1504 34.6871C81.5766 35.1133 81.8161 35.6913 81.8161 36.2941V68.1103C81.8163 68.5711 81.6765 69.0211 81.4151 69.4006C81.1537 69.7801 80.7831 70.0712 80.3525 70.2352L50.8089 81.4845C50.5503 81.5822 50.2762 81.6323 49.9998 81.6322Z" fill="#9F7834"/>
<path d="M11.3663 77.087C10.7636 77.087 10.1856 76.8475 9.75938 76.4213C9.33318 75.9952 9.09375 75.4171 9.09375 74.8144V32.826C9.09372 32.2587 9.30589 31.7118 9.68858 31.293C10.0713 30.8741 10.5968 30.6136 11.1618 30.5625L49.7958 27.0991C50.3961 27.0448 50.9934 27.2313 51.4562 27.6174C51.9191 28.0035 52.2096 28.5577 52.2638 29.158C52.3181 29.7584 52.1316 30.3556 51.7455 30.8185C51.3594 31.2813 50.8052 31.5718 50.2049 31.6261L13.6389 34.9077V74.8144C13.6389 75.4171 13.3995 75.9952 12.9733 76.4213C12.5471 76.8475 11.9691 77.087 11.3663 77.087Z" fill="#9F7834"/>
<path d="M15.9118 90.7227H6.82142C6.21869 90.7227 5.64065 90.4833 5.21445 90.0571C4.78826 89.6309 4.54883 89.0529 4.54883 88.4501V79.3598C4.54883 77.5516 5.26713 75.8175 6.54571 74.5389C7.82428 73.2603 9.55841 72.542 11.3666 72.542C13.1748 72.542 14.9089 73.2603 16.1875 74.5389C17.4661 75.8175 18.1844 77.5516 18.1844 79.3598V88.4501C18.1844 89.0529 17.9449 89.6309 17.5187 90.0571C17.0925 90.4833 16.5145 90.7227 15.9118 90.7227ZM9.094 86.1775H13.6392V79.3598C13.6392 78.757 13.3997 78.179 12.9736 77.7528C12.5474 77.3266 11.9693 77.0872 11.3666 77.0872C10.7639 77.0872 10.1858 77.3266 9.75963 77.7528C9.33344 78.179 9.094 78.757 9.094 79.3598V86.1775Z" fill="#9F7834"/>
</svg>
