<svg width="12" height="15" viewBox="0 0 12 15" fill="none" xmlns="http://www.w3.org/2000/svg">
<path fill-rule="evenodd" clip-rule="evenodd" d="M3.50483 0.416464C3.50486 0.306116 3.54869 0.200291 3.6267 0.122244C3.70471 0.0441962 3.81051 0.000312033 3.92086 0.00023438L8.08084 0C8.19122 0.000255884 8.29699 0.0442616 8.37497 0.122372C8.45296 0.200482 8.49679 0.306324 8.49687 0.416699V1.44554H3.50483V0.416464ZM10.3447 14.4044C10.3341 14.5666 10.2618 14.7186 10.1428 14.8294C10.0238 14.9401 9.86691 15.0011 9.70434 15H2.24955C2.08703 14.9995 1.93068 14.9376 1.81192 14.8267C1.69316 14.7157 1.62077 14.564 1.60928 14.4018L0.971359 5.07006H11.0255L10.3448 14.4042L10.3447 14.4044ZM12.002 4.22488H0V3.25806C0.000178421 3.00164 0.102106 2.75577 0.283402 2.57444C0.464699 2.3931 0.710546 2.29112 0.966965 2.29089L11.0349 2.29057C11.2913 2.29096 11.5371 2.39303 11.7183 2.57439C11.8995 2.75574 12.0015 3.00158 12.0017 3.25797V4.22479L12.002 4.22488ZM4.06849 12.7754C4.06849 12.8309 4.07942 12.8858 4.10065 12.9371C4.12189 12.9884 4.15301 13.0349 4.19225 13.0742C4.23148 13.1134 4.27806 13.1445 4.32932 13.1658C4.38059 13.187 4.43553 13.1979 4.49102 13.1979C4.54651 13.1979 4.60145 13.187 4.65271 13.1658C4.70398 13.1445 4.75056 13.1134 4.78979 13.0742C4.82903 13.0349 4.86015 12.9884 4.88138 12.9371C4.90262 12.8858 4.91355 12.8309 4.91355 12.7754V6.85006C4.91266 6.73862 4.86778 6.63205 4.78868 6.55356C4.70958 6.47506 4.60267 6.43099 4.49124 6.43095C4.3798 6.43092 4.27286 6.47491 4.19371 6.55335C4.11456 6.63179 4.0696 6.73833 4.06864 6.84976V12.7754H4.06849ZM7.08321 12.7754C7.08321 12.8875 7.12773 12.995 7.20698 13.0742C7.28623 13.1535 7.39372 13.198 7.50579 13.198C7.61787 13.198 7.72536 13.1535 7.80461 13.0742C7.88386 12.995 7.92838 12.8875 7.92838 12.7754V6.85006C7.92749 6.73861 7.88261 6.63202 7.8035 6.55351C7.72439 6.47501 7.61746 6.43093 7.50601 6.4309C7.39456 6.43086 7.2876 6.47486 7.20844 6.55331C7.12928 6.63176 7.08432 6.73831 7.08335 6.84976L7.08321 12.7754Z" fill="#FC0005"/>
</svg>
