<svg width="20" height="15" viewBox="0 0 20 15" fill="none" xmlns="http://www.w3.org/2000/svg">
<path fill-rule="evenodd" clip-rule="evenodd" d="M20 6.51358H12.4465C12.2661 7.04883 11.9105 7.50764 11.4372 7.81591C10.9712 8.12846 10.2474 8.29219 9.53488 8.34707L10.9284 9.74149C10.9931 9.80629 11.0445 9.88322 11.0795 9.96787C11.1145 10.0525 11.1325 10.1432 11.1325 10.2348C11.1324 10.3264 11.1143 10.4171 11.0792 10.5018C11.0441 10.5864 10.9927 10.6633 10.9279 10.728C10.8631 10.7927 10.7862 10.8441 10.7015 10.8791C10.6169 10.9141 10.5262 10.9321 10.4346 10.9321C10.3429 10.932 10.2522 10.914 10.1676 10.8789C10.083 10.8438 10.0061 10.7923 9.9414 10.7275L8.40186 9.188V14.4206H17.4419C18.12 14.4206 18.7712 14.1508 19.2512 13.6717C19.7304 13.1915 19.9997 12.5409 20 11.8624V6.51358ZM2.90233 6.51358H0V11.8624C0 12.5406 0.269768 13.1917 0.748837 13.6717C1.22904 14.151 1.87969 14.4203 2.55814 14.4206H7.00651V9.12846L5.40744 10.7275C5.27592 10.8547 5.09972 10.9251 4.91679 10.9236C4.73386 10.9221 4.55884 10.8488 4.42942 10.7195C4.30001 10.5902 4.22655 10.4153 4.22487 10.2323C4.2232 10.0494 4.29344 9.87313 4.42046 9.74149L5.81395 8.34707C5.1014 8.29219 4.37767 8.12846 3.91163 7.81591C3.43832 7.50764 3.08275 7.04883 2.90233 6.51358ZM4.18419 5.77126C4.19415 5.64941 4.23796 5.53277 4.3107 5.43451C4.6093 5.02614 5.24837 5.01684 5.72837 5.3387C6.02791 5.5387 6.25395 5.948 6.44279 6.34707C6.54512 6.56288 6.63349 6.77963 6.70605 6.97777C6.45255 6.982 6.19899 6.97548 5.94605 6.95823C5.48 6.92381 4.99256 6.86056 4.68651 6.65591C4.39163 6.4587 4.20186 6.16102 4.18419 5.87172L4.18605 5.81591L4.18419 5.77126ZM11.1647 5.87172C11.147 6.16102 10.9572 6.4587 10.6623 6.65591C10.3563 6.86056 9.86884 6.92381 9.40279 6.95823C9.13674 6.97684 8.87535 6.98149 8.64279 6.97777C8.71535 6.77963 8.80372 6.56288 8.90605 6.34707C9.09488 5.948 9.32093 5.5387 9.62047 5.3387C10.1005 5.01684 10.7395 5.02614 11.0381 5.43451C11.1109 5.53277 11.1547 5.64941 11.1647 5.77126C11.1623 5.8047 11.1623 5.83827 11.1647 5.87172ZM8.40186 0.00195312V4.57033C8.54233 4.41591 8.69023 4.28195 8.84465 4.1787C9.97581 3.42242 11.4595 3.64846 12.1637 4.60846C12.28 4.76846 12.3702 4.93963 12.4353 5.11823H20V2.56009C20 1.88195 19.7302 1.23079 19.2512 0.75079C18.771 0.27153 18.1203 0.00223798 17.4419 0.00195312H8.40186ZM7.00651 0.00195312H2.55814C1.88 0.00195312 1.22884 0.27172 0.748837 0.75079C0.269577 1.231 0.000284852 1.88165 0 2.56009V5.11823H2.91349C2.9786 4.93963 3.06884 4.76846 3.18512 4.60846C3.8893 3.64846 5.37302 3.42242 6.50419 4.1787C6.68093 4.29684 6.8493 4.45498 7.00651 4.63916V0.00195312Z" fill="white"/>
</svg>
