<svg width="100" height="100" viewBox="0 0 100 100" fill="none" xmlns="http://www.w3.org/2000/svg">
<mask id="path-2-inside-1_2702_9033" fill="white">
<path d="M50.4188 72.1112C64.2897 72.1112 75.5746 60.8287 75.5746 46.9608C75.567 40.2914 72.9143 33.8973 68.1983 29.1813C63.4823 24.4653 57.0882 21.8126 50.4188 21.805C36.5509 21.805 25.2686 33.0899 25.2686 46.9608C25.2794 53.3061 27.6789 59.4147 31.9897 64.0709L29.3882 73.7761C29.2346 74.3491 29.2544 74.9547 29.445 75.5165C29.6357 76.0782 29.9887 76.5708 30.4594 76.9318C30.93 77.2929 31.4972 77.5063 32.0892 77.5449C32.6811 77.5836 33.2712 77.4458 33.7849 77.149L43.9594 71.27C46.0669 71.8297 48.2383 72.1125 50.4188 72.1112ZM42.073 65.4341L37.057 68.3329L38.2301 63.9568C38.3711 63.4307 38.3662 62.8762 38.2159 62.3527C38.0656 61.8292 37.7755 61.3566 37.3769 60.9855C35.4406 59.2002 33.8973 57.0313 32.8452 54.6169C31.7931 52.2025 31.2553 49.5955 31.266 46.9618C31.2674 42.9189 32.5485 38.9802 34.9258 35.7101C37.3031 32.44 40.6544 30.0063 44.4997 28.7578C48.345 27.5093 52.4868 27.51 56.3317 28.7598C60.1765 30.0096 63.5271 32.4444 65.9032 35.7154C68.2794 38.9863 69.5592 42.9254 69.5592 46.9683C69.5593 51.0112 68.2796 54.9503 65.9035 58.2213C63.5274 61.4923 60.1769 63.9272 56.3321 65.1771C52.4873 66.4271 48.3455 66.4279 44.5002 65.1794C44.1004 65.0493 43.6777 65.0046 43.2596 65.0484C42.8415 65.0922 42.4372 65.2234 42.073 65.4335V65.4341ZM99.9599 49.1025C99.9925 47.8754 100.026 46.6066 99.9677 45.2855C99.8095 41.5948 98.2252 38.1094 95.5486 35.5634C92.8719 33.0173 89.3117 31.6093 85.6176 31.6357C79.6888 18.0714 66.1437 8.56738 50.4188 8.56738C34.6939 8.56738 21.1544 18.0712 15.2254 31.6355C11.5322 31.6093 7.9728 33.0168 5.29641 35.5619C2.62001 38.107 1.03532 41.5911 0.875852 45.2809C0.817078 46.6068 0.850863 47.8758 0.883449 49.1031C0.918034 50.3997 0.953618 51.7405 0.887047 53.2473C0.728304 57.0247 2.07402 60.7109 4.62911 63.4976C7.1842 66.2843 10.7401 67.944 14.5171 68.1128C14.7407 68.1232 14.9639 68.1283 15.1866 68.1283C17.0692 68.1295 18.9328 67.7529 20.6672 67.0208C21.3919 66.7172 21.9681 66.1409 22.2716 65.4162C22.575 64.6915 22.5814 63.8765 22.2893 63.1471C22.253 63.0056 22.1976 62.8697 22.1246 62.7431C19.4379 57.9168 18.0279 52.4845 18.0282 46.9608C18.0282 29.0976 32.5586 14.5648 50.4188 14.5648C68.279 14.5648 82.815 29.0984 82.815 46.9608C82.836 54.5219 80.2031 61.8507 75.3751 67.6698C70.5471 73.4889 63.8303 77.4293 56.3952 78.8043C55.612 77.0316 54.234 75.5883 52.4995 74.7238C50.765 73.8593 48.783 73.6279 46.8961 74.0697C45.0091 74.5115 43.3358 75.5987 42.1653 77.1433C40.9949 78.6879 40.4009 80.593 40.486 82.5291C40.5711 84.4652 41.33 86.3107 42.6315 87.7467C43.9329 89.1827 45.6952 90.1188 47.6137 90.3933C49.5321 90.6678 51.4862 90.2634 53.1381 89.2501C54.7901 88.2367 56.036 86.678 56.6607 84.8434C61.9423 83.9698 66.9833 82.003 71.4611 79.069C75.9388 76.135 79.7547 72.2983 82.6643 67.8047C83.6461 68.0193 84.6482 68.1279 85.6532 68.1285C85.8735 68.1285 86.0944 68.1235 86.3159 68.1134C88.188 68.0328 90.0258 67.5842 91.7245 66.7933C93.4232 66.0023 94.9494 64.8845 96.216 63.5036C97.4827 62.1228 98.4649 60.5059 99.1066 58.7454C99.7483 56.985 100.037 55.1153 99.9559 53.2433C99.8896 51.7413 99.9254 50.3993 99.9599 49.1025ZM14.7838 62.1214C12.5943 62.0247 10.5325 61.0637 9.05057 59.449C7.56865 57.8343 6.78757 55.6979 6.87863 53.5081C6.9544 51.7931 6.91421 50.2794 6.87863 48.9435C6.84744 47.769 6.81865 46.6599 6.86763 45.5422C6.94504 43.7614 7.5954 42.0532 8.72192 40.6718C9.84843 39.2904 11.3909 38.3097 13.1197 37.8756C11.2295 45.647 11.8096 53.8144 14.779 61.2408L14.7754 61.2422C14.8921 61.5396 15.0127 61.8357 15.137 62.1304C15.0201 62.1298 14.9024 62.1268 14.7838 62.1214ZM48.7925 84.4798C48.3343 84.4798 47.8864 84.344 47.5054 84.0895C47.1244 83.835 46.8274 83.4732 46.652 83.0499C46.4766 82.6267 46.4306 82.1609 46.52 81.7115C46.6093 81.262 46.8298 80.8492 47.1537 80.5252C47.4777 80.2011 47.8904 79.9804 48.3398 79.8909C48.7891 79.8014 49.2549 79.8471 49.6783 80.0223C50.1017 80.1976 50.4636 80.4944 50.7182 80.8753C50.9729 81.2562 51.1089 81.704 51.1091 82.1622V82.1666C51.1076 82.7802 50.8629 83.3682 50.4287 83.8018C49.9945 84.2354 49.4061 84.4792 48.7925 84.4798ZM93.9644 53.5039C94.0111 54.5896 93.8434 55.6739 93.4708 56.6947C93.0982 57.7155 92.5281 58.6529 91.7931 59.4532C91.058 60.2536 90.1724 60.9012 89.1869 61.3591C88.2014 61.817 87.1353 62.0761 86.0496 62.1218C85.9345 62.1272 85.8196 62.1302 85.705 62.1306C85.7099 62.1194 85.7107 62.1069 85.7072 62.0952C88.981 54.4526 89.6885 45.9545 87.7235 37.8758C89.4531 38.31 90.9961 39.2913 92.1227 40.6735C93.2494 42.0558 93.8993 43.765 93.9758 45.5466C94.0251 46.6597 93.9958 47.7688 93.9646 48.9431C93.929 50.279 93.8886 51.7929 93.9644 53.5039ZM43.4127 46.6669C43.4223 46.7646 43.427 46.8627 43.4267 46.9608C43.427 47.0596 43.4223 47.1583 43.4127 47.2567C43.4027 47.3526 43.3867 47.4506 43.3687 47.5465C43.3507 47.6425 43.3247 47.7385 43.2967 47.8324C43.2687 47.9264 43.2347 48.0183 43.1968 48.1083C43.1588 48.1983 43.1168 48.2882 43.0708 48.3742C43.0248 48.4601 42.9748 48.5441 42.9209 48.6261C42.8674 48.708 42.8094 48.7867 42.7469 48.862C42.685 48.9399 42.617 49.0119 42.549 49.0819C42.4791 49.1515 42.4057 49.2176 42.3291 49.2798C42.2532 49.3418 42.1732 49.3997 42.0932 49.4557C42.0113 49.5077 41.9273 49.5597 41.8393 49.6056C41.7537 49.6518 41.6656 49.6932 41.5755 49.7296C41.4853 49.7676 41.3932 49.801 41.2996 49.8295C41.2056 49.8575 41.1097 49.8815 41.0137 49.9015C40.9179 49.9211 40.8211 49.9357 40.7238 49.9455C40.527 49.9642 40.3289 49.9642 40.1321 49.9455C40.0348 49.9357 39.938 49.9211 39.8422 49.9015C39.7463 49.8815 39.6503 49.8575 39.5563 49.8295C39.4627 49.801 39.3706 49.7676 39.2805 49.7296C39.1903 49.6932 39.1022 49.6518 39.0166 49.6056C38.9286 49.5597 38.8447 49.5077 38.7627 49.4557C38.6827 49.3997 38.6028 49.3418 38.5268 49.2798C38.4502 49.2176 38.3768 49.1515 38.3069 49.0819C38.2389 49.0119 38.171 48.9399 38.109 48.862C38.0466 48.7867 37.9885 48.708 37.9351 48.6261C37.8817 48.5441 37.8318 48.4601 37.7851 48.3742C37.7391 48.2882 37.6972 48.1983 37.6592 48.1083C37.6212 48.0183 37.5892 47.9264 37.5592 47.8324C37.5292 47.7385 37.5072 47.6425 37.4872 47.5465C37.4475 47.3539 37.4281 47.1575 37.4293 46.9608C37.4293 46.8628 37.4353 46.7649 37.4433 46.6669C37.4513 46.569 37.4693 46.471 37.4872 46.3751C37.5052 46.2791 37.5312 46.1851 37.5592 46.0912C37.5872 45.9972 37.6212 45.9053 37.6592 45.8153C37.6972 45.7253 37.7391 45.6354 37.7851 45.5494C37.8774 45.3763 37.9858 45.2123 38.109 45.0596C38.171 44.9837 38.2389 44.9097 38.3069 44.8417C38.3768 44.7721 38.4502 44.706 38.5268 44.6438C38.6028 44.5818 38.6827 44.5219 38.7627 44.4679C38.8447 44.4137 38.9295 44.3636 39.0166 44.318C39.1025 44.272 39.1905 44.23 39.2805 44.192C39.3704 44.156 39.4644 44.122 39.5563 44.0941C39.6503 44.0651 39.7457 44.0411 39.8422 44.0221C40.2288 43.9436 40.6272 43.9436 41.0137 44.0221C41.1102 44.0411 41.2056 44.0651 41.2996 44.0941C41.3915 44.122 41.4855 44.156 41.5755 44.192C41.6654 44.228 41.7534 44.272 41.8393 44.318C41.9264 44.3636 42.0112 44.4137 42.0932 44.4679C42.1732 44.5219 42.2532 44.5818 42.3291 44.6438C42.4057 44.706 42.4791 44.7721 42.549 44.8417C42.617 44.9097 42.685 44.9837 42.7469 45.0596C42.8701 45.2123 42.9785 45.3763 43.0708 45.5494C43.1168 45.6354 43.1588 45.7253 43.1968 45.8153C43.2347 45.9053 43.2667 45.9972 43.2967 46.0912C43.3267 46.1851 43.3487 46.2811 43.3687 46.3751C43.3887 46.469 43.4027 46.5682 43.4127 46.6661V46.6669ZM47.4229 46.9608C47.4226 46.5672 47.4998 46.1773 47.6503 45.8135C47.8007 45.4497 48.0213 45.1192 48.2995 44.8407C48.5777 44.5622 48.9081 44.3413 49.2717 44.1905C49.6354 44.0398 50.0251 43.9622 50.4188 43.9621H50.4244C51.0174 43.9627 51.5969 44.139 52.0896 44.4688C52.5824 44.7987 52.9663 45.2672 53.1928 45.8152C53.4194 46.3632 53.4784 46.966 53.3623 47.5475C53.2463 48.129 52.9605 48.6631 52.541 49.0822C52.1215 49.5013 51.5872 49.7866 51.0056 49.9021C50.424 50.0176 49.8212 49.958 49.2734 49.731C48.7256 49.5039 48.2575 49.1196 47.9281 48.6265C47.5987 48.1334 47.4229 47.5538 47.4229 46.9608ZM57.4305 47.2559C57.4209 47.1575 57.4162 47.0588 57.4165 46.96C57.4162 46.8619 57.4209 46.7638 57.4305 46.6661C57.4405 46.5682 57.4565 46.4702 57.4745 46.3743C57.4925 46.2783 57.5185 46.1843 57.5465 46.0904C57.5747 45.9967 57.6081 45.9046 57.6464 45.8145C57.6824 45.7245 57.7264 45.6346 57.7704 45.5486C57.8643 45.3761 57.9734 45.2122 58.0962 45.0588C58.1582 44.9829 58.2262 44.9089 58.2942 44.8409C58.3641 44.7713 58.4375 44.7052 58.5141 44.643C58.5893 44.5799 58.668 44.5212 58.75 44.4671C58.8319 44.4138 58.9159 44.3638 59.0019 44.3172C59.0878 44.2712 59.1778 44.2292 59.2677 44.1912C59.3577 44.1532 59.4517 44.1212 59.5436 44.0933C59.6376 44.0643 59.733 44.0403 59.8295 44.0213C60.1188 43.9625 60.4154 43.9476 60.7091 43.9773C60.8071 43.9869 60.9045 44.0016 61.001 44.0213C61.0968 44.0401 61.1916 44.0641 61.2848 44.0933C61.3788 44.1212 61.4728 44.1552 61.5627 44.1912C61.6527 44.2272 61.7406 44.2712 61.8266 44.3172C61.9137 44.3628 61.9985 44.4129 62.0805 44.4671C62.1605 44.5211 62.2404 44.581 62.3164 44.643C62.3928 44.7048 62.4655 44.7708 62.5343 44.8409C62.6043 44.9089 62.6702 44.9829 62.7342 45.0588C62.7942 45.1348 62.8542 45.2148 62.9081 45.2967C62.9624 45.3781 63.0124 45.4622 63.0581 45.5486C63.1041 45.6346 63.146 45.7245 63.184 45.8145C63.2217 45.9046 63.2544 45.9967 63.282 46.0904C63.3118 46.1834 63.3359 46.2782 63.3539 46.3743C63.3746 46.4706 63.3893 46.568 63.3979 46.6661C63.4082 46.7638 63.4136 46.8618 63.4139 46.96C63.4136 47.0588 63.4082 47.1576 63.3979 47.2559C63.3891 47.3533 63.3745 47.4501 63.3539 47.5457C63.3359 47.6424 63.3118 47.7379 63.282 47.8316C63.2541 47.9252 63.2214 48.0173 63.184 48.1075C63.146 48.1975 63.1041 48.2874 63.0581 48.3734C63.0121 48.4593 62.9621 48.5433 62.9081 48.6253C62.8542 48.7072 62.7942 48.7872 62.7342 48.8612C62.6702 48.9391 62.6043 49.0111 62.5343 49.0811C62.4655 49.1512 62.3928 49.2173 62.3164 49.279C62.2404 49.341 62.1605 49.3989 62.0805 49.4529C61.9985 49.5078 61.9137 49.5585 61.8266 49.6048C61.741 49.651 61.6529 49.6924 61.5627 49.7288C61.472 49.7671 61.3792 49.8005 61.2848 49.8287C61.1929 49.8567 61.0969 49.8807 61.001 49.9007C60.8082 49.9399 60.6119 49.9593 60.4152 49.9587C60.3164 49.959 60.2177 49.9543 60.1194 49.9447C60.0221 49.9349 59.9253 49.9203 59.8295 49.9007C59.7335 49.8807 59.6376 49.8567 59.5436 49.8287C59.45 49.8002 59.3579 49.7668 59.2677 49.7288C59.1769 49.6924 59.0881 49.651 59.0019 49.6048C58.9159 49.5589 58.8319 49.5069 58.75 49.4529C58.6681 49.3995 58.5893 49.3414 58.5141 49.279C58.4375 49.2168 58.3641 49.1507 58.2942 49.0811C58.2262 49.0111 58.1582 48.9391 58.0962 48.8612C58.0338 48.7859 57.9757 48.7072 57.9223 48.6253C57.8683 48.5433 57.8164 48.4593 57.7704 48.3734C57.7244 48.2874 57.6824 48.1975 57.6464 48.1075C57.6084 48.0173 57.575 47.9252 57.5465 47.8316C57.5185 47.7377 57.4945 47.6417 57.4745 47.5457C57.4545 47.4498 57.4405 47.3518 57.4305 47.2559Z"/>
</mask>
<path d="M50.4188 72.1112C64.2897 72.1112 75.5746 60.8287 75.5746 46.9608C75.567 40.2914 72.9143 33.8973 68.1983 29.1813C63.4823 24.4653 57.0882 21.8126 50.4188 21.805C36.5509 21.805 25.2686 33.0899 25.2686 46.9608C25.2794 53.3061 27.6789 59.4147 31.9897 64.0709L29.3882 73.7761C29.2346 74.3491 29.2544 74.9547 29.445 75.5165C29.6357 76.0782 29.9887 76.5708 30.4594 76.9318C30.93 77.2929 31.4972 77.5063 32.0892 77.5449C32.6811 77.5836 33.2712 77.4458 33.7849 77.149L43.9594 71.27C46.0669 71.8297 48.2383 72.1125 50.4188 72.1112ZM42.073 65.4341L37.057 68.3329L38.2301 63.9568C38.3711 63.4307 38.3662 62.8762 38.2159 62.3527C38.0656 61.8292 37.7755 61.3566 37.3769 60.9855C35.4406 59.2002 33.8973 57.0313 32.8452 54.6169C31.7931 52.2025 31.2553 49.5955 31.266 46.9618C31.2674 42.9189 32.5485 38.9802 34.9258 35.7101C37.3031 32.44 40.6544 30.0063 44.4997 28.7578C48.345 27.5093 52.4868 27.51 56.3317 28.7598C60.1765 30.0096 63.5271 32.4444 65.9032 35.7154C68.2794 38.9863 69.5592 42.9254 69.5592 46.9683C69.5593 51.0112 68.2796 54.9503 65.9035 58.2213C63.5274 61.4923 60.1769 63.9272 56.3321 65.1771C52.4873 66.4271 48.3455 66.4279 44.5002 65.1794C44.1004 65.0493 43.6777 65.0046 43.2596 65.0484C42.8415 65.0922 42.4372 65.2234 42.073 65.4335V65.4341ZM99.9599 49.1025C99.9925 47.8754 100.026 46.6066 99.9677 45.2855C99.8095 41.5948 98.2252 38.1094 95.5486 35.5634C92.8719 33.0173 89.3117 31.6093 85.6176 31.6357C79.6888 18.0714 66.1437 8.56738 50.4188 8.56738C34.6939 8.56738 21.1544 18.0712 15.2254 31.6355C11.5322 31.6093 7.9728 33.0168 5.29641 35.5619C2.62001 38.107 1.03532 41.5911 0.875852 45.2809C0.817078 46.6068 0.850863 47.8758 0.883449 49.1031C0.918034 50.3997 0.953618 51.7405 0.887047 53.2473C0.728304 57.0247 2.07402 60.7109 4.62911 63.4976C7.1842 66.2843 10.7401 67.944 14.5171 68.1128C14.7407 68.1232 14.9639 68.1283 15.1866 68.1283C17.0692 68.1295 18.9328 67.7529 20.6672 67.0208C21.3919 66.7172 21.9681 66.1409 22.2716 65.4162C22.575 64.6915 22.5814 63.8765 22.2893 63.1471C22.253 63.0056 22.1976 62.8697 22.1246 62.7431C19.4379 57.9168 18.0279 52.4845 18.0282 46.9608C18.0282 29.0976 32.5586 14.5648 50.4188 14.5648C68.279 14.5648 82.815 29.0984 82.815 46.9608C82.836 54.5219 80.2031 61.8507 75.3751 67.6698C70.5471 73.4889 63.8303 77.4293 56.3952 78.8043C55.612 77.0316 54.234 75.5883 52.4995 74.7238C50.765 73.8593 48.783 73.6279 46.8961 74.0697C45.0091 74.5115 43.3358 75.5987 42.1653 77.1433C40.9949 78.6879 40.4009 80.593 40.486 82.5291C40.5711 84.4652 41.33 86.3107 42.6315 87.7467C43.9329 89.1827 45.6952 90.1188 47.6137 90.3933C49.5321 90.6678 51.4862 90.2634 53.1381 89.2501C54.7901 88.2367 56.036 86.678 56.6607 84.8434C61.9423 83.9698 66.9833 82.003 71.4611 79.069C75.9388 76.135 79.7547 72.2983 82.6643 67.8047C83.6461 68.0193 84.6482 68.1279 85.6532 68.1285C85.8735 68.1285 86.0944 68.1235 86.3159 68.1134C88.188 68.0328 90.0258 67.5842 91.7245 66.7933C93.4232 66.0023 94.9494 64.8845 96.216 63.5036C97.4827 62.1228 98.4649 60.5059 99.1066 58.7454C99.7483 56.985 100.037 55.1153 99.9559 53.2433C99.8896 51.7413 99.9254 50.3993 99.9599 49.1025ZM14.7838 62.1214C12.5943 62.0247 10.5325 61.0637 9.05057 59.449C7.56865 57.8343 6.78757 55.6979 6.87863 53.5081C6.9544 51.7931 6.91421 50.2794 6.87863 48.9435C6.84744 47.769 6.81865 46.6599 6.86763 45.5422C6.94504 43.7614 7.5954 42.0532 8.72192 40.6718C9.84843 39.2904 11.3909 38.3097 13.1197 37.8756C11.2295 45.647 11.8096 53.8144 14.779 61.2408L14.7754 61.2422C14.8921 61.5396 15.0127 61.8357 15.137 62.1304C15.0201 62.1298 14.9024 62.1268 14.7838 62.1214ZM48.7925 84.4798C48.3343 84.4798 47.8864 84.344 47.5054 84.0895C47.1244 83.835 46.8274 83.4732 46.652 83.0499C46.4766 82.6267 46.4306 82.1609 46.52 81.7115C46.6093 81.262 46.8298 80.8492 47.1537 80.5252C47.4777 80.2011 47.8904 79.9804 48.3398 79.8909C48.7891 79.8014 49.2549 79.8471 49.6783 80.0223C50.1017 80.1976 50.4636 80.4944 50.7182 80.8753C50.9729 81.2562 51.1089 81.704 51.1091 82.1622V82.1666C51.1076 82.7802 50.8629 83.3682 50.4287 83.8018C49.9945 84.2354 49.4061 84.4792 48.7925 84.4798ZM93.9644 53.5039C94.0111 54.5896 93.8434 55.6739 93.4708 56.6947C93.0982 57.7155 92.5281 58.6529 91.7931 59.4532C91.058 60.2536 90.1724 60.9012 89.1869 61.3591C88.2014 61.817 87.1353 62.0761 86.0496 62.1218C85.9345 62.1272 85.8196 62.1302 85.705 62.1306C85.7099 62.1194 85.7107 62.1069 85.7072 62.0952C88.981 54.4526 89.6885 45.9545 87.7235 37.8758C89.4531 38.31 90.9961 39.2913 92.1227 40.6735C93.2494 42.0558 93.8993 43.765 93.9758 45.5466C94.0251 46.6597 93.9958 47.7688 93.9646 48.9431C93.929 50.279 93.8886 51.7929 93.9644 53.5039ZM43.4127 46.6669C43.4223 46.7646 43.427 46.8627 43.4267 46.9608C43.427 47.0596 43.4223 47.1583 43.4127 47.2567C43.4027 47.3526 43.3867 47.4506 43.3687 47.5465C43.3507 47.6425 43.3247 47.7385 43.2967 47.8324C43.2687 47.9264 43.2347 48.0183 43.1968 48.1083C43.1588 48.1983 43.1168 48.2882 43.0708 48.3742C43.0248 48.4601 42.9748 48.5441 42.9209 48.6261C42.8674 48.708 42.8094 48.7867 42.7469 48.862C42.685 48.9399 42.617 49.0119 42.549 49.0819C42.4791 49.1515 42.4057 49.2176 42.3291 49.2798C42.2532 49.3418 42.1732 49.3997 42.0932 49.4557C42.0113 49.5077 41.9273 49.5597 41.8393 49.6056C41.7537 49.6518 41.6656 49.6932 41.5755 49.7296C41.4853 49.7676 41.3932 49.801 41.2996 49.8295C41.2056 49.8575 41.1097 49.8815 41.0137 49.9015C40.9179 49.9211 40.8211 49.9357 40.7238 49.9455C40.527 49.9642 40.3289 49.9642 40.1321 49.9455C40.0348 49.9357 39.938 49.9211 39.8422 49.9015C39.7463 49.8815 39.6503 49.8575 39.5563 49.8295C39.4627 49.801 39.3706 49.7676 39.2805 49.7296C39.1903 49.6932 39.1022 49.6518 39.0166 49.6056C38.9286 49.5597 38.8447 49.5077 38.7627 49.4557C38.6827 49.3997 38.6028 49.3418 38.5268 49.2798C38.4502 49.2176 38.3768 49.1515 38.3069 49.0819C38.2389 49.0119 38.171 48.9399 38.109 48.862C38.0466 48.7867 37.9885 48.708 37.9351 48.6261C37.8817 48.5441 37.8318 48.4601 37.7851 48.3742C37.7391 48.2882 37.6972 48.1983 37.6592 48.1083C37.6212 48.0183 37.5892 47.9264 37.5592 47.8324C37.5292 47.7385 37.5072 47.6425 37.4872 47.5465C37.4475 47.3539 37.4281 47.1575 37.4293 46.9608C37.4293 46.8628 37.4353 46.7649 37.4433 46.6669C37.4513 46.569 37.4693 46.471 37.4872 46.3751C37.5052 46.2791 37.5312 46.1851 37.5592 46.0912C37.5872 45.9972 37.6212 45.9053 37.6592 45.8153C37.6972 45.7253 37.7391 45.6354 37.7851 45.5494C37.8774 45.3763 37.9858 45.2123 38.109 45.0596C38.171 44.9837 38.2389 44.9097 38.3069 44.8417C38.3768 44.7721 38.4502 44.706 38.5268 44.6438C38.6028 44.5818 38.6827 44.5219 38.7627 44.4679C38.8447 44.4137 38.9295 44.3636 39.0166 44.318C39.1025 44.272 39.1905 44.23 39.2805 44.192C39.3704 44.156 39.4644 44.122 39.5563 44.0941C39.6503 44.0651 39.7457 44.0411 39.8422 44.0221C40.2288 43.9436 40.6272 43.9436 41.0137 44.0221C41.1102 44.0411 41.2056 44.0651 41.2996 44.0941C41.3915 44.122 41.4855 44.156 41.5755 44.192C41.6654 44.228 41.7534 44.272 41.8393 44.318C41.9264 44.3636 42.0112 44.4137 42.0932 44.4679C42.1732 44.5219 42.2532 44.5818 42.3291 44.6438C42.4057 44.706 42.4791 44.7721 42.549 44.8417C42.617 44.9097 42.685 44.9837 42.7469 45.0596C42.8701 45.2123 42.9785 45.3763 43.0708 45.5494C43.1168 45.6354 43.1588 45.7253 43.1968 45.8153C43.2347 45.9053 43.2667 45.9972 43.2967 46.0912C43.3267 46.1851 43.3487 46.2811 43.3687 46.3751C43.3887 46.469 43.4027 46.5682 43.4127 46.6661V46.6669ZM47.4229 46.9608C47.4226 46.5672 47.4998 46.1773 47.6503 45.8135C47.8007 45.4497 48.0213 45.1192 48.2995 44.8407C48.5777 44.5622 48.9081 44.3413 49.2717 44.1905C49.6354 44.0398 50.0251 43.9622 50.4188 43.9621H50.4244C51.0174 43.9627 51.5969 44.139 52.0896 44.4688C52.5824 44.7987 52.9663 45.2672 53.1928 45.8152C53.4194 46.3632 53.4784 46.966 53.3623 47.5475C53.2463 48.129 52.9605 48.6631 52.541 49.0822C52.1215 49.5013 51.5872 49.7866 51.0056 49.9021C50.424 50.0176 49.8212 49.958 49.2734 49.731C48.7256 49.5039 48.2575 49.1196 47.9281 48.6265C47.5987 48.1334 47.4229 47.5538 47.4229 46.9608ZM57.4305 47.2559C57.4209 47.1575 57.4162 47.0588 57.4165 46.96C57.4162 46.8619 57.4209 46.7638 57.4305 46.6661C57.4405 46.5682 57.4565 46.4702 57.4745 46.3743C57.4925 46.2783 57.5185 46.1843 57.5465 46.0904C57.5747 45.9967 57.6081 45.9046 57.6464 45.8145C57.6824 45.7245 57.7264 45.6346 57.7704 45.5486C57.8643 45.3761 57.9734 45.2122 58.0962 45.0588C58.1582 44.9829 58.2262 44.9089 58.2942 44.8409C58.3641 44.7713 58.4375 44.7052 58.5141 44.643C58.5893 44.5799 58.668 44.5212 58.75 44.4671C58.8319 44.4138 58.9159 44.3638 59.0019 44.3172C59.0878 44.2712 59.1778 44.2292 59.2677 44.1912C59.3577 44.1532 59.4517 44.1212 59.5436 44.0933C59.6376 44.0643 59.733 44.0403 59.8295 44.0213C60.1188 43.9625 60.4154 43.9476 60.7091 43.9773C60.8071 43.9869 60.9045 44.0016 61.001 44.0213C61.0968 44.0401 61.1916 44.0641 61.2848 44.0933C61.3788 44.1212 61.4728 44.1552 61.5627 44.1912C61.6527 44.2272 61.7406 44.2712 61.8266 44.3172C61.9137 44.3628 61.9985 44.4129 62.0805 44.4671C62.1605 44.5211 62.2404 44.581 62.3164 44.643C62.3928 44.7048 62.4655 44.7708 62.5343 44.8409C62.6043 44.9089 62.6702 44.9829 62.7342 45.0588C62.7942 45.1348 62.8542 45.2148 62.9081 45.2967C62.9624 45.3781 63.0124 45.4622 63.0581 45.5486C63.1041 45.6346 63.146 45.7245 63.184 45.8145C63.2217 45.9046 63.2544 45.9967 63.282 46.0904C63.3118 46.1834 63.3359 46.2782 63.3539 46.3743C63.3746 46.4706 63.3893 46.568 63.3979 46.6661C63.4082 46.7638 63.4136 46.8618 63.4139 46.96C63.4136 47.0588 63.4082 47.1576 63.3979 47.2559C63.3891 47.3533 63.3745 47.4501 63.3539 47.5457C63.3359 47.6424 63.3118 47.7379 63.282 47.8316C63.2541 47.9252 63.2214 48.0173 63.184 48.1075C63.146 48.1975 63.1041 48.2874 63.0581 48.3734C63.0121 48.4593 62.9621 48.5433 62.9081 48.6253C62.8542 48.7072 62.7942 48.7872 62.7342 48.8612C62.6702 48.9391 62.6043 49.0111 62.5343 49.0811C62.4655 49.1512 62.3928 49.2173 62.3164 49.279C62.2404 49.341 62.1605 49.3989 62.0805 49.4529C61.9985 49.5078 61.9137 49.5585 61.8266 49.6048C61.741 49.651 61.6529 49.6924 61.5627 49.7288C61.472 49.7671 61.3792 49.8005 61.2848 49.8287C61.1929 49.8567 61.0969 49.8807 61.001 49.9007C60.8082 49.9399 60.6119 49.9593 60.4152 49.9587C60.3164 49.959 60.2177 49.9543 60.1194 49.9447C60.0221 49.9349 59.9253 49.9203 59.8295 49.9007C59.7335 49.8807 59.6376 49.8567 59.5436 49.8287C59.45 49.8002 59.3579 49.7668 59.2677 49.7288C59.1769 49.6924 59.0881 49.651 59.0019 49.6048C58.9159 49.5589 58.8319 49.5069 58.75 49.4529C58.6681 49.3995 58.5893 49.3414 58.5141 49.279C58.4375 49.2168 58.3641 49.1507 58.2942 49.0811C58.2262 49.0111 58.1582 48.9391 58.0962 48.8612C58.0338 48.7859 57.9757 48.7072 57.9223 48.6253C57.8683 48.5433 57.8164 48.4593 57.7704 48.3734C57.7244 48.2874 57.6824 48.1975 57.6464 48.1075C57.6084 48.0173 57.575 47.9252 57.5465 47.8316C57.5185 47.7377 57.4945 47.6417 57.4745 47.5457C57.4545 47.4498 57.4405 47.3518 57.4305 47.2559Z" fill="#9F7834" stroke="white" stroke-width="0.6" mask="url(#path-2-inside-1_2702_9033)"/>
</svg>
