<svg width="19" height="20" viewBox="0 0 19 20" fill="none" xmlns="http://www.w3.org/2000/svg">
<path d="M17.3684 14.7368C17.0196 14.7382 16.6813 14.8563 16.4074 15.0721L15.0668 14.2105L16.4074 13.3489C16.6813 13.5648 17.0196 13.6828 17.3684 13.6842C17.6807 13.6842 17.986 13.5916 18.2456 13.4181C18.5053 13.2446 18.7077 12.998 18.8272 12.7095C18.9467 12.421 18.9779 12.1035 18.917 11.7972C18.8561 11.4909 18.7057 11.2096 18.4849 10.9888C18.2641 10.768 17.9827 10.6176 17.6765 10.5567C17.3702 10.4957 17.0527 10.527 16.7642 10.6465C16.4757 10.766 16.2291 10.9684 16.0556 11.2281C15.8821 11.4877 15.7895 11.793 15.7895 12.1053C15.7905 12.2266 15.8057 12.3474 15.8347 12.4653L14.7368 13.1711V5.17106C14.7374 4.96356 14.6967 4.75802 14.6173 4.56632C14.5379 4.37463 14.4213 4.20057 14.2742 4.05422L10.6805 0.462638C10.5343 0.315493 10.3604 0.198832 10.1687 0.119418C9.97712 0.0400038 9.77164 -0.000584421 9.56421 6.35762e-06H2.10526C1.54691 6.35762e-06 1.01143 0.22181 0.616617 0.616623C0.221804 1.01144 0 1.54692 0 2.10527V17.8947C0 18.4531 0.221804 18.9886 0.616617 19.3834C1.01143 19.7782 1.54691 20 2.10526 20H12.6316C13.1899 20 13.7254 19.7782 14.1202 19.3834C14.515 18.9886 14.7368 18.4531 14.7368 17.8947V15.25L15.8347 15.9558C15.8057 16.0736 15.7905 16.1944 15.7895 16.3158C15.7895 16.6281 15.8821 16.9333 16.0556 17.193C16.2291 17.4527 16.4757 17.655 16.7642 17.7745C17.0527 17.8941 17.3702 17.9253 17.6765 17.8644C17.9827 17.8035 18.2641 17.6531 18.4849 17.4323C18.7057 17.2115 18.8561 16.9301 18.917 16.6238C18.9779 16.3175 18.9467 16.0001 18.8272 15.7116C18.7077 15.423 18.5053 15.1764 18.2456 15.0029C17.986 14.8294 17.6807 14.7368 17.3684 14.7368ZM17.3684 11.5789C17.4725 11.5789 17.5743 11.6098 17.6608 11.6676C17.7474 11.7255 17.8148 11.8077 17.8547 11.9039C17.8945 12 17.9049 12.1059 17.8846 12.2079C17.8643 12.31 17.8142 12.4038 17.7406 12.4774C17.667 12.551 17.5732 12.6012 17.4711 12.6215C17.369 12.6418 17.2632 12.6314 17.167 12.5915C17.0708 12.5517 16.9886 12.4842 16.9308 12.3977C16.873 12.3111 16.8421 12.2094 16.8421 12.1053C16.8421 11.9657 16.8976 11.8318 16.9963 11.7331C17.095 11.6344 17.2288 11.5789 17.3684 11.5789ZM3.68421 10.5263C3.54462 10.5263 3.41075 10.4709 3.31205 10.3722C3.21334 10.2735 3.15789 10.1396 3.15789 10C3.15789 9.86042 3.21334 9.72654 3.31205 9.62784C3.41075 9.52914 3.54462 9.47369 3.68421 9.47369H11.0526C11.1922 9.47369 11.3261 9.52914 11.4248 9.62784C11.5235 9.72654 11.5789 9.86042 11.5789 10C11.5789 10.1396 11.5235 10.2735 11.4248 10.3722C11.3261 10.4709 11.1922 10.5263 11.0526 10.5263H3.68421ZM4.21053 13.1579C4.21053 13.262 4.17966 13.3638 4.12182 13.4503C4.06399 13.5369 3.98179 13.6043 3.88562 13.6441C3.78945 13.684 3.68363 13.6944 3.58153 13.6741C3.47944 13.6538 3.38565 13.6037 3.31205 13.5301C3.23844 13.4565 3.18831 13.3627 3.16801 13.2606C3.1477 13.1585 3.15812 13.0527 3.19796 12.9565C3.23779 12.8603 3.30525 12.7781 3.3918 12.7203C3.47836 12.6624 3.58011 12.6316 3.68421 12.6316C3.8238 12.6316 3.95767 12.687 4.05637 12.7857C4.15507 12.8844 4.21053 13.0183 4.21053 13.1579ZM11.0526 7.89474H3.68421C3.54462 7.89474 3.41075 7.83929 3.31205 7.74059C3.21334 7.64188 3.15789 7.50801 3.15789 7.36843C3.15789 7.22884 3.21334 7.09497 3.31205 6.99626C3.41075 6.89756 3.54462 6.84211 3.68421 6.84211H11.0526C11.1922 6.84211 11.3261 6.89756 11.4248 6.99626C11.5235 7.09497 11.5789 7.22884 11.5789 7.36843C11.5789 7.50801 11.5235 7.64188 11.4248 7.74059C11.3261 7.83929 11.1922 7.89474 11.0526 7.89474ZM3.15789 4.73685C3.15789 4.59726 3.21334 4.46339 3.31205 4.36469C3.41075 4.26598 3.54462 4.21053 3.68421 4.21053H7.89473C8.03432 4.21053 8.16819 4.26598 8.2669 4.36469C8.3656 4.46339 8.42105 4.59726 8.42105 4.73685C8.42105 4.87643 8.3656 5.0103 8.2669 5.10901C8.16819 5.20771 8.03432 5.26316 7.89473 5.26316H3.68421C3.54462 5.26316 3.41075 5.20771 3.31205 5.10901C3.21334 5.0103 3.15789 4.87643 3.15789 4.73685ZM3.3121 15.4174L5.94368 12.7858C6.04295 12.6899 6.1759 12.6369 6.31389 12.6381C6.45189 12.6393 6.5839 12.6946 6.68148 12.7922C6.77906 12.8898 6.83442 13.0218 6.83562 13.1598C6.83682 13.2978 6.78377 13.4307 6.68789 13.53L4.05631 16.1616C3.95705 16.2575 3.8241 16.3105 3.6861 16.3093C3.54811 16.3081 3.4161 16.2528 3.31852 16.1552C3.22093 16.0576 3.16558 15.9256 3.16438 15.7876C3.16318 15.6496 3.21623 15.5166 3.3121 15.4174ZM6.8421 15.7895C6.8421 15.8936 6.81124 15.9953 6.7534 16.0819C6.69557 16.1684 6.61337 16.2359 6.5172 16.2757C6.42103 16.3156 6.3152 16.326 6.21311 16.3057C6.11101 16.2854 6.01723 16.2352 5.94363 16.1616C5.87002 16.088 5.81989 15.9942 5.79958 15.8922C5.77928 15.7901 5.7897 15.6842 5.82954 15.5881C5.86937 15.4919 5.93683 15.4097 6.02338 15.3519C6.10993 15.294 6.21169 15.2632 6.31579 15.2632C6.45538 15.2632 6.58925 15.3186 6.68795 15.4173C6.78665 15.516 6.8421 15.6499 6.8421 15.7895ZM10 17.3684C9.88626 17.3685 9.77554 17.3318 9.68443 17.2637C9.59332 17.1956 9.52672 17.0999 9.4946 16.9907C9.46248 16.8816 9.46656 16.7651 9.50625 16.6585C9.54593 16.5519 9.61908 16.461 9.71473 16.3995L13.6842 13.8479V15.0995L10.2847 17.2847C10.1999 17.3396 10.101 17.3687 10 17.3684ZM12.9395 4.21053H11.0526C10.913 4.21053 10.7792 4.15508 10.6805 4.05638C10.5818 3.95767 10.5263 3.8238 10.5263 3.68422V1.79685L12.9395 4.21053ZM17.3684 16.8421C17.2643 16.8421 17.1626 16.8112 17.076 16.7534C16.9895 16.6956 16.922 16.6134 16.8822 16.5172C16.8423 16.421 16.8319 16.3152 16.8522 16.2131C16.8725 16.111 16.9226 16.0172 16.9963 15.9436C17.0699 15.87 17.1636 15.8199 17.2657 15.7996C17.3678 15.7793 17.4737 15.7897 17.5698 15.8295C17.666 15.8694 17.7482 15.9368 17.806 16.0234C17.8639 16.1099 17.8947 16.2117 17.8947 16.3158C17.8947 16.4554 17.8393 16.5892 17.7406 16.688C17.6419 16.7867 17.508 16.8421 17.3684 16.8421Z" fill="white"/>
</svg>
