<svg width="100" height="71" viewBox="0 0 100 71" fill="none" xmlns="http://www.w3.org/2000/svg">
<path d="M91.2109 0H8.78906C3.93301 0 0 3.95742 0 8.78906V61.5234C0 66.3838 3.96191 70.3125 8.78906 70.3125H91.2109C96.0264 70.3125 100 66.4004 100 61.5234V8.78906C100 3.96602 96.0826 0 91.2109 0ZM89.9801 5.85938L56.2148 39.4467C54.5547 41.1068 52.3477 42.0209 50 42.0209C47.6523 42.0209 45.4453 41.1066 43.7797 39.4412L10.0199 5.85938H89.9801ZM5.85938 60.3309V9.98535L31.1793 35.1719L5.85938 60.3309ZM10.0236 64.4531L35.3336 39.3041L39.642 43.5898C42.4088 46.3566 46.0873 47.8803 50 47.8803C53.9127 47.8803 57.5912 46.3566 60.3525 43.5953L64.6664 39.3041L89.9764 64.4531H10.0236ZM94.1406 60.3309L68.8207 35.1719L94.1406 9.98535V60.3309Z" fill="#0E3F5C"/>
</svg>
