<svg width="100" height="100" viewBox="0 0 100 100" fill="none" xmlns="http://www.w3.org/2000/svg">
<path d="M10.7139 4.12207H75C77.762 4.12207 80.4112 5.21979 82.3643 7.17285C84.317 9.12578 85.414 11.7744 85.4141 14.5361V29.1221H89.2861C92.048 29.1222 94.6965 30.2199 96.6494 32.1729C98.6024 34.1258 99.7001 36.7742 99.7002 39.5361V93.1084L99.6934 93.3164C99.6626 93.8017 99.5236 94.2748 99.2861 94.7012C99.0148 95.1884 98.6237 95.5982 98.1494 95.8916C97.6751 96.185 97.1333 96.3527 96.5762 96.3779C96.0192 96.4031 95.4646 96.2854 94.9658 96.0361H94.9668L82.1875 89.6436L82.1865 89.6426L81.9824 89.5488C81.5697 89.3738 81.13 89.2712 80.6826 89.2441L80.458 89.2363H39.2861C36.5242 89.2363 33.8749 88.1395 31.9219 86.1865C29.9688 84.2335 28.8711 81.5843 28.8711 78.8223V67.8076H23.9277C23.1607 67.8089 22.4137 68.0379 21.7803 68.4619L21.5166 68.6562L5.61621 81.377C5.13506 81.7622 4.55477 82.0043 3.94238 82.0742C3.32995 82.1441 2.70987 82.0395 2.1543 81.7725C1.5987 81.5054 1.12983 81.0863 0.801758 80.5645C0.473754 80.0426 0.299573 79.4386 0.299805 78.8223V14.5361C0.299916 11.7742 1.39763 9.12581 3.35059 7.17285C5.30354 5.21989 7.95198 4.12218 10.7139 4.12207ZM85.4141 57.3936C85.4141 60.1556 84.3173 62.8048 82.3643 64.7578C80.4112 66.7109 77.762 67.8076 75 67.8076H35.4141V78.8223C35.4141 79.8489 35.822 80.8336 36.5479 81.5596C37.2739 82.2856 38.2594 82.6934 39.2861 82.6934H80.457C81.9719 82.6946 83.467 83.0254 84.8398 83.6602L85.1123 83.791L92.7227 87.5977L93.1572 87.8145V39.5361C93.1571 38.5095 92.7494 37.5248 92.0234 36.7988C91.2975 36.0729 90.3127 35.6652 89.2861 35.665H85.4141V57.3936ZM10.5225 10.6699C9.56553 10.7174 8.65725 11.1181 7.97656 11.7988C7.25063 12.5248 6.84288 13.5095 6.84277 14.5361V72.0137L7.33008 71.624L17.4307 63.5498C19.1596 62.1657 21.2813 61.3712 23.4863 61.2754L23.9287 61.2646H75C76.0268 61.2646 77.0113 60.8569 77.7373 60.1309C78.4633 59.4048 78.8711 58.4203 78.8711 57.3936V14.5361C78.871 13.5095 78.4632 12.5248 77.7373 11.7988C77.0113 11.0729 76.0267 10.665 75 10.665H10.7139L10.5225 10.6699ZM42.8574 46.9707C43.2295 46.9707 43.5979 47.0401 43.9434 47.1758L44.0898 47.2383L44.0986 47.2422C44.4959 47.4086 44.8618 47.6413 45.1816 47.9297C45.7451 48.5156 46.0783 49.2826 46.123 50.0908L46.1289 50.2529C46.123 50.6784 46.034 51.0987 45.8672 51.4902L45.8633 51.498L45.8604 51.5059C45.7149 51.9077 45.4828 52.273 45.1807 52.5752C44.8786 52.8772 44.514 53.1095 44.1123 53.2549L44.1025 53.2578L44.0938 53.2617C43.7043 53.4332 43.283 53.5224 42.8574 53.5225L42.6982 53.5176C42.327 53.4983 41.9621 53.4118 41.6211 53.2617L41.6113 53.2578L41.6025 53.2549L41.4531 53.1963C41.11 53.0504 40.7976 52.8395 40.5332 52.5752C40.231 52.273 39.9989 51.9077 39.8535 51.5059L39.8477 51.4902L39.7881 51.3418C39.6595 50.994 39.5913 50.6264 39.5859 50.2549C39.5987 49.3898 39.9345 48.5604 40.5283 47.9316C40.7685 47.7146 41.0352 47.5294 41.3213 47.3799L41.6162 47.2422L41.624 47.2383C41.9627 47.0838 42.3275 46.9945 42.6982 46.9746L42.8574 46.9707ZM39.3789 40.25C39.3555 38.6706 39.8005 37.1194 40.6582 35.793C41.5151 34.4679 42.7453 33.4266 44.1934 32.7998C45.004 32.4636 45.6849 31.8746 46.1348 31.1211C46.5845 30.3676 46.7791 29.4892 46.6904 28.6162C46.6018 27.7433 46.2346 26.922 45.6426 26.2744C45.1244 25.7077 44.4582 25.3001 43.7227 25.0957L43.4033 25.0205L43.4004 25.0195L43.2197 24.9912C42.3171 24.8676 41.3965 25.0457 40.6035 25.501C39.8107 25.9563 39.193 26.6613 38.8447 27.5029L38.7783 27.6738C38.4817 28.4834 37.8772 29.1433 37.0967 29.5098C36.3158 29.8762 35.422 29.9193 34.6094 29.6299C33.7967 29.3404 33.1312 28.7416 32.7578 27.9639C32.4151 27.2499 32.3446 26.4386 32.5537 25.6797H32.5625L32.6328 25.4795C33.2235 23.8098 34.2222 22.3143 35.5381 21.1289C36.854 19.9435 38.4458 19.106 40.168 18.6924C41.8901 18.2788 43.6886 18.3014 45.3994 18.7598C47.1101 19.2182 48.6793 20.0972 49.9639 21.3164C51.2485 22.5358 52.2079 24.0576 52.7549 25.7422C53.3018 27.4268 53.419 29.2215 53.0957 30.9629C52.7724 32.7041 52.0193 34.337 50.9043 35.7129C49.7891 37.0889 48.3467 38.1648 46.71 38.8418L46.6895 38.8496L46.6709 38.8613C46.4298 39.0059 46.2325 39.2136 46.1006 39.4619C46.0016 39.6481 45.942 39.8519 45.9248 40.0605L45.9219 40.2549C45.9218 41.1223 45.5763 41.954 44.9629 42.5674C44.3495 43.1808 43.5179 43.5253 42.6504 43.5254C41.7828 43.5254 40.9504 43.1809 40.3369 42.5674C39.7235 41.954 39.379 41.1223 39.3789 40.2549V40.25Z" fill="#9F7834" stroke="white" stroke-width="0.6"/>
</svg>
