<svg width="36" height="29" viewBox="0 0 36 29" fill="none" xmlns="http://www.w3.org/2000/svg">
<path d="M18.1306 2.58873L17.0166 0.90475C16.8977 0.725088 16.7362 0.577675 16.5464 0.475689C16.3567 0.373703 16.1446 0.32032 15.9292 0.320312H11.7295V3.03107L18.1306 2.58873Z" fill="#99E6FC"/>
<path d="M13.9656 2.58873L12.8515 0.90475C12.7327 0.725088 12.5711 0.577676 12.3814 0.475689C12.1916 0.373703 11.9796 0.32032 11.7641 0.320312H7.56445V3.16396L13.9656 2.58873Z" fill="#FD8087"/>
<path d="M29.0557 3.89275C29.0557 3.17275 28.4719 2.58895 27.7519 2.58895H10.0771C9.98138 2.58887 9.88715 2.56509 9.80285 2.51971C9.71854 2.47434 9.64679 2.4088 9.594 2.32893L8.6516 0.904891C8.53281 0.725183 8.37132 0.577724 8.18158 0.475709C7.99185 0.373693 7.77978 0.320302 7.56436 0.320313H1.3038C0.583805 0.320242 0 0.904047 0 1.62405V22.3729C0 22.9488 0.233227 23.4703 0.610594 23.8477C0.987961 24.225 1.50954 24.4582 2.08533 24.4582H2.73748L29.0557 23.1558V3.89275H29.0557Z" fill="#FFD15B"/>
<path d="M29.0562 3.89246V23.1553L27.245 23.2453V3.89246C27.245 3.17246 26.6614 2.58887 25.9414 2.58887H27.752C28.472 2.58887 29.0562 3.17246 29.0562 3.89246Z" fill="#FFC344"/>
<path d="M5.4693 5.5791C4.74923 5.5791 4.1655 6.16284 4.1655 6.88291V22.3412C4.1655 23.4929 3.23836 24.4584 2.08594 24.4584H30.108C30.8281 24.4584 31.4118 23.8747 31.4118 23.1546V6.88291C31.4118 6.16284 30.8281 5.5791 30.108 5.5791H24.4725L23.4483 6.14603L22.2994 5.5791H5.4693Z" fill="#FEF056"/>
<path d="M31.4117 6.88269V23.1544C31.4117 23.8751 30.8281 24.4587 30.1074 24.4587H28.2969C29.0169 24.4587 29.6005 23.8744 29.6005 23.1544V6.88269C29.6005 6.16269 29.0169 5.5791 28.2969 5.5791H30.1074C30.8281 5.5791 31.4117 6.16269 31.4117 6.88269Z" fill="#FFD15B"/>
<path d="M13.9704 21.9229H7.40918C7.02084 21.9229 6.70605 21.6081 6.70605 21.2198V19.2051C6.70605 18.8167 7.02084 18.502 7.40918 18.502H13.9704C14.3587 18.502 14.6735 18.8167 14.6735 19.2051V21.2198C14.6735 21.6081 14.3587 21.9229 13.9704 21.9229Z" fill="#F2FBFF"/>
<path d="M24.8589 13.4464H23.9124V11.169H24.8589C24.9988 11.169 25.1329 11.1135 25.2318 11.0146C25.3307 10.9157 25.3863 10.7816 25.3863 10.6417C25.3863 10.5018 25.3307 10.3677 25.2318 10.2688C25.1329 10.1699 24.9988 10.1144 24.8589 10.1144H23.9124V8.16016C23.9124 8.0203 23.8568 7.88616 23.7579 7.78727C23.659 7.68837 23.5249 7.63281 23.385 7.63281C23.2452 7.63281 23.111 7.68837 23.0121 7.78727C22.9132 7.88616 22.8577 8.0203 22.8577 8.16016V11.7804H21.9111C21.7713 11.7804 21.6371 11.836 21.5382 11.9349C21.4393 12.0338 21.3838 12.1679 21.3838 12.3077C21.3838 12.4476 21.4393 12.5817 21.5382 12.6806C21.6371 12.7795 21.7713 12.8351 21.9111 12.8351H22.8577V15.1124H21.9111C21.7713 15.1124 21.6371 15.1679 21.5382 15.2668C21.4393 15.3657 21.3838 15.4999 21.3838 15.6397C21.3838 15.7796 21.4393 15.9137 21.5382 16.0126C21.6371 16.1115 21.7713 16.1671 21.9111 16.1671H22.8577V18.2884C22.8577 18.4282 22.9132 18.5624 23.0121 18.6613C23.111 18.7602 23.2452 18.8157 23.385 18.8157C23.5249 18.8157 23.659 18.7602 23.7579 18.6613C23.8568 18.5624 23.9124 18.4282 23.9124 18.2884V14.5011H24.8589C24.9988 14.5011 25.1329 14.4455 25.2318 14.3466C25.3307 14.2477 25.3863 14.1136 25.3863 13.9737C25.3863 13.8339 25.3307 13.6997 25.2318 13.6008C25.1329 13.5019 24.9988 13.4464 24.8589 13.4464Z" fill="#8D9CA8"/>
<path d="M14.6741 19.2051V21.2195C14.6741 21.6084 14.3591 21.9227 13.971 21.9227H12.1387C12.5387 21.9227 12.8629 21.5985 12.8629 21.1984V19.2262C12.8629 18.8261 12.5387 18.502 12.1387 18.502H13.971C14.3591 18.502 14.6741 18.817 14.6741 19.2051Z" fill="#DFF6FD"/>
<path d="M35.1562 28.4H19.3066C18.8407 28.4 18.4629 28.0222 18.4629 27.5563V18.5928C18.4629 18.1268 18.8407 17.749 19.3066 17.749H35.1562C35.6222 17.749 36 18.1268 36 18.5928V27.5563C36 28.0223 35.6222 28.4 35.1562 28.4Z" fill="#FD8087"/>
<path d="M35.9996 18.5928V27.5562C35.9996 28.0224 35.6221 28.4 35.1559 28.4H33.3193C33.7996 28.4 34.1891 28.0111 34.1891 27.5309V18.6174C34.1891 18.1456 33.8115 17.7603 33.3418 17.749H35.1559C35.6221 17.749 35.9996 18.1266 35.9996 18.5928Z" fill="#FE5694"/>
<path d="M24.389 8.53272H22.381C22.1167 8.53272 21.9136 8.29886 21.9507 8.03723L22.2984 5.5791H24.4714L24.8192 8.03723C24.8563 8.29886 24.6532 8.53272 24.389 8.53272Z" fill="#9FACBA"/>
<path d="M11.0467 8.6875H7.23438C7.09451 8.6875 6.96038 8.63194 6.86149 8.53304C6.76259 8.43415 6.70703 8.30002 6.70703 8.16016C6.70703 8.0203 6.76259 7.88616 6.86149 7.78727C6.96038 7.68837 7.09451 7.63281 7.23438 7.63281H11.0467C11.1866 7.63281 11.3207 7.68837 11.4196 7.78727C11.5185 7.88616 11.5741 8.0203 11.5741 8.16016C11.5741 8.30002 11.5185 8.43415 11.4196 8.53304C11.3207 8.63194 11.1866 8.6875 11.0467 8.6875ZM12.9707 11.2227H7.23445C7.09459 11.2227 6.96045 11.1671 6.86156 11.0682C6.76266 10.9693 6.7071 10.8352 6.7071 10.6953C6.7071 10.5555 6.76266 10.4214 6.86156 10.3225C6.96045 10.2236 7.09459 10.168 7.23445 10.168H12.9707C13.1106 10.168 13.2447 10.2236 13.3436 10.3225C13.4425 10.4214 13.4981 10.5555 13.4981 10.6953C13.4981 10.8352 13.4425 10.9693 13.3436 11.0682C13.2447 11.1671 13.1106 11.2227 12.9707 11.2227ZM27.5036 19.8564C27.3638 19.8564 27.2296 19.9119 27.1308 20.0108C27.0319 20.1097 26.9763 20.2438 26.9763 20.3837V25.7652C26.9763 25.9051 27.0319 26.0392 27.1308 26.1381C27.2296 26.237 27.3638 26.2926 27.5036 26.2926C27.6435 26.2926 27.7776 26.237 27.8765 26.1381C27.9754 26.0392 28.031 25.9051 28.031 25.7652V20.3837C28.031 20.2438 27.9754 20.1097 27.8765 20.0108C27.7776 19.9119 27.6435 19.8564 27.5036 19.8564ZM25.0409 25.2379H22.4238L25.399 20.6716C25.4509 20.592 25.4803 20.4999 25.4842 20.405C25.488 20.3101 25.4662 20.2159 25.4209 20.1324C25.3756 20.0489 25.3087 19.9791 25.227 19.9306C25.1454 19.882 25.0522 19.8563 24.9572 19.8564H21.5611C21.4213 19.8564 21.2871 19.9119 21.1882 20.0108C21.0893 20.1097 21.0338 20.2438 21.0338 20.3837C21.0338 20.5236 21.0893 20.6577 21.1882 20.7566C21.2871 20.8555 21.4213 20.911 21.5611 20.911H23.9842L21.0089 25.4774C20.9571 25.5569 20.9277 25.649 20.9238 25.7439C20.92 25.8388 20.9418 25.933 20.9871 26.0165C21.0324 26.1 21.0993 26.1698 21.181 26.2184C21.2626 26.2669 21.3558 26.2926 21.4508 26.2926H25.0409C25.1807 26.2926 25.3149 26.237 25.4138 26.1381C25.5127 26.0392 25.5682 25.9051 25.5682 25.7652C25.5682 25.6253 25.5127 25.4912 25.4138 25.3923C25.3149 25.2934 25.1807 25.2379 25.0409 25.2379ZM31.4648 19.8564H29.9664C29.8265 19.8564 29.6924 19.9119 29.5935 20.0108C29.4946 20.1097 29.4391 20.2438 29.4391 20.3837V25.7652C29.4391 25.9051 29.4946 26.0392 29.5935 26.1381C29.6924 26.237 29.8265 26.2926 29.9664 26.2926C30.1063 26.2926 30.2404 26.237 30.3393 26.1381C30.4382 26.0392 30.4937 25.9051 30.4937 25.7652V23.9521C30.8277 23.9503 31.2412 23.9484 31.4648 23.9484C32.6094 23.9484 33.5406 23.0305 33.5406 21.9024C33.5406 20.7742 32.6095 19.8564 31.4648 19.8564ZM31.4648 22.8937C31.2429 22.8937 30.8346 22.8956 30.5012 22.8974C30.5011 22.8761 30.4953 20.9161 30.4953 20.911H31.4648C32.0183 20.911 32.4859 21.3651 32.4859 21.9024C32.4859 22.4397 32.0183 22.8937 31.4648 22.8937Z" fill="#F2FBFF"/>
</svg>
