<svg width="60" height="60" viewBox="0 0 60 60" fill="none" xmlns="http://www.w3.org/2000/svg">
<rect x="0.5" y="0.5" width="59" height="59" rx="9.5" fill="#FFF6E8" stroke="#F3F3F5"/>
<path d="M17.4794 32.9785C17.3024 32.4919 16.7644 32.2411 16.2778 32.4182L14.6169 33.0228C14.4361 33.0885 14.2799 33.2084 14.1696 33.366C14.0592 33.5236 14 33.7113 14 33.9037V45.0625C14 45.5802 14.4197 46 14.9375 46H18.999C19.1084 46 19.2169 45.9809 19.3196 45.9434L20.9806 45.3389C21.4672 45.1618 21.718 44.6238 21.5409 44.1373L17.4794 32.9785ZM45.7314 36.0142C45.2548 34.705 43.7588 34.0852 42.496 34.674L38.073 36.7361C38.0678 36.9472 38.0467 37.1577 38.0101 37.3657C37.6061 39.6565 35.4138 41.1916 33.123 40.7877L26.8102 39.6746C26.3003 39.5847 25.9598 39.0984 26.0497 38.5885C26.1397 38.0786 26.6259 37.7381 27.1358 37.8281L33.4486 38.9412C34.7233 39.1659 35.9389 38.3148 36.1636 37.0401C36.3884 35.7654 35.5372 34.5499 34.2626 34.3252L31.2492 33.7939C30.3475 33.6349 29.5067 33.2929 28.7501 32.7774C26.5509 31.2791 23.7449 30.9279 21.2442 31.8381L19.3152 32.5403L23.4131 43.7987L31.3551 44.8902C32.3272 45.0238 33.3003 44.8536 34.1693 44.3982L44.6022 38.9304C45.6556 38.3782 46.1382 37.1319 45.7314 36.0142ZM29.2611 19H35.6139L37.0139 15.2667C37.2437 14.6538 36.7906 14 36.1361 14H28.7389C28.0844 14 27.6312 14.6538 27.8611 15.2667L29.2611 19Z" fill="#AD8138"/>
<path d="M29.4868 31.0193C29.1651 30.6353 29.2009 30.063 29.5753 29.7237C29.959 29.376 30.5519 29.4051 30.8996 29.7888C31.3031 30.2341 31.9391 30.4999 32.6007 30.4999C33.2241 30.4999 33.6618 30.1353 33.7248 29.7826C33.8079 29.317 33.094 29.0151 32.8732 28.9337C31.8045 28.5395 30.8554 28.1171 30.8156 28.0992C30.7705 28.0791 30.727 28.0554 30.6856 28.0284C29.9349 27.5391 29.5481 26.6809 29.6762 25.7888C29.8124 24.8401 30.5049 24.0676 31.4834 23.7728C33.3585 23.2078 34.9073 24.4377 35.0378 24.5452L35.0392 24.5464L35.0454 24.5516L35.0451 24.5519C35.2495 24.7238 35.3796 24.9812 35.3796 25.2692C35.3796 25.787 34.9599 26.2067 34.4421 26.2067C34.2214 26.207 34.0078 26.129 33.8391 25.9866L33.8389 25.9869L33.8448 25.9918C33.8361 25.9848 32.9605 25.2863 32.0241 25.5682C31.6259 25.6881 31.5474 25.9488 31.5321 26.0553C31.5217 26.1276 31.5163 26.2989 31.6646 26.4245C31.9163 26.5346 32.6909 26.8681 33.5219 27.1746C35.3018 27.8311 35.7471 29.1226 35.5704 30.1122C35.3813 31.1716 34.5294 31.996 33.425 32.2736L34.5876 32.4786C35.6973 32.6742 36.6644 33.2904 37.3107 34.2134C37.4518 34.4148 37.5752 34.6279 37.6797 34.8504L41.6558 32.9967V30.5189C41.6558 28.3306 41.0476 26.1899 39.8971 24.3284C39.0559 22.9675 37.9458 21.7924 36.6349 20.875H28.2392C26.9283 21.7924 25.8183 22.9675 24.977 24.3284C24.0092 25.8937 23.422 27.6642 23.2627 29.4976C23.5319 29.4762 23.8026 29.4649 24.0745 29.4649C26.0033 29.4649 27.8663 30.0012 29.4868 31.0193Z" fill="#AD8138"/>
</svg>
