<svg width="80" height="80" viewBox="0 0 80 80" fill="none" xmlns="http://www.w3.org/2000/svg">
<path d="M44.1626 33.9571C45.2861 33.9571 46.2 34.7225 46.2 35.6631C46.2 36.5174 46.8927 37.2102 47.747 37.2102C48.6013 37.2102 49.2941 36.5174 49.2941 35.6631C49.2941 33.5205 47.7854 31.7016 45.7097 31.0864V30.8713C45.7097 30.017 45.0169 29.3242 44.1626 29.3242C43.3083 29.3242 42.6155 30.017 42.6155 30.8713V31.0864C40.5398 31.7018 39.0312 33.5205 39.0312 35.6631C39.0312 38.3099 41.3331 40.4631 44.1626 40.4631C45.2861 40.4631 46.2 41.2284 46.2 42.1691C46.2 43.1097 45.2861 43.8749 44.1626 43.8749C43.0393 43.8749 42.1254 43.1097 42.1254 42.1691C42.1254 41.3148 41.4326 40.622 40.5783 40.622C39.724 40.622 39.0312 41.3148 39.0312 42.1691C39.0312 44.3116 40.5398 46.1304 42.6155 46.7457V46.9607C42.6155 47.815 43.3083 48.5078 44.1626 48.5078C45.0169 48.5078 45.7097 47.815 45.7097 46.9607V46.7457C47.7854 46.1304 49.2941 44.3116 49.2941 42.1691C49.2941 39.5223 46.9921 37.3689 44.1626 37.3689C43.0393 37.3689 42.1254 36.6037 42.1254 35.6631C42.1254 34.7225 43.0393 33.9571 44.1626 33.9571Z" fill="#9F7834"/>
<path d="M45.8037 35.6628C45.8037 35.0038 45.1357 34.3525 44.1623 34.3524C43.189 34.3524 42.5209 35.0038 42.5209 35.6628C42.521 36.3217 43.189 36.9723 44.1623 36.9723C47.1851 36.9724 49.6899 39.2789 49.6899 42.1689C49.6898 44.4075 48.1817 46.2975 46.1015 47.0327C46.0633 48.0721 45.211 48.903 44.1623 48.9031C43.1136 48.9031 42.2605 48.0722 42.2223 47.0327C40.1423 46.2974 38.6349 44.4074 38.6348 42.1689C38.6348 41.0958 39.5048 40.2258 40.5778 40.2258C41.6509 40.2258 42.5209 41.0958 42.5209 42.1689C42.5211 42.8277 43.189 43.4784 44.1623 43.4784V43.8745L43.9542 43.866C42.9966 43.7843 42.2333 43.1447 42.1357 42.3429L42.1249 42.1689C42.1249 41.3681 41.5163 40.709 40.7364 40.6295L40.5778 40.6218C39.7236 40.6218 39.0308 41.3146 39.0308 42.1689L39.0354 42.3684C39.1259 44.4236 40.6044 46.1489 42.6153 46.745V46.96L42.623 47.1186C42.697 47.8465 43.2759 48.4253 44.0037 48.4993L44.1623 48.5071C44.9631 48.507 45.6223 47.8985 45.7016 47.1186L45.7093 46.96V46.745C47.7201 46.1489 49.1988 44.4236 49.2892 42.3684L49.2938 42.1689C49.2938 39.6049 47.1334 37.5035 44.4261 37.3746L44.1623 37.3684C43.1092 37.3684 42.2402 36.6959 42.1357 35.8368L42.1249 35.6628C42.1249 34.7221 43.039 33.9564 44.1623 33.9564L44.3704 33.9657C45.3964 34.0533 46.1998 34.781 46.1998 35.6628L46.2075 35.8206C46.2813 36.5487 46.8602 37.128 47.5882 37.2021L47.7468 37.2098C48.5477 37.2097 49.2062 36.6006 49.2853 35.8206L49.2938 35.6628C49.2938 33.5202 47.785 31.7012 45.7093 31.0859V30.8708C45.7093 30.0699 45.1002 29.4106 44.3201 29.3315L44.1623 29.3238C43.308 29.3238 42.6153 30.0165 42.6153 30.8708V31.0859C40.5396 31.7013 39.0308 33.5202 39.0308 35.6628L39.0378 35.9095C39.1756 38.442 41.4214 40.4625 44.1623 40.4625C45.2857 40.4625 46.1998 41.2283 46.1998 42.1689L46.1889 42.3429C46.0844 43.2019 45.2155 43.8744 44.1623 43.8745V43.4784C45.1357 43.4784 45.8036 42.8277 45.8037 42.1689C45.8037 41.5099 45.1357 40.8586 44.1623 40.8585C41.1395 40.8585 38.6348 38.5527 38.6348 35.6628C38.6348 33.424 40.1421 31.5328 42.2223 30.7973C42.261 29.7584 43.1139 28.9277 44.1623 28.9277C45.2106 28.9278 46.0628 29.7585 46.1015 30.7973C48.182 31.5326 49.6899 33.4239 49.6899 35.6628C49.6898 36.7357 48.8197 37.6058 47.7468 37.6059C46.6738 37.6059 45.8038 36.7358 45.8037 35.6628Z" fill="#9F7834"/>
<path d="M79.3715 52.0761C79.0754 51.0455 78.5043 50.1148 77.7195 49.3841C76.9347 48.6533 75.9658 48.1499 74.9167 47.9279C73.5455 47.636 72.1194 47.849 70.9016 48.4963C71.6067 44.1111 71.2363 39.5749 69.7853 35.3466C69.5079 34.5384 68.6278 34.1087 67.8198 34.3853C67.0116 34.6627 66.5813 35.5427 66.8586 36.3509C68.5724 41.3445 68.5863 46.8224 66.9073 51.822L54.5785 62.7718C53.8239 63.4414 52.9906 64.0167 52.097 64.485C52.3505 63.4613 52.3272 62.3886 52.0295 61.3769C51.7935 60.5792 51.3928 59.8398 50.8534 59.2065C50.3139 58.5732 49.6476 58.06 48.8976 57.7001L37.9758 52.4689C33.2009 50.1819 27.6122 49.9173 22.6427 51.7418L21.5325 52.1495C18.4511 43.4445 20.5959 33.7905 27.1948 27.1917L38.1169 16.2697H50.2084L59.4626 25.5239C60.0669 26.1279 61.0462 26.1279 61.6506 25.5239C62.2548 24.9198 62.2548 23.9402 61.6506 23.3359L52.8085 14.4941L56.0049 5.29545C56.4334 4.06227 55.9602 2.71692 54.854 2.02352C53.7481 1.33027 52.3307 1.49101 51.4076 2.41369L51.3885 2.43272C50.7491 3.07244 49.7083 3.07244 49.0689 2.43272C46.3536 -0.282262 41.9359 -0.282262 39.2206 2.43272C38.9109 2.7426 38.4989 2.91309 38.0608 2.91309C37.6226 2.91309 37.2106 2.74245 36.9009 2.43272C35.9768 1.50865 34.5586 1.34868 33.4519 2.04409C32.3452 2.73936 31.8738 4.08656 32.3056 5.32021L35.516 14.4951L25.007 25.004C21.1178 28.8933 18.5324 33.797 17.5309 39.1847C16.6523 43.9095 17.0329 48.7273 18.6256 53.2171L16.1866 54.1126C15.375 53.0575 14.101 52.3755 12.6701 52.3755H4.8315C2.38603 52.3757 0.396484 54.3652 0.396484 56.8105V75.1692C0.396484 77.6147 2.38603 79.6042 4.8315 79.6042H45.6069C52.0115 79.6042 58.0682 77.1459 62.661 72.6821L77.8099 57.9593C78.5797 57.2127 79.1317 56.2708 79.4068 55.2343C79.6819 54.1979 79.6697 53.1061 79.3715 52.0761ZM38.0606 6.00742C39.3252 6.00742 40.5141 5.51499 41.4085 4.62077C42.9172 3.11205 45.3721 3.11205 46.8808 4.62077C47.775 5.51499 48.9641 6.00742 50.2287 6.00742C51.1266 6.00742 51.9862 5.75927 52.7294 5.29515L49.9911 13.1757H38.3324L35.5789 5.3069C36.3178 5.76329 37.1703 6.00742 38.0606 6.00742ZM3.49064 75.1694V56.8105C3.49064 56.0712 4.09215 55.4697 4.8315 55.4697H12.6699C13.4093 55.4697 14.0108 56.0712 14.0108 56.8105V75.1692C14.0108 75.9086 13.4093 76.5101 12.6699 76.5101H4.8315C4.09215 76.5102 3.49064 75.9087 3.49064 75.1694ZM75.6534 55.7406L60.5046 70.4634C56.4924 74.3627 51.2016 76.5102 45.6069 76.5102H16.8972C17.0351 76.0766 17.1052 75.6244 17.1049 75.1694V57.0717L23.7091 54.6468C27.8997 53.1082 32.6129 53.3313 36.6393 55.2599L47.5611 60.4911C48.2976 60.8438 48.8306 61.4696 49.0617 62.253C49.2929 63.0365 49.185 63.8516 48.7579 64.5478C48.4257 65.0907 47.9211 65.5064 47.3246 65.7284C46.7282 65.9503 46.0746 65.9658 45.4683 65.7722L30.9589 61.1582C30.1448 60.8995 29.2747 61.3494 29.0156 62.1638C28.7568 62.978 29.2068 63.8481 30.0212 64.1071L44.5306 68.721C45.1149 68.9071 45.7243 69.002 46.3375 69.0022C46.4099 69.0022 46.482 68.9979 46.5541 68.9953C50.275 68.9417 53.8464 67.5605 56.6328 65.0856L71.8108 51.6052C72.142 51.3123 72.5371 51.1009 72.9646 50.988C73.392 50.875 73.84 50.8636 74.2726 50.9547C75.3096 51.1753 76.1042 51.9151 76.398 52.9338C76.6923 53.9523 76.4138 55.0015 75.6534 55.7406Z" fill="#9F7834"/>
<path d="M39.2142 1.89148C42.0068 -0.630528 46.2816 -0.630459 49.0742 1.89148L49.3488 2.15216L49.4432 2.23802C49.9311 2.63558 50.6534 2.60672 51.1078 2.15216L51.1271 2.13359L51.3313 1.9464C52.3821 1.06136 53.8808 0.946138 55.0643 1.68805H55.0635C56.2473 2.4301 56.7973 3.82853 56.4582 5.16038L56.3785 5.42492L53.2635 14.3892L61.93 23.0558L62.0638 23.2035C62.6445 23.9159 62.6447 24.9441 62.0638 25.6563L61.93 25.8041C61.2183 26.5151 60.0927 26.5595 59.3295 25.9371L59.1825 25.8041L50.0442 16.6657H38.2805L27.4745 27.4718C21.0798 33.8665 18.9379 43.176 21.7745 51.6373L22.5055 51.3697L22.9827 51.2018C27.9309 49.5276 33.4276 49.8512 38.1467 52.1115L49.068 57.3428H49.0688L49.3643 57.4944C50.044 57.8655 50.6508 58.3585 51.1542 58.9494C51.7295 59.6249 52.1571 60.4137 52.4088 61.2646L52.4653 61.468C52.6559 62.2055 52.7107 62.9696 52.6308 63.7236C53.2267 63.3571 53.7907 62.9402 54.3148 62.4751L66.5634 51.5971C68.1308 46.8605 68.1579 41.6937 66.6369 36.9412L66.4837 36.4794C66.1356 35.4645 66.6755 34.3589 67.6904 34.0104H67.6912L67.8822 33.9554C68.8408 33.7323 69.8328 34.266 70.1595 35.2178L70.2941 35.6208C71.578 39.5625 71.944 43.7522 71.3979 47.8347C72.531 47.395 73.7843 47.2815 74.9986 47.54L75.2074 47.588C76.2464 47.845 77.204 48.363 77.989 49.094C78.8263 49.8737 79.4359 50.8665 79.7518 51.9661L79.8075 52.1726C80.0701 53.2102 80.0641 54.2988 79.789 55.3355C79.4955 56.4413 78.9061 57.4459 78.0849 58.2424L78.0857 58.2432L62.9364 72.9656C58.2696 77.5013 52.1142 80 45.6065 80H4.83138C2.16731 80 0.000200947 77.8334 0 75.1694V56.8106C0 54.1466 2.16722 51.9794 4.83138 51.9792V52.3753C2.38591 52.3754 0.39604 54.3653 0.39604 56.8106V75.1694L0.401455 75.3968C0.516571 77.6614 2.33863 79.4834 4.60319 79.5985L4.83138 79.604H45.6065C51.8108 79.604 57.6887 77.2971 62.2255 73.0948L62.6602 72.6817L77.8095 57.9593C78.5312 57.2595 79.0618 56.3877 79.3519 55.4276L79.4061 55.2342C79.664 54.2627 79.6698 53.2424 79.4239 52.2701L79.3713 52.0759C79.0937 51.1097 78.5741 50.2315 77.8637 49.5233L77.719 49.3841C76.9833 48.699 76.086 48.2133 75.1123 47.9724L74.9166 47.9275C73.5455 47.6356 72.1191 47.8488 70.9013 48.4961C71.5844 44.248 71.2583 39.8581 69.9181 35.7438L69.7851 35.3462C69.5077 34.5381 68.6276 34.109 67.8196 34.3855L67.6726 34.4443C66.9603 34.7725 66.5982 35.5933 66.8581 36.351C68.5718 41.3444 68.5858 46.822 66.9068 51.8214L54.5778 62.7714L54.2916 63.0181C53.6143 63.5833 52.8783 64.075 52.0963 64.4847C52.334 63.525 52.3286 62.5223 52.0816 61.567L52.029 61.3767C51.8225 60.6787 51.4903 60.0251 51.049 59.4483L50.8533 59.2062C50.3813 58.6521 49.8121 58.1897 49.1747 57.8417L48.8971 57.7002L37.975 52.4689C33.2002 50.1819 27.6118 49.9173 22.6424 51.7418L21.5324 52.1494C18.499 43.5804 20.5295 34.0914 26.8882 27.5027L27.1945 27.1918L38.1166 16.2697H50.2082L59.4625 25.5241C60.029 26.0899 60.9247 26.1252 61.5324 25.63L61.65 25.5241C62.2163 24.9578 62.2521 24.0611 61.7568 23.4534L61.65 23.3358L52.8079 14.4937L56.0041 5.29497C56.4058 4.13888 56.0153 2.8843 55.0535 2.16067L54.8539 2.02298C53.748 1.32973 52.3303 1.49092 51.4071 2.41361L51.3878 2.43217C50.7484 3.07189 49.7082 3.07188 49.0688 2.43217C46.3536 -0.282723 41.9357 -0.282545 39.2204 2.43217L39.0997 2.54201C38.8073 2.78237 38.4436 2.91253 38.0601 2.91253V2.51649C38.3933 2.51649 38.705 2.38763 38.9404 2.15216L39.2142 1.89148ZM72.9642 50.9876C73.3917 50.8747 73.8396 50.8633 74.2723 50.9543C75.3092 51.1749 76.1041 51.915 76.3979 52.9338C76.692 53.9521 76.4132 55.0011 75.653 55.7401L60.5044 70.4633L60.1246 70.8237C56.2892 74.3764 51.3566 76.3782 46.1302 76.5037L45.6065 76.5099V76.1138C51.0981 76.1138 56.29 74.0068 60.2283 70.1794L75.3768 55.4562L75.4952 55.334C76.0228 54.7489 76.2274 53.9776 76.0591 53.2084L76.0173 53.0436C75.764 52.1653 75.0835 51.532 74.1895 51.3419V51.3411C73.8178 51.2631 73.4328 51.2735 73.0656 51.3705C72.6978 51.4676 72.3573 51.6499 72.0724 51.9019L56.8952 65.3812C54.0395 67.9176 50.3799 69.3337 46.5672 69.3904L46.568 69.3912L46.3367 69.3981C45.7646 69.3979 45.1957 69.32 44.645 69.1676L44.4099 69.098L29.901 64.484C28.8782 64.1587 28.3128 63.0661 28.6379 62.0435L28.7075 61.8571C29.0995 60.9535 30.1199 60.4758 31.0783 60.7803L45.588 65.3944H45.5887L45.786 65.4485C46.2501 65.5549 46.737 65.5244 47.186 65.3573C47.6994 65.1662 48.1339 64.8081 48.4198 64.3409L48.4855 64.2271C48.7987 63.653 48.8682 62.9983 48.6812 62.3645C48.4942 61.731 48.0807 61.2201 47.5063 60.908L47.3895 60.8484L36.4674 55.6171C32.6604 53.7936 28.2226 53.5316 24.2304 54.8823L23.8452 55.0184L17.5008 57.3475V75.1686L17.4969 75.355C17.4872 75.6101 17.4571 75.8638 17.4072 76.1138H45.6065V76.5099H16.8967C17.0173 76.1305 17.0865 75.7368 17.1017 75.3395L17.1048 75.1694V57.0713L23.709 54.6463C27.8995 53.1079 32.6128 53.3312 36.6391 55.2597L47.5604 60.491C48.297 60.8438 48.8299 61.4697 49.061 62.2531C49.2921 63.0364 49.1848 63.8513 48.7578 64.5474L48.6248 64.7454C48.2976 65.1914 47.8461 65.5336 47.3245 65.7278L47.0979 65.802C46.565 65.951 45.9984 65.9412 45.4681 65.7719L30.9584 61.1578C30.1444 60.8992 29.2746 61.3492 29.0154 62.1634L28.9751 62.3166C28.8142 63.0841 29.2574 63.8637 30.0209 64.1065L44.5306 68.7205C45.0416 68.8834 45.5718 68.9766 46.107 68.9974L46.3367 69.0021C46.409 69.0021 46.4813 68.9978 46.5533 68.9951C50.158 68.9433 53.6229 67.6452 56.3692 65.3139L56.6322 65.0858L71.8102 51.6048C72.1 51.3485 72.4391 51.1549 72.8057 51.0348L72.9642 50.9876ZM13.6147 75.1694V56.8106C13.6147 56.29 13.19 55.8654 12.6694 55.8654H4.83138C4.31076 55.8654 3.88615 56.29 3.88615 56.8106V75.1694C3.88626 75.6898 4.3103 76.1137 4.83061 76.1138H12.6694V76.5099H4.83138L4.69447 76.5029C4.06413 76.439 3.56138 75.9366 3.49707 75.3063L3.49011 75.1694V56.8106C3.49011 56.1174 4.01903 55.545 4.69447 55.4763L4.83138 55.4694H12.6694L12.8063 55.4763C13.4817 55.5451 14.0107 56.1175 14.0107 56.8106V75.1694L14.0037 75.3063C13.9394 75.9364 13.4365 76.4387 12.8063 76.5029L12.6694 76.5099V76.1138C13.1899 76.1138 13.6145 75.6898 13.6147 75.1694ZM33.4816 1.57124C34.7045 0.941237 36.1918 1.16346 37.1806 2.15216C37.416 2.38755 37.7271 2.51643 38.0601 2.51649V2.91253L37.8977 2.90479C37.5747 2.87321 37.2719 2.74793 37.0213 2.54201L36.9006 2.43217C35.9765 1.50821 34.5582 1.34852 33.4515 2.04387L33.2511 2.18155C32.2893 2.90692 31.9005 4.16329 32.3051 5.31972L35.5152 14.4952L25.0062 25.0035L24.6458 25.3717C20.9574 29.2004 18.5005 33.9652 17.5302 39.1844C16.6516 43.9092 17.0328 48.7271 18.6255 53.2169L16.1858 54.1126L16.0288 53.9192C15.2692 53.0378 14.1701 52.4566 12.9363 52.383L12.6694 52.3753V51.9792C14.1232 51.9792 15.4272 52.6259 16.3127 53.6431L18.1235 52.9786C16.616 48.529 16.274 43.7751 17.1411 39.1117C18.1574 33.6452 20.7808 28.6691 24.7262 24.7235L35.0588 14.39L31.9315 5.45045C31.4389 4.04246 31.9781 2.50168 33.2411 1.70816L33.4816 1.57124ZM12.6694 51.9792V52.3753H4.83138V51.9792H12.6694ZM41.4079 4.62046C42.9166 3.11174 45.3718 3.11174 46.8805 4.62046C47.7189 5.45884 48.8164 5.94388 49.9924 6.00119L50.2283 6.00738C51.1262 6.00738 51.9858 5.75909 52.7291 5.29497L49.9908 13.1756H38.3324L35.5787 5.30657C36.2252 5.7059 36.9585 5.94282 37.7283 5.99578L38.0601 6.00738C39.2456 6.00738 40.3647 5.57452 41.2369 4.78367L41.4079 4.62046ZM46.6005 4.90048C45.2888 3.58882 43.1794 3.54798 41.8178 4.77749L41.6879 4.90048C40.7193 5.86893 39.4297 6.40342 38.0601 6.40342C37.4395 6.40342 36.8353 6.29284 36.2694 6.08241L38.6132 12.7796H49.7092L52.0383 6.07468C51.4668 6.28985 50.856 6.40342 50.2283 6.40342C48.8587 6.40342 47.569 5.86897 46.6005 4.90048Z" fill="#9F7834"/>
<path d="M65.1779 31.182C65.5848 31.182 65.9839 31.018 66.2715 30.7287C66.5608 30.4381 66.7238 30.045 66.7249 29.6349C66.7249 29.2281 66.5594 28.8305 66.2715 28.5412C65.9807 28.2521 65.5878 28.0893 65.1779 28.0879C64.7709 28.0879 64.3734 28.2534 64.0841 28.5412C63.7953 28.8321 63.6325 29.225 63.6309 29.6349C63.6309 30.0433 63.7962 30.4409 64.0841 30.7287C64.3744 31.0185 64.7677 31.1815 65.1779 31.182Z" fill="#9F7834"/>
<path d="M65.179 27.6914L65.3701 27.7015C65.7504 27.7402 66.1111 27.8899 66.4073 28.1315L66.5504 28.2599L66.552 28.2615L66.6796 28.4038C66.9612 28.7491 67.1205 29.1859 67.1205 29.6345V29.6353C67.1193 30.0854 66.9627 30.5195 66.6804 30.8652L66.552 31.0075C66.1892 31.3724 65.6886 31.5776 65.1774 31.5776H65.1767C64.7263 31.5769 64.2923 31.4201 63.9468 31.1374L63.8037 31.0083C63.4417 30.6464 63.2344 30.1482 63.2344 29.6345V29.6329L63.2444 29.4411C63.2899 28.9977 63.4862 28.5806 63.8029 28.2615L63.8045 28.2599L63.9468 28.1323C64.292 27.8509 64.7287 27.6914 65.1774 27.6914H65.179ZM63.6304 29.6345C63.6304 30.0429 63.7958 30.4405 64.0837 30.7282C64.3376 30.9817 64.6704 31.1382 65.0243 31.1738L65.1774 31.1815C65.5334 31.1815 65.8837 31.0563 66.1583 30.8311L66.2712 30.7282C66.5605 30.4376 66.7233 30.0445 66.7245 29.6345C66.7245 29.2277 66.5591 28.83 66.2712 28.5407C65.9805 28.2517 65.5874 28.0889 65.1774 28.0874C64.7704 28.0874 64.373 28.253 64.0837 28.5407C63.7949 28.8317 63.6321 29.2245 63.6304 29.6345Z" fill="#9F7834"/>
</svg>
