<svg width="100" height="100" viewBox="0 0 100 100" fill="none" xmlns="http://www.w3.org/2000/svg">
<path d="M55.2033 42.4474C56.6076 42.4474 57.7499 43.4041 57.7499 44.5799C57.7499 45.6477 58.6159 46.5137 59.6838 46.5137C60.7517 46.5137 61.6176 45.6477 61.6176 44.5799C61.6176 41.9017 59.7317 39.628 57.1371 38.8589V38.5901C57.1371 37.5222 56.2711 36.6562 55.2033 36.6562C54.1354 36.6562 53.2694 37.5222 53.2694 38.5901V38.8589C50.6748 39.6282 48.7891 41.9017 48.7891 44.5799C48.7891 47.8883 51.6664 50.5798 55.2033 50.5798C56.6076 50.5798 57.7499 51.5365 57.7499 52.7123C57.7499 53.8881 56.6076 54.8446 55.2033 54.8446C53.7991 54.8446 52.6568 53.8881 52.6568 52.7123C52.6568 51.6444 51.7908 50.7785 50.7229 50.7785C49.655 50.7785 48.7891 51.6444 48.7891 52.7123C48.7891 55.3905 50.6748 57.664 53.2694 58.4331V58.7019C53.2694 59.7697 54.1354 60.6357 55.2033 60.6357C56.2711 60.6357 57.1371 59.7697 57.1371 58.7019V58.4331C59.7317 57.664 61.6176 55.3905 61.6176 52.7123C61.6176 49.4039 58.7401 46.7121 55.2033 46.7121C53.7991 46.7121 52.6568 45.7556 52.6568 44.5799C52.6568 43.4041 53.7991 42.4474 55.2033 42.4474Z" fill="#9F7834"/>
<path d="M57.2542 44.579C57.2542 43.7553 56.4192 42.9411 55.2024 42.941C53.9857 42.941 53.1507 43.7552 53.1507 44.579C53.1507 45.4026 53.9857 46.2159 55.2024 46.2159C58.9809 46.216 62.1118 49.0991 62.1118 52.7116C62.1117 55.5099 60.2267 57.8723 57.6264 58.7914C57.5787 60.0906 56.5132 61.1293 55.2024 61.1294C53.8915 61.1294 52.8251 60.0907 52.7774 58.7914C50.1774 57.8722 48.2931 55.5097 48.293 52.7116C48.293 51.3703 49.3806 50.2827 50.7218 50.2827C52.0631 50.2827 53.1507 51.3703 53.1507 52.7116C53.1508 53.5351 53.9858 54.3485 55.2024 54.3485V54.8436L54.9423 54.8329C53.7453 54.7309 52.7911 53.9314 52.6691 52.9291L52.6556 52.7116C52.6556 51.7106 51.8948 50.8867 50.92 50.7874L50.7218 50.7778C49.654 50.7778 48.788 51.6437 48.788 52.7116L48.7938 52.961C48.9068 55.53 50.755 57.6867 53.2686 58.4317V58.7005L53.2783 58.8987C53.3708 59.8086 54.0944 60.5321 55.0042 60.6247L55.2024 60.6343C56.2034 60.6342 57.0274 59.8736 57.1265 58.8987L57.1362 58.7005V58.4317C59.6497 57.6866 61.498 55.53 61.611 52.961L61.6168 52.7116C61.6168 49.5066 58.9162 46.8799 55.5321 46.7187L55.2024 46.711C53.886 46.711 52.7998 45.8704 52.6691 44.7965L52.6556 44.579C52.6556 43.4032 53.7982 42.446 55.2024 42.446L55.4625 42.4576C56.745 42.5671 57.7492 43.4767 57.7492 44.579L57.7589 44.7762C57.8512 45.6863 58.5747 46.4105 59.4848 46.5031L59.683 46.5128C60.6841 46.5126 61.5072 45.7513 61.6061 44.7762L61.6168 44.579C61.6168 41.9008 59.7308 39.6269 57.1362 38.8578V38.589C57.1362 37.5878 56.3748 36.7638 55.3996 36.6649L55.2024 36.6552C54.1346 36.6552 53.2686 37.5212 53.2686 38.589V38.8578C50.674 39.6271 48.788 41.9008 48.788 44.579L48.7967 44.8874C48.969 48.053 51.7762 50.5786 55.2024 50.5786C56.6067 50.5787 57.7492 51.5358 57.7492 52.7116L57.7357 52.9291C57.605 54.0029 56.5189 54.8435 55.2024 54.8436V54.3485C56.4191 54.3484 57.254 53.5351 57.2542 52.7116C57.2542 51.8879 56.4192 51.0737 55.2024 51.0736C51.4239 51.0736 48.2931 48.1914 48.293 44.579C48.293 41.7805 50.1771 39.4165 52.7774 38.4972C52.8258 37.1985 53.8919 36.1602 55.2024 36.1602C56.5128 36.1603 57.578 37.1986 57.6264 38.4972C60.227 39.4162 62.1118 41.7804 62.1118 44.579C62.1118 45.9201 61.0241 47.0077 59.683 47.0078C58.3418 47.0078 57.2542 45.9202 57.2542 44.579Z" fill="#9F7834"/>
<path d="M99.2129 65.0947C98.8428 63.8063 98.129 62.6431 97.148 61.7296C96.167 60.8161 94.9558 60.1869 93.6444 59.9094C91.9304 59.5445 90.1478 59.8108 88.6255 60.6199C89.5069 55.1384 89.044 49.4681 87.2302 44.1827C86.8835 43.1725 85.7833 42.6354 84.7732 42.9812C83.763 43.3279 83.2252 44.4279 83.5717 45.4382C85.7141 51.6801 85.7315 58.5275 83.6327 64.777L68.2216 78.4642C67.2784 79.3013 66.2367 80.0204 65.1197 80.6058C65.4367 79.3262 65.4076 77.9853 65.0354 76.7207C64.7404 75.7235 64.2396 74.7992 63.5653 74.0076C62.8909 73.216 62.0581 72.5745 61.1205 72.1247L47.4683 65.5857C41.4997 62.7269 34.5138 62.3962 28.3019 64.6768L26.9142 65.1864C23.0624 54.3051 25.7435 42.2376 33.9921 33.9891L47.6447 20.3367H62.7591L74.3268 31.9044C75.0821 32.6594 76.3063 32.6594 77.0618 31.9044C77.817 31.1493 77.817 29.9247 77.0618 29.1694L66.0091 18.1172L70.0046 6.61883C70.5403 5.07735 69.9487 3.39567 68.566 2.52891C67.1837 1.66235 65.4119 1.86327 64.258 3.01663L64.2342 3.04042C63.435 3.84007 62.1339 3.84007 61.3346 3.04042C57.9405 -0.353316 52.4184 -0.353316 49.0243 3.04042C48.6371 3.42777 48.1222 3.64088 47.5745 3.64088C47.0268 3.64088 46.5118 3.42757 46.1247 3.04042C44.9696 1.88532 43.1968 1.68536 41.8134 2.55463C40.4301 3.42371 39.8408 5.10771 40.3806 6.64977L44.3935 18.1183L31.2572 31.2545C26.3957 36.1162 23.1641 42.2457 21.9121 48.9804C20.8139 54.8864 21.2896 60.9087 23.2805 66.5209L20.2318 67.6402C19.2173 66.3213 17.6248 65.4689 15.8361 65.4689H6.03791C2.98107 65.4691 0.494141 67.956 0.494141 71.0127V93.961C0.494141 97.0179 2.98107 99.5048 6.03791 99.5048H57.0072C65.013 99.5048 72.5838 96.4319 78.3248 90.8522L97.2609 72.4486C98.2231 71.5154 98.9132 70.338 99.2571 69.0424C99.601 67.7469 99.5857 66.3822 99.2129 65.0947ZM47.5743 7.50879C49.155 7.50879 50.6412 6.89324 51.7591 5.77547C53.645 3.88957 56.7137 3.88957 58.5996 5.77547C59.7173 6.89324 61.2037 7.50879 62.7844 7.50879C63.9068 7.50879 64.9813 7.1986 65.9103 6.61844L62.4874 16.4691H47.9141L44.4722 6.63314C45.3958 7.20363 46.4614 7.50879 47.5743 7.50879ZM4.36184 93.9612V71.0127C4.36184 70.0885 5.11372 69.3366 6.03791 69.3366H15.836C16.7601 69.3366 17.512 70.0885 17.512 71.0127V93.961C17.512 94.8852 16.7601 95.6371 15.836 95.6371H6.03791C5.11372 95.6373 4.36184 94.8854 4.36184 93.9612ZM94.5653 69.6752L75.6292 88.0788C70.614 92.9529 64.0006 95.6373 57.0072 95.6373H21.12C21.2924 95.0953 21.38 94.53 21.3797 93.9612V71.3391L29.6349 68.308C34.8732 66.3848 40.7646 66.6636 45.7977 69.0744L59.4499 75.6133C60.3706 76.0543 61.0368 76.8365 61.3257 77.8158C61.6146 78.7951 61.4798 79.8141 60.9459 80.6843C60.5307 81.3629 59.8999 81.8825 59.1543 82.16C58.4088 82.4374 57.5917 82.4567 56.8339 82.2148L38.6971 76.4472C37.6796 76.1239 36.592 76.6862 36.268 77.7042C35.9445 78.722 36.5071 79.8096 37.525 80.1334L55.6618 85.9007C56.3921 86.1334 57.1539 86.252 57.9204 86.2523C58.0109 86.2523 58.101 86.2469 58.1911 86.2436C62.8422 86.1767 67.3065 84.4501 70.7896 81.3565L89.762 64.506C90.176 64.1399 90.6699 63.8757 91.2042 63.7345C91.7386 63.5933 92.2985 63.579 92.8393 63.6928C94.1356 63.9686 95.1288 64.8934 95.4961 66.1668C95.8639 67.4399 95.5158 68.7514 94.5653 69.6752Z" fill="#9F7834"/>
<path d="M49.0177 2.36435C52.5085 -0.788161 57.8519 -0.788074 61.3427 2.36435L61.686 2.6902L61.8039 2.79752C62.4139 3.29447 63.3168 3.2584 63.8847 2.6902L63.9089 2.66699L64.1641 2.433C65.4777 1.3267 67.351 1.18267 68.8304 2.11006H68.8294C70.3091 3.03762 70.9967 4.78566 70.5727 6.45047L70.4731 6.78115L66.5794 17.9866L77.4125 28.8197L77.5798 29.0044C78.3057 29.8949 78.3059 31.1801 77.5798 32.0704L77.4125 32.2551C76.5229 33.1438 75.1158 33.1994 74.1618 32.4214L73.9781 32.2551L62.5552 20.8321H47.8507L34.3432 34.3397C26.3497 42.3331 23.6724 53.97 27.2181 64.5467L28.1318 64.2121L28.7284 64.0023C34.9136 61.9095 41.7845 62.3139 47.6834 65.1394L61.335 71.6785H61.336L61.7053 71.868C62.555 72.3319 63.3135 72.9481 63.9427 73.6868C64.6619 74.5311 65.1964 75.5172 65.511 76.5807L65.5816 76.835C65.8199 77.7569 65.8884 78.712 65.7885 79.6545C66.5334 79.1963 67.2384 78.6752 67.8935 78.0939L83.2042 64.4964C85.1635 58.5756 85.1973 52.1171 83.2961 46.1765L83.1046 45.5993C82.6695 44.3306 83.3444 42.9486 84.613 42.5129H84.614L84.8528 42.4443C86.051 42.1654 87.291 42.8325 87.6993 44.0223L87.8676 44.526C89.4726 49.4531 89.93 54.6902 89.2473 59.7934C90.6638 59.2438 92.2304 59.1019 93.7482 59.425L94.0093 59.4849C95.308 59.8063 96.505 60.4538 97.4862 61.3675C98.5329 62.3421 99.2948 63.5831 99.6898 64.9576L99.7594 65.2158C100.088 66.5128 100.08 67.8735 99.7362 69.1694C99.3693 70.5516 98.6327 71.8074 97.6061 72.803L97.6071 72.804L78.6705 91.207C72.837 96.8766 65.1427 100 57.0081 100H6.03923C2.70914 100 0.000251184 97.2918 0 93.9617V71.0133C0 67.6832 2.70902 64.9743 6.03923 64.974V65.4691C2.98239 65.4693 0.49505 67.9566 0.49505 71.0133V93.9617L0.501819 94.246C0.645714 97.0767 2.92329 99.3542 5.75399 99.4982L6.03923 99.5049H57.0081C64.7636 99.5049 72.1109 96.6214 77.7819 91.3685L78.3253 90.8522L97.2619 72.4491C98.164 71.5744 98.8272 70.4847 99.1899 69.2845L99.2576 69.0428C99.58 67.8284 99.5873 66.553 99.2798 65.3376L99.2141 65.0949C98.8671 63.8871 98.2177 62.7893 97.3296 61.9041L97.1488 61.7301C96.2292 60.8738 95.1075 60.2666 93.8904 59.9655L93.6457 59.9094C91.9318 59.5445 90.1489 59.811 88.6266 60.6201C89.4805 55.31 89.0729 49.8227 87.3977 44.6798L87.2314 44.1828C86.8846 43.1726 85.7845 42.6362 84.7745 42.9819L84.5908 43.0554C83.7004 43.4656 83.2477 44.4916 83.5726 45.4388C85.7148 51.6805 85.7322 58.5275 83.6335 64.7768L68.2222 78.4642L67.8644 78.7727C67.0179 79.4792 66.0979 80.0937 65.1204 80.6059C65.4176 79.4063 65.4108 78.1528 65.102 76.9588L65.0363 76.7209C64.7781 75.8484 64.3629 75.0313 63.8112 74.3104L63.5666 74.0078C62.9766 73.3152 62.2651 72.7371 61.4684 72.3022L61.1213 72.1252L47.4688 65.5861C41.5002 62.7274 34.5148 62.3967 28.303 64.6772L26.9155 65.1868C23.1238 54.4755 25.6619 42.6143 33.6102 34.3784L33.9931 33.9897L47.6457 20.3371H62.7602L74.3281 31.9051C75.0362 32.6124 76.1559 32.6565 76.9156 32.0376L77.0625 31.9051C77.7704 31.1972 77.8151 30.0764 77.196 29.3167L77.0625 29.1697L66.0099 18.1171L70.0052 6.61871C70.5073 5.17359 70.0192 3.60537 68.8168 2.70083L68.5674 2.52873C67.1851 1.66216 65.4128 1.86366 64.2589 3.01701L64.2347 3.04022C63.4355 3.83986 62.1352 3.83985 61.336 3.04022C57.942 -0.353404 52.4196 -0.353181 49.0255 3.04022L48.8746 3.17752C48.5091 3.47796 48.0545 3.64066 47.5751 3.64066V3.14561C47.9916 3.14561 48.3813 2.98453 48.6754 2.6902L49.0177 2.36435ZM91.2053 63.7345C91.7396 63.5933 92.2996 63.5791 92.8403 63.6929C94.1366 63.9687 95.1301 64.8938 95.4973 66.1672C95.865 67.4401 95.5165 68.7514 94.5662 69.6751L75.6305 88.0791L75.1558 88.5297C70.3615 92.9705 64.1957 95.4727 57.6627 95.6296L57.0081 95.6373V95.1423C63.8727 95.1423 70.3625 92.5085 75.2854 87.7242L94.221 69.3203L94.369 69.1675C95.0286 68.4362 95.2843 67.472 95.0738 66.5104L95.0216 66.3045C94.705 65.2067 93.8544 64.4151 92.7369 64.1773V64.1763C92.2722 64.0788 91.791 64.0918 91.332 64.2131C90.8723 64.3346 90.4466 64.5624 90.0905 64.8773L71.119 81.7266C67.5494 84.8971 62.9749 86.6671 58.209 86.738L58.21 86.739L57.9209 86.7477C57.2058 86.7474 56.4946 86.65 55.8063 86.4595L55.5124 86.3725L37.3763 80.6049C36.0977 80.1983 35.391 78.8326 35.7974 77.5544L35.8844 77.3214C36.3743 76.1918 37.6498 75.5948 38.8479 75.9754L56.9849 81.743H56.9859L57.2325 81.8107C57.8127 81.9437 58.4212 81.9055 58.9825 81.6966C59.6242 81.4578 60.1674 81.0101 60.5247 80.4261L60.6069 80.2839C60.9984 79.5662 61.0853 78.7479 60.8516 77.9556C60.6178 77.1637 60.1009 76.5251 59.3828 76.135L59.2368 76.0605L45.5843 69.5214C40.8254 67.242 35.2782 66.9146 30.288 68.6028L29.8065 68.773L21.876 71.6843V93.9607L21.8712 94.1938C21.859 94.5126 21.8214 94.8298 21.759 95.1423H57.0081V95.6373H21.1209C21.2717 95.1631 21.3581 94.671 21.3771 94.1744L21.381 93.9617V71.3391L29.6363 68.3079C34.8744 66.3849 40.7661 66.664 45.7989 69.0747L59.4505 75.6138C60.3712 76.0547 61.0374 76.8371 61.3263 77.8164C61.6151 78.7955 61.4809 79.8142 60.9473 80.6842L60.781 80.9318C60.372 81.4893 59.8076 81.9169 59.1556 82.1597L58.8723 82.2525C58.2063 82.4387 57.498 82.4265 56.8351 82.2148L38.698 76.4473C37.6806 76.124 36.5932 76.6864 36.2692 77.7042L36.2189 77.8957C36.0177 78.8551 36.5717 79.8296 37.5262 80.1331L55.6632 85.9007C56.3019 86.1042 56.9647 86.2207 57.6337 86.2468L57.9209 86.2526C58.0113 86.2526 58.1016 86.2472 58.1916 86.2439C62.6976 86.1791 67.0286 84.5565 70.4615 81.6424L70.7903 81.3572L89.7627 64.5061C90.125 64.1856 90.5488 63.9436 91.0071 63.7935L91.2053 63.7345ZM17.0183 93.9617V71.0133C17.0183 70.3625 16.4876 69.8317 15.8368 69.8317H6.03923C5.38845 69.8317 4.85768 70.3625 4.85768 71.0133V93.9617C4.85783 94.6122 5.38788 95.1422 6.03826 95.1423H15.8368V95.6373H6.03923L5.86809 95.6286C5.08016 95.5487 4.45172 94.9207 4.37133 94.1328L4.36263 93.9617V71.0133C4.36263 70.1467 5.02379 69.4312 5.86809 69.3454L6.03923 69.3367H15.8368L16.0079 69.3454C16.8521 69.4313 17.5134 70.1468 17.5134 71.0133V93.9617L17.5047 94.1328C17.4242 94.9205 16.7956 95.5484 16.0079 95.6286L15.8368 95.6373V95.1423C16.4874 95.1423 17.0181 94.6123 17.0183 93.9617ZM41.8521 1.96406C43.3807 1.17655 45.2398 1.45433 46.4758 2.6902C46.77 2.98443 47.1588 3.14553 47.5751 3.14561V3.64066L47.3721 3.63099C46.9684 3.59151 46.5899 3.43491 46.2766 3.17752L46.1257 3.04022C44.9707 1.88526 43.1978 1.68565 41.8144 2.55483L41.5639 2.72694C40.3616 3.63364 39.8756 5.20412 40.3814 6.64965L44.394 18.119L31.2578 31.2544L30.8072 31.7146C26.1968 36.5005 23.1256 42.4564 21.9127 48.9805C20.8145 54.8866 21.291 60.9088 23.2819 66.5211L20.2323 67.6408L20.036 67.399C19.0865 66.2972 17.7126 65.5708 16.1704 65.4788L15.8368 65.4691V64.974C17.6539 64.974 19.284 65.7823 20.3909 67.0538L22.6544 66.2233C20.7699 60.6613 20.3425 54.7188 21.4264 48.8897C22.6968 42.0564 25.976 35.8364 30.9078 30.9043L43.8236 17.9875L39.9144 6.81306C39.2986 5.05308 39.9726 3.1271 41.5514 2.1352L41.8521 1.96406ZM15.8368 64.974V65.4691H6.03923V64.974H15.8368ZM51.7598 5.77558C53.6457 3.88968 56.7147 3.88968 58.6006 5.77558C59.6486 6.82355 61.0205 7.42984 62.4904 7.50149L62.7853 7.50923C63.9077 7.50922 64.9823 7.19887 65.9113 6.61871L62.4885 16.4695H47.9155L44.4733 6.63322C45.2815 7.13237 46.1982 7.42852 47.1603 7.49472L47.5751 7.50923C49.057 7.50923 50.4559 6.96816 51.5462 5.97959L51.7598 5.77558ZM58.2506 6.12559C56.611 4.48602 53.9743 4.43497 52.2723 5.97186L52.1099 6.12559C50.8991 7.33616 49.2871 8.00428 47.5751 8.00428C46.7993 8.00427 46.0441 7.86605 45.3368 7.60302L48.2664 15.9744H62.1366L65.0479 7.59335C64.3335 7.86232 63.57 8.00428 62.7853 8.00428C61.0734 8.00428 59.4612 7.33621 58.2506 6.12559Z" fill="#9F7834"/>
<path d="M81.4728 38.977C81.9814 38.977 82.4804 38.772 82.8398 38.4104C83.2015 38.0471 83.4052 37.5558 83.4066 37.0432C83.4066 36.5346 83.1997 36.0376 82.8398 35.676C82.4764 35.3147 81.9853 35.1111 81.4728 35.1094C80.9641 35.1094 80.4673 35.3163 80.1057 35.676C79.7446 36.0397 79.5411 36.5307 79.5391 37.0432C79.5391 37.5537 79.7458 38.0507 80.1057 38.4104C80.4685 38.7726 80.9601 38.9763 81.4728 38.977Z" fill="#9F7834"/>
<path d="M81.4757 34.6133L81.7145 34.6259C82.19 34.6742 82.6408 34.8614 83.0111 35.1634L83.19 35.324L83.1919 35.3259L83.3515 35.5038C83.7034 35.9354 83.9026 36.4815 83.9026 37.0421V37.0431C83.901 37.6057 83.7053 38.1484 83.3524 38.5805L83.1919 38.7584C82.7385 39.2145 82.1127 39.471 81.4738 39.471H81.4728C80.9099 39.4702 80.3674 39.2742 79.9354 38.9208L79.7566 38.7593C79.304 38.307 79.0449 37.6842 79.0449 37.0421V37.0402L79.0575 36.8004C79.1143 36.2461 79.3596 35.7247 79.7556 35.3259L79.7575 35.324L79.9354 35.1644C80.367 34.8126 80.9128 34.6133 81.4738 34.6133H81.4757ZM79.54 37.0421C79.54 37.5527 79.7467 38.0496 80.1066 38.4093C80.424 38.7262 80.8399 38.9218 81.2823 38.9663L81.4738 38.9759C81.9187 38.9759 82.3565 38.8193 82.6998 38.5379L82.841 38.4093C83.2026 38.0461 83.4061 37.5547 83.4076 37.0421C83.4076 36.5336 83.2008 36.0365 82.841 35.6749C82.4775 35.3137 81.9862 35.1101 81.4738 35.1083C80.965 35.1083 80.4682 35.3153 80.1066 35.6749C79.7456 36.0386 79.542 36.5297 79.54 37.0421Z" fill="#9F7834"/>
</svg>
