<svg width="60" height="60" viewBox="0 0 60 60" fill="none" xmlns="http://www.w3.org/2000/svg">
<rect x="0.5" y="0.5" width="59" height="59" rx="9.5" fill="#E9F3FF" stroke="#F3F3F5"/>
<path d="M25.25 23.5V16.9375C25.25 16.4197 25.6697 16 26.1875 16C26.7052 16 27.125 16.4197 27.125 16.9375V23.5H25.25ZM22.4375 42.2499C21.6862 42.2499 20.98 41.9574 20.4487 41.4262C17.6252 38.6016 15.428 35.2142 14 31.4843V43.1874C14 43.7049 14.42 44.1249 14.9375 44.1249H37.4374C37.9549 44.1249 38.3749 43.7049 38.3749 43.1874V42.2499H22.4375Z" fill="#007AFF"/>
<path d="M45.7255 38.7743C41.0543 34.1031 38.3749 27.745 38.3749 21.3306V20.6875C38.3749 20.17 37.9549 19.75 37.4374 19.75H29V24.4375C29 24.955 28.58 25.375 28.0625 25.375H24.3125C23.795 25.375 23.375 24.955 23.375 24.4375V19.75H14.9375C14.42 19.75 14 20.17 14 20.6875V21.3306C14 28.5544 16.9231 35.2493 21.7744 40.1006C21.9506 40.2762 22.1887 40.3749 22.4375 40.3749H45.0624C45.4418 40.3749 45.7837 40.1468 45.9287 39.7962C45.9996 39.6249 46.0182 39.4363 45.982 39.2545C45.9458 39.0726 45.8566 38.9055 45.7255 38.7743ZM26.1875 27.25H33.6874C34.2049 27.25 34.6249 27.67 34.6249 28.1875C34.6249 28.705 34.2049 29.125 33.6874 29.125H26.1875C25.67 29.125 25.25 28.705 25.25 28.1875C25.25 27.67 25.67 27.25 26.1875 27.25ZM33.6874 36.625H24.3125C23.795 36.625 23.375 36.205 23.375 35.6875C23.375 35.17 23.795 34.75 24.3125 34.75H33.6874C34.2049 34.75 34.6249 35.17 34.6249 35.6875C34.6249 36.205 34.2049 36.625 33.6874 36.625ZM35.5624 32.875H22.4375C21.92 32.875 21.5 32.455 21.5 31.9375C21.5 31.42 21.92 31 22.4375 31H35.5624C36.0799 31 36.4999 31.42 36.4999 31.9375C36.4999 32.455 36.0799 32.875 35.5624 32.875Z" fill="#007AFF"/>
</svg>
