<svg width="81" height="80" viewBox="0 0 81 80" fill="none" xmlns="http://www.w3.org/2000/svg">
<path d="M77.9866 29.6255C75.0233 27.1389 70.5893 27.5279 68.1072 30.4858L61.4361 38.3802V15.4885C61.4361 13.5698 60.6383 11.7118 59.2474 10.3907L50.3446 1.93348C49.0322 0.686733 47.3125 0 45.5024 0H7.5311C3.65422 0 0.5 3.15429 0.5 7.03125V72.9688C0.5 76.8457 3.65422 80 7.5311 80H54.4052C58.2821 80 61.4363 76.8457 61.4363 72.9688V60.1621L78.8532 39.5313C81.3512 36.5544 80.964 32.1237 77.9866 29.6255ZM47.3741 5.57668C56.7511 14.4844 56.0852 13.8333 56.261 14.0626H47.3741V5.57668ZM56.7488 72.9688C56.7488 74.2611 55.6974 75.3126 54.405 75.3126H7.5311C6.23875 75.3126 5.18735 74.2611 5.18735 72.9688V7.03125C5.18735 5.73887 6.23875 4.68744 7.5311 4.68744H42.6866V16.4061C42.6866 17.7005 43.736 18.7499 45.0303 18.7499H56.7488V43.9269L46.7847 55.7178C46.0842 56.5547 45.587 57.5425 45.3322 58.6038L43.1541 67.7221C43.0529 68.1455 43.0716 68.5886 43.2081 69.002C43.3447 69.4153 43.5936 69.7825 43.927 70.0623C44.2605 70.3421 44.6653 70.5235 45.096 70.5862C45.5268 70.6488 45.9665 70.5903 46.3658 70.4171L54.9674 66.6886C55.6136 66.4071 56.214 66.0305 56.7488 65.5713V72.9688ZM51.1743 57.7859L54.7646 60.7985L53.9661 61.7441C53.7321 62.0225 53.4367 62.2429 53.1032 62.3879L48.8025 64.2522L49.8918 59.693C49.9757 59.3419 50.1395 59.0148 50.3705 58.7374L51.1743 57.7859ZM57.7882 57.2167L54.1996 54.2055L67.1543 38.8755L70.7354 41.8804L57.7882 57.2167ZM75.2671 36.5128L73.7594 38.2988L70.1801 35.2953L71.6929 33.5051C72.5193 32.5202 73.9913 32.3918 74.9737 33.2162C75.9755 34.0567 76.086 35.5369 75.2671 36.5128Z" fill="#AA884D"/>
<path d="M35.6558 14.0625H12.2188C10.9244 14.0625 9.875 15.1119 9.875 16.4063C9.875 17.7007 10.9244 18.7501 12.2188 18.7501H35.6558C36.9502 18.7501 37.9996 17.7007 37.9996 16.4063C37.9996 15.1119 36.9502 14.0625 35.6558 14.0625ZM49.718 28.2812H12.2188C10.9244 28.2812 9.875 29.3306 9.875 30.625C9.875 31.9194 10.9244 32.9688 12.2188 32.9688H49.718C51.0124 32.9688 52.0617 31.9194 52.0617 30.625C52.0617 29.3306 51.0124 28.2812 49.718 28.2812ZM49.718 42.3439H12.2188C10.9244 42.3439 9.875 43.3933 9.875 44.6877C9.875 45.9821 10.9244 47.0315 12.2188 47.0315H49.718C51.0124 47.0315 52.0617 45.9821 52.0617 44.6877C52.0617 43.3931 51.0124 42.3439 49.718 42.3439ZM35.6558 56.4064H12.2188C10.9244 56.4064 9.875 57.4558 9.875 58.7502C9.875 60.0446 10.9244 61.094 12.2188 61.094H35.6558C36.9502 61.094 37.9996 60.0446 37.9996 58.7502C37.9996 57.4558 36.9502 56.4064 35.6558 56.4064Z" fill="#AA884D"/>
</svg>
