<svg width="100" height="100" viewBox="0 0 100 100" fill="none" xmlns="http://www.w3.org/2000/svg">
<path d="M8.78906 0.150391H56.2529C58.3381 0.150391 60.3256 0.891155 61.8945 2.24609L62.2021 2.52539L73.3311 13.0967C75.0399 14.7197 76.0205 17.0032 76.0205 19.3604V48.3838L76.2852 48.0713L84.624 38.2031C87.578 34.6829 92.7827 34.1243 96.415 36.8701L96.7617 37.1455C100.306 40.1191 100.863 45.3212 98.1035 48.9688L97.8262 49.3164L76.0557 75.1045L76.0205 75.1465V91.209C76.0205 95.9721 72.1449 99.8475 67.3818 99.8477H8.78906C4.02581 99.8477 0.150391 95.9722 0.150391 91.209V8.78906C0.150391 4.02581 4.02581 0.150391 8.78906 0.150391ZM8.78906 5.70898C7.09079 5.70898 5.70898 7.09079 5.70898 8.78906V91.209C5.70898 92.9073 7.09079 94.2891 8.78906 94.2891H67.3809C69.0791 94.2891 70.4609 92.9073 70.4609 91.209V81.6357L70.2129 81.8486C69.638 82.3422 69.0013 82.758 68.3193 83.0859L68.0244 83.2217L57.2725 87.8818C56.7988 88.0872 56.2774 88.1564 55.7666 88.082C55.2558 88.0077 54.7753 87.7928 54.3799 87.4609C53.9846 87.1292 53.6892 86.694 53.5273 86.2041C53.3857 85.7752 53.3509 85.3187 53.4248 84.875L53.4639 84.6855L56.1865 73.2881C56.4605 72.147 56.9622 71.0749 57.6602 70.1357L57.9707 69.7422L70.4258 55.0039L70.4609 54.9619V23.2871H55.6631C54.128 23.2871 52.8828 22.042 52.8828 20.5068V5.70898H8.78906ZM63.2285 72.1338L62.2236 73.3232L62.2227 73.3242C61.9572 73.6432 61.7589 74.012 61.6396 74.4082L61.5938 74.5801L60.2324 80.2783L60.1621 80.5703L60.4375 80.4512L65.8135 78.1211C66.1969 77.9544 66.5419 77.7113 66.8281 77.4082L66.9473 77.2754L67.9453 76.0938L68.042 75.9785L67.9268 75.8818L63.4395 72.1162L63.3252 72.0195L63.2285 72.1338ZM83.2031 48.4961L67.0098 67.6592L66.9131 67.7734L67.0283 67.8701L71.5137 71.6348L71.6279 71.7305L71.7246 71.6162L87.9092 52.4463L88.0059 52.3311L87.8906 52.2344L83.4141 48.4785L83.2998 48.3828L83.2031 48.4961ZM93.1885 41.4043C91.8973 40.3208 89.9633 40.4896 88.877 41.7832L86.9854 44.0215L86.8887 44.1367L87.0039 44.2334L91.4775 47.9873L91.5928 48.084L91.6885 47.9697L93.5732 45.7373L93.5742 45.7363C94.6166 44.4938 94.5126 42.63 93.3086 41.5107L93.1885 41.4043ZM58.4424 17.7275H70.0049L69.8203 17.4863C69.8086 17.471 69.8006 17.4594 69.792 17.4473C69.7833 17.435 69.7728 17.421 69.7598 17.4043C69.7333 17.3706 69.697 17.3299 69.6279 17.2598C69.4898 17.1197 69.2048 16.8446 68.5635 16.2334C67.2788 15.0091 64.5563 12.4289 58.6963 6.8623L58.4424 6.62109V17.7275Z" fill="#9F7834" stroke="white" stroke-width="0.3"/>
<path d="M14.6484 70.6572H43.9443C45.4794 70.6572 46.7246 71.9014 46.7246 73.4365C46.7246 74.9717 45.4795 76.2158 43.9443 76.2158H14.6484C13.1133 76.2158 11.8691 74.9717 11.8691 73.4365C11.8692 71.9014 13.1133 70.6572 14.6484 70.6572ZM14.6484 53.0791H61.5225C63.0575 53.0791 64.3015 54.3233 64.3018 55.8584C64.3018 57.3935 63.0576 58.6387 61.5225 58.6387H14.6484C13.1133 58.6387 11.8691 57.3935 11.8691 55.8584C11.8694 54.3235 13.1135 53.0791 14.6484 53.0791ZM14.6484 35.501H61.5225C63.0576 35.501 64.3018 36.7461 64.3018 38.2812C64.3016 39.8162 63.0575 41.0605 61.5225 41.0605H14.6484C13.1134 41.0605 11.8693 39.8162 11.8691 38.2812C11.8691 36.7461 13.1133 35.501 14.6484 35.501ZM14.6484 17.7285H43.9443C45.4795 17.7285 46.7246 18.9727 46.7246 20.5078C46.7246 22.0429 45.4795 23.2871 43.9443 23.2871H14.6484C13.1133 23.2871 11.8691 22.0429 11.8691 20.5078C11.8691 18.9727 13.1133 17.7285 14.6484 17.7285Z" fill="#9F7834" stroke="white" stroke-width="0.3"/>
</svg>
