<svg width="100" height="100" viewBox="0 0 100 100" fill="none" xmlns="http://www.w3.org/2000/svg">
<g clip-path="url(#clip0_2702_9019)">
<path d="M55.5452 87.2066C57.1508 87.8241 58.8306 88.1453 60.535 88.1453C74.22 88.0959 79.8274 70.508 68.662 62.5539C76.542 60.7259 86.1758 55.3656 86.1511 47.3621V29.2554L91.9808 26.884V37.4318C87.658 38.8398 86.5464 44.6448 90.1035 47.535C88.3249 52.179 87.7321 56.8971 88.3496 61.5658C88.4484 62.2574 88.9178 62.8503 89.5847 63.0726C90.9433 63.542 92.3761 63.789 93.8088 63.789C95.2415 63.789 96.6742 63.542 98.0328 63.0726C98.6998 62.8503 99.1691 62.2574 99.268 61.5658C99.8855 56.8971 99.2927 52.179 97.5388 47.535C100.058 45.4847 100.429 41.8041 98.3787 39.2845C97.687 38.4199 96.7483 37.7776 95.6861 37.4318V25.3772L97.687 24.562C99.1938 23.9692 99.2186 21.7213 97.687 21.1284L56.6321 4.40508C56.1874 4.23216 55.6934 4.23216 55.2488 4.40508L14.1691 21.1284C13.2304 21.5236 12.7611 22.5858 13.1563 23.5492C13.354 24.0186 13.6998 24.3891 14.1691 24.562L25.7297 29.2554V45.7564L19.3813 43.3356C12.5635 40.7419 8.78406 46.2011 6.04213 50.771C5.35047 50.5733 4.65881 50.3263 3.99185 50.2028C1.71926 49.857 1.29932 51.1909 1.0276 52.0308C-1.36851 59.1944 2.31211 66.9756 9.37692 69.6681L18.986 73.324C15.1325 76.2635 10.4885 77.5481 4.90583 77.2763C3.86834 77.2269 3.00377 78.0421 2.95436 79.0549C2.95436 79.2031 2.95436 79.3513 2.97906 79.4995L4.78232 87.8488C4.95524 88.664 5.6469 89.2569 6.46207 89.3063C12.1436 89.7015 16.664 88.8369 20.4188 86.589C20.0235 87.7747 19.3319 88.8369 18.3932 89.6521C17.6521 90.3685 17.6274 91.5542 18.3191 92.2952C18.492 92.4681 18.6896 92.6164 18.9366 92.7152C19.1837 92.7646 27.5577 96.5193 27.5577 96.1982C28.1258 96.1982 28.694 95.9264 29.0398 95.4818C33.2639 89.9732 35.1165 84.6376 34.6719 79.2772L55.5452 87.2066ZM55.9157 8.11039L91.7832 22.7094L56.0145 20.9802C55.0017 20.9308 54.1125 21.7213 54.0631 22.7341C54.0137 23.7468 54.8041 24.6361 55.8169 24.6855L84.175 26.0441L55.9157 37.5553L19.7518 22.8329L55.9157 8.11039ZM33.8073 75.0037C33.1898 72.1136 33.3133 69.0999 34.1779 66.2592L47.2453 71.0761C47.2947 74.6085 48.2087 78.0421 49.9131 81.1299L33.8073 75.0037ZM31.4112 63.0479C30.0032 66.3333 29.435 69.9398 29.8303 73.4969L24.05 71.2984C22.1973 63.9372 25.7297 55.6126 32.7451 52.4013L38.4513 54.5504C35.3142 56.6501 32.8686 59.5896 31.4112 63.0479ZM18.0227 46.8186L28.2987 50.7216C25.6803 52.5495 23.5559 55.0197 22.0985 57.8605L8.98168 53.0188C12.2424 47.5844 14.4162 45.4353 18.0227 46.8186ZM4.04126 55.1432L20.7152 61.2941C19.9 64.036 19.653 66.9261 19.9988 69.7422L10.6367 66.1851C6.14094 64.4806 3.4237 59.9107 4.04126 55.1432ZM26.9154 92.0976L22.7161 90.3191C24.2476 88.0465 24.7416 85.428 24.1735 82.4885C23.9759 81.4757 23.0125 80.8334 21.9997 81.0311C21.6539 81.1052 21.3327 81.2534 21.0857 81.5004C17.8497 84.5388 13.7245 85.8727 8.11711 85.7245L7.10432 81.0311C13.3293 80.8829 18.6402 78.8079 22.9384 74.8555L30.6701 77.7704C31.6335 82.4391 30.3984 87.1325 26.9154 92.0976ZM70.243 77.7457C68.0939 83.4766 61.4243 85.9715 55.9404 83.4025C52.3339 79.1043 50.7036 74.6826 50.9506 69.8657C51 69.0505 50.506 68.3095 49.7402 68.0377L35.6353 62.8503C37.315 59.9355 39.8593 57.6382 42.9224 56.2795L57.9166 61.961C53.6925 64.7277 52.408 69.6928 54.8288 74.7567C56.5827 78.6597 59.4234 80.2653 61.9183 80.2653C65.5495 80.2653 68.1186 76.9552 67.3775 73.1758C66.34 67.4943 60.5844 68.1613 57.299 69.594C57.1755 66.2592 60.7573 64.283 62.5606 63.7396L64.1909 64.3571C69.6007 66.4074 72.2685 72.3853 70.243 77.7457ZM58.2377 73.2499C59.374 72.7064 61.8195 71.8913 62.9805 72.4841C63.1534 72.5582 63.5734 72.7805 63.771 73.818C64.018 75.152 63.524 76.1647 62.5359 76.4859C61.3008 76.8564 59.4728 76.0165 58.2377 73.2499ZM82.4458 47.3621C82.4458 53.093 74.2694 58.3298 62.9064 59.886L29.4103 47.1645V30.7622L55.2488 41.2853C55.4711 41.3842 55.7181 41.4336 55.9404 41.4336C56.1874 41.4336 56.4098 41.3842 56.6321 41.2853L82.4705 30.7622L82.4458 47.3621ZM93.8335 40.8407C95.0192 40.8407 96.0073 41.8041 96.0073 43.0145C95.8838 45.8799 91.8079 45.8799 91.6844 43.0145C91.6597 41.8041 92.6231 40.8407 93.8335 40.8407ZM95.7356 59.886C94.4757 60.1578 93.1665 60.1578 91.9067 59.886C91.6103 56.1313 92.1784 52.3766 93.5618 48.8689H94.0558C95.4391 52.3519 96.032 56.1313 95.7356 59.886Z" fill="#9F7834"/>
<path d="M55.3357 4.06089C55.7306 3.94841 56.1494 3.94849 56.5443 4.06089L56.7404 4.12593L56.7443 4.12787L97.7947 20.8492L97.9568 20.92C99.5824 21.7041 99.4934 24.171 97.7957 24.839L97.7947 24.838L95.9842 25.5768V37.2181C97.0151 37.5946 97.9256 38.2419 98.6092 39.0955H98.6101C100.718 41.6868 100.388 45.447 97.8889 47.6256C99.6019 52.249 100.179 56.9486 99.5634 61.6035V61.6074C99.4496 62.4037 98.9075 63.0923 98.1286 63.3528L98.1296 63.3538C96.7408 63.8335 95.2754 64.0867 93.8088 64.0867C92.342 64.0867 90.876 63.8336 89.487 63.3538V63.3528C88.7089 63.0919 88.1679 62.4032 88.0541 61.6074V61.6035C87.4386 56.9496 88.0147 52.2507 89.751 47.6275C86.2638 44.5922 87.3741 38.7888 91.6828 37.2181V27.3261L86.4495 29.454V47.3605L86.4427 47.7459C86.3053 51.7063 83.8727 54.9939 80.5511 57.5108C77.2976 59.9761 73.1544 61.7311 69.3486 62.6917C80.0583 70.9806 74.2955 88.3932 60.5361 88.443H60.5351C58.793 88.443 57.0771 88.114 55.4386 87.4839V87.4849L35.0013 79.7198C35.3105 85.0148 33.4106 90.2715 29.2767 95.6625L29.2748 95.6645L29.2738 95.6635C28.8896 96.1573 28.2783 96.4608 27.6536 96.4896C27.6217 96.5021 27.5943 96.5084 27.5769 96.511C27.5141 96.5201 27.4526 96.512 27.4158 96.5061C27.332 96.4926 27.225 96.4632 27.108 96.4265C26.8685 96.3513 26.5328 96.2273 26.1373 96.0731C25.3439 95.7638 24.2854 95.3218 23.2231 94.8694C22.16 94.4167 21.0883 93.9524 20.2691 93.5987C19.8591 93.4217 19.5128 93.272 19.2614 93.1657C19.1357 93.1126 19.0348 93.0706 18.9624 93.0415C18.9265 93.027 18.8991 93.0165 18.8799 93.0094C18.8602 93.0021 18.8573 93.0017 18.8644 93.0036L18.8508 93.0017L18.8255 92.991C18.5322 92.8736 18.3017 92.6991 18.1081 92.5056L18.1004 92.4978V92.4969C17.2984 91.6368 17.3282 90.2662 18.1858 89.4371L18.1916 89.4312L18.1975 89.4264C18.8846 88.8296 19.4325 88.092 19.8225 87.2684C16.1538 89.2381 11.7953 89.9754 6.44159 89.603V89.6021C5.49307 89.5436 4.69118 88.8552 4.49037 87.911L2.68767 79.5615L2.68573 79.5547L2.68476 79.5479C2.65533 79.3714 2.65563 79.1981 2.65563 79.0538V79.047L2.65661 79.0393C2.71392 77.8663 3.71385 76.9202 4.91944 76.9774H4.92041L5.43491 76.9978C10.5222 77.1585 14.7876 75.9832 18.3693 73.4079L9.27037 69.9462C2.0562 67.1967 -1.70263 59.2501 0.744213 51.9348C0.876576 51.5255 1.06907 50.9081 1.55577 50.4534C2.0315 50.0089 2.74146 49.757 3.81666 49.8777L4.03605 49.9068L4.04576 49.9088L4.30495 49.9622C4.83718 50.0822 5.38745 50.2624 5.9067 50.4175C7.25295 48.1866 8.87538 45.7308 11.0032 44.1279C13.218 42.4596 15.9751 41.7199 19.4876 43.0562L25.4315 45.3229V29.4549L14.0659 24.8399V24.8409C13.5068 24.6349 13.1058 24.1965 12.8816 23.6644L12.8806 23.6614C12.421 22.5411 12.9695 21.3094 14.0533 20.853L14.0562 20.8511L55.1357 4.12787L55.1406 4.12593L55.3357 4.06089ZM30.6697 77.7695C31.6331 82.4382 30.3979 87.1318 26.9149 92.0969L22.7163 90.3185C24.1521 88.1879 24.6759 85.753 24.2676 83.0349L24.1734 82.4874C23.9758 81.4748 23.0125 80.8329 21.9999 81.0303C21.6541 81.1044 21.3325 81.2522 21.0855 81.4992C17.8495 84.5375 13.7244 85.8721 8.11711 85.7239L7.10461 81.0303C13.3293 80.882 18.6406 78.8066 22.9386 74.8543L30.6697 77.7695ZM23.0017 75.197C18.7546 79.0448 13.5432 81.0981 7.47059 81.3157L8.35786 85.4298C13.6176 85.5305 17.5088 84.2937 20.5826 81.5555L20.8816 81.2817C21.1777 80.9888 21.5527 80.8204 21.9368 80.7381L21.9426 80.7371L22.1611 80.7061C23.1792 80.6103 24.1179 81.235 24.4132 82.2156L24.4656 82.4301V82.4311L24.5627 82.9912C24.9619 85.65 24.4875 88.0561 23.1561 90.1807L26.8071 91.7271C30.1118 86.9403 31.2782 82.4432 30.4076 77.9889L23.0017 75.197ZM57.916 61.9598C53.6921 64.7264 52.4084 69.6915 54.829 74.7553C56.5281 78.5364 59.2469 80.1617 61.6835 80.2595L61.9184 80.2644C65.5495 80.2642 68.118 76.9543 67.377 73.1749C66.3395 67.4934 60.584 68.1601 57.2986 69.5928C57.1753 66.2583 60.7568 64.2817 62.5601 63.7382L64.191 64.3566C69.6004 66.4069 72.2679 72.3841 70.2427 77.7443C68.0936 83.4751 61.4243 85.9706 55.9405 83.4019C52.334 79.1037 50.7038 74.6816 50.9508 69.8646C51.0001 69.0496 50.5059 68.3085 49.7403 68.0367L35.6352 62.849C37.3149 59.9343 39.8597 57.6375 42.9226 56.2789L57.916 61.9598ZM42.9343 56.6022C40.0859 57.8921 37.7036 60.0127 36.0769 62.6937L49.8432 67.7571H49.8422C50.7312 68.0739 51.3053 68.9356 51.2479 69.8831C51.0072 74.5915 52.5896 78.9236 56.124 83.1563C61.4479 85.612 67.8856 83.1796 69.9631 77.6404L69.9641 77.6394L70.1349 77.1492C71.7139 72.2369 69.3388 66.9199 64.5696 64.8332L64.0852 64.6352L62.5533 64.0547C61.6872 64.3307 60.4352 64.9307 59.4051 65.8428C58.4415 66.6961 57.6974 67.7979 57.6054 69.1443C59.2339 68.5068 61.3456 68.0754 63.2348 68.4231C64.2695 68.6135 65.2469 69.0394 66.0344 69.8025C66.8223 70.5661 67.4012 71.6484 67.6702 73.1176L67.7323 73.4856C68.2743 77.2769 65.6366 80.5622 61.9184 80.5624C59.2859 80.5624 56.3518 78.8687 54.5591 74.8844L54.3388 74.4C53.2898 71.9783 53.0613 69.578 53.5913 67.4251C54.1148 65.2984 55.375 63.4321 57.2811 62.0384L42.9343 56.6022ZM47.2454 71.0752C47.2948 74.6076 48.2086 78.0415 49.9131 81.1293L33.8072 75.0029C33.1897 72.1127 33.3135 69.099 34.1781 66.2583L47.2454 71.0752ZM34.3751 66.6485C33.6214 69.2995 33.519 72.0925 34.0674 74.7825L49.2811 80.5692C47.8228 77.6851 47.0281 74.5283 46.9523 71.2849L34.3751 66.6485ZM58.2373 73.2487C59.3736 72.7053 61.8194 71.89 62.9804 72.4828C63.1533 72.5569 63.573 72.7801 63.7706 73.8176C64.0175 75.1513 63.5238 76.1641 62.5358 76.4852L62.4184 76.5163C61.1871 76.8013 59.4339 75.929 58.2373 73.2487ZM61.9107 72.575C61.5283 72.5764 61.1003 72.6354 60.6642 72.7313C59.9217 72.8946 59.1795 73.161 58.6353 73.3982C59.7588 75.7234 61.2569 76.4083 62.2514 76.2454L62.4504 76.1988C63.2454 75.9365 63.7059 75.1088 63.4775 73.8729L63.4415 73.7011C63.3514 73.3226 63.2317 73.1016 63.1309 72.972C63.0198 72.8292 62.919 72.7815 62.863 72.7575L62.8533 72.7536L62.8445 72.7488C62.6133 72.6307 62.2962 72.5736 61.9107 72.575ZM38.4513 54.549C35.3142 56.6487 32.8688 59.5888 31.4114 63.047C30.0034 66.3324 29.4348 69.9391 29.83 73.4962L24.0502 71.2975C22.1975 63.9362 25.7298 55.612 32.7452 52.4007L38.4513 54.549ZM32.7578 52.724C26.0062 55.8849 22.5766 63.9163 24.3026 71.0742L29.4883 73.0468C29.2076 69.8196 29.6999 66.5676 30.8794 63.5576L31.1367 62.9296C32.5434 59.5925 34.8562 56.7326 37.8145 54.6276L32.7578 52.724ZM20.7146 61.2929C19.8995 64.0348 19.6524 66.9253 19.9982 69.7414L10.6362 66.1845C6.14054 64.48 3.42336 59.9096 4.0409 55.1421L20.7146 61.2929ZM4.29621 55.5537C3.88084 60.0487 6.49387 64.2942 10.742 65.9049L19.6487 69.289C19.3914 66.6792 19.6333 64.0189 20.3525 61.4773L4.29621 55.5537ZM94.0553 48.8681C95.4386 52.3511 96.0321 56.1306 95.7357 59.8853C94.4759 60.157 93.1659 60.157 91.9061 59.8853C91.6097 56.1306 92.178 52.3758 93.5612 48.8681H94.0553ZM82.1471 47.3605L82.1713 31.2042L56.7521 41.5564L56.753 41.5574C56.4941 41.6724 56.2306 41.7311 55.9405 41.7311C55.6771 41.7311 55.3881 41.6734 55.127 41.5574V41.5564L29.7087 31.2042V46.9577L62.9377 59.5775C68.5568 58.7993 73.3711 57.1191 76.7759 54.9373C80.2053 52.7397 82.1469 50.0769 82.1471 47.3615V47.3605ZM93.768 49.1662C92.4817 52.5072 91.9404 56.0683 92.1886 59.6348C93.2656 59.8385 94.3742 59.8382 95.4513 59.6348C95.6984 56.0686 95.1375 52.4854 93.8505 49.1662H93.768ZM8.98109 53.0181C12.2418 47.5837 14.4162 45.4346 18.0227 46.8179L28.2982 50.7203C25.6798 52.5483 23.5554 55.0186 22.098 57.8593L8.98109 53.0181ZM17.9159 47.0965C17.0479 46.7636 16.2848 46.6497 15.5822 46.7344C14.8811 46.819 14.2176 47.1037 13.5504 47.6003C12.2531 48.5662 10.9725 50.3124 9.42472 52.8638L21.9572 57.4894C23.3447 54.8696 25.2938 52.569 27.675 50.8019L17.9169 47.0965H17.9159ZM94.0534 40.8506C95.1388 40.961 96.0075 41.8789 96.0075 43.0135C95.884 45.8789 91.8073 45.8789 91.6838 43.0135C91.6591 41.8032 92.6228 40.8401 93.833 40.84L94.0534 40.8506ZM93.833 41.138C92.7863 41.1381 91.9616 41.9679 91.9828 43.0077C92.0959 45.4814 95.5901 45.4833 95.7085 43.0135L95.6988 42.8203C95.6013 41.8692 94.7922 41.138 93.833 41.138ZM91.7828 22.7082L56.0143 20.9792L56.0288 20.6812L90.05 22.3257L55.9153 8.43124L20.5418 22.8315L55.9143 37.2317L82.812 26.2757L55.8027 24.9827C54.6219 24.9251 53.7079 23.8925 53.765 22.7188C53.8226 21.5381 54.8551 20.624 56.0288 20.6812L56.0143 20.9792C55.0015 20.9299 54.1125 21.7206 54.0631 22.7334V22.9217C54.1131 23.854 54.8678 24.6383 55.8172 24.6846L84.175 26.0437L55.9153 37.554L19.7516 22.8315L55.9153 8.10992L91.7828 22.7082ZM2.95463 79.0538C2.95463 79.202 2.95422 79.3503 2.9789 79.4984L4.78256 87.8479C4.95551 88.663 5.64683 89.2556 6.46197 89.305C12.1434 89.7002 16.6638 88.8358 20.4186 86.5879C20.0233 87.7736 19.3313 88.8364 18.3926 89.6516L18.2625 89.7904C17.6516 90.5136 17.6705 91.5992 18.3188 92.294C18.4917 92.4669 18.6893 92.6155 18.9362 92.7143L19.0741 92.7648C20.1793 93.2095 27.3198 96.3923 27.5517 96.2091L27.5575 96.1974C28.0547 96.1974 28.5519 95.9892 28.9001 95.6392L29.0398 95.481C33.2639 89.9724 35.1168 84.6365 34.6722 79.2761L55.5454 87.2053C57.0507 87.7842 58.6209 88.1026 60.2157 88.1401L60.5351 88.144C74.2198 88.0944 79.8272 70.507 68.6623 62.5529C76.542 60.7249 86.1749 55.3647 86.1505 47.3615V29.255L91.9808 26.8834V37.4307C87.658 38.8387 86.5463 44.6442 90.1034 47.5343C88.3249 52.1782 87.7317 56.8961 88.3492 61.5647C88.448 62.2563 88.918 62.849 89.585 63.0713C90.7738 63.4819 92.0193 63.7224 93.2719 63.7761L93.8088 63.7877C95.2414 63.7877 96.674 63.5406 98.0325 63.0713C98.6577 62.8629 99.1095 62.3294 99.245 61.6938L99.2673 61.5647C99.8849 56.8961 99.2922 52.1782 97.5384 47.5343C100.058 45.484 100.428 41.8035 98.3781 39.2838C97.6865 38.4193 96.7483 37.7765 95.6862 37.4307V25.3758L97.6869 24.5613C99.1937 23.9685 99.2183 21.7207 97.6869 21.1278L56.6317 4.40454C56.1871 4.23164 55.693 4.23163 55.2484 4.40454L14.1688 21.1278C13.2304 21.523 12.7613 22.5846 13.1563 23.5479C13.3539 24.0172 13.6995 24.3884 14.1688 24.5613L25.7296 29.255V45.7559L19.3808 43.3348C12.5632 40.7413 8.78354 46.2 6.04164 50.7698L5.00778 50.4582C4.66496 50.3563 4.32495 50.2637 3.9914 50.202C1.71905 49.8563 1.29939 51.19 1.02767 52.0299C-1.36843 59.1935 2.31235 66.975 9.37716 69.6676L18.9857 73.3235C15.2526 76.171 10.7776 77.4657 5.42618 77.2968L4.90585 77.2754C3.86841 77.226 3.00411 78.0411 2.95463 79.0538ZM82.4461 47.3615C82.4457 53.0922 74.2692 58.329 62.9067 59.8853L29.4097 47.1635V30.7616L55.2484 41.2846C55.4151 41.3587 55.596 41.4049 55.7696 41.4234L55.9405 41.4331C56.1873 41.4331 56.4095 41.3833 56.6317 41.2846L82.4703 30.7616L82.4461 47.3615Z" fill="#9F7834"/>
</g>
<defs>
<clipPath id="clip0_2702_9019">
<rect width="100" height="100" rx="10" fill="white"/>
</clipPath>
</defs>
</svg>
