<svg width="80" height="81" viewBox="0 0 80 81" fill="none" xmlns="http://www.w3.org/2000/svg">
<path d="M44.1354 72.6524C45.4199 73.1863 46.7636 73.4639 48.1272 73.4639C59.0749 73.4212 63.5608 58.2164 54.6286 51.34C60.9325 49.7598 68.6394 45.1257 68.6197 38.2066V22.5534L73.2834 20.5033V29.6219C69.8251 30.8391 68.9359 35.8576 71.7815 38.3561C70.3587 42.3709 69.8844 46.4497 70.3784 50.4858C70.4575 51.0838 70.8329 51.5963 71.3665 51.7885C72.4534 52.1942 73.5995 52.4078 74.7457 52.4078C75.8919 52.4078 77.038 52.1942 78.1249 51.7885C78.6584 51.5963 79.0339 51.0838 79.113 50.4858C79.607 46.4497 79.1327 42.3709 77.7297 38.3561C79.7453 36.5837 80.0417 33.4018 78.4016 31.2235C77.8482 30.4761 77.0973 29.9209 76.2476 29.6219V19.2006L77.8482 18.4959C79.0537 17.9834 79.0734 16.0401 77.8482 15.5275L45.0049 1.07012C44.6492 0.920636 44.2539 0.920636 43.8982 1.07012L11.0351 15.5275C10.2842 15.8692 9.90871 16.7875 10.2249 17.6203C10.383 18.0261 10.6596 18.3464 11.0351 18.4959L20.2834 22.5534V36.8186L15.2048 34.7258C9.75062 32.4835 6.72713 37.203 4.53362 41.1537C3.9803 40.9828 3.42699 40.7693 2.89343 40.6625C1.07539 40.3635 0.739442 41.5167 0.522067 42.2428C-1.39478 48.4357 1.54966 55.1626 7.2014 57.4903L14.8886 60.6509C11.8058 63.1921 8.09066 64.3026 3.6246 64.0677C2.79462 64.025 2.10297 64.7297 2.06345 65.6053C2.06345 65.7334 2.06345 65.8615 2.08321 65.9896L3.52579 73.2077C3.66412 73.9124 4.21744 74.4249 4.86957 74.4676C9.41468 74.8093 13.031 74.0619 16.0347 72.1186C15.7185 73.1436 15.1652 74.0619 14.4143 74.7666C13.8215 75.3859 13.8017 76.4109 14.355 77.0516C14.4933 77.2011 14.6514 77.3292 14.849 77.4146C15.0467 77.4573 21.7458 80.7033 21.7458 80.4257C22.2003 80.4257 22.6548 80.1908 22.9314 79.8064C26.3106 75.0442 27.7927 70.4315 27.437 65.7975L44.1354 72.6524ZM44.4318 4.27339L73.1253 16.8943L44.5108 15.3994C43.7006 15.3567 42.9892 16.0401 42.9497 16.9156C42.9102 17.7912 43.5425 18.56 44.3527 18.6027L67.0388 19.7772L44.4318 29.7287L15.5012 17.001L44.4318 4.27339ZM26.7454 62.103C26.2513 59.6045 26.3502 56.9991 27.0418 54.5433L37.4956 58.7076C37.5351 61.7613 38.2662 64.7297 39.6298 67.3991L26.7454 62.103ZM24.8285 51.7671C23.7021 54.6074 23.2476 57.7252 23.5638 60.8004L18.9396 58.8997C17.4575 52.5359 20.2834 45.3393 25.8956 42.5631L30.4605 44.421C27.9508 46.2362 25.9944 48.7774 24.8285 51.7671ZM14.1179 37.7368L22.3386 41.1109C20.2439 42.6912 18.5444 44.8267 17.3785 47.2826L6.88522 43.097C9.49372 38.3988 11.2327 36.541 14.1179 37.7368ZM2.93295 44.9335L16.2719 50.2509C15.6197 52.6213 15.4221 55.1199 15.6988 57.5544L8.20923 54.4792C4.61267 53.0057 2.43892 49.055 2.93295 44.9335ZM21.232 76.8808L17.8725 75.3432C19.0977 73.3785 19.493 71.1149 19.0385 68.5736C18.8804 67.6981 18.1097 67.1428 17.2995 67.3137C17.0228 67.3777 16.7659 67.5059 16.5683 67.7194C13.9795 70.3461 10.6794 71.4993 6.19357 71.3711L5.38336 67.3137C10.3632 67.1855 14.6119 65.3917 18.0504 61.9749L24.2357 64.4948C25.0064 68.5309 24.0183 72.5884 21.232 76.8808ZM55.8934 64.4734C54.1741 69.4278 48.8386 71.5847 44.4515 69.3638C41.5664 65.648 40.2621 61.8254 40.4598 57.6612C40.4993 56.9564 40.1041 56.3158 39.4915 56.0809L28.2077 51.5963C29.5515 49.0764 31.5869 47.0904 34.0373 45.9158L46.0325 50.8275C42.6533 53.2193 41.6257 57.5117 43.5623 61.8895C44.9653 65.2636 47.2379 66.6517 49.2338 66.6517C52.1387 66.6517 54.1939 63.7901 53.601 60.5227C52.7711 55.6111 48.1667 56.1877 45.5384 57.4263C45.4396 54.5433 48.305 52.8349 49.7476 52.3651L51.0518 52.899C55.3796 54.6714 57.5138 59.8394 55.8934 64.4734ZM46.2894 60.5868C47.1984 60.117 49.1548 59.4123 50.0835 59.9248C50.2219 59.9889 50.5578 60.1811 50.7159 61.078C50.9135 62.2311 50.5183 63.1067 49.7278 63.3843C48.7398 63.7047 47.2774 62.9786 46.2894 60.5868ZM65.6555 38.2066C65.6555 43.161 59.1145 47.6883 50.0242 49.0337L23.2279 38.0358V23.856L43.8982 32.9533C44.0761 33.0387 44.2737 33.0814 44.4515 33.0814C44.6492 33.0814 44.827 33.0387 45.0049 32.9533L65.6752 23.856L65.6555 38.2066ZM74.7655 32.5689C75.714 32.5689 76.5045 33.4018 76.5045 34.4482C76.4056 36.9253 73.145 36.9253 73.0462 34.4482C73.0265 33.4018 73.7971 32.5689 74.7655 32.5689ZM76.2871 49.0337C75.2793 49.2686 74.2319 49.2686 73.2241 49.0337C72.9869 45.7877 73.4415 42.5417 74.5481 39.5093H74.9433C76.0499 42.5204 76.5242 45.7877 76.2871 49.0337Z" fill="#9F7834"/>
<path d="M43.9686 0.773096C44.2845 0.675861 44.6195 0.675929 44.9354 0.773096L45.0923 0.829324L45.0954 0.831002L77.9352 15.2866L78.0648 15.3479C79.3653 16.0258 79.2941 18.1584 77.9359 18.7359L77.9352 18.735L76.4868 19.3737V29.4376C77.3115 29.7632 78.0399 30.3227 78.5867 31.0607H78.5875C80.2741 33.3009 80.0099 36.5516 78.0105 38.435C79.3809 42.432 79.8426 46.4948 79.3501 50.519V50.5223C79.259 51.2107 78.8254 51.806 78.2023 52.0312L78.2031 52.0321C77.092 52.4468 75.9197 52.6657 74.7465 52.6657C73.573 52.6657 72.4003 52.4469 71.2891 52.0321V52.0312C70.6666 51.8057 70.2339 51.2103 70.1428 50.5223V50.519C69.6504 46.4957 70.1113 42.4334 71.5003 38.4366C68.7106 35.8126 69.5988 30.7955 73.0457 29.4376V20.8859L68.8591 22.7255V38.2059L68.8537 38.539C68.7438 41.9627 66.7977 44.8049 64.1405 46.9808C61.5378 49.1121 58.2233 50.6293 55.1787 51.4597C63.7463 58.6255 59.1361 73.6788 48.1288 73.7218H48.128C46.7343 73.7218 45.3616 73.4374 44.0509 72.8927V72.8935L27.7013 66.1806C27.9487 70.7582 26.4288 75.3026 23.1217 79.9631L23.1202 79.9648L23.1194 79.964C22.8121 80.3908 22.323 80.6533 21.8233 80.6782C21.7977 80.689 21.7758 80.6944 21.7619 80.6966C21.7117 80.7045 21.6625 80.6976 21.633 80.6924C21.566 80.6808 21.4804 80.6553 21.3868 80.6236C21.1952 80.5586 20.9266 80.4514 20.6102 80.3181C19.9755 80.0507 19.1288 79.6686 18.2789 79.2775C17.4285 78.8861 16.5711 78.4847 15.9157 78.179C15.5878 78.026 15.3107 77.8965 15.1096 77.8047C15.0091 77.7587 14.9284 77.7224 14.8704 77.6972C14.8417 77.6847 14.8198 77.6757 14.8044 77.6695C14.7887 77.6632 14.7864 77.6629 14.792 77.6645L14.7811 77.6628L14.7609 77.6536C14.5262 77.5521 14.3419 77.4012 14.187 77.234L14.1808 77.2273V77.2264C13.5393 76.4829 13.5631 75.298 14.2492 74.5812L14.2538 74.5762L14.2585 74.572C14.8082 74.0561 15.2465 73.4184 15.5585 72.7064C12.6236 74.4092 9.13688 75.0466 4.85396 74.7247V74.7239C4.09516 74.6733 3.45365 74.0782 3.29301 73.2619L1.85088 66.0438L1.84933 66.0379L1.84855 66.032C1.82501 65.8794 1.82525 65.7296 1.82525 65.6049V65.599L1.82603 65.5923C1.87188 64.5782 2.67181 63.7603 3.63626 63.8098H3.63704L4.04863 63.8274C8.11842 63.9663 11.5307 62.9503 14.3959 60.7239L7.11695 57.7313C1.34572 55.3543 -1.6613 48.4844 0.296141 42.1603C0.40203 41.8065 0.556026 41.2727 0.945372 40.8796C1.32596 40.4954 1.89391 40.2776 2.75406 40.382L2.92956 40.4071L2.93733 40.4088L3.14468 40.455C3.57046 40.5587 4.01067 40.7145 4.42606 40.8486C5.50304 38.92 6.80096 36.797 8.50317 35.4112C10.275 33.969 12.4806 33.3295 15.2906 34.4847L20.0457 36.4443V22.7264L10.9533 18.7367V18.7375C10.506 18.5594 10.1852 18.1804 10.0059 17.7204L10.0051 17.7179C9.63741 16.7494 10.0762 15.6846 10.9432 15.29L10.9455 15.2883L43.8086 0.831002L43.8125 0.829324L43.9686 0.773096ZM24.2361 64.4946C25.0068 68.5307 24.0186 72.5883 21.2323 76.8807L17.8735 75.3432C19.0222 73.5013 19.4411 71.3963 19.1145 69.0465L19.0392 68.5732C18.8811 67.6978 18.1105 67.1429 17.3004 67.3135C17.0238 67.3776 16.7665 67.5054 16.5689 67.7189C13.9801 70.3455 10.6801 71.4993 6.19436 71.3712L5.38437 67.3135C10.3641 67.1853 14.613 65.3911 18.0514 61.9744L24.2361 64.4946ZM18.1018 62.2706C14.7042 65.597 10.5352 67.3721 5.67715 67.5602L6.38695 71.1169C10.5946 71.204 13.7076 70.1347 16.1666 67.7675L16.4058 67.5309C16.6427 67.2776 16.9426 67.1321 17.2499 67.0609L17.2546 67.0601L17.4293 67.0332C18.2438 66.9504 18.9948 67.4905 19.231 68.3382L19.2729 68.5237V68.5245L19.3506 69.0088C19.6699 71.3073 19.2904 73.3874 18.2253 75.224L21.1461 76.5609C23.7898 72.4227 24.7229 68.535 24.0265 64.6842L18.1018 62.2706ZM46.0328 50.827C42.6537 53.2187 41.6267 57.5111 43.5632 61.8888C44.9224 65.1575 47.0975 66.5626 49.0467 66.6472L49.2346 66.6514C52.1394 66.6512 54.1942 63.7898 53.6014 60.5225C52.7714 55.6108 48.1671 56.1872 45.5388 57.4258C45.4402 54.543 48.3054 52.8343 49.748 52.3644L51.0526 52.899C55.3801 54.6715 57.5141 59.8389 55.8939 64.4727C54.1747 69.427 48.8394 71.5844 44.4524 69.3637C41.5672 65.6479 40.2631 61.825 40.4607 57.6608C40.5002 56.9562 40.1048 56.3154 39.4923 56.0805L28.2084 51.5957C29.5522 49.0759 31.588 47.0903 34.0383 45.9158L46.0328 50.827ZM34.0476 46.1953C31.769 47.3105 29.8631 49.1437 28.5618 51.4614L39.5746 55.8388H39.5738C40.285 56.1126 40.7443 56.8576 40.6983 57.6767C40.5058 61.7471 41.7717 65.4923 44.5992 69.1514C48.8583 71.2744 54.0083 69.1716 55.6703 64.3829L55.671 64.3821L55.8077 63.9583C57.0709 59.7116 55.1708 55.115 51.3555 53.3111L50.968 53.1399L49.7425 52.638C49.0497 52.8767 48.0481 53.3953 47.224 54.1838C46.4531 54.9215 45.8579 55.8741 45.7842 57.0381C47.087 56.4869 48.7764 56.1139 50.2877 56.4145C51.1155 56.5792 51.8974 56.9473 52.5274 57.607C53.1577 58.2671 53.6208 59.2028 53.8359 60.473L53.8857 60.7911C54.3193 64.0687 52.2092 66.9089 49.2346 66.909C47.1286 66.909 44.7814 65.4448 43.3473 62.0004L43.171 61.5816C42.3319 59.488 42.1491 57.4129 42.573 55.5518C42.9919 53.7132 44 52.0998 45.5249 50.8949L34.0476 46.1953ZM37.4965 58.7073C37.536 61.761 38.267 64.7297 39.6305 67.3991L26.7461 62.1028C26.2521 59.6042 26.3511 56.9989 27.0427 54.543L37.4965 58.7073ZM27.2004 54.8804C26.5975 57.1722 26.5155 59.5868 26.9542 61.9123L39.125 66.9149C37.9583 64.4216 37.3226 61.6925 37.2619 58.8885L27.2004 54.8804ZM46.2898 60.5863C47.1988 60.1165 49.1554 59.4117 50.0842 59.9241C50.2226 59.9882 50.5583 60.1812 50.7164 61.0781C50.9138 62.2311 50.5189 63.1067 49.7286 63.3843L49.6346 63.4111C48.6496 63.6576 47.247 62.9034 46.2898 60.5863ZM49.2284 60.0039C48.9226 60.0051 48.5802 60.0561 48.2313 60.139C47.6373 60.2802 47.0435 60.5105 46.6082 60.7155C47.5069 62.7257 48.7054 63.3178 49.501 63.177L49.6602 63.1367C50.2962 62.9099 50.6646 62.1943 50.4818 61.1259L50.4531 60.9774C50.381 60.6502 50.2852 60.4592 50.2046 60.3471C50.1157 60.2236 50.0351 60.1824 49.9903 60.1616L49.9825 60.1583L49.9755 60.1541C49.7905 60.0521 49.5369 60.0026 49.2284 60.0039ZM30.4613 44.4203C27.9516 46.2355 25.9954 48.7772 24.8295 51.7669C23.7031 54.6071 23.2482 57.7252 23.5644 60.8003L18.9406 58.8995C17.4585 52.5356 20.2843 45.3393 25.8965 42.5631L30.4613 44.4203ZM25.9066 42.8426C20.5054 45.5752 17.7617 52.5184 19.1425 58.7064L23.291 60.4117C23.0664 57.6218 23.4603 54.8104 24.4039 52.2083L24.6097 51.6653C25.735 48.7804 27.5853 46.3081 29.9519 44.4883L25.9066 42.8426ZM16.2722 50.2504C15.6201 52.6208 15.4224 55.1197 15.6991 57.5542L8.20961 54.4793C4.61312 53.0057 2.43942 49.0546 2.93345 44.9331L16.2722 50.2504ZM3.13769 45.2889C2.8054 49.1748 4.89578 52.8451 8.29426 54.2376L15.4195 57.1631C15.2136 54.9069 15.4071 52.6071 15.9825 50.4099L3.13769 45.2889ZM74.9437 39.5092C76.0503 42.5202 76.5251 45.7876 76.288 49.0335C75.2802 49.2684 74.2322 49.2684 73.2243 49.0335C72.9872 45.7876 73.4419 42.5415 74.5484 39.5092H74.9437ZM65.4173 38.2059L65.4367 24.2386L45.1016 33.1881L45.1024 33.189C44.8953 33.2884 44.6845 33.3392 44.4524 33.3392C44.2417 33.3392 44.0104 33.2893 43.8016 33.189V33.1881L23.4673 24.2386V37.8576L50.0501 48.7675C54.5453 48.0947 58.3966 46.6422 61.1204 44.756C63.8639 42.8561 65.4171 40.5542 65.4173 38.2067V38.2059ZM74.7139 39.7668C73.6848 42.6552 73.2518 45.7338 73.4503 48.817C74.312 48.9931 75.1988 48.9929 76.0605 48.817C76.2582 45.734 75.8094 42.6363 74.7799 39.7668H74.7139ZM6.88552 43.0969C9.49402 38.3987 11.2335 36.5408 14.1187 37.7367L22.3389 41.1104C20.2443 42.6907 18.5447 44.8263 17.3788 47.2821L6.88552 43.0969ZM14.0333 37.9776C13.3389 37.6898 12.7284 37.5913 12.1664 37.6646C11.6055 37.7377 11.0746 37.9838 10.5409 38.4131C9.5031 39.2481 8.47861 40.7577 7.24043 42.9634L17.2662 46.9623C18.3762 44.6975 19.9355 42.7086 21.8404 41.1809L14.0341 37.9776H14.0333ZM74.9422 32.578C75.8105 32.6735 76.5054 33.4669 76.5054 34.4478C76.4066 36.925 73.1453 36.925 73.0465 34.4478C73.0268 33.4015 73.7977 32.5689 74.7659 32.5688L74.9422 32.578ZM74.7659 32.8264C73.9285 32.8265 73.2687 33.5439 73.2857 34.4428C73.3762 36.5813 76.1715 36.583 76.2663 34.4478L76.2585 34.2808C76.1805 33.4586 75.5332 32.8264 74.7659 32.8264ZM73.1257 16.8938L44.5114 15.3991L44.5231 15.1415L71.7395 16.5631L44.4322 4.55128L16.134 17.0003L44.4314 29.4494L65.9492 19.9779L44.3421 18.8601C43.3976 18.8103 42.6664 17.9176 42.712 16.903C42.7581 15.8822 43.5841 15.092 44.5231 15.1415L44.5114 15.3991C43.7012 15.3564 42.99 16.04 42.9505 16.9156V17.0784C42.9905 17.8843 43.5943 18.5624 44.3538 18.6024L67.0396 19.7773L44.4322 29.728L15.5018 17.0003L44.4322 4.2735L73.1257 16.8938ZM2.06444 65.6049C2.06444 65.7329 2.06412 65.8611 2.08386 65.9892L3.52676 73.2074C3.66512 73.9121 4.21817 74.4244 4.87027 74.4671C9.41535 74.8087 13.0316 74.0614 16.0353 72.1181C15.7192 73.1431 15.1655 74.0619 14.4146 74.7667L14.3105 74.8867C13.8218 75.5119 13.8369 76.4503 14.3556 77.051C14.4939 77.2005 14.6519 77.329 14.8495 77.4144L14.9598 77.4581C15.8439 77.8425 21.5563 80.5941 21.7417 80.4356L21.7464 80.4256C22.1441 80.4256 22.5419 80.2455 22.8204 79.943L22.9322 79.8062C26.3114 75.044 27.7937 70.4311 27.438 65.797L44.1363 72.6518C45.3405 73.1523 46.5967 73.4276 47.8725 73.46L48.128 73.4633C59.0756 73.4204 63.5614 58.2161 54.6296 51.3397C60.9333 49.7594 68.6395 45.1254 68.6199 38.2067V22.5535L73.2841 20.5033V29.6214C69.8259 30.8387 68.9366 35.8575 71.7822 38.3561C70.3595 42.3707 69.8849 46.4494 70.3789 50.4854C70.458 51.0833 70.834 51.5957 71.3675 51.7879C72.3186 52.1429 73.3149 52.3508 74.317 52.3971L74.7465 52.4072C75.8926 52.4072 77.0386 52.1936 78.1254 51.7879C78.6255 51.6077 78.987 51.1465 79.0954 50.597L79.1132 50.4854C79.6072 46.4494 79.1331 42.3708 77.7301 38.3561C79.7458 36.5836 80.0421 33.4017 78.4019 31.2235C77.8486 30.4761 77.0981 29.9204 76.2484 29.6214V19.1999L77.849 18.4958C79.0543 17.9833 79.074 16.0401 77.849 15.5275L45.0053 1.07018C44.6496 0.920714 44.2544 0.920702 43.8987 1.07018L11.0356 15.5275C10.2849 15.8692 9.90967 16.787 10.2256 17.6197C10.3837 18.0254 10.6602 18.3463 11.0356 18.4958L20.2841 22.5535V36.8186L15.2052 34.7256C9.75113 32.4835 6.72749 37.2026 4.534 41.1532L3.70693 40.8838C3.43268 40.7957 3.16068 40.7157 2.89384 40.6623C1.076 40.3634 0.740273 41.5165 0.522906 42.2425C-1.39394 48.4355 1.55063 55.1627 7.20237 57.4904L14.8891 60.6509C11.9027 63.1126 8.32272 64.2319 4.04164 64.0859L3.62539 64.0674C2.79546 64.0247 2.10403 64.7294 2.06444 65.6049ZM65.6565 38.2067C65.6562 43.1609 59.1151 47.6881 50.0252 49.0335L23.2281 38.0355V23.856L43.8987 32.9532C44.0321 33.0172 44.1768 33.0571 44.3157 33.0732L44.4524 33.0816C44.6498 33.0815 44.8276 33.0385 45.0053 32.9532L65.6759 23.856L65.6565 38.2067Z" fill="#9F7834"/>
</svg>
