<svg width="60" height="60" viewBox="0 0 60 60" fill="none" xmlns="http://www.w3.org/2000/svg">
<rect x="0.5" y="0.5" width="59" height="59" rx="9.5" fill="#F5F3FF" stroke="#F3F3F5"/>
<path fill-rule="evenodd" clip-rule="evenodd" d="M45.9705 42.3375C45.933 42.4031 45.868 42.44 45.7918 42.4387L44.8899 42.4337C44.8137 42.4337 44.748 42.4712 44.7093 42.5381L44.2649 43.3212C44.2262 43.3887 44.1624 43.4256 44.0862 43.4256C44.0099 43.4256 43.9462 43.3881 43.9074 43.3231L42.8412 41.4768L42.9668 41.3881L43.6806 41.3843C44.2724 41.3825 44.7968 41.0387 45.0362 40.5093L45.9737 42.1306C46.0093 42.1956 46.0093 42.2718 45.9705 42.3375ZM39.3075 41.3856C38.7175 41.3806 38.1968 41.0368 37.9593 40.5068L37.0218 42.13C36.9843 42.1956 36.9843 42.2718 37.0218 42.3375C37.0606 42.4031 37.1262 42.44 37.2006 42.4387L38.1043 42.4337C38.1806 42.4337 38.2462 42.4712 38.2831 42.5381L38.7293 43.3212C38.7668 43.3887 38.8318 43.4256 38.9062 43.4256C38.9825 43.4256 39.0481 43.3881 39.085 43.3231L40.1531 41.4737L40.0431 41.3937L39.3075 41.3856ZM29.1825 25.4232H38.2212C38.4462 25.4232 38.6568 25.5013 38.8256 25.6357C38.9906 25.7688 39.1125 25.9582 39.1625 26.1813C39.2068 26.385 39.3131 26.5694 39.4599 26.7163C39.6068 26.8632 39.7912 26.9694 39.9949 27.0138C40.2181 27.0632 40.4074 27.1857 40.5406 27.3507C40.6749 27.5188 40.7531 27.73 40.7531 27.955V31.8931C41.2599 31.6025 41.8868 31.6306 42.3687 31.9781L42.9499 32.3963L43.3699 32.4V23.8026C43.3699 23.0782 42.7781 22.4863 42.0537 22.4863H27.91L28.5763 23.1526C29.1875 23.7613 29.4019 24.6276 29.1825 25.4232ZM37.0856 39.2425C36.57 38.8618 36.3556 38.1937 36.5506 37.5844L36.77 36.9037L36.6656 36.5725H25.6175C25.3907 36.5725 25.18 36.4944 25.0132 36.36C24.8463 36.2256 24.7263 36.0375 24.6763 35.8144C24.63 35.6106 24.5257 35.4244 24.3788 35.2794C24.2319 35.1325 24.0457 35.0262 23.8419 34.98C23.6275 34.9343 23.4354 34.816 23.2982 34.645C23.1605 34.4732 23.0855 34.2596 23.0857 34.0394V31.8831C23.0644 31.8938 23.0451 31.9063 23.0257 31.9188C22.2176 32.4131 21.2201 32.3706 20.4676 31.8425V38.1919C20.4676 38.9162 21.0613 39.51 21.7857 39.51H37.4487L37.0856 39.2425ZM38.73 27.4463C38.9975 27.7138 39.3375 27.9107 39.7206 28.0063V32.4038H39.3125C38.6693 32.4075 38.1062 32.815 37.9006 33.4244L37.6687 34.1225L37.0912 34.5456C36.7581 34.7881 36.5506 35.15 36.4943 35.5394H25.6675C25.5758 35.1642 25.3827 34.8216 25.1094 34.5487C24.8359 34.2754 24.4929 34.0818 24.1175 33.9888V31.1981C25.9244 29.91 27.4325 28.335 28.6513 26.4557H38.1706C38.2634 26.8306 38.4568 27.1732 38.73 27.4463ZM28.555 28.5982C28.555 28.8832 28.7856 29.1138 29.0706 29.1138H34.7662C35.0512 29.1138 35.2837 28.8832 35.2837 28.5982C35.2837 28.3132 35.0519 28.0825 34.7662 28.0825H29.0706C28.7856 28.0825 28.555 28.3132 28.555 28.5982ZM37.1125 33.3975C37.1125 33.1125 36.8818 32.88 36.5968 32.88H27.2407C26.9569 32.88 26.725 33.1119 26.725 33.3975C26.725 33.6831 26.9569 33.9131 27.2407 33.9131H36.5968C36.8818 33.9131 37.1125 33.6825 37.1125 33.3975ZM37.1125 30.9969C37.1125 30.7131 36.8818 30.4813 36.5968 30.4813H27.2407C26.9569 30.4813 26.725 30.7131 26.725 30.9969C26.725 31.2819 26.9569 31.5144 27.2407 31.5144H36.5968C36.8818 31.5144 37.1125 31.2819 37.1125 30.9969ZM43.6762 40.3531L42.7799 40.3568C42.6806 40.3568 42.5937 40.3837 42.5143 40.4418L41.7668 40.975C41.6018 41.0918 41.3912 41.0918 41.2281 40.9731L40.4999 40.4487C40.4199 40.39 40.3337 40.3618 40.2343 40.3618L39.3168 40.355C39.115 40.3531 38.945 40.2275 38.8831 40.0362L38.6031 39.1843C38.5712 39.0906 38.5181 39.0181 38.4381 38.9575L37.6993 38.4118C37.5381 38.2931 37.4725 38.0912 37.5343 37.9L37.8087 37.0462C37.8387 36.9506 37.8387 36.8619 37.8087 36.7662L37.5325 35.8912C37.4725 35.6981 37.5381 35.4981 37.7006 35.3794L38.4237 34.8494C38.505 34.7906 38.5581 34.7181 38.59 34.6225L38.8806 33.7525C38.9443 33.5613 39.1143 33.4369 39.3162 33.4369L40.2124 33.4331C40.3137 33.4331 40.3987 33.405 40.4799 33.3481L41.2274 32.815C41.3906 32.6981 41.6012 32.6981 41.7662 32.815L42.4924 33.3413C42.5737 33.3981 42.6587 33.4263 42.7581 33.4281L43.6756 33.435C43.8774 33.4369 44.0474 33.5606 44.1112 33.7519L44.3912 34.6038C44.423 34.6994 44.4743 34.7719 44.5562 34.8306L45.293 35.3762C45.4562 35.4969 45.5199 35.6969 45.458 35.89L45.1849 36.7437C45.153 36.8375 45.153 36.9281 45.183 37.0237L45.4593 37.8987C45.5193 38.09 45.4543 38.29 45.293 38.4106L44.5687 38.9406C44.4887 38.9993 44.4355 39.0718 44.4037 39.1656L44.113 40.0375C44.0499 40.2287 43.878 40.3512 43.6762 40.3531ZM43.3924 38.7906C43.878 38.305 44.1774 37.6356 44.1774 36.895C44.1774 36.1544 43.878 35.485 43.3924 34.9994C42.9068 34.5138 42.2374 34.2125 41.4968 34.2125C40.7562 34.2125 40.0849 34.5138 39.6012 34.9994C39.1156 35.485 38.8143 36.1544 38.8143 36.895C38.8143 37.6356 39.1156 38.305 39.6012 38.7906C40.0849 39.2762 40.7562 39.5756 41.4968 39.5756C42.2374 39.5756 42.9074 39.2756 43.3924 38.7906ZM41.4968 35.2456C41.0418 35.2456 40.6287 35.43 40.3312 35.7294C40.0318 36.0269 39.8474 36.44 39.8474 36.895C39.8474 37.35 40.0318 37.7631 40.3312 38.0606C40.4839 38.2143 40.6655 38.3362 40.8656 38.4192C41.0656 38.5022 41.2802 38.5448 41.4968 38.5443C41.7134 38.5448 41.928 38.5023 42.1281 38.4193C42.3282 38.3362 42.5098 38.2143 42.6624 38.0606C42.9599 37.7631 43.1462 37.35 43.1462 36.895C43.1462 36.4394 42.9599 36.0269 42.6624 35.7294C42.3649 35.4294 41.9524 35.2456 41.4968 35.2456ZM22.4876 31.0375C24.6457 29.7194 26.5413 27.9463 28.04 25.4888C28.3569 24.9663 28.2794 24.3144 27.8469 23.8819L26.1938 22.227L24.2913 26.39C24.1092 26.7884 23.7897 27.1079 23.3913 27.29L19.2282 29.1925L20.8813 30.8456C21.3126 31.2788 21.9663 31.3563 22.4876 31.0375ZM17.422 31.2806L15.7763 29.635L22.9619 26.3519C23.1338 26.2719 23.2719 26.1338 23.3519 25.9619L27.1913 17.5589C27.2782 17.3714 27.2657 17.1995 27.1575 17.0914C27.0494 16.9832 26.8757 16.9707 26.6882 17.0557L18.2851 20.897C18.1126 20.9754 17.9746 21.1141 17.897 21.287L14.0557 29.6875C13.9707 29.875 13.9832 30.0488 14.0914 30.1569C14.1995 30.265 14.3714 30.2775 14.5589 30.1907L14.7751 30.0932L14.9007 30.2188L16.692 32.01L17.1507 32.4688C17.1986 32.5168 17.2555 32.5548 17.3181 32.5808C17.3808 32.6068 17.4479 32.6202 17.5157 32.6202C17.5835 32.6202 17.6507 32.6068 17.7133 32.5808C17.7759 32.5548 17.8328 32.5168 17.8807 32.4688C18.0826 32.2688 18.0826 31.9406 17.8807 31.7388L17.422 31.2806Z" fill="#9747FF"/>
</svg>
