<svg width="100" height="100" viewBox="0 0 100 100" fill="none" xmlns="http://www.w3.org/2000/svg">
<path d="M60.6543 52.0977V57.5479H24.9443V52.0977H60.6543ZM60.6543 37.9238V43.374H24.9443V37.9238H60.6543Z" fill="#9F7834" stroke="white" stroke-width="0.4"/>
<path d="M81.1289 6.2002C91.424 6.20036 99.7997 14.5767 99.7998 24.8721C99.7998 34.1792 92.9527 41.9191 84.0322 43.3184L83.8633 43.3447V66.2158C83.8633 72.5353 78.7214 77.6776 72.4014 77.6777H39.7715L39.7207 77.7119L15.0166 94.251V77.6777H11.6611C5.34208 77.6777 0.200195 72.5354 0.200195 66.2158V28.7744C0.200195 22.6533 5.02555 17.6357 11.0723 17.3281L11.6611 17.3135H64.0547L64.1084 17.1953C67.0412 10.7171 73.5685 6.2002 81.1289 6.2002ZM81.1289 11.6504C73.8387 11.6504 67.9082 17.5815 67.9082 24.8721C67.9082 32.162 73.8388 38.0928 81.1289 38.0928C88.4187 38.0926 94.3496 32.1621 94.3496 24.8721C94.3496 17.5816 88.4188 11.6506 81.1289 11.6504ZM78.4121 43.3467L78.2422 43.3203C69.3122 41.9288 62.4561 34.1851 62.4561 24.8721L62.4629 24.3994C62.4749 23.927 62.5041 23.4546 62.5518 22.9844L62.5742 22.7646H11.6611C8.34713 22.7646 5.65064 25.46 5.65039 28.7734V66.2158C5.65039 69.5305 8.34694 72.2266 11.6611 72.2266H20.4668V84.042L20.7773 83.834L38.1152 72.2266H72.4014C75.7154 72.2264 78.4121 69.5306 78.4121 66.2158V43.3467Z" fill="#9F7834" stroke="white" stroke-width="0.4"/>
<path d="M83.8516 18.1484V31.5947H78.4014V18.1484H83.8516Z" fill="#9F7834" stroke="white" stroke-width="0.4"/>
</svg>
