<svg width="60" height="60" viewBox="0 0 60 60" fill="none" xmlns="http://www.w3.org/2000/svg">
<rect x="0.5" y="0.5" width="59" height="59" rx="9.5" fill="#FFF6F3" stroke="#F3F3F5"/>
<path d="M35.7979 39.8757C35.855 39.8071 35.9464 39.6643 35.9064 39.4644C35.5523 37.5508 34.2613 35.9114 32.5076 35.0831L30.3198 37.665C30.2713 37.7222 30.2109 37.7681 30.1429 37.7996C30.0748 37.8312 30.0007 37.8475 29.9257 37.8475C29.8507 37.8475 29.7766 37.8312 29.7085 37.7996C29.6405 37.7681 29.5801 37.7222 29.5316 37.665L27.3438 35.0831C25.5901 35.9114 24.2991 37.5508 23.945 39.4644C23.9107 39.6586 24.0021 39.8071 24.0592 39.8699C24.162 39.9899 24.3049 40.0585 24.4648 40.0585H35.398C35.5523 40.0642 35.7008 39.9956 35.7979 39.8757ZM29.9314 29.2852C28.7775 29.2852 27.8407 30.222 27.8407 31.3758C27.8407 32.5297 28.7775 33.4665 29.9314 33.4665C31.0853 33.4665 32.0221 32.5297 32.0221 31.3758C32.0221 30.222 31.0853 29.2852 29.9314 29.2852Z" fill="#EC6330"/>
<path d="M31.4795 34.7069C31.4395 34.6955 31.4052 34.6898 31.3652 34.6783C31.1881 34.6326 31.0054 34.5984 30.8226 34.5755C30.7597 34.5641 30.7026 34.5584 30.6398 34.5527C30.1657 34.4955 29.6858 34.4955 29.2117 34.5527C29.1489 34.5584 29.0918 34.5698 29.0346 34.5755C28.8518 34.6041 28.669 34.6383 28.492 34.6783C28.452 34.6898 28.4177 34.6955 28.3777 34.7069L29.9257 36.5405L31.4795 34.7069ZM24.4648 41.0989H19.2838V42.904C19.2838 44.6119 20.6719 46 22.3799 46H37.483C39.191 46 40.5791 44.6119 40.5791 42.904V41.0989H35.3981H24.4648ZM31.925 44.0635H27.9322C27.6466 44.0635 27.4181 43.8351 27.4181 43.5494C27.4181 43.2638 27.6466 43.0353 27.9322 43.0353H31.925C32.2106 43.0353 32.4391 43.2638 32.4391 43.5494C32.4448 43.8351 32.2106 44.0635 31.925 44.0635ZM26.8526 15.8222H33.0104C33.4502 15.8222 33.8443 15.5423 33.9871 15.131L34.3813 14H25.4816L25.87 15.1253C26.0186 15.5423 26.4127 15.8222 26.8526 15.8222ZM20.3463 33.9357H22.8654C23.151 33.9357 23.3795 33.7015 23.3795 33.4216V27.4923C23.3795 27.2067 23.1453 26.9782 22.8654 26.9782H14.5141C14.2285 26.9782 14 27.2124 14 27.4923V33.4159C14 33.7015 14.2342 33.93 14.5141 33.93H15.3252C15.7022 33.93 16.0564 34.1471 16.2221 34.4898L17.0675 36.2206L19.7408 34.1414C19.9065 34.01 20.1235 33.9357 20.3463 33.9357ZM15.7708 28.6291H21.7629C22.0486 28.6291 22.277 28.8576 22.277 29.1432C22.277 29.4288 22.0486 29.6573 21.7629 29.6573H15.7708C15.4852 29.6573 15.2567 29.4288 15.2567 29.1432C15.2567 28.8576 15.4852 28.6291 15.7708 28.6291ZM15.7708 32.125C15.4852 32.125 15.2567 31.8965 15.2567 31.6109C15.2567 31.3252 15.4852 31.0968 15.7708 31.0968H21.7629C22.0486 31.0968 22.277 31.3252 22.277 31.6109C22.277 31.8965 22.0486 32.125 21.7629 32.125H15.7708ZM45.2688 18.9868H36.9175C36.6319 18.9868 36.4034 19.221 36.4034 19.5009V25.4245C36.4034 25.7101 36.6376 25.9386 36.9175 25.9386H39.4366C39.6594 25.9386 39.8765 26.0129 40.0478 26.1499L42.7212 28.2292L43.5666 26.4984C43.7322 26.1557 44.0864 25.9386 44.4634 25.9386H45.2745C45.5602 25.9386 45.7886 25.7044 45.7886 25.4245V19.5009C45.7886 19.2153 45.5544 18.9868 45.2688 18.9868ZM41.5616 24.3734H38.1685C37.8829 24.3734 37.6544 24.1449 37.6544 23.8593C37.6544 23.5737 37.8829 23.3452 38.1685 23.3452H41.5616C41.8472 23.3452 42.0757 23.5737 42.0757 23.8593C42.0757 24.1449 41.8472 24.3734 41.5616 24.3734ZM44.1607 21.9115H38.1685C37.8829 21.9115 37.6544 21.683 37.6544 21.3974C37.6544 21.1117 37.8829 20.8833 38.1685 20.8833H44.1607C44.4463 20.8833 44.6748 21.1117 44.6748 21.3974C44.6748 21.683 44.4463 21.9115 44.1607 21.9115Z" fill="#EC6330"/>
<path d="M36.918 26.9725C36.0669 26.9725 35.37 26.2756 35.37 25.4245V19.5009C35.37 18.6498 36.0669 17.9529 36.918 17.9529H40.5796V17.096C40.5796 15.3881 39.1915 14 37.4835 14H35.4728L34.9644 15.468C34.8236 15.8727 34.5605 16.2236 34.2116 16.4723C33.8626 16.721 33.445 16.8551 33.0166 16.8561H26.8531C26.4244 16.8559 26.0064 16.7221 25.6573 16.4733C25.3082 16.2246 25.0453 15.8732 24.9052 15.468L24.3968 14H22.3861C20.6781 14 19.29 15.3881 19.29 17.096V25.9443H22.8716C23.7227 25.9443 24.4196 26.6412 24.4196 27.4923V33.4159C24.4196 34.267 23.7227 34.9639 22.8716 34.9639H20.3525L19.29 35.7922V40.0593H23.0144C22.923 39.8079 22.8945 39.5452 22.9402 39.2767C23.38 36.8947 25.0537 34.8611 27.3043 33.9643C27.5042 33.8843 27.7099 33.8158 27.9212 33.7529C27.2415 33.1817 26.8131 32.3249 26.8131 31.3709C26.8131 29.6458 28.2126 28.2463 29.9377 28.2463C31.6628 28.2463 33.0623 29.6458 33.0623 31.3709C33.0623 32.3249 32.6281 33.1817 31.9541 33.7529C32.1597 33.8158 32.3654 33.8843 32.571 33.9643C34.8216 34.8611 36.4953 36.8947 36.9352 39.2767C36.9809 39.5452 36.9523 39.8136 36.8609 40.065H40.5853V27.875L39.42 26.9725H36.918Z" fill="#EC6330"/>
</svg>
