<svg width="80" height="80" viewBox="0 0 80 80" fill="none" xmlns="http://www.w3.org/2000/svg">
<path d="M19.7949 28.6357H48.6827V33.9171H19.7949V28.6357ZM19.7949 41.4304H48.6827V46.7111H19.7949V41.4304Z" fill="#9F7834"/>
<path d="M80 17.0355C80 7.64222 73.2275 0 64.9029 0C58.7891 0 53.5116 4.12167 51.1406 10.0316H9.32862C4.185 10.0318 0 14.7544 0 20.5576V54.3552C0 60.1593 4.185 64.8821 9.32862 64.8821H11.853V80L31.8657 64.882H57.9209C63.0654 64.882 67.2505 60.1593 67.2505 54.3552V33.864C74.4634 32.5875 80 25.5272 80 17.0355ZM57.9209 59.6001H30.4439L16.5333 70.1083V59.6001H9.32862C6.76562 59.6001 4.68013 57.2475 4.68013 54.3552V20.5573C4.68013 17.6659 6.76562 15.3135 9.32862 15.3135H49.8824C49.831 15.8856 49.8052 16.4602 49.8051 17.0352C49.8051 25.5324 55.3486 32.5972 62.5694 33.8666V54.3552C62.5694 57.2477 60.4839 59.6001 57.9209 59.6001ZM64.9029 28.7885C59.1591 28.7885 54.4864 23.5159 54.4864 17.0352C54.4864 10.5539 59.1591 5.28075 64.9029 5.28075C70.6465 5.28075 75.3199 10.5539 75.3199 17.0352C75.3199 23.5161 70.6465 28.7885 64.9029 28.7885Z" fill="#9F7834"/>
<path d="M62.5605 10.7852H67.2412V23.2839H62.5605V10.7852Z" fill="#9F7834"/>
</svg>
