<svg width="19" height="21" viewBox="0 0 19 21" fill="none" xmlns="http://www.w3.org/2000/svg">
<path d="M18.0961 7.16373V10.4972H14.7626C13.4497 10.4972 12.3815 11.5654 12.3815 12.8783C12.3815 14.1912 13.4497 15.2594 14.7626 15.2594H18.0961V18.5928C18.0961 19.3807 17.4554 20.0215 16.6675 20.0215H1.42864C0.640745 20.0215 0 19.3807 0 18.5928V7.16373C0 6.37583 0.640745 5.73509 1.42864 5.73509H16.6675C17.4554 5.73509 18.0961 6.37583 18.0961 7.16373ZM14.7626 11.4496H18.0961V14.3069H14.7626C13.9747 14.3069 13.334 13.6662 13.334 12.8783C13.334 12.0904 13.9747 11.4496 14.7626 11.4496ZM15.715 12.4021H14.7626C14.6363 12.4021 14.5152 12.4522 14.4259 12.5416C14.3366 12.6309 14.2864 12.752 14.2864 12.8783C14.2864 13.0046 14.3366 13.1257 14.4259 13.215C14.5152 13.3043 14.6363 13.3545 14.7626 13.3545H15.715C15.8413 13.3545 15.9625 13.3043 16.0518 13.215C16.1411 13.1257 16.1912 13.0046 16.1912 12.8783C16.1912 12.752 16.1411 12.6309 16.0518 12.5416C15.9625 12.4522 15.8413 12.4021 15.715 12.4021ZM10.0414 4.78266L12.8458 1.97824L12.3287 1.46108L9.00686 4.78266H10.0414ZM11.6553 0.787473L11.5158 0.647943C10.68 -0.187335 9.32068 -0.187335 8.48493 0.647943L4.35068 4.78266H7.66013L11.6553 0.787473ZM15.6503 4.78266L13.5195 2.65161L11.3882 4.78266H15.6503Z" fill="white"/>
</svg>
