<svg width="11" height="15" viewBox="0 0 11 15" fill="none" xmlns="http://www.w3.org/2000/svg">
<path d="M9.91994 3.74982C9.94111 3.74984 9.96181 3.74358 9.97943 3.73185C9.99705 3.72011 10.0108 3.70341 10.0189 3.68387C10.0271 3.66432 10.0292 3.64281 10.0252 3.62203C10.0211 3.60126 10.0109 3.58216 9.99601 3.56714L7.14655 0.71768C7.13153 0.702754 7.11243 0.692612 7.09166 0.688532C7.07088 0.684452 7.04937 0.686618 7.02982 0.694757C7.01028 0.702895 6.99358 0.716641 6.98184 0.73426C6.97011 0.751879 6.96385 0.77258 6.96387 0.793751V3.21411C6.96387 3.35619 7.02031 3.49245 7.12077 3.59292C7.22124 3.69338 7.3575 3.74982 7.49958 3.74982H9.91994Z" fill="#11AF22"/>
<path d="M10.1786 4.82143H7.5C7.07376 4.82143 6.66498 4.65211 6.36358 4.35071C6.06218 4.04931 5.89286 3.64053 5.89286 3.21429V0.537321C5.89307 0.467091 5.87943 0.397509 5.85271 0.332558C5.826 0.267606 5.78674 0.208561 5.73718 0.158801C5.68762 0.109041 5.62873 0.0695441 5.56389 0.0425707C5.49904 0.0155974 5.42952 0.00167728 5.35929 0.00160715C4.10464 1.12258e-08 1.07143 0 1.07143 0C0.787268 0 0.514746 0.112882 0.313814 0.313814C0.112882 0.514746 0 0.787268 0 1.07143V13.9286C0 14.2127 0.112882 14.4853 0.313814 14.6862C0.514746 14.8871 0.787268 15 1.07143 15H9.64286C9.92702 15 10.1995 14.8871 10.4005 14.6862C10.6014 14.4853 10.7143 14.2127 10.7143 13.9286V5.35714C10.7143 5.21506 10.6578 5.0788 10.5574 4.97834C10.4569 4.87787 10.3207 4.82143 10.1786 4.82143ZM8.55214 10.3645C8.15097 10.8155 7.65887 11.1764 7.10819 11.4236C6.55752 11.6708 5.96075 11.7986 5.35714 11.7986C4.75354 11.7986 4.15677 11.6708 3.60609 11.4236C3.05542 11.1764 2.56331 10.8155 2.16214 10.3645C1.98514 10.1658 1.88733 9.90896 1.88733 9.64286C1.88733 9.37676 1.98514 9.11994 2.16214 8.92125C2.56331 8.47025 3.05542 8.10929 3.60609 7.86211C4.15677 7.61493 4.75354 7.48714 5.35714 7.48714C5.96075 7.48714 6.55752 7.61493 7.10819 7.86211C7.65887 8.10929 8.15097 8.47025 8.55214 8.92125C8.72915 9.11994 8.82695 9.37676 8.82695 9.64286C8.82695 9.90896 8.72915 10.1658 8.55214 10.3645Z" fill="#11AF22"/>
<path d="M6.27542 9.90159C6.06634 9.90238 5.86403 9.82752 5.70582 9.69082C5.54761 9.55413 5.44418 9.36483 5.41462 9.15785C5.38505 8.95087 5.43134 8.74018 5.54494 8.56466C5.65855 8.38914 5.8318 8.26063 6.03274 8.20284C5.71768 8.05716 5.36387 8.01758 5.02441 8.09004C4.68494 8.1625 4.37813 8.3431 4.15002 8.60472C3.9219 8.86635 3.78478 9.1949 3.75924 9.54107C3.73369 9.88724 3.82109 10.2324 4.00833 10.5246C4.19557 10.8169 4.47255 11.0406 4.7977 11.1621C5.12285 11.2836 5.47863 11.2964 5.81167 11.1985C6.1447 11.1007 6.43702 10.8975 6.64475 10.6194C6.85249 10.3413 6.96444 10.0033 6.96381 9.65623C6.96381 9.62623 6.95631 9.59784 6.9547 9.56784C6.87425 9.67139 6.77127 9.75527 6.65357 9.81309C6.53587 9.87092 6.40655 9.90119 6.27542 9.90159Z" fill="#11AF22"/>
</svg>
