<svg width="15" height="13" viewBox="0 0 15 13" fill="none" xmlns="http://www.w3.org/2000/svg">
<path d="M4.45166 7.23331C4.65975 6.99461 4.49024 6.6219 4.17356 6.6219H3.22541C3.21909 6.52746 3.21587 6.43285 3.21577 6.3382C3.21577 3.97584 5.13766 2.05396 7.49999 2.05396C8.63524 2.05396 9.6686 2.49794 10.436 3.2212L11.773 1.6571C10.6026 0.586448 9.09644 0 7.49999 0C5.80701 0 4.21536 0.659304 3.01822 1.85641C1.82112 3.05354 1.16182 4.64519 1.16182 6.33817C1.16182 6.4331 1.16419 6.52765 1.16832 6.62187H0.369681C0.0529958 6.62187 -0.116543 6.99458 0.0915753 7.23328L1.89319 9.29983L2.2716 9.73389L3.63025 8.17544L4.45166 7.23331ZM14.9084 6.02761L13.5647 4.48624L12.7284 3.527L11.5344 4.89657L10.5484 6.02761C10.3403 6.26631 10.5098 6.63902 10.8265 6.63902H11.7735C11.6186 8.86152 9.76119 10.6224 7.50002 10.6224C6.51297 10.6224 5.60293 10.2867 4.87773 9.72371L3.54066 11.2879C4.66078 12.1875 6.04273 12.6764 7.50005 12.6764C9.19304 12.6764 10.7847 12.0171 11.9818 10.82C13.1078 9.69403 13.7578 8.21905 13.8311 6.63905H14.6304C14.947 6.63902 15.1165 6.26631 14.9084 6.02761Z" fill="#9F7834"/>
</svg>
