<svg width="20" height="19" viewBox="0 0 20 19" fill="none" xmlns="http://www.w3.org/2000/svg">
<path fill-rule="evenodd" clip-rule="evenodd" d="M7.40905 1.54592C7.94158 0.589749 8.92969 0 10 0C11.0703 0 12.0584 0.589674 12.5909 1.54592C14.6593 5.26124 17.5425 10.4393 19.604 14.1424C20.1343 15.0946 20.1318 16.2655 19.5977 17.2152C19.0634 18.1652 18.0787 18.7499 17.0131 18.7499H2.98691C1.92125 18.7499 0.936591 18.1652 0.402262 17.2152C-0.131766 16.2655 -0.134316 15.0946 0.396038 14.1424C2.45761 10.4392 5.34066 5.26124 7.40905 1.54592ZM11.7191 2.39747C11.365 1.7694 10.7115 1.37658 10 1.37658C9.28846 1.37658 8.63504 1.7694 8.28092 2.39747L1.52004 14.3947C1.34235 14.711 1.24938 15.0679 1.25016 15.4307C1.25093 15.7935 1.34542 16.15 1.52446 16.4656C1.87941 17.0894 2.53103 17.4787 3.23911 17.4787H16.7609C17.469 17.4787 18.1205 17.0894 18.4755 16.4656C18.6546 16.15 18.7491 15.7935 18.7498 15.4307C18.7506 15.0679 18.6577 14.711 18.48 14.3947L11.7191 2.39747ZM11.1746 2.70434L17.9353 14.7015C18.0602 14.9237 18.1255 15.1745 18.1249 15.4294C18.1244 15.6843 18.058 15.9347 17.9321 16.1564C17.6893 16.5833 17.2456 16.8537 16.7609 16.8537H3.23911C2.75443 16.8537 2.3107 16.5833 2.06787 16.1564C1.94203 15.9347 1.87561 15.6843 1.87506 15.4294C1.87451 15.1745 1.93984 14.9237 2.06472 14.7015L8.82538 2.70434C9.06783 2.27433 9.51307 2.00158 10 2.00158C10.4869 2.00158 10.9322 2.27433 11.1747 2.70434H11.1746ZM10 13.9061C10.5175 13.9061 10.9375 14.3261 10.9375 14.8436C10.9375 15.3611 10.5175 15.7811 10 15.7811C9.48247 15.7811 9.06251 15.3611 9.06251 14.8437C9.06251 14.3262 9.48247 13.9061 10 13.9061ZM10.8969 6.40527C10.9075 6.16056 10.8178 5.92246 10.6485 5.74555C10.4791 5.56864 10.245 5.46867 10 5.46867C9.87883 5.46864 9.7589 5.49314 9.64745 5.54071C9.536 5.58827 9.43534 5.65791 9.35153 5.74543C9.26772 5.83294 9.20249 5.93653 9.1598 6.04993C9.1171 6.16333 9.0978 6.28421 9.10308 6.40527C9.1681 7.89554 9.29281 10.7671 9.34778 12.0321C9.35511 12.2001 9.42699 12.3587 9.54845 12.475C9.66991 12.5913 9.83157 12.6561 9.9997 12.6561H10.0003C10.1684 12.6561 10.3301 12.5913 10.4515 12.475C10.573 12.3587 10.6449 12.2001 10.6522 12.0321C10.7072 10.7671 10.8319 7.89554 10.8968 6.40527H10.8969Z" fill="white"/>
</svg>
