<svg width="60" height="60" viewBox="0 0 60 60" fill="none" xmlns="http://www.w3.org/2000/svg">
<rect x="0.5" y="0.5" width="59" height="59" rx="9.5" fill="#FFF3F3" stroke="#F3F3F5"/>
<path d="M45.3333 20.6661H38.6666V19.3327C38.6666 17.862 37.4707 16.666 36 16.666H28C26.5293 16.666 25.3333 17.862 25.3333 19.3327V20.666H18.6667C17.1959 20.6661 16 21.862 16 23.3327V27.3327C16 28.8034 17.1959 29.9994 18.6667 29.9994H29.3333V29.3327C29.3333 29.2451 29.3505 29.1584 29.384 29.0775C29.4175 28.9966 29.4666 28.9231 29.5285 28.8611C29.5904 28.7992 29.6639 28.7501 29.7448 28.7166C29.8258 28.6831 29.9125 28.6659 30 28.666H34C34.0876 28.6659 34.1743 28.6831 34.2552 28.7166C34.3361 28.7501 34.4097 28.7992 34.4716 28.8611C34.5335 28.9231 34.5826 28.9966 34.6161 29.0775C34.6496 29.1584 34.6668 29.2451 34.6667 29.3327V29.9994H45.3334C46.804 29.9994 47.9999 28.8034 47.9999 27.3327V23.3327C47.9999 21.862 46.804 20.6661 45.3333 20.6661ZM36 20.6661H28V19.3327H36V20.6661ZM47.6301 30.7187C47.519 30.6636 47.3947 30.6406 47.2712 30.6522C47.1476 30.6638 47.0298 30.7096 46.9309 30.7845C46.4569 31.1432 45.9048 31.3327 45.3332 31.3327H34.6667V33.3327C34.6667 33.4202 34.6495 33.507 34.616 33.5879C34.5825 33.6688 34.5334 33.7423 34.4715 33.8042C34.4096 33.8661 34.3361 33.9152 34.2552 33.9487C34.1743 33.9822 34.0875 33.9994 34 33.9994H30C29.9124 33.9994 29.8257 33.9822 29.7448 33.9487C29.6639 33.9152 29.5903 33.8661 29.5284 33.8042C29.4665 33.7423 29.4174 33.6688 29.3839 33.5879C29.3504 33.507 29.3332 33.4202 29.3333 33.3327V31.3327H18.6667C18.0951 31.3327 17.543 31.1432 17.069 30.7845C16.9703 30.709 16.8525 30.6629 16.7288 30.6512C16.6052 30.6396 16.4807 30.663 16.3697 30.7187C16.2587 30.774 16.1652 30.8592 16.0999 30.9646C16.0346 31.0701 16 31.1917 16 31.3158L16 40.666C16 42.1367 17.1959 43.3327 18.6667 43.3327H45.3333C46.804 43.3327 48 42.1368 48 40.666V31.3158C48 31.1917 47.9654 31.0701 47.9001 30.9646C47.8347 30.8591 47.7412 30.774 47.6301 30.7187Z" fill="#EB4B62"/>
</svg>
