<svg width="100" height="100" viewBox="0 0 100 100" fill="none" xmlns="http://www.w3.org/2000/svg">
<path d="M38.4502 3.7334H61.8232C66.5066 3.73344 70.3378 7.73838 70.3379 12.6865V16.0039H97.0703L97.0791 16.0049C97.0829 16.0051 97.0884 16.0049 97.0947 16.0049L97.3691 16.0186C97.9968 16.0772 98.5299 16.3239 98.9307 16.7373C99.3328 17.1523 99.6181 17.7521 99.7188 18.54L99.75 18.8887V86.3125C99.75 91.2605 95.918 95.2656 91.2344 95.2656H9.03809C4.35484 95.2654 0.523438 91.2606 0.523438 86.3125V18.8223C0.523438 17.2785 1.72002 16.0039 3.19531 16.0039H29.9346V12.6865C29.9346 7.73855 33.7666 3.7334 38.4502 3.7334ZM93.918 37.6504L89.2559 52.334V52.335C88.691 54.1203 87.6053 55.6711 86.1553 56.7686C84.7961 57.7973 83.1813 58.379 81.5146 58.4463L81.1807 58.4531H64.4951V61.7705C64.4951 63.3385 63.2875 64.5878 61.8232 64.5879H38.4502C36.9859 64.5879 35.7783 63.3385 35.7783 61.7705V58.4531H19.0928L18.7588 58.4463C17.0919 58.3791 15.4765 57.7974 14.1172 56.7686C12.7577 55.7395 11.7189 54.3117 11.1289 52.666L11.0166 52.335V52.334L6.35547 37.6504L5.86719 37.7266V86.3125C5.86719 88.1302 7.27801 89.6297 9.03809 89.6299H91.2344C92.9946 89.6299 94.4062 88.1303 94.4062 86.3125V37.7266L93.918 37.6504ZM41.1211 58.9531H59.1514V52.3174H41.1211V58.9531ZM7.01074 21.9658L16.084 50.5449C16.2923 51.2039 16.6935 51.7797 17.2334 52.1885C17.7734 52.5973 18.4241 52.8169 19.0928 52.8164V52.8174H35.7783V49.5C35.7783 47.932 36.9859 46.6816 38.4502 46.6816H61.8232C63.2875 46.6817 64.4951 47.932 64.4951 49.5V52.8174H81.1797C81.8483 52.818 82.4991 52.5972 83.0391 52.1885C83.5114 51.8308 83.8787 51.3453 84.1025 50.7881L84.1895 50.5449L93.2627 21.9658L93.3662 21.6396H6.90723L7.01074 21.9658ZM38.4502 9.36914C36.69 9.36914 35.2784 10.8688 35.2783 12.6865V16.0039H64.9951V12.6865C64.9951 10.8688 63.5834 9.36918 61.8232 9.36914H38.4502Z" fill="#9F7834" stroke="white" stroke-width="0.5"/>
</svg>
