<svg width="80" height="80" viewBox="0 0 80 80" fill="none" xmlns="http://www.w3.org/2000/svg">
<path d="M77.6709 10.6674C77.6661 10.6674 77.6611 10.6667 77.6562 10.6667H56.4062V8C56.4062 3.5888 53.2519 0 49.375 0H30.625C26.748 0 23.5938 3.58898 23.5938 8V10.6667H2.34375C1.03875 10.6667 0 11.8834 0 13.3333V72C0 76.4112 3.15438 80 7.03125 80H72.9688C76.8458 80 80 76.411 80 72V13.3792C79.9103 11.6277 78.9636 10.677 77.6709 10.6674ZM28.2812 8C28.2812 6.52978 29.3328 5.33333 30.625 5.33333H49.375C50.6672 5.33333 51.7188 6.52978 51.7188 8V10.6667H28.2812V8ZM74.4044 16L67.1258 40.843C66.9708 41.3743 66.6727 41.8364 66.2736 42.1638C65.8746 42.4912 65.3951 42.6671 64.9031 42.6667H51.7188V40C51.7188 38.5271 50.6695 37.3333 49.375 37.3333H30.625C29.3305 37.3333 28.2812 38.5271 28.2812 40V42.6667H15.097C14.6051 42.6672 14.1255 42.4912 13.7264 42.1638C13.3274 41.8364 13.0292 41.3743 12.8742 40.843L5.59578 16H74.4044ZM47.0312 42.6667V48H32.9688V42.6667H47.0312ZM75.3125 72C75.3125 73.4702 74.2609 74.6667 72.9688 74.6667H7.03125C5.73906 74.6667 4.6875 73.4702 4.6875 72V29.766L8.42719 42.5298C8.89247 44.1235 9.78735 45.5099 10.9847 46.4919C12.182 47.4739 13.6209 48.0016 15.0969 48H28.2812V50.6667C28.2812 52.1396 29.3305 53.3333 30.625 53.3333H49.375C50.6695 53.3333 51.7188 52.1396 51.7188 50.6667V48H64.903C66.379 48.0016 67.8179 47.4739 69.0153 46.4919C70.2126 45.5099 71.1075 44.1235 71.5728 42.5298L75.3125 29.766V72Z" fill="#9F7834"/>
</svg>
