<svg width="100" height="100" viewBox="0 0 100 100" fill="none" xmlns="http://www.w3.org/2000/svg">
<path d="M73.4967 88.1829C69.3426 88.1829 65.959 84.7993 65.959 80.6451C65.959 76.4909 69.3426 73.1072 73.4967 73.1072C77.6508 73.1072 81.0344 76.4909 81.0344 80.6451C81.0344 84.7993 77.6508 88.1829 73.4967 88.1829ZM73.4967 78.1325C72.1131 78.1325 70.9841 79.2615 70.9841 80.6451C70.9841 82.0287 72.1131 83.1577 73.4967 83.1577C74.8803 83.1577 76.0093 82.0287 76.0093 80.6451C76.0093 79.2615 74.8803 78.1325 73.4967 78.1325ZM99.0479 30.51L93.7949 34.892C93.4496 35.1807 93.0138 35.3388 92.5638 35.3388C92.1137 35.3388 91.6779 35.1807 91.3326 34.892L86.0797 30.51C85.8162 30.3019 85.597 30.0432 85.4352 29.749C85.2734 29.4548 85.1722 29.1312 85.1376 28.7973C85.1029 28.4633 85.1355 28.1258 85.2335 27.8047C85.3315 27.4836 85.4928 27.1854 85.708 26.9277C85.9232 26.6699 86.1878 26.458 86.4863 26.3042C86.7848 26.1505 87.111 26.0582 87.4458 26.0327C87.7805 26.0071 88.117 26.049 88.4353 26.1557C88.7537 26.2624 89.0474 26.4318 89.2991 26.654L92.5621 29.3776L95.8251 26.654C96.0768 26.4318 96.3705 26.2624 96.6889 26.1557C97.0072 26.049 97.3437 26.0071 97.6784 26.0327C98.0132 26.0582 98.3394 26.1505 98.6379 26.3042C98.9364 26.458 99.201 26.6699 99.4162 26.9277C99.6314 27.1854 99.7927 27.4836 99.8907 27.8047C99.9887 28.1258 100.021 28.4633 99.9866 28.7973C99.952 29.1312 99.8508 29.4548 99.689 29.749C99.5272 30.0432 99.3114 30.3019 99.0479 30.51Z" fill="#9F7834"/>
<path d="M76.6493 42.869C78.0369 42.869 79.1619 41.744 79.1619 40.3564C79.1619 38.9687 78.0369 37.8438 76.6493 37.8438C75.2616 37.8438 74.1367 38.9687 74.1367 40.3564C74.1367 41.744 75.2616 42.869 76.6493 42.869Z" fill="#9F7834"/>
<path d="M76.6493 52.4813C78.0369 52.4813 79.1619 51.3564 79.1619 49.9687C79.1619 48.581 78.0369 47.4561 76.6493 47.4561C75.2616 47.4561 74.1367 48.581 74.1367 49.9687C74.1367 51.3564 75.2616 52.4813 76.6493 52.4813Z" fill="#9F7834"/>
<path d="M95.0754 31.2713H90.0503C90.0441 25.72 87.8361 20.3978 83.9108 16.4724C79.9855 12.5471 74.6634 10.3391 69.1122 10.3329H64.9246C64.2582 10.3329 63.6191 10.0681 63.1479 9.59692C62.6767 9.12571 62.412 8.48662 62.412 7.82023C62.412 7.15385 62.6767 6.51475 63.1479 6.04355C63.6191 5.57234 64.2582 5.30762 64.9246 5.30762H69.1122C83.4272 5.30762 95.0754 16.9561 95.0754 31.2713ZM34.6732 49.6369C24.0501 49.6369 15.4102 40.9968 15.4102 30.3735C15.4102 19.7501 24.0501 11.1101 34.6732 11.1101C45.2964 11.1101 53.9363 19.7501 53.9363 30.3735C53.9363 40.9968 45.2964 49.6369 34.6732 49.6369ZM34.6732 16.1353C26.8206 16.1353 20.4353 22.5207 20.4353 30.3735C20.4353 38.2262 26.8206 44.6116 34.6732 44.6116C42.5258 44.6116 48.9111 38.2262 48.9111 30.3735C48.9111 22.5207 42.5258 16.1353 34.6732 16.1353Z" fill="#9F7834"/>
<path d="M57.3407 21.6195C55.5538 17.0572 52.4375 13.1369 48.3959 10.367C44.3542 7.59706 39.5737 6.10521 34.674 6.08488C29.8528 6.07378 25.138 7.50237 21.1337 10.1876C17.1295 12.8729 14.0181 16.6926 12.1982 21.1572L7.54492 19.2476C9.7436 13.8597 13.5002 9.25064 18.3339 6.01045C23.1675 2.77026 28.8582 1.04642 34.6773 1.05965C46.7008 1.05965 57.6925 8.59415 62.0275 19.8071L57.3407 21.6195Z" fill="#9F7834"/>
<path d="M58.1239 43.8293C55.681 43.8275 53.3388 42.8563 51.6114 41.1289C49.8841 39.4015 48.9129 37.0592 48.9111 34.6164V27.9161C48.9111 22.8339 53.0418 18.7031 58.1239 18.7031C63.206 18.7031 67.3366 22.8339 67.3366 27.9161V34.6164C67.3349 37.0592 66.3637 39.4015 64.6363 41.1289C62.909 42.8563 60.5667 43.8275 58.1239 43.8293ZM58.1239 23.7284C55.8157 23.7284 53.9363 25.6078 53.9363 27.9161V34.6164C53.9363 36.9246 55.8157 38.8041 58.1239 38.8041C60.4321 38.8041 62.3115 36.9246 62.3115 34.6164V27.9161C62.3115 25.6078 60.4321 23.7284 58.1239 23.7284ZM11.2225 43.8293C8.7797 43.8275 6.43743 42.8563 4.71008 41.1289C2.98274 39.4015 2.01154 37.0592 2.00977 34.6164V27.9161C2.00977 22.8339 6.14043 18.7031 11.2225 18.7031C16.3046 18.7031 20.4353 22.8339 20.4353 27.9161V34.6164C20.4335 37.0592 19.4623 39.4015 17.735 41.1289C16.0076 42.8563 13.6654 43.8275 11.2225 43.8293ZM11.2225 23.7284C8.91431 23.7284 7.03491 25.6078 7.03491 27.9161V34.6164C7.03491 36.9246 8.91431 38.8041 11.2225 38.8041C13.5307 38.8041 15.4102 36.9246 15.4102 34.6164V27.9161C15.4102 25.6078 13.5307 23.7284 11.2225 23.7284ZM86.0067 99.8874H52.7805C50.0032 99.8874 47.4036 98.6546 45.6448 96.5038C43.886 94.353 43.1992 91.5589 43.752 88.8386L47.7319 69.2871C48.1618 67.2084 49.2938 65.341 50.9378 63.9983C52.5818 62.6556 54.6378 61.9194 56.7604 61.9134H89.9866C92.7639 61.9134 95.3635 63.1463 97.1223 65.2971C98.8811 67.4479 99.5679 70.2419 99.0152 72.9622L95.0352 92.5104C94.606 94.5897 93.4743 96.4579 91.8302 97.8013C90.1861 99.1446 88.1298 99.8813 86.0067 99.8874ZM56.7604 66.9387C54.7771 66.9387 53.0518 68.3491 52.6565 70.2888L48.6766 89.8403C48.5511 90.4488 48.5628 91.0776 48.711 91.681C48.8592 92.2843 49.14 92.847 49.5332 93.3281C49.9263 93.8092 50.4218 94.1966 50.9836 94.4619C51.5453 94.7273 52.1592 94.8641 52.7805 94.8622H86.0067C87.99 94.8622 89.7153 93.4518 90.1106 91.5087L94.0905 71.9605C94.2161 71.3521 94.2043 70.7232 94.0561 70.1199C93.908 69.5165 93.6271 68.9538 93.2339 68.4727C92.8408 67.9916 92.3453 67.6043 91.7835 67.3389C91.2218 67.0735 90.6079 66.9368 89.9866 66.9387H56.7604Z" fill="#9F7834"/>
<path d="M52.7772 99.8891H32.3182C31.6518 99.8891 31.0127 99.6244 30.5415 99.1532C30.0703 98.682 29.8056 98.0429 29.8056 97.3765C29.8056 96.7101 30.0703 96.071 30.5415 95.5998C31.0127 95.1286 31.6518 94.8639 32.3182 94.8639H52.7772V99.8891ZM19.4371 99.8891H12.5627C10.7814 99.8891 9.02048 99.5102 7.39678 98.7777C5.77308 98.0452 4.32371 96.9758 3.14484 95.6404C1.96597 94.305 1.08456 92.7342 0.559082 91.0321C0.0336049 89.3301 -0.12392 87.5357 0.0969585 85.7682L1.6581 73.2956C1.82193 71.9831 2.26673 70.7214 2.9622 69.5963C3.65768 68.4713 4.58748 67.5094 5.68827 66.7762L21.4572 56.2634C25.3699 53.6547 29.9673 52.2627 34.67 52.2627C39.3726 52.2627 43.97 53.6547 47.8827 56.2634L49.1491 57.1076C49.4276 57.2889 49.6673 57.5236 49.8545 57.7981C50.0416 58.0727 50.1725 58.3817 50.2394 58.7071C50.3064 59.0326 50.3081 59.3681 50.2445 59.6943C50.181 60.0204 50.0533 60.3307 49.869 60.6072C49.6847 60.8837 49.4474 61.1208 49.1708 61.305C48.8942 61.4891 48.5838 61.6166 48.2576 61.6799C47.9314 61.7433 47.5959 61.7413 47.2705 61.6742C46.9451 61.607 46.6362 61.476 46.3618 61.2886L45.0955 60.4444C42.0076 58.3857 38.3795 57.2871 34.6683 57.2871C30.9571 57.2871 27.329 58.3857 24.2411 60.4444L8.46885 70.9572C7.96906 71.2896 7.5469 71.726 7.23122 72.2365C6.91554 72.747 6.71377 73.3197 6.6397 73.9153L5.07855 86.388C4.81054 88.5321 5.47721 90.6896 6.9077 92.3144C7.61579 93.115 8.48569 93.7562 9.45992 94.1956C10.4342 94.6351 11.4905 94.8629 12.5593 94.8639H19.4337C19.7985 94.8677 20.1583 94.7798 20.4803 94.6083C20.8022 94.4368 21.0759 94.1871 21.2763 93.8823C21.4815 93.581 21.6085 93.2334 21.6459 92.8708C21.6833 92.5082 21.63 92.142 21.4907 91.8052L16.2377 78.8937C16.0964 78.5854 16.0189 78.2517 16.0099 77.9127C16.001 77.5737 16.0607 77.2364 16.1856 76.9211C16.3105 76.6057 16.4979 76.319 16.7366 76.0781C16.9752 75.8371 17.2602 75.647 17.5743 75.5191C17.8884 75.3913 18.2252 75.3283 18.5642 75.3341C18.9033 75.3398 19.2377 75.4142 19.5473 75.5526C19.8569 75.6911 20.1352 75.8907 20.3656 76.1396C20.596 76.3885 20.7735 76.6815 20.8877 77.0008L26.1406 89.9157C26.5896 91.0154 26.7606 92.2088 26.6385 93.3903C26.5164 94.5719 26.1049 95.7051 25.4404 96.6897C24.7785 97.6756 23.8838 98.4832 22.8356 99.0412C21.7874 99.5992 20.6179 99.8904 19.4304 99.8891H19.4371Z" fill="#9F7834"/>
<path d="M34.6778 71.7686C32.7933 71.7796 30.9396 71.2905 29.3058 70.3512C27.672 69.4118 26.3166 68.0559 25.3779 66.4218L20.6543 58.3043L24.9994 55.7783L29.723 63.8957C30.7615 65.678 32.6108 66.7434 34.6778 66.7434C36.7448 66.7434 38.5941 65.6814 39.6326 63.8957L44.3529 55.7783L48.698 58.3043L43.9777 66.4218C43.0395 68.0557 41.6847 69.4114 40.0515 70.3508C38.4183 71.2901 36.5618 71.7794 34.6778 71.7686Z" fill="#9F7834"/>
</svg>
