<svg width="60" height="60" viewBox="0 0 60 60" fill="none" xmlns="http://www.w3.org/2000/svg">
<rect x="0.5" y="0.5" width="59" height="59" rx="9.5" fill="#F2F2F2" stroke="#E6E6E6"/>
<path d="M39.2831 44.8571H20.9974V46H39.2831V44.8571ZM30.1403 14C28.4738 14.002 26.8762 14.6648 25.6978 15.8432C24.5194 17.0216 23.8565 18.6192 23.8546 20.2857V21.9429C23.9437 21.9015 24.036 21.8673 24.1306 21.8406C24.2319 21.3013 24.5064 20.8098 24.9122 20.4405C25.3181 20.0712 25.8333 19.8444 26.3797 19.7943C27.5134 19.6488 28.5911 19.216 29.5106 18.5371C29.696 18.4097 29.9156 18.3415 30.1406 18.3415C30.3655 18.3415 30.5852 18.4097 30.7706 18.5371C31.6992 19.2108 32.7808 19.6428 33.918 19.7943C34.4598 19.8505 34.9691 20.0797 35.3705 20.4479C35.7719 20.8162 36.044 21.3039 36.1466 21.8389C36.2417 21.8658 36.3346 21.9002 36.4243 21.9417V20.2857C36.4223 18.6195 35.7597 17.0221 34.5817 15.8438C33.4037 14.6655 31.8065 14.0024 30.1403 14ZM41.1066 37.4314L39.4494 43.7309C39.7201 43.7707 39.9674 43.9062 40.1466 44.1129C40.3258 44.3195 40.425 44.5836 40.426 44.8571V46H41.5226C41.8008 45.9998 42.0749 45.9337 42.3226 45.807C42.5702 45.6803 42.7843 45.4967 42.9472 45.2712C43.1101 45.0457 43.2172 44.7848 43.2597 44.5099C43.3022 44.2349 43.2789 43.9539 43.1917 43.6897L41.1066 37.4314ZM32.9403 31.7143C32.8521 32.1301 32.6715 32.5207 32.4117 32.8571H37.4974C36.2444 32.11 34.8129 31.7152 33.354 31.7143H32.9403ZM40.0683 34H20.2123C20.1228 34 20.0344 34.0204 19.9541 34.0599C19.8737 34.0994 19.8035 34.1568 19.7488 34.2276C19.6941 34.2985 19.6563 34.381 19.6385 34.4687C19.6207 34.5565 19.6233 34.6471 19.646 34.7337L22.0094 43.7143H38.2711L40.6346 34.7337C40.6573 34.6471 40.6599 34.5565 40.6421 34.4687C40.6242 34.381 40.5865 34.2985 40.5318 34.2276C40.4771 34.1568 40.4069 34.0994 40.3265 34.0599C40.2462 34.0204 40.1578 34 40.0683 34ZM30.1403 42C28.5649 42 27.2832 40.9749 27.2832 39.7143C27.2832 38.4537 28.5649 37.4286 30.1403 37.4286C31.7157 37.4286 32.9974 38.4537 32.9974 39.7143C32.9974 40.9749 31.7157 42 30.1403 42ZM22.7854 32.8571H27.8712C27.6114 32.5207 27.4307 32.1301 27.3426 31.7143H26.9289C25.47 31.7152 24.0385 32.11 22.7854 32.8571ZM19.174 37.4314L17.0889 43.6891C17.0015 43.9533 16.9781 44.2345 17.0206 44.5095C17.063 44.7845 17.1701 45.0455 17.333 45.271C17.496 45.4966 17.7101 45.6803 17.9578 45.807C18.2055 45.9337 18.4798 45.9999 18.758 46H19.8546V44.8571C19.8557 44.5834 19.955 44.3192 20.1344 44.1125C20.3138 43.9058 20.5615 43.7704 20.8323 43.7309L19.174 37.4314ZM28.426 30.7269V31.1429C28.426 31.5975 28.6066 32.0335 28.9281 32.355C29.2496 32.6765 29.6856 32.8571 30.1403 32.8571C30.5949 32.8571 31.031 32.6765 31.3525 32.355C31.674 32.0335 31.8546 31.5975 31.8546 31.1429V30.7269C31.314 30.971 30.7326 31.1121 30.1403 31.1429C29.548 31.1121 28.9666 30.971 28.426 30.7269Z" fill="#0E3F5C"/>
<path d="M30.1401 40.857C31.0868 40.857 31.8544 40.3453 31.8544 39.7141C31.8544 39.083 31.0868 38.5713 30.1401 38.5713C29.1933 38.5713 28.4258 39.083 28.4258 39.7141C28.4258 40.3453 29.1933 40.857 30.1401 40.857Z" fill="#0E3F5C"/>
<path d="M34.5168 27.3302C34.8255 26.6088 35.0076 25.8397 35.0551 25.0565C35.0625 24.91 35.126 24.7721 35.2324 24.6711C35.3388 24.5702 35.4799 24.514 35.6265 24.5142C35.8387 24.5142 36.0421 24.4299 36.1922 24.2799C36.3422 24.1298 36.4265 23.9264 36.4265 23.7142C36.4265 23.502 36.3422 23.2985 36.1922 23.1485C36.0421 22.9985 35.8387 22.9142 35.6265 22.9142C35.4749 22.9142 35.3296 22.854 35.2224 22.7468C35.1153 22.6397 35.0551 22.4943 35.0551 22.3428C35.0597 21.9969 34.9358 21.6616 34.7074 21.4019C34.4789 21.1422 34.1621 20.9765 33.8185 20.937C32.4828 20.7717 31.2109 20.2706 30.1213 19.4805C29.054 20.2705 27.8008 20.7716 26.4831 20.9353C26.1367 20.9733 25.8167 21.1381 25.5845 21.3979C25.3524 21.6578 25.2247 21.9943 25.2259 22.3428C25.2259 22.4943 25.1657 22.6397 25.0586 22.7468C24.9514 22.854 24.806 22.9142 24.6545 22.9142C24.4423 22.9142 24.2388 22.9985 24.0888 23.1485C23.9388 23.2985 23.8545 23.502 23.8545 23.7142C23.8545 23.9264 23.9388 24.1298 24.0888 24.2799C24.2388 24.4299 24.4423 24.5142 24.6545 24.5142C24.8011 24.514 24.9422 24.5702 25.0486 24.6711C25.155 24.7721 25.2184 24.91 25.2259 25.0565C25.2734 25.8397 25.4556 26.6089 25.7648 27.3302C26.3202 28.4279 28.8973 29.9999 30.1402 29.9999C31.3831 29.9999 33.9602 28.4279 34.5168 27.3302Z" fill="#0E3F5C"/>
</svg>
