<svg width="60" height="60" viewBox="0 0 60 60" fill="none" xmlns="http://www.w3.org/2000/svg">
<rect x="0.5" y="0.5" width="59" height="59" rx="9.5" fill="#F2F2F2" stroke="#E6E6E6"/>
<path d="M24.0741 30.9882L18.5649 32.6682C18.3009 32.75 18.0849 32.942 17.9721 33.1952L14.0861 41.8952C13.7491 42.649 14.4571 43.4492 15.2469 43.207L23.094 40.7401C23.2658 40.6873 23.4194 40.5875 23.5375 40.4519C23.6556 40.3164 23.7334 40.1505 23.7621 39.973L25.308 32.059C25.422 31.3551 24.755 30.776 24.0741 30.9882ZM33.3261 36.1321L31.3661 38.7402C31.3004 38.8158 31.2189 38.8761 31.1274 38.9169C31.0359 38.9577 30.9366 38.978 30.8364 38.9763C30.7362 38.9746 30.6376 38.9509 30.5476 38.907C30.4575 38.8631 30.3782 38.8 30.3151 38.7222L27.0391 34.28C26.669 33.823 25.9341 34.0112 25.8309 34.5901L24.8469 40.117C24.8154 40.293 24.8539 40.4744 24.9542 40.6224C25.0546 40.7704 25.2089 40.8732 25.3841 40.909L34.5391 42.775C35.0049 42.8701 35.424 42.4721 35.3529 42.001L34.5211 36.4791C34.433 35.9012 33.7089 35.6912 33.3261 36.1321ZM45.7569 38.696L41.1561 31.351C40.9876 31.0822 40.7425 30.8701 40.4523 30.7419C40.1621 30.6137 39.8401 30.5755 39.528 30.632L37.3149 31.1012C37.1065 31.1391 36.9078 31.2182 36.7305 31.3339C36.5531 31.4497 36.4006 31.5997 36.282 31.7751L35.424 33.0471C35.1997 33.3801 35.11 33.7856 35.1729 34.1821L36.294 41.2532C36.436 42.152 37.3041 42.7481 38.194 42.5561L44.7451 41.09C45.821 40.8591 46.3411 39.6291 45.7569 38.696ZM24.5741 28.5762L24.6211 28.6472L26.7281 31.7742L29.166 35.3821L30.84 37.861L32.5149 35.3811L33.972 33.2252L34.9749 31.7391C34.9761 31.7382 34.9761 31.7372 34.9771 31.736L37.108 28.574H37.1071C37.9109 27.3601 38.3387 25.936 38.3371 24.4801C38.3371 20.3492 34.9809 17 30.84 17C26.7009 17 23.3441 20.3492 23.3441 24.4801C23.3427 25.9369 23.7712 27.3618 24.576 28.5762H24.5741ZM30.8671 19.6201C33.2289 19.6201 35.1511 21.541 35.1511 23.9031C35.1511 26.2652 33.2289 28.1871 30.8671 28.1871C28.505 28.1871 26.5831 26.2652 26.5831 23.9031C26.5831 21.541 28.505 19.6201 30.8671 19.6201Z" fill="#0E3F5C"/>
</svg>
