<svg width="60" height="60" viewBox="0 0 60 60" fill="none" xmlns="http://www.w3.org/2000/svg">
<rect x="0.5" y="0.5" width="59" height="59" rx="9.5" fill="#F2F2F2" stroke="#E9E9E9"/>
<path d="M45.9997 35.6563C45.9997 31.6853 43.7216 28.1414 40.3097 26.4175C40.2038 34.0313 34.0308 40.2042 26.417 40.3101C28.1409 43.7219 31.6849 46.0001 35.6559 46.0001C37.5178 46.0001 39.3283 45.5042 40.919 44.5621L45.9545 45.9549L44.5617 40.9195C45.5039 39.3287 45.9997 37.5181 45.9997 35.6563Z" fill="#0E3F5C"/>
<path d="M38.4378 26.2188C38.4378 19.4813 32.9565 14 26.2189 14C19.4813 14 14 19.4813 14 26.2188C14 28.4146 14.5845 30.5526 15.6944 32.4295L14.0449 38.3924L20.0081 36.7433C21.8851 37.8531 24.0231 38.4376 26.2189 38.4376C32.9565 38.4376 38.4378 32.9563 38.4378 26.2188ZM24.3439 23.375H22.4689C22.4689 21.3072 24.151 19.625 26.2189 19.625C28.2868 19.625 29.9689 21.3072 29.9689 23.375C29.9689 24.4246 29.5246 25.4334 28.7494 26.1424L27.1564 27.6004V29.0626H25.2814V26.7748L27.4835 24.7591C27.8771 24.399 28.0939 23.9076 28.0939 23.375C28.0939 22.3411 27.2529 21.5 26.2189 21.5C25.1849 21.5 24.3439 22.3411 24.3439 23.375ZM25.2814 30.9376H27.1564V32.8126H25.2814V30.9376Z" fill="#0E3F5C"/>
</svg>
