<svg width="60" height="60" viewBox="0 0 60 60" fill="none" xmlns="http://www.w3.org/2000/svg">
<rect x="0.5" y="0.5" width="59" height="59" rx="9.5" fill="#F2F2F2" stroke="#E6E6E6"/>
<path d="M14.6667 46H36.6733C35.8436 45.3803 35.1698 44.5755 34.7057 43.6496C34.2416 42.7237 34 41.7023 34 40.6667C34 36.9933 36.9933 34 40.6667 34V21.88C40.6067 21.9067 40.5467 21.92 40.48 21.94C40.3267 21.98 40.1667 22 40 22H34.6667C33.5667 22 32.6667 21.1 32.6667 20V14.6667C32.6676 14.4397 32.7059 14.2145 32.78 14H14.6667C14.3 14 14 14.3 14 14.6667V45.3333C14 45.7 14.3 46 14.6667 46ZM30.4267 43.3333H25.0933C24.7267 43.3333 24.4267 43.0333 24.4267 42.6667C24.4267 42.3 24.7267 42 25.0933 42H30.4267C30.7933 42 31.0933 42.3 31.0933 42.6667C31.0933 43.0333 30.7933 43.3333 30.4267 43.3333ZM31.0933 40H18.6667C18.3 40 18 39.7 18 39.3333C18 38.9667 18.3 38.6667 18.6667 38.6667H31.0933C31.46 38.6667 31.76 38.9667 31.76 39.3333C31.76 39.7 31.46 40 31.0933 40ZM31.0933 36.6667H18.6667C18.3 36.6667 18 36.3667 18 36C18 35.6333 18.3 35.3333 18.6667 35.3333H31.0933C31.46 35.3333 31.76 35.6333 31.76 36C31.76 36.3667 31.46 36.6667 31.0933 36.6667ZM32 33.3333H18.6667C18.3 33.3333 18 33.0333 18 32.6667C18 32.3 18.3 32 18.6667 32H32C32.3667 32 32.6667 32.3 32.6667 32.6667C32.6667 33.0333 32.3667 33.3333 32 33.3333ZM30.6667 24H36C36.3667 24 36.6667 24.3 36.6667 24.6667C36.6667 25.0333 36.3667 25.3333 36 25.3333H30.6667C30.3 25.3333 30 25.0333 30 24.6667C30 24.3 30.3 24 30.6667 24ZM22.6667 16.6667C24.5067 16.6667 26 18.16 26 20C26 21.84 24.5067 23.3333 22.6667 23.3333C20.8267 23.3333 19.3333 21.84 19.3333 20C19.3333 18.16 20.8267 16.6667 22.6667 16.6667ZM17.3333 27.3333C17.3333 25.4933 18.8267 24 20.6667 24H24.6667C26.5067 24 28 25.4933 28 27.3333V28.6667C28 29.0333 27.7 29.3333 27.3333 29.3333H18C17.6333 29.3333 17.3333 29.0333 17.3333 28.6667V27.3333Z" fill="#0E3F5C"/>
<path d="M34.6667 20.667H40C40.06 20.667 40.1133 20.6603 40.1667 20.6403C40.2 20.6403 40.2267 20.627 40.26 20.6136C40.3333 20.5803 40.4067 20.5336 40.4733 20.4736C40.5333 20.4136 40.58 20.3403 40.6133 20.2603C40.6267 20.227 40.64 20.2003 40.64 20.167C40.6733 20.0603 40.6733 19.9403 40.64 19.8336C40.64 19.8003 40.6267 19.7736 40.6133 19.7403C40.581 19.6607 40.5335 19.5883 40.4733 19.527L35.14 14.1936C35.0787 14.1335 35.0062 14.0859 34.9267 14.0536C34.8933 14.0403 34.8667 14.027 34.8333 14.027C34.7247 13.9936 34.6086 13.9936 34.5 14.027C34.4667 14.027 34.44 14.0403 34.4067 14.0536C34.3267 14.087 34.2533 14.1336 34.1933 14.1936C34.1333 14.2536 34.0867 14.327 34.0533 14.407C34.04 14.4403 34.0267 14.467 34.0267 14.5003C34.0067 14.5536 34 14.6136 34 14.667V20.0003C34 20.367 34.3 20.667 34.6667 20.667ZM35.3333 40.667C35.3333 43.607 37.7267 46.0003 40.6667 46.0003C43.6067 46.0003 46 43.607 46 40.667C46 37.727 43.6067 35.3336 40.6667 35.3336C37.7267 35.3336 35.3333 37.727 35.3333 40.667ZM42.9333 38.9203C43.1933 39.1803 43.1933 39.6003 42.9333 39.8603L40.38 42.4136C40.3194 42.4758 40.2468 42.525 40.1665 42.5583C40.0863 42.5915 40.0002 42.6081 39.9133 42.607C39.74 42.607 39.5667 42.547 39.44 42.4136L38.4 41.3736C38.3383 41.3119 38.2893 41.2386 38.2559 41.158C38.2225 41.0773 38.2053 40.9909 38.2053 40.9036C38.2053 40.8163 38.2225 40.7299 38.2559 40.6493C38.2893 40.5686 38.3383 40.4953 38.4 40.4336C38.4617 40.3719 38.535 40.3229 38.6156 40.2895C38.6963 40.2561 38.7827 40.2389 38.87 40.2389C38.9573 40.2389 39.0437 40.2561 39.1244 40.2895C39.205 40.3229 39.2783 40.3719 39.34 40.4336L39.9133 41.0003L41.9933 38.9203C42.055 38.8585 42.1283 38.8095 42.2089 38.776C42.2896 38.7425 42.376 38.7253 42.4633 38.7253C42.5506 38.7253 42.6371 38.7425 42.7177 38.776C42.7984 38.8095 42.8717 38.8585 42.9333 38.9203Z" fill="#0E3F5C"/>
</svg>
